%TF.GenerationSoftware,KiCad,Pcbnew,9.0.8-9.0.8~ubuntu24.04.1*%
%TF.CreationDate,2026-03-22T18:01:05+01:00*%
%TF.ProjectId,Schalter-Karte_HW,53636861-6c74-4657-922d-4b617274655f,V1.0*%
%TF.SameCoordinates,Original*%
%TF.FileFunction,AssemblyDrawing,Top*%
%FSLAX46Y46*%
G04 Gerber Fmt 4.6, Leading zero omitted, Abs format (unit mm)*
G04 Created by KiCad (PCBNEW 9.0.8-9.0.8~ubuntu24.04.1) date 2026-03-22 18:01:05*
%MOMM*%
%LPD*%
G01*
G04 APERTURE LIST*
%ADD10C,0.150000*%
%ADD11C,0.012500*%
%ADD12C,0.030333*%
%ADD13C,0.127000*%
%ADD14C,0.200000*%
G04 APERTURE END LIST*
D10*
X85454819Y-118071428D02*
X85454819Y-118547618D01*
X85454819Y-118547618D02*
X84454819Y-118547618D01*
X85454819Y-117214285D02*
X85454819Y-117785713D01*
X85454819Y-117499999D02*
X84454819Y-117499999D01*
X84454819Y-117499999D02*
X84597676Y-117595237D01*
X84597676Y-117595237D02*
X84692914Y-117690475D01*
X84692914Y-117690475D02*
X84740533Y-117785713D01*
X84454819Y-116595237D02*
X84454819Y-116499999D01*
X84454819Y-116499999D02*
X84502438Y-116404761D01*
X84502438Y-116404761D02*
X84550057Y-116357142D01*
X84550057Y-116357142D02*
X84645295Y-116309523D01*
X84645295Y-116309523D02*
X84835771Y-116261904D01*
X84835771Y-116261904D02*
X85073866Y-116261904D01*
X85073866Y-116261904D02*
X85264342Y-116309523D01*
X85264342Y-116309523D02*
X85359580Y-116357142D01*
X85359580Y-116357142D02*
X85407200Y-116404761D01*
X85407200Y-116404761D02*
X85454819Y-116499999D01*
X85454819Y-116499999D02*
X85454819Y-116595237D01*
X85454819Y-116595237D02*
X85407200Y-116690475D01*
X85407200Y-116690475D02*
X85359580Y-116738094D01*
X85359580Y-116738094D02*
X85264342Y-116785713D01*
X85264342Y-116785713D02*
X85073866Y-116833332D01*
X85073866Y-116833332D02*
X84835771Y-116833332D01*
X84835771Y-116833332D02*
X84645295Y-116785713D01*
X84645295Y-116785713D02*
X84550057Y-116738094D01*
X84550057Y-116738094D02*
X84502438Y-116690475D01*
X84502438Y-116690475D02*
X84454819Y-116595237D01*
X85454819Y-115309523D02*
X85454819Y-115880951D01*
X85454819Y-115595237D02*
X84454819Y-115595237D01*
X84454819Y-115595237D02*
X84597676Y-115690475D01*
X84597676Y-115690475D02*
X84692914Y-115785713D01*
X84692914Y-115785713D02*
X84740533Y-115880951D01*
X84454819Y-114690475D02*
X84454819Y-114595237D01*
X84454819Y-114595237D02*
X84502438Y-114499999D01*
X84502438Y-114499999D02*
X84550057Y-114452380D01*
X84550057Y-114452380D02*
X84645295Y-114404761D01*
X84645295Y-114404761D02*
X84835771Y-114357142D01*
X84835771Y-114357142D02*
X85073866Y-114357142D01*
X85073866Y-114357142D02*
X85264342Y-114404761D01*
X85264342Y-114404761D02*
X85359580Y-114452380D01*
X85359580Y-114452380D02*
X85407200Y-114499999D01*
X85407200Y-114499999D02*
X85454819Y-114595237D01*
X85454819Y-114595237D02*
X85454819Y-114690475D01*
X85454819Y-114690475D02*
X85407200Y-114785713D01*
X85407200Y-114785713D02*
X85359580Y-114833332D01*
X85359580Y-114833332D02*
X85264342Y-114880951D01*
X85264342Y-114880951D02*
X85073866Y-114928570D01*
X85073866Y-114928570D02*
X84835771Y-114928570D01*
X84835771Y-114928570D02*
X84645295Y-114880951D01*
X84645295Y-114880951D02*
X84550057Y-114833332D01*
X84550057Y-114833332D02*
X84502438Y-114785713D01*
X84502438Y-114785713D02*
X84454819Y-114690475D01*
X85454819Y-113404761D02*
X85454819Y-113976189D01*
X85454819Y-113690475D02*
X84454819Y-113690475D01*
X84454819Y-113690475D02*
X84597676Y-113785713D01*
X84597676Y-113785713D02*
X84692914Y-113880951D01*
X84692914Y-113880951D02*
X84740533Y-113976189D01*
X85454819Y-112452380D02*
X85454819Y-113023808D01*
X85454819Y-112738094D02*
X84454819Y-112738094D01*
X84454819Y-112738094D02*
X84597676Y-112833332D01*
X84597676Y-112833332D02*
X84692914Y-112928570D01*
X84692914Y-112928570D02*
X84740533Y-113023808D01*
X85454819Y-112023808D02*
X84454819Y-112023808D01*
X84454819Y-112023808D02*
X85169104Y-111690475D01*
X85169104Y-111690475D02*
X84454819Y-111357142D01*
X84454819Y-111357142D02*
X85454819Y-111357142D01*
X85407200Y-110928570D02*
X85454819Y-110785713D01*
X85454819Y-110785713D02*
X85454819Y-110547618D01*
X85454819Y-110547618D02*
X85407200Y-110452380D01*
X85407200Y-110452380D02*
X85359580Y-110404761D01*
X85359580Y-110404761D02*
X85264342Y-110357142D01*
X85264342Y-110357142D02*
X85169104Y-110357142D01*
X85169104Y-110357142D02*
X85073866Y-110404761D01*
X85073866Y-110404761D02*
X85026247Y-110452380D01*
X85026247Y-110452380D02*
X84978628Y-110547618D01*
X84978628Y-110547618D02*
X84931009Y-110738094D01*
X84931009Y-110738094D02*
X84883390Y-110833332D01*
X84883390Y-110833332D02*
X84835771Y-110880951D01*
X84835771Y-110880951D02*
X84740533Y-110928570D01*
X84740533Y-110928570D02*
X84645295Y-110928570D01*
X84645295Y-110928570D02*
X84550057Y-110880951D01*
X84550057Y-110880951D02*
X84502438Y-110833332D01*
X84502438Y-110833332D02*
X84454819Y-110738094D01*
X84454819Y-110738094D02*
X84454819Y-110499999D01*
X84454819Y-110499999D02*
X84502438Y-110357142D01*
X84454819Y-109738094D02*
X84454819Y-109642856D01*
X84454819Y-109642856D02*
X84502438Y-109547618D01*
X84502438Y-109547618D02*
X84550057Y-109499999D01*
X84550057Y-109499999D02*
X84645295Y-109452380D01*
X84645295Y-109452380D02*
X84835771Y-109404761D01*
X84835771Y-109404761D02*
X85073866Y-109404761D01*
X85073866Y-109404761D02*
X85264342Y-109452380D01*
X85264342Y-109452380D02*
X85359580Y-109499999D01*
X85359580Y-109499999D02*
X85407200Y-109547618D01*
X85407200Y-109547618D02*
X85454819Y-109642856D01*
X85454819Y-109642856D02*
X85454819Y-109738094D01*
X85454819Y-109738094D02*
X85407200Y-109833332D01*
X85407200Y-109833332D02*
X85359580Y-109880951D01*
X85359580Y-109880951D02*
X85264342Y-109928570D01*
X85264342Y-109928570D02*
X85073866Y-109976189D01*
X85073866Y-109976189D02*
X84835771Y-109976189D01*
X84835771Y-109976189D02*
X84645295Y-109928570D01*
X84645295Y-109928570D02*
X84550057Y-109880951D01*
X84550057Y-109880951D02*
X84502438Y-109833332D01*
X84502438Y-109833332D02*
X84454819Y-109738094D01*
X84550057Y-109023808D02*
X84502438Y-108976189D01*
X84502438Y-108976189D02*
X84454819Y-108880951D01*
X84454819Y-108880951D02*
X84454819Y-108642856D01*
X84454819Y-108642856D02*
X84502438Y-108547618D01*
X84502438Y-108547618D02*
X84550057Y-108499999D01*
X84550057Y-108499999D02*
X84645295Y-108452380D01*
X84645295Y-108452380D02*
X84740533Y-108452380D01*
X84740533Y-108452380D02*
X84883390Y-108499999D01*
X84883390Y-108499999D02*
X85454819Y-109071427D01*
X85454819Y-109071427D02*
X85454819Y-108452380D01*
X85550057Y-107357142D02*
X85502438Y-107452380D01*
X85502438Y-107452380D02*
X85407200Y-107547618D01*
X85407200Y-107547618D02*
X85264342Y-107690475D01*
X85264342Y-107690475D02*
X85216723Y-107785713D01*
X85216723Y-107785713D02*
X85216723Y-107880951D01*
X85454819Y-107833332D02*
X85407200Y-107928570D01*
X85407200Y-107928570D02*
X85311961Y-108023808D01*
X85311961Y-108023808D02*
X85121485Y-108071427D01*
X85121485Y-108071427D02*
X84788152Y-108071427D01*
X84788152Y-108071427D02*
X84597676Y-108023808D01*
X84597676Y-108023808D02*
X84502438Y-107928570D01*
X84502438Y-107928570D02*
X84454819Y-107833332D01*
X84454819Y-107833332D02*
X84454819Y-107642856D01*
X84454819Y-107642856D02*
X84502438Y-107547618D01*
X84502438Y-107547618D02*
X84597676Y-107452380D01*
X84597676Y-107452380D02*
X84788152Y-107404761D01*
X84788152Y-107404761D02*
X85121485Y-107404761D01*
X85121485Y-107404761D02*
X85311961Y-107452380D01*
X85311961Y-107452380D02*
X85407200Y-107547618D01*
X85407200Y-107547618D02*
X85454819Y-107642856D01*
X85454819Y-107642856D02*
X85454819Y-107833332D01*
X72666667Y-102407200D02*
X72809524Y-102454819D01*
X72809524Y-102454819D02*
X73047619Y-102454819D01*
X73047619Y-102454819D02*
X73142857Y-102407200D01*
X73142857Y-102407200D02*
X73190476Y-102359580D01*
X73190476Y-102359580D02*
X73238095Y-102264342D01*
X73238095Y-102264342D02*
X73238095Y-102169104D01*
X73238095Y-102169104D02*
X73190476Y-102073866D01*
X73190476Y-102073866D02*
X73142857Y-102026247D01*
X73142857Y-102026247D02*
X73047619Y-101978628D01*
X73047619Y-101978628D02*
X72857143Y-101931009D01*
X72857143Y-101931009D02*
X72761905Y-101883390D01*
X72761905Y-101883390D02*
X72714286Y-101835771D01*
X72714286Y-101835771D02*
X72666667Y-101740533D01*
X72666667Y-101740533D02*
X72666667Y-101645295D01*
X72666667Y-101645295D02*
X72714286Y-101550057D01*
X72714286Y-101550057D02*
X72761905Y-101502438D01*
X72761905Y-101502438D02*
X72857143Y-101454819D01*
X72857143Y-101454819D02*
X73095238Y-101454819D01*
X73095238Y-101454819D02*
X73238095Y-101502438D01*
X73571429Y-101454819D02*
X73809524Y-102454819D01*
X73809524Y-102454819D02*
X74000000Y-101740533D01*
X74000000Y-101740533D02*
X74190476Y-102454819D01*
X74190476Y-102454819D02*
X74428572Y-101454819D01*
X75333333Y-102454819D02*
X74761905Y-102454819D01*
X75047619Y-102454819D02*
X75047619Y-101454819D01*
X75047619Y-101454819D02*
X74952381Y-101597676D01*
X74952381Y-101597676D02*
X74857143Y-101692914D01*
X74857143Y-101692914D02*
X74761905Y-101740533D01*
X77954819Y-94857142D02*
X77954819Y-94238095D01*
X77954819Y-94238095D02*
X78335771Y-94571428D01*
X78335771Y-94571428D02*
X78335771Y-94428571D01*
X78335771Y-94428571D02*
X78383390Y-94333333D01*
X78383390Y-94333333D02*
X78431009Y-94285714D01*
X78431009Y-94285714D02*
X78526247Y-94238095D01*
X78526247Y-94238095D02*
X78764342Y-94238095D01*
X78764342Y-94238095D02*
X78859580Y-94285714D01*
X78859580Y-94285714D02*
X78907200Y-94333333D01*
X78907200Y-94333333D02*
X78954819Y-94428571D01*
X78954819Y-94428571D02*
X78954819Y-94714285D01*
X78954819Y-94714285D02*
X78907200Y-94809523D01*
X78907200Y-94809523D02*
X78859580Y-94857142D01*
X77954819Y-93333333D02*
X77954819Y-93809523D01*
X77954819Y-93809523D02*
X78431009Y-93857142D01*
X78431009Y-93857142D02*
X78383390Y-93809523D01*
X78383390Y-93809523D02*
X78335771Y-93714285D01*
X78335771Y-93714285D02*
X78335771Y-93476190D01*
X78335771Y-93476190D02*
X78383390Y-93380952D01*
X78383390Y-93380952D02*
X78431009Y-93333333D01*
X78431009Y-93333333D02*
X78526247Y-93285714D01*
X78526247Y-93285714D02*
X78764342Y-93285714D01*
X78764342Y-93285714D02*
X78859580Y-93333333D01*
X78859580Y-93333333D02*
X78907200Y-93380952D01*
X78907200Y-93380952D02*
X78954819Y-93476190D01*
X78954819Y-93476190D02*
X78954819Y-93714285D01*
X78954819Y-93714285D02*
X78907200Y-93809523D01*
X78907200Y-93809523D02*
X78859580Y-93857142D01*
X77954819Y-92380952D02*
X77954819Y-92857142D01*
X77954819Y-92857142D02*
X78431009Y-92904761D01*
X78431009Y-92904761D02*
X78383390Y-92857142D01*
X78383390Y-92857142D02*
X78335771Y-92761904D01*
X78335771Y-92761904D02*
X78335771Y-92523809D01*
X78335771Y-92523809D02*
X78383390Y-92428571D01*
X78383390Y-92428571D02*
X78431009Y-92380952D01*
X78431009Y-92380952D02*
X78526247Y-92333333D01*
X78526247Y-92333333D02*
X78764342Y-92333333D01*
X78764342Y-92333333D02*
X78859580Y-92380952D01*
X78859580Y-92380952D02*
X78907200Y-92428571D01*
X78907200Y-92428571D02*
X78954819Y-92523809D01*
X78954819Y-92523809D02*
X78954819Y-92761904D01*
X78954819Y-92761904D02*
X78907200Y-92857142D01*
X78907200Y-92857142D02*
X78859580Y-92904761D01*
X77954819Y-91999999D02*
X77954819Y-91333333D01*
X77954819Y-91333333D02*
X78954819Y-91761904D01*
X78573866Y-90952380D02*
X78573866Y-90190476D01*
X78050057Y-89761904D02*
X78002438Y-89714285D01*
X78002438Y-89714285D02*
X77954819Y-89619047D01*
X77954819Y-89619047D02*
X77954819Y-89380952D01*
X77954819Y-89380952D02*
X78002438Y-89285714D01*
X78002438Y-89285714D02*
X78050057Y-89238095D01*
X78050057Y-89238095D02*
X78145295Y-89190476D01*
X78145295Y-89190476D02*
X78240533Y-89190476D01*
X78240533Y-89190476D02*
X78383390Y-89238095D01*
X78383390Y-89238095D02*
X78954819Y-89809523D01*
X78954819Y-89809523D02*
X78954819Y-89190476D01*
X72190476Y-69954819D02*
X72190476Y-68954819D01*
X72190476Y-68954819D02*
X72523809Y-69669104D01*
X72523809Y-69669104D02*
X72857142Y-68954819D01*
X72857142Y-68954819D02*
X72857142Y-69954819D01*
X73333333Y-69954819D02*
X73333333Y-68954819D01*
X73904761Y-69954819D02*
X73476190Y-69383390D01*
X73904761Y-68954819D02*
X73333333Y-69526247D01*
X74333333Y-69954819D02*
X74333333Y-68954819D01*
X74333333Y-68954819D02*
X74571428Y-68954819D01*
X74571428Y-68954819D02*
X74714285Y-69002438D01*
X74714285Y-69002438D02*
X74809523Y-69097676D01*
X74809523Y-69097676D02*
X74857142Y-69192914D01*
X74857142Y-69192914D02*
X74904761Y-69383390D01*
X74904761Y-69383390D02*
X74904761Y-69526247D01*
X74904761Y-69526247D02*
X74857142Y-69716723D01*
X74857142Y-69716723D02*
X74809523Y-69811961D01*
X74809523Y-69811961D02*
X74714285Y-69907200D01*
X74714285Y-69907200D02*
X74571428Y-69954819D01*
X74571428Y-69954819D02*
X74333333Y-69954819D01*
X75285714Y-69907200D02*
X75428571Y-69954819D01*
X75428571Y-69954819D02*
X75666666Y-69954819D01*
X75666666Y-69954819D02*
X75761904Y-69907200D01*
X75761904Y-69907200D02*
X75809523Y-69859580D01*
X75809523Y-69859580D02*
X75857142Y-69764342D01*
X75857142Y-69764342D02*
X75857142Y-69669104D01*
X75857142Y-69669104D02*
X75809523Y-69573866D01*
X75809523Y-69573866D02*
X75761904Y-69526247D01*
X75761904Y-69526247D02*
X75666666Y-69478628D01*
X75666666Y-69478628D02*
X75476190Y-69431009D01*
X75476190Y-69431009D02*
X75380952Y-69383390D01*
X75380952Y-69383390D02*
X75333333Y-69335771D01*
X75333333Y-69335771D02*
X75285714Y-69240533D01*
X75285714Y-69240533D02*
X75285714Y-69145295D01*
X75285714Y-69145295D02*
X75333333Y-69050057D01*
X75333333Y-69050057D02*
X75380952Y-69002438D01*
X75380952Y-69002438D02*
X75476190Y-68954819D01*
X75476190Y-68954819D02*
X75714285Y-68954819D01*
X75714285Y-68954819D02*
X75857142Y-69002438D01*
X76047619Y-70050057D02*
X76809523Y-70050057D01*
X76952381Y-68954819D02*
X77571428Y-68954819D01*
X77571428Y-68954819D02*
X77238095Y-69335771D01*
X77238095Y-69335771D02*
X77380952Y-69335771D01*
X77380952Y-69335771D02*
X77476190Y-69383390D01*
X77476190Y-69383390D02*
X77523809Y-69431009D01*
X77523809Y-69431009D02*
X77571428Y-69526247D01*
X77571428Y-69526247D02*
X77571428Y-69764342D01*
X77571428Y-69764342D02*
X77523809Y-69859580D01*
X77523809Y-69859580D02*
X77476190Y-69907200D01*
X77476190Y-69907200D02*
X77380952Y-69954819D01*
X77380952Y-69954819D02*
X77095238Y-69954819D01*
X77095238Y-69954819D02*
X77000000Y-69907200D01*
X77000000Y-69907200D02*
X76952381Y-69859580D01*
X78000000Y-69573866D02*
X78761905Y-69573866D01*
X79190476Y-69050057D02*
X79238095Y-69002438D01*
X79238095Y-69002438D02*
X79333333Y-68954819D01*
X79333333Y-68954819D02*
X79571428Y-68954819D01*
X79571428Y-68954819D02*
X79666666Y-69002438D01*
X79666666Y-69002438D02*
X79714285Y-69050057D01*
X79714285Y-69050057D02*
X79761904Y-69145295D01*
X79761904Y-69145295D02*
X79761904Y-69240533D01*
X79761904Y-69240533D02*
X79714285Y-69383390D01*
X79714285Y-69383390D02*
X79142857Y-69954819D01*
X79142857Y-69954819D02*
X79761904Y-69954819D01*
X79952381Y-70050057D02*
X80714285Y-70050057D01*
X81428571Y-68954819D02*
X80952381Y-68954819D01*
X80952381Y-68954819D02*
X80904762Y-69431009D01*
X80904762Y-69431009D02*
X80952381Y-69383390D01*
X80952381Y-69383390D02*
X81047619Y-69335771D01*
X81047619Y-69335771D02*
X81285714Y-69335771D01*
X81285714Y-69335771D02*
X81380952Y-69383390D01*
X81380952Y-69383390D02*
X81428571Y-69431009D01*
X81428571Y-69431009D02*
X81476190Y-69526247D01*
X81476190Y-69526247D02*
X81476190Y-69764342D01*
X81476190Y-69764342D02*
X81428571Y-69859580D01*
X81428571Y-69859580D02*
X81380952Y-69907200D01*
X81380952Y-69907200D02*
X81285714Y-69954819D01*
X81285714Y-69954819D02*
X81047619Y-69954819D01*
X81047619Y-69954819D02*
X80952381Y-69907200D01*
X80952381Y-69907200D02*
X80904762Y-69859580D01*
X81904762Y-69859580D02*
X81952381Y-69907200D01*
X81952381Y-69907200D02*
X81904762Y-69954819D01*
X81904762Y-69954819D02*
X81857143Y-69907200D01*
X81857143Y-69907200D02*
X81904762Y-69859580D01*
X81904762Y-69859580D02*
X81904762Y-69954819D01*
X82571428Y-68954819D02*
X82666666Y-68954819D01*
X82666666Y-68954819D02*
X82761904Y-69002438D01*
X82761904Y-69002438D02*
X82809523Y-69050057D01*
X82809523Y-69050057D02*
X82857142Y-69145295D01*
X82857142Y-69145295D02*
X82904761Y-69335771D01*
X82904761Y-69335771D02*
X82904761Y-69573866D01*
X82904761Y-69573866D02*
X82857142Y-69764342D01*
X82857142Y-69764342D02*
X82809523Y-69859580D01*
X82809523Y-69859580D02*
X82761904Y-69907200D01*
X82761904Y-69907200D02*
X82666666Y-69954819D01*
X82666666Y-69954819D02*
X82571428Y-69954819D01*
X82571428Y-69954819D02*
X82476190Y-69907200D01*
X82476190Y-69907200D02*
X82428571Y-69859580D01*
X82428571Y-69859580D02*
X82380952Y-69764342D01*
X82380952Y-69764342D02*
X82333333Y-69573866D01*
X82333333Y-69573866D02*
X82333333Y-69335771D01*
X82333333Y-69335771D02*
X82380952Y-69145295D01*
X82380952Y-69145295D02*
X82428571Y-69050057D01*
X82428571Y-69050057D02*
X82476190Y-69002438D01*
X82476190Y-69002438D02*
X82571428Y-68954819D01*
X83476190Y-69383390D02*
X83380952Y-69335771D01*
X83380952Y-69335771D02*
X83333333Y-69288152D01*
X83333333Y-69288152D02*
X83285714Y-69192914D01*
X83285714Y-69192914D02*
X83285714Y-69145295D01*
X83285714Y-69145295D02*
X83333333Y-69050057D01*
X83333333Y-69050057D02*
X83380952Y-69002438D01*
X83380952Y-69002438D02*
X83476190Y-68954819D01*
X83476190Y-68954819D02*
X83666666Y-68954819D01*
X83666666Y-68954819D02*
X83761904Y-69002438D01*
X83761904Y-69002438D02*
X83809523Y-69050057D01*
X83809523Y-69050057D02*
X83857142Y-69145295D01*
X83857142Y-69145295D02*
X83857142Y-69192914D01*
X83857142Y-69192914D02*
X83809523Y-69288152D01*
X83809523Y-69288152D02*
X83761904Y-69335771D01*
X83761904Y-69335771D02*
X83666666Y-69383390D01*
X83666666Y-69383390D02*
X83476190Y-69383390D01*
X83476190Y-69383390D02*
X83380952Y-69431009D01*
X83380952Y-69431009D02*
X83333333Y-69478628D01*
X83333333Y-69478628D02*
X83285714Y-69573866D01*
X83285714Y-69573866D02*
X83285714Y-69764342D01*
X83285714Y-69764342D02*
X83333333Y-69859580D01*
X83333333Y-69859580D02*
X83380952Y-69907200D01*
X83380952Y-69907200D02*
X83476190Y-69954819D01*
X83476190Y-69954819D02*
X83666666Y-69954819D01*
X83666666Y-69954819D02*
X83761904Y-69907200D01*
X83761904Y-69907200D02*
X83809523Y-69859580D01*
X83809523Y-69859580D02*
X83857142Y-69764342D01*
X83857142Y-69764342D02*
X83857142Y-69573866D01*
X83857142Y-69573866D02*
X83809523Y-69478628D01*
X83809523Y-69478628D02*
X83761904Y-69431009D01*
X83761904Y-69431009D02*
X83666666Y-69383390D01*
X71666666Y-70454819D02*
X71666666Y-71169104D01*
X71666666Y-71169104D02*
X71619047Y-71311961D01*
X71619047Y-71311961D02*
X71523809Y-71407200D01*
X71523809Y-71407200D02*
X71380952Y-71454819D01*
X71380952Y-71454819D02*
X71285714Y-71454819D01*
X72666666Y-71454819D02*
X72095238Y-71454819D01*
X72380952Y-71454819D02*
X72380952Y-70454819D01*
X72380952Y-70454819D02*
X72285714Y-70597676D01*
X72285714Y-70597676D02*
X72190476Y-70692914D01*
X72190476Y-70692914D02*
X72095238Y-70740533D01*
D11*
X85083342Y-101351407D02*
X84983342Y-101351407D01*
X84983342Y-101351407D02*
X84983342Y-101313312D01*
X84983342Y-101313312D02*
X84988104Y-101303788D01*
X84988104Y-101303788D02*
X84992866Y-101299026D01*
X84992866Y-101299026D02*
X85002390Y-101294264D01*
X85002390Y-101294264D02*
X85016676Y-101294264D01*
X85016676Y-101294264D02*
X85026200Y-101299026D01*
X85026200Y-101299026D02*
X85030961Y-101303788D01*
X85030961Y-101303788D02*
X85035723Y-101313312D01*
X85035723Y-101313312D02*
X85035723Y-101351407D01*
X85073819Y-101194264D02*
X85078581Y-101199026D01*
X85078581Y-101199026D02*
X85083342Y-101213312D01*
X85083342Y-101213312D02*
X85083342Y-101222836D01*
X85083342Y-101222836D02*
X85078581Y-101237121D01*
X85078581Y-101237121D02*
X85069057Y-101246645D01*
X85069057Y-101246645D02*
X85059533Y-101251407D01*
X85059533Y-101251407D02*
X85040485Y-101256169D01*
X85040485Y-101256169D02*
X85026200Y-101256169D01*
X85026200Y-101256169D02*
X85007152Y-101251407D01*
X85007152Y-101251407D02*
X84997628Y-101246645D01*
X84997628Y-101246645D02*
X84988104Y-101237121D01*
X84988104Y-101237121D02*
X84983342Y-101222836D01*
X84983342Y-101222836D02*
X84983342Y-101213312D01*
X84983342Y-101213312D02*
X84988104Y-101199026D01*
X84988104Y-101199026D02*
X84992866Y-101194264D01*
X85030961Y-101118074D02*
X85035723Y-101103788D01*
X85035723Y-101103788D02*
X85040485Y-101099026D01*
X85040485Y-101099026D02*
X85050009Y-101094264D01*
X85050009Y-101094264D02*
X85064295Y-101094264D01*
X85064295Y-101094264D02*
X85073819Y-101099026D01*
X85073819Y-101099026D02*
X85078581Y-101103788D01*
X85078581Y-101103788D02*
X85083342Y-101113312D01*
X85083342Y-101113312D02*
X85083342Y-101151407D01*
X85083342Y-101151407D02*
X84983342Y-101151407D01*
X84983342Y-101151407D02*
X84983342Y-101118074D01*
X84983342Y-101118074D02*
X84988104Y-101108550D01*
X84988104Y-101108550D02*
X84992866Y-101103788D01*
X84992866Y-101103788D02*
X85002390Y-101099026D01*
X85002390Y-101099026D02*
X85011914Y-101099026D01*
X85011914Y-101099026D02*
X85021438Y-101103788D01*
X85021438Y-101103788D02*
X85026200Y-101108550D01*
X85026200Y-101108550D02*
X85030961Y-101118074D01*
X85030961Y-101118074D02*
X85030961Y-101151407D01*
X85083342Y-100999026D02*
X85083342Y-101056169D01*
X85083342Y-101027597D02*
X84983342Y-101027597D01*
X84983342Y-101027597D02*
X84997628Y-101037121D01*
X84997628Y-101037121D02*
X85007152Y-101046645D01*
X85007152Y-101046645D02*
X85011914Y-101056169D01*
D10*
X72286972Y-134454819D02*
X72286972Y-133454819D01*
X72286972Y-133454819D02*
X72620305Y-134169104D01*
X72620305Y-134169104D02*
X72953638Y-133454819D01*
X72953638Y-133454819D02*
X72953638Y-134454819D01*
X73429829Y-134454819D02*
X73429829Y-133454819D01*
X74001257Y-134454819D02*
X73572686Y-133883390D01*
X74001257Y-133454819D02*
X73429829Y-134026247D01*
X74429829Y-134454819D02*
X74429829Y-133454819D01*
X74429829Y-133454819D02*
X74667924Y-133454819D01*
X74667924Y-133454819D02*
X74810781Y-133502438D01*
X74810781Y-133502438D02*
X74906019Y-133597676D01*
X74906019Y-133597676D02*
X74953638Y-133692914D01*
X74953638Y-133692914D02*
X75001257Y-133883390D01*
X75001257Y-133883390D02*
X75001257Y-134026247D01*
X75001257Y-134026247D02*
X74953638Y-134216723D01*
X74953638Y-134216723D02*
X74906019Y-134311961D01*
X74906019Y-134311961D02*
X74810781Y-134407200D01*
X74810781Y-134407200D02*
X74667924Y-134454819D01*
X74667924Y-134454819D02*
X74429829Y-134454819D01*
X75382210Y-134407200D02*
X75525067Y-134454819D01*
X75525067Y-134454819D02*
X75763162Y-134454819D01*
X75763162Y-134454819D02*
X75858400Y-134407200D01*
X75858400Y-134407200D02*
X75906019Y-134359580D01*
X75906019Y-134359580D02*
X75953638Y-134264342D01*
X75953638Y-134264342D02*
X75953638Y-134169104D01*
X75953638Y-134169104D02*
X75906019Y-134073866D01*
X75906019Y-134073866D02*
X75858400Y-134026247D01*
X75858400Y-134026247D02*
X75763162Y-133978628D01*
X75763162Y-133978628D02*
X75572686Y-133931009D01*
X75572686Y-133931009D02*
X75477448Y-133883390D01*
X75477448Y-133883390D02*
X75429829Y-133835771D01*
X75429829Y-133835771D02*
X75382210Y-133740533D01*
X75382210Y-133740533D02*
X75382210Y-133645295D01*
X75382210Y-133645295D02*
X75429829Y-133550057D01*
X75429829Y-133550057D02*
X75477448Y-133502438D01*
X75477448Y-133502438D02*
X75572686Y-133454819D01*
X75572686Y-133454819D02*
X75810781Y-133454819D01*
X75810781Y-133454819D02*
X75953638Y-133502438D01*
X76144115Y-134550057D02*
X76906019Y-134550057D01*
X77048877Y-133454819D02*
X77667924Y-133454819D01*
X77667924Y-133454819D02*
X77334591Y-133835771D01*
X77334591Y-133835771D02*
X77477448Y-133835771D01*
X77477448Y-133835771D02*
X77572686Y-133883390D01*
X77572686Y-133883390D02*
X77620305Y-133931009D01*
X77620305Y-133931009D02*
X77667924Y-134026247D01*
X77667924Y-134026247D02*
X77667924Y-134264342D01*
X77667924Y-134264342D02*
X77620305Y-134359580D01*
X77620305Y-134359580D02*
X77572686Y-134407200D01*
X77572686Y-134407200D02*
X77477448Y-134454819D01*
X77477448Y-134454819D02*
X77191734Y-134454819D01*
X77191734Y-134454819D02*
X77096496Y-134407200D01*
X77096496Y-134407200D02*
X77048877Y-134359580D01*
X78096496Y-134073866D02*
X78858401Y-134073866D01*
X79286972Y-133550057D02*
X79334591Y-133502438D01*
X79334591Y-133502438D02*
X79429829Y-133454819D01*
X79429829Y-133454819D02*
X79667924Y-133454819D01*
X79667924Y-133454819D02*
X79763162Y-133502438D01*
X79763162Y-133502438D02*
X79810781Y-133550057D01*
X79810781Y-133550057D02*
X79858400Y-133645295D01*
X79858400Y-133645295D02*
X79858400Y-133740533D01*
X79858400Y-133740533D02*
X79810781Y-133883390D01*
X79810781Y-133883390D02*
X79239353Y-134454819D01*
X79239353Y-134454819D02*
X79858400Y-134454819D01*
X80048877Y-134550057D02*
X80810781Y-134550057D01*
X81525067Y-133454819D02*
X81048877Y-133454819D01*
X81048877Y-133454819D02*
X81001258Y-133931009D01*
X81001258Y-133931009D02*
X81048877Y-133883390D01*
X81048877Y-133883390D02*
X81144115Y-133835771D01*
X81144115Y-133835771D02*
X81382210Y-133835771D01*
X81382210Y-133835771D02*
X81477448Y-133883390D01*
X81477448Y-133883390D02*
X81525067Y-133931009D01*
X81525067Y-133931009D02*
X81572686Y-134026247D01*
X81572686Y-134026247D02*
X81572686Y-134264342D01*
X81572686Y-134264342D02*
X81525067Y-134359580D01*
X81525067Y-134359580D02*
X81477448Y-134407200D01*
X81477448Y-134407200D02*
X81382210Y-134454819D01*
X81382210Y-134454819D02*
X81144115Y-134454819D01*
X81144115Y-134454819D02*
X81048877Y-134407200D01*
X81048877Y-134407200D02*
X81001258Y-134359580D01*
X82001258Y-134359580D02*
X82048877Y-134407200D01*
X82048877Y-134407200D02*
X82001258Y-134454819D01*
X82001258Y-134454819D02*
X81953639Y-134407200D01*
X81953639Y-134407200D02*
X82001258Y-134359580D01*
X82001258Y-134359580D02*
X82001258Y-134454819D01*
X82667924Y-133454819D02*
X82763162Y-133454819D01*
X82763162Y-133454819D02*
X82858400Y-133502438D01*
X82858400Y-133502438D02*
X82906019Y-133550057D01*
X82906019Y-133550057D02*
X82953638Y-133645295D01*
X82953638Y-133645295D02*
X83001257Y-133835771D01*
X83001257Y-133835771D02*
X83001257Y-134073866D01*
X83001257Y-134073866D02*
X82953638Y-134264342D01*
X82953638Y-134264342D02*
X82906019Y-134359580D01*
X82906019Y-134359580D02*
X82858400Y-134407200D01*
X82858400Y-134407200D02*
X82763162Y-134454819D01*
X82763162Y-134454819D02*
X82667924Y-134454819D01*
X82667924Y-134454819D02*
X82572686Y-134407200D01*
X82572686Y-134407200D02*
X82525067Y-134359580D01*
X82525067Y-134359580D02*
X82477448Y-134264342D01*
X82477448Y-134264342D02*
X82429829Y-134073866D01*
X82429829Y-134073866D02*
X82429829Y-133835771D01*
X82429829Y-133835771D02*
X82477448Y-133645295D01*
X82477448Y-133645295D02*
X82525067Y-133550057D01*
X82525067Y-133550057D02*
X82572686Y-133502438D01*
X82572686Y-133502438D02*
X82667924Y-133454819D01*
X83572686Y-133883390D02*
X83477448Y-133835771D01*
X83477448Y-133835771D02*
X83429829Y-133788152D01*
X83429829Y-133788152D02*
X83382210Y-133692914D01*
X83382210Y-133692914D02*
X83382210Y-133645295D01*
X83382210Y-133645295D02*
X83429829Y-133550057D01*
X83429829Y-133550057D02*
X83477448Y-133502438D01*
X83477448Y-133502438D02*
X83572686Y-133454819D01*
X83572686Y-133454819D02*
X83763162Y-133454819D01*
X83763162Y-133454819D02*
X83858400Y-133502438D01*
X83858400Y-133502438D02*
X83906019Y-133550057D01*
X83906019Y-133550057D02*
X83953638Y-133645295D01*
X83953638Y-133645295D02*
X83953638Y-133692914D01*
X83953638Y-133692914D02*
X83906019Y-133788152D01*
X83906019Y-133788152D02*
X83858400Y-133835771D01*
X83858400Y-133835771D02*
X83763162Y-133883390D01*
X83763162Y-133883390D02*
X83572686Y-133883390D01*
X83572686Y-133883390D02*
X83477448Y-133931009D01*
X83477448Y-133931009D02*
X83429829Y-133978628D01*
X83429829Y-133978628D02*
X83382210Y-134073866D01*
X83382210Y-134073866D02*
X83382210Y-134264342D01*
X83382210Y-134264342D02*
X83429829Y-134359580D01*
X83429829Y-134359580D02*
X83477448Y-134407200D01*
X83477448Y-134407200D02*
X83572686Y-134454819D01*
X83572686Y-134454819D02*
X83763162Y-134454819D01*
X83763162Y-134454819D02*
X83858400Y-134407200D01*
X83858400Y-134407200D02*
X83906019Y-134359580D01*
X83906019Y-134359580D02*
X83953638Y-134264342D01*
X83953638Y-134264342D02*
X83953638Y-134073866D01*
X83953638Y-134073866D02*
X83906019Y-133978628D01*
X83906019Y-133978628D02*
X83858400Y-133931009D01*
X83858400Y-133931009D02*
X83763162Y-133883390D01*
X71166666Y-124454819D02*
X71166666Y-125169104D01*
X71166666Y-125169104D02*
X71119047Y-125311961D01*
X71119047Y-125311961D02*
X71023809Y-125407200D01*
X71023809Y-125407200D02*
X70880952Y-125454819D01*
X70880952Y-125454819D02*
X70785714Y-125454819D01*
X71595238Y-124550057D02*
X71642857Y-124502438D01*
X71642857Y-124502438D02*
X71738095Y-124454819D01*
X71738095Y-124454819D02*
X71976190Y-124454819D01*
X71976190Y-124454819D02*
X72071428Y-124502438D01*
X72071428Y-124502438D02*
X72119047Y-124550057D01*
X72119047Y-124550057D02*
X72166666Y-124645295D01*
X72166666Y-124645295D02*
X72166666Y-124740533D01*
X72166666Y-124740533D02*
X72119047Y-124883390D01*
X72119047Y-124883390D02*
X71547619Y-125454819D01*
X71547619Y-125454819D02*
X72166666Y-125454819D01*
D12*
%TO.C,SW1*%
X72687039Y-107355959D02*
X72687039Y-108937956D01*
X72687039Y-108937956D02*
X72739148Y-108937956D01*
X72687039Y-112128325D02*
X72687039Y-113710322D01*
X72687039Y-113710322D02*
X72739148Y-113710322D01*
X72687039Y-116900687D02*
X72687039Y-118482684D01*
X72687039Y-118482684D02*
X72739148Y-118482684D01*
X72739148Y-103163664D02*
X72739148Y-122674975D01*
X72739148Y-107355959D02*
X72687039Y-107355959D01*
X72739148Y-108937956D02*
X73077801Y-109122527D01*
X72739148Y-112128325D02*
X72687039Y-112128325D01*
X72739148Y-113710319D02*
X73077801Y-113894885D01*
X72739148Y-116900687D02*
X72687039Y-116900687D01*
X72739148Y-118482684D02*
X73077801Y-118667250D01*
X73077801Y-107145029D02*
X73077801Y-109122527D01*
X73077801Y-107145029D02*
X73338299Y-107145029D01*
X73077801Y-109122527D02*
X73338299Y-109122527D01*
X73077801Y-111917391D02*
X73077801Y-113710322D01*
X73077801Y-111917391D02*
X73338299Y-111917391D01*
X73077801Y-113710322D02*
X73390408Y-113710322D01*
X73077801Y-113894885D02*
X73338299Y-113894885D01*
X73077801Y-116689749D02*
X73077801Y-118482684D01*
X73077801Y-116689749D02*
X73338299Y-116689749D01*
X73077801Y-118482684D02*
X73390408Y-118482684D01*
X73077801Y-118667250D02*
X73338299Y-118667250D01*
X73338299Y-103691000D02*
X73338299Y-122147646D01*
X73338299Y-107145029D02*
X73338299Y-107355959D01*
X73338299Y-109122527D02*
X73338299Y-108937956D01*
X73338299Y-111917391D02*
X73338299Y-112128325D01*
X73338299Y-113894885D02*
X73338299Y-113710322D01*
X73338299Y-116689749D02*
X73338299Y-116900687D01*
X73338299Y-118667250D02*
X73338299Y-118482684D01*
X73338299Y-122147646D02*
X83810498Y-122147646D01*
X73390408Y-104178782D02*
X73390408Y-121659861D01*
X73390408Y-107355959D02*
X72739148Y-107355959D01*
X73390408Y-107355959D02*
X73338299Y-107355959D01*
X73390408Y-112128325D02*
X72739148Y-112128325D01*
X73390408Y-112128325D02*
X73338299Y-112128325D01*
X73390408Y-116900687D02*
X72739148Y-116900687D01*
X73390408Y-116900687D02*
X73338299Y-116900687D01*
X73781171Y-122055361D02*
X82768491Y-122055361D01*
X76321057Y-103783282D02*
X73781171Y-103783282D01*
X76321057Y-104165598D02*
X79902966Y-104165598D01*
X76321057Y-104178782D02*
X76321057Y-103783282D01*
X76451306Y-108146960D02*
X79902966Y-108146960D01*
X76451306Y-108759985D02*
X76646680Y-108873751D01*
X76451306Y-113281863D02*
X76490384Y-113281863D01*
X76451306Y-117691683D02*
X76451306Y-108146960D01*
X76490384Y-108232653D02*
X76490384Y-108759985D01*
X76490384Y-108759985D02*
X76451306Y-108759985D01*
X76490384Y-113281863D02*
X76490384Y-113809195D01*
X76490384Y-113809195D02*
X80059262Y-113809195D01*
X76646680Y-108384261D02*
X76646680Y-113657587D01*
X76646680Y-108873751D02*
X80059262Y-108873751D01*
X76646680Y-109725176D02*
X76646680Y-110580012D01*
X76646680Y-109725176D02*
X79902966Y-109725176D01*
X76646680Y-110580012D02*
X79902966Y-110580012D01*
X76646680Y-111461951D02*
X76646680Y-111897860D01*
X76646680Y-111461951D02*
X79902966Y-111461951D01*
X76646680Y-111897860D02*
X79902966Y-111897860D01*
X76646680Y-112316672D02*
X76646680Y-113168097D01*
X76646680Y-112316672D02*
X79902966Y-112316672D01*
X76646680Y-113168097D02*
X80059262Y-113168097D01*
X77714734Y-104165598D02*
X77714734Y-104178782D01*
X77714734Y-117283003D02*
X77714734Y-117691683D01*
X78834912Y-104178782D02*
X78834912Y-104165598D01*
X78834912Y-117283003D02*
X77714734Y-117283003D01*
X78834912Y-117691683D02*
X78834912Y-117283003D01*
X79902966Y-104165598D02*
X79902966Y-104178782D01*
X79902966Y-108146960D02*
X79902966Y-113657587D01*
X79902966Y-108384261D02*
X76646680Y-108384261D01*
X79902966Y-110580012D02*
X79902966Y-111461951D01*
X79902966Y-111897860D02*
X79902966Y-112316672D01*
X79902966Y-113657587D02*
X76646680Y-113657587D01*
X80059262Y-108232653D02*
X76490384Y-108232653D01*
X80059262Y-108232653D02*
X80098340Y-108146960D01*
X80059262Y-108873751D02*
X80059262Y-108232653D01*
X80059262Y-113809195D02*
X80059262Y-113168097D01*
X80098340Y-108146960D02*
X80098340Y-117691683D01*
X80098340Y-117691683D02*
X76451306Y-117691683D01*
X80228589Y-103783282D02*
X80228589Y-104178782D01*
X80228589Y-104178782D02*
X76321057Y-104178782D01*
X82768491Y-103783282D02*
X80228589Y-103783282D01*
X83159238Y-108937956D02*
X83211331Y-108937956D01*
X83159238Y-108937956D02*
X83810498Y-108937956D01*
X83159238Y-113710322D02*
X83211331Y-113710322D01*
X83159238Y-118482684D02*
X83471844Y-118482684D01*
X83159238Y-121659861D02*
X83159238Y-104178782D01*
X83211331Y-103691000D02*
X73338299Y-103691000D01*
X83211331Y-103691000D02*
X83211331Y-122147646D01*
X83211331Y-107145029D02*
X83211331Y-107355959D01*
X83211331Y-107355959D02*
X83159238Y-107355959D01*
X83211331Y-109122527D02*
X83211331Y-108937956D01*
X83211331Y-111917391D02*
X83211331Y-112128325D01*
X83211331Y-112128325D02*
X83159238Y-112128325D01*
X83211331Y-113894885D02*
X83211331Y-113710322D01*
X83211331Y-116689749D02*
X83211331Y-116900687D01*
X83211331Y-116900687D02*
X83159238Y-116900687D01*
X83211331Y-118667250D02*
X83211331Y-118482684D01*
X83471844Y-107145029D02*
X83211331Y-107145029D01*
X83471844Y-107145029D02*
X83471844Y-109122527D01*
X83471844Y-109122527D02*
X83211331Y-109122527D01*
X83471844Y-111917391D02*
X83211331Y-111917391D01*
X83471844Y-111917391D02*
X83471844Y-113710322D01*
X83471844Y-113710322D02*
X83862607Y-113710322D01*
X83471844Y-116689749D02*
X83211331Y-116689749D01*
X83471844Y-116689749D02*
X83471844Y-118482684D01*
X83471844Y-118667250D02*
X83211331Y-118667250D01*
X83550000Y-102900000D02*
X72999661Y-102900000D01*
X83550000Y-122938647D02*
X72999661Y-122938647D01*
X83810498Y-103163664D02*
X83810498Y-103141936D01*
X83810498Y-103163664D02*
X83810498Y-122147646D01*
X83810498Y-107355959D02*
X83471844Y-107145029D01*
X83810498Y-108937956D02*
X83862607Y-108937956D01*
X83810498Y-118482684D02*
X83471844Y-118667250D01*
X83810498Y-118482684D02*
X83862607Y-118482684D01*
X83810498Y-122674975D02*
X83810498Y-122147646D01*
X83862607Y-107355959D02*
X83810498Y-107355959D01*
X83862607Y-108937956D02*
X83862607Y-107355959D01*
X83862607Y-112128325D02*
X83810498Y-112128325D01*
X83862607Y-113894885D02*
X83211331Y-113894885D01*
X83862607Y-113894885D02*
X83862607Y-112128325D01*
X83862607Y-116900687D02*
X83810498Y-116900687D01*
X83862607Y-118482684D02*
X83862607Y-116900687D01*
X72739148Y-122674975D02*
X72739188Y-122679637D01*
X72739307Y-122684288D01*
X72739507Y-122688929D01*
X72739785Y-122693559D01*
X72740143Y-122698176D01*
X72740579Y-122702781D01*
X72741095Y-122707372D01*
X72741689Y-122711949D01*
X72742361Y-122716510D01*
X72743112Y-122721055D01*
X72743941Y-122725583D01*
X72744848Y-122730092D01*
X72745832Y-122734583D01*
X72746894Y-122739055D01*
X72748033Y-122743505D01*
X72749248Y-122747933D01*
X72750541Y-122752339D01*
X72751909Y-122756720D01*
X72753353Y-122761077D01*
X72754873Y-122765408D01*
X72756467Y-122769711D01*
X72758137Y-122773986D01*
X72759880Y-122778232D01*
X72761698Y-122782447D01*
X72763588Y-122786630D01*
X72765552Y-122790780D01*
X72767587Y-122794896D01*
X72769694Y-122798977D01*
X72771873Y-122803021D01*
X72774121Y-122807028D01*
X72776439Y-122810995D01*
X72778827Y-122814922D01*
X72781282Y-122818807D01*
X72783805Y-122822649D01*
X72786395Y-122826448D01*
X72789050Y-122830201D01*
X72791771Y-122833907D01*
X72794555Y-122837566D01*
X72797403Y-122841176D01*
X72800313Y-122844735D01*
X72803284Y-122848243D01*
X72806316Y-122851699D01*
X72809406Y-122855100D01*
X72810974Y-122856781D01*
X72812555Y-122858447D01*
X72814151Y-122860099D01*
X72815761Y-122861738D01*
X72817385Y-122863362D01*
X72819023Y-122864971D01*
X72820674Y-122866566D01*
X72822339Y-122868146D01*
X72824018Y-122869711D01*
X72825709Y-122871262D01*
X72827414Y-122872797D01*
X72829132Y-122874317D01*
X72830863Y-122875822D01*
X72832606Y-122877311D01*
X72834362Y-122878784D01*
X72836130Y-122880242D01*
X72837911Y-122881684D01*
X72839703Y-122883110D01*
X72841508Y-122884520D01*
X72843324Y-122885914D01*
X72845152Y-122887291D01*
X72846991Y-122888652D01*
X72848842Y-122889997D01*
X72850704Y-122891325D01*
X72852576Y-122892635D01*
X72854461Y-122893930D01*
X72856354Y-122895207D01*
X72858260Y-122896468D01*
X72860175Y-122897710D01*
X72862101Y-122898937D01*
X72864036Y-122900145D01*
X72865982Y-122901336D01*
X72867936Y-122902510D01*
X72869902Y-122903666D01*
X72871876Y-122904804D01*
X72873860Y-122905925D01*
X72875852Y-122907028D01*
X72877855Y-122908113D01*
X72879865Y-122909180D01*
X72881885Y-122910229D01*
X72883912Y-122911259D01*
X72885949Y-122912272D01*
X72887993Y-122913266D01*
X72890046Y-122914242D01*
X72892106Y-122915200D01*
X72894175Y-122916139D01*
X72896250Y-122917059D01*
X72898335Y-122917962D01*
X72900425Y-122918845D01*
X72902524Y-122919710D01*
X72904628Y-122920555D01*
X72906741Y-122921383D01*
X72908859Y-122922191D01*
X72910986Y-122922980D01*
X72913117Y-122923750D01*
X72915257Y-122924502D01*
X72917401Y-122925234D01*
X72919553Y-122925948D01*
X72921709Y-122926642D01*
X72923873Y-122927317D01*
X72926040Y-122927972D01*
X72928216Y-122928609D01*
X72930394Y-122929226D01*
X72932581Y-122929825D01*
X72934770Y-122930403D01*
X72936966Y-122930962D01*
X72939166Y-122931502D01*
X72941372Y-122932023D01*
X72943581Y-122932523D01*
X72945797Y-122933005D01*
X72948015Y-122933467D01*
X72950240Y-122933909D01*
X72952467Y-122934332D01*
X72954700Y-122934735D01*
X72956936Y-122935119D01*
X72959177Y-122935483D01*
X72961420Y-122935827D01*
X72963669Y-122936151D01*
X72965920Y-122936456D01*
X72968176Y-122936741D01*
X72970433Y-122937006D01*
X72972697Y-122937252D01*
X72974961Y-122937477D01*
X72977231Y-122937683D01*
X72979501Y-122937869D01*
X72981777Y-122938036D01*
X72984053Y-122938182D01*
X72986335Y-122938308D01*
X72988616Y-122938414D01*
X72990903Y-122938501D01*
X72993190Y-122938567D01*
X72995482Y-122938614D01*
X72999661Y-122938647D01*
X72999661Y-102900000D02*
X72995082Y-102900040D01*
X72990514Y-102900159D01*
X72985955Y-102900359D01*
X72981408Y-102900637D01*
X72976872Y-102900995D01*
X72972349Y-102901431D01*
X72967839Y-102901947D01*
X72963342Y-102902541D01*
X72958861Y-102903214D01*
X72954395Y-102903965D01*
X72949945Y-102904795D01*
X72945513Y-102905702D01*
X72941099Y-102906687D01*
X72936703Y-102907750D01*
X72932328Y-102908890D01*
X72927973Y-102910107D01*
X72923640Y-102911401D01*
X72919330Y-102912771D01*
X72915044Y-102914217D01*
X72910783Y-102915740D01*
X72906548Y-102917338D01*
X72902339Y-102919011D01*
X72898159Y-102920759D01*
X72894008Y-102922581D01*
X72889887Y-102924477D01*
X72885798Y-102926447D01*
X72881742Y-102928489D01*
X72877719Y-102930604D01*
X72873732Y-102932791D01*
X72869781Y-102935049D01*
X72865867Y-102937377D01*
X72861992Y-102939776D01*
X72858157Y-102942243D01*
X72854363Y-102944780D01*
X72850612Y-102947384D01*
X72846904Y-102950055D01*
X72843241Y-102952792D01*
X72839624Y-102955595D01*
X72836055Y-102958462D01*
X72832534Y-102961393D01*
X72829062Y-102964386D01*
X72825642Y-102967441D01*
X72822274Y-102970557D01*
X72818960Y-102973732D01*
X72815700Y-102976966D01*
X72812495Y-102980257D01*
X72810914Y-102981924D01*
X72809347Y-102983605D01*
X72807795Y-102985299D01*
X72806258Y-102987007D01*
X72804735Y-102988729D01*
X72803227Y-102990465D01*
X72801734Y-102992213D01*
X72800256Y-102993974D01*
X72798793Y-102995749D01*
X72797346Y-102997536D01*
X72795914Y-102999336D01*
X72794498Y-103001149D01*
X72793098Y-103002973D01*
X72791713Y-103004810D01*
X72790345Y-103006659D01*
X72788992Y-103008520D01*
X72787656Y-103010392D01*
X72786336Y-103012277D01*
X72785033Y-103014172D01*
X72783746Y-103016079D01*
X72782476Y-103017997D01*
X72781222Y-103019926D01*
X72779986Y-103021866D01*
X72778766Y-103023816D01*
X72777563Y-103025777D01*
X72776378Y-103027749D01*
X72775210Y-103029729D01*
X72774058Y-103031721D01*
X72772925Y-103033722D01*
X72771809Y-103035733D01*
X72770711Y-103037753D01*
X72769630Y-103039784D01*
X72768567Y-103041822D01*
X72767522Y-103043871D01*
X72766495Y-103045928D01*
X72765486Y-103047994D01*
X72764495Y-103050068D01*
X72763522Y-103052152D01*
X72762568Y-103054243D01*
X72761631Y-103056343D01*
X72760713Y-103058450D01*
X72759813Y-103060566D01*
X72758933Y-103062688D01*
X72758070Y-103064820D01*
X72757226Y-103066957D01*
X72756400Y-103069103D01*
X72755594Y-103071255D01*
X72754806Y-103073416D01*
X72754037Y-103075581D01*
X72753287Y-103077755D01*
X72752556Y-103079934D01*
X72751843Y-103082121D01*
X72751151Y-103084313D01*
X72750476Y-103086512D01*
X72749821Y-103088716D01*
X72749185Y-103090928D01*
X72748569Y-103093143D01*
X72747971Y-103095366D01*
X72747393Y-103097593D01*
X72746834Y-103099827D01*
X72746295Y-103102064D01*
X72745775Y-103104308D01*
X72745274Y-103106555D01*
X72744793Y-103108809D01*
X72744331Y-103111066D01*
X72743889Y-103113330D01*
X72743466Y-103115596D01*
X72743063Y-103117868D01*
X72742680Y-103120143D01*
X72742315Y-103122424D01*
X72741971Y-103124707D01*
X72741647Y-103126996D01*
X72741342Y-103129286D01*
X72741057Y-103131583D01*
X72740791Y-103133881D01*
X72740546Y-103136185D01*
X72740320Y-103138490D01*
X72740114Y-103140800D01*
X72739928Y-103143112D01*
X72739761Y-103145429D01*
X72739615Y-103147746D01*
X72739488Y-103150069D01*
X72739382Y-103152392D01*
X72739295Y-103154721D01*
X72739228Y-103157049D01*
X72739182Y-103159383D01*
X72739148Y-103163664D01*
X73390408Y-121659861D02*
X73390448Y-121665575D01*
X73390568Y-121671279D01*
X73390767Y-121676973D01*
X73391046Y-121682655D01*
X73391404Y-121688326D01*
X73391841Y-121693985D01*
X73392357Y-121699630D01*
X73392952Y-121705262D01*
X73393626Y-121710880D01*
X73394379Y-121716483D01*
X73395210Y-121722070D01*
X73396119Y-121727642D01*
X73397107Y-121733196D01*
X73398172Y-121738732D01*
X73399315Y-121744250D01*
X73400536Y-121749749D01*
X73401834Y-121755227D01*
X73403209Y-121760685D01*
X73404661Y-121766121D01*
X73406190Y-121771534D01*
X73407795Y-121776925D01*
X73409476Y-121782291D01*
X73411233Y-121787632D01*
X73413066Y-121792947D01*
X73414974Y-121798235D01*
X73416956Y-121803495D01*
X73419014Y-121808727D01*
X73421145Y-121813929D01*
X73423350Y-121819101D01*
X73425629Y-121824241D01*
X73427981Y-121829349D01*
X73430405Y-121834423D01*
X73432902Y-121839463D01*
X73435470Y-121844467D01*
X73438109Y-121849435D01*
X73440819Y-121854366D01*
X73443598Y-121859258D01*
X73446448Y-121864111D01*
X73449366Y-121868923D01*
X73452353Y-121873694D01*
X73455407Y-121878422D01*
X73458528Y-121883107D01*
X73461716Y-121887747D01*
X73464970Y-121892342D01*
X73468288Y-121896890D01*
X73471671Y-121901391D01*
X73475118Y-121905843D01*
X73478627Y-121910245D01*
X73482198Y-121914597D01*
X73485830Y-121918898D01*
X73489523Y-121923146D01*
X73493275Y-121927341D01*
X73497086Y-121931481D01*
X73499013Y-121933531D01*
X73500955Y-121935566D01*
X73502911Y-121937588D01*
X73504880Y-121939595D01*
X73506864Y-121941588D01*
X73508862Y-121943567D01*
X73510874Y-121945531D01*
X73512899Y-121947480D01*
X73514937Y-121949415D01*
X73516990Y-121951335D01*
X73519055Y-121953240D01*
X73521134Y-121955130D01*
X73523225Y-121957005D01*
X73525330Y-121958864D01*
X73527448Y-121960708D01*
X73529578Y-121962537D01*
X73531720Y-121964350D01*
X73533876Y-121966148D01*
X73536043Y-121967929D01*
X73538223Y-121969695D01*
X73540415Y-121971445D01*
X73542619Y-121973179D01*
X73544834Y-121974896D01*
X73547062Y-121976598D01*
X73549301Y-121978283D01*
X73551552Y-121979952D01*
X73553813Y-121981604D01*
X73556087Y-121983240D01*
X73558370Y-121984858D01*
X73560666Y-121986461D01*
X73562971Y-121988046D01*
X73565288Y-121989615D01*
X73567615Y-121991166D01*
X73569953Y-121992700D01*
X73572301Y-121994217D01*
X73574660Y-121995718D01*
X73577027Y-121997200D01*
X73579406Y-121998665D01*
X73581794Y-122000113D01*
X73584192Y-122001544D01*
X73586599Y-122002956D01*
X73589017Y-122004351D01*
X73591442Y-122005728D01*
X73593878Y-122007088D01*
X73596322Y-122008429D01*
X73598776Y-122009753D01*
X73601238Y-122011059D01*
X73603709Y-122012347D01*
X73606188Y-122013616D01*
X73608677Y-122014868D01*
X73611173Y-122016100D01*
X73613678Y-122017316D01*
X73616190Y-122018512D01*
X73618711Y-122019691D01*
X73621239Y-122020850D01*
X73623776Y-122021992D01*
X73626319Y-122023114D01*
X73628872Y-122024219D01*
X73631430Y-122025304D01*
X73633997Y-122026371D01*
X73636569Y-122027419D01*
X73639150Y-122028449D01*
X73641737Y-122029459D01*
X73644332Y-122030451D01*
X73646932Y-122031424D01*
X73649540Y-122032378D01*
X73652153Y-122033313D01*
X73654774Y-122034229D01*
X73657400Y-122035126D01*
X73660033Y-122036004D01*
X73662671Y-122036863D01*
X73665317Y-122037703D01*
X73667966Y-122038523D01*
X73670624Y-122039325D01*
X73673284Y-122040107D01*
X73675953Y-122040870D01*
X73678625Y-122041613D01*
X73681304Y-122042338D01*
X73683986Y-122043043D01*
X73686676Y-122043729D01*
X73689368Y-122044395D01*
X73692068Y-122045042D01*
X73694770Y-122045669D01*
X73697480Y-122046277D01*
X73700191Y-122046865D01*
X73702910Y-122047434D01*
X73705630Y-122047983D01*
X73708358Y-122048513D01*
X73711087Y-122049023D01*
X73713823Y-122049514D01*
X73716560Y-122049985D01*
X73719304Y-122050436D01*
X73722050Y-122050868D01*
X73724801Y-122051280D01*
X73727554Y-122051672D01*
X73730314Y-122052045D01*
X73733074Y-122052398D01*
X73735840Y-122052731D01*
X73738608Y-122053044D01*
X73741381Y-122053338D01*
X73744155Y-122053611D01*
X73746934Y-122053865D01*
X73749715Y-122054099D01*
X73752500Y-122054314D01*
X73755287Y-122054508D01*
X73758078Y-122054683D01*
X73760870Y-122054837D01*
X73763668Y-122054972D01*
X73766465Y-122055086D01*
X73769268Y-122055181D01*
X73772071Y-122055256D01*
X73774878Y-122055311D01*
X73777686Y-122055346D01*
X73780498Y-122055360D01*
X73781171Y-122055361D01*
X73781171Y-103783282D02*
X73775561Y-103783322D01*
X73769961Y-103783442D01*
X73764371Y-103783641D01*
X73758792Y-103783920D01*
X73753223Y-103784278D01*
X73747667Y-103784715D01*
X73742123Y-103785231D01*
X73736592Y-103785827D01*
X73731075Y-103786501D01*
X73725572Y-103787254D01*
X73720083Y-103788085D01*
X73714611Y-103788995D01*
X73709154Y-103789983D01*
X73703715Y-103791049D01*
X73698292Y-103792193D01*
X73692889Y-103793415D01*
X73687504Y-103794714D01*
X73682139Y-103796091D01*
X73676795Y-103797545D01*
X73671472Y-103799075D01*
X73666172Y-103800683D01*
X73660894Y-103802367D01*
X73655640Y-103804127D01*
X73650411Y-103805963D01*
X73645207Y-103807875D01*
X73640030Y-103809863D01*
X73634880Y-103811925D01*
X73629758Y-103814062D01*
X73624666Y-103816274D01*
X73619603Y-103818559D01*
X73614572Y-103820919D01*
X73609572Y-103823351D01*
X73604605Y-103825857D01*
X73599672Y-103828435D01*
X73594774Y-103831085D01*
X73589911Y-103833806D01*
X73585086Y-103836598D01*
X73580298Y-103839461D01*
X73575549Y-103842394D01*
X73570840Y-103845396D01*
X73566171Y-103848467D01*
X73561545Y-103851606D01*
X73556961Y-103854813D01*
X73552421Y-103858087D01*
X73547925Y-103861427D01*
X73543476Y-103864832D01*
X73539073Y-103868303D01*
X73534719Y-103871837D01*
X73530413Y-103875435D01*
X73526157Y-103879096D01*
X73521951Y-103882818D01*
X73517798Y-103886601D01*
X73513697Y-103890444D01*
X73509650Y-103894347D01*
X73505657Y-103898308D01*
X73501720Y-103902327D01*
X73499773Y-103904358D01*
X73497840Y-103906403D01*
X73495921Y-103908461D01*
X73494017Y-103910534D01*
X73492127Y-103912620D01*
X73490252Y-103914720D01*
X73488392Y-103916833D01*
X73486546Y-103918960D01*
X73484716Y-103921099D01*
X73482901Y-103923252D01*
X73481101Y-103925418D01*
X73479316Y-103927597D01*
X73477547Y-103929789D01*
X73475793Y-103931993D01*
X73474055Y-103934210D01*
X73472332Y-103936439D01*
X73470625Y-103938680D01*
X73468934Y-103940934D01*
X73467260Y-103943199D01*
X73465601Y-103945477D01*
X73463959Y-103947766D01*
X73462332Y-103950067D01*
X73460723Y-103952379D01*
X73459129Y-103954703D01*
X73457553Y-103957037D01*
X73455992Y-103959384D01*
X73454449Y-103961740D01*
X73452922Y-103964109D01*
X73451413Y-103966487D01*
X73449920Y-103968876D01*
X73448444Y-103971276D01*
X73446986Y-103973686D01*
X73445545Y-103976106D01*
X73444120Y-103978537D01*
X73442714Y-103980977D01*
X73441324Y-103983428D01*
X73439953Y-103985887D01*
X73438598Y-103988357D01*
X73437262Y-103990836D01*
X73435943Y-103993325D01*
X73434642Y-103995822D01*
X73433358Y-103998329D01*
X73432093Y-104000844D01*
X73430846Y-104003369D01*
X73429617Y-104005902D01*
X73428405Y-104008444D01*
X73427212Y-104010994D01*
X73426037Y-104013553D01*
X73424881Y-104016119D01*
X73423742Y-104018695D01*
X73422623Y-104021277D01*
X73421521Y-104023868D01*
X73420438Y-104026466D01*
X73419373Y-104029073D01*
X73418327Y-104031685D01*
X73417300Y-104034307D01*
X73416291Y-104036934D01*
X73415301Y-104039571D01*
X73414330Y-104042212D01*
X73413378Y-104044862D01*
X73412444Y-104047517D01*
X73411529Y-104050181D01*
X73410634Y-104052849D01*
X73409757Y-104055526D01*
X73408900Y-104058207D01*
X73408061Y-104060896D01*
X73407241Y-104063589D01*
X73406441Y-104066290D01*
X73405659Y-104068996D01*
X73404897Y-104071709D01*
X73404154Y-104074425D01*
X73403430Y-104077149D01*
X73402726Y-104079877D01*
X73402041Y-104082612D01*
X73401375Y-104085350D01*
X73400729Y-104088096D01*
X73400102Y-104090844D01*
X73399494Y-104093600D01*
X73398906Y-104096358D01*
X73398337Y-104099123D01*
X73397788Y-104101891D01*
X73397258Y-104104665D01*
X73396748Y-104107442D01*
X73396258Y-104110225D01*
X73395787Y-104113010D01*
X73395335Y-104115802D01*
X73394904Y-104118595D01*
X73394492Y-104121395D01*
X73394099Y-104124196D01*
X73393727Y-104127004D01*
X73393374Y-104129813D01*
X73393041Y-104132628D01*
X73392727Y-104135444D01*
X73392433Y-104138266D01*
X73392160Y-104141088D01*
X73391906Y-104143917D01*
X73391671Y-104146746D01*
X73391457Y-104149581D01*
X73391262Y-104152417D01*
X73391088Y-104155258D01*
X73390933Y-104158100D01*
X73390798Y-104160946D01*
X73390683Y-104163793D01*
X73390588Y-104166646D01*
X73390514Y-104169498D01*
X73390459Y-104172355D01*
X73390424Y-104175213D01*
X73390409Y-104178075D01*
X73390408Y-104178782D01*
X82768491Y-122055361D02*
X82774100Y-122055321D01*
X82779699Y-122055201D01*
X82785288Y-122055002D01*
X82790866Y-122054723D01*
X82796433Y-122054365D01*
X82801989Y-122053928D01*
X82807532Y-122053412D01*
X82813062Y-122052816D01*
X82818579Y-122052142D01*
X82824082Y-122051389D01*
X82829570Y-122050558D01*
X82835042Y-122049648D01*
X82840498Y-122048660D01*
X82845938Y-122047593D01*
X82851359Y-122046449D01*
X82856763Y-122045227D01*
X82862148Y-122043928D01*
X82867512Y-122042551D01*
X82872857Y-122041097D01*
X82878180Y-122039566D01*
X82883480Y-122037959D01*
X82888758Y-122036274D01*
X82894012Y-122034514D01*
X82899242Y-122032678D01*
X82904446Y-122030765D01*
X82909623Y-122028778D01*
X82914773Y-122026715D01*
X82919895Y-122024578D01*
X82924988Y-122022366D01*
X82930051Y-122020080D01*
X82935083Y-122017720D01*
X82940083Y-122015288D01*
X82945050Y-122012782D01*
X82949984Y-122010204D01*
X82954882Y-122007553D01*
X82959745Y-122004832D01*
X82964571Y-122002039D01*
X82969359Y-121999176D01*
X82974108Y-121996243D01*
X82978818Y-121993240D01*
X82983487Y-121990169D01*
X82988114Y-121987030D01*
X82992698Y-121983823D01*
X82997238Y-121980549D01*
X83001734Y-121977209D01*
X83006183Y-121973803D01*
X83010586Y-121970332D01*
X83014941Y-121966798D01*
X83019247Y-121963200D01*
X83023503Y-121959539D01*
X83027709Y-121955817D01*
X83031862Y-121952034D01*
X83035963Y-121948190D01*
X83040010Y-121944287D01*
X83044003Y-121940326D01*
X83047940Y-121936308D01*
X83049887Y-121934277D01*
X83051820Y-121932232D01*
X83053739Y-121930174D01*
X83055643Y-121928101D01*
X83057533Y-121926015D01*
X83059408Y-121923915D01*
X83061268Y-121921802D01*
X83063113Y-121919675D01*
X83064943Y-121917536D01*
X83066759Y-121915383D01*
X83068558Y-121913217D01*
X83070343Y-121911038D01*
X83072112Y-121908847D01*
X83073866Y-121906643D01*
X83075604Y-121904426D01*
X83077327Y-121902197D01*
X83079033Y-121899956D01*
X83080724Y-121897702D01*
X83082398Y-121895437D01*
X83084057Y-121893160D01*
X83085699Y-121890871D01*
X83087325Y-121888570D01*
X83088935Y-121886258D01*
X83090528Y-121883934D01*
X83092104Y-121881600D01*
X83093665Y-121879254D01*
X83095208Y-121876897D01*
X83096734Y-121874529D01*
X83098244Y-121872151D01*
X83099736Y-121869762D01*
X83101212Y-121867363D01*
X83102670Y-121864952D01*
X83104111Y-121862532D01*
X83105535Y-121860102D01*
X83106942Y-121857662D01*
X83108331Y-121855211D01*
X83109702Y-121852752D01*
X83111057Y-121850282D01*
X83112393Y-121847804D01*
X83113712Y-121845315D01*
X83115012Y-121842819D01*
X83116296Y-121840311D01*
X83117561Y-121837797D01*
X83118808Y-121835272D01*
X83120037Y-121832739D01*
X83121248Y-121830197D01*
X83122441Y-121827648D01*
X83123616Y-121825089D01*
X83124772Y-121822523D01*
X83125911Y-121819947D01*
X83127030Y-121817365D01*
X83128132Y-121814774D01*
X83129214Y-121812177D01*
X83130279Y-121809570D01*
X83131324Y-121806958D01*
X83132352Y-121804336D01*
X83133360Y-121801709D01*
X83134350Y-121799073D01*
X83135321Y-121796432D01*
X83136273Y-121793782D01*
X83137206Y-121791127D01*
X83138121Y-121788463D01*
X83139016Y-121785795D01*
X83139893Y-121783119D01*
X83140750Y-121780438D01*
X83141589Y-121777749D01*
X83142409Y-121775055D01*
X83143209Y-121772354D01*
X83143990Y-121769649D01*
X83144752Y-121766936D01*
X83145495Y-121764220D01*
X83146219Y-121761495D01*
X83146923Y-121758768D01*
X83147608Y-121756033D01*
X83148273Y-121753295D01*
X83148920Y-121750549D01*
X83149547Y-121747801D01*
X83150154Y-121745045D01*
X83150742Y-121742287D01*
X83151311Y-121739521D01*
X83151860Y-121736754D01*
X83152390Y-121733979D01*
X83152899Y-121731203D01*
X83153390Y-121728419D01*
X83153861Y-121725634D01*
X83154312Y-121722842D01*
X83154744Y-121720049D01*
X83155156Y-121717249D01*
X83155548Y-121714447D01*
X83155921Y-121711639D01*
X83156273Y-121708830D01*
X83156607Y-121706015D01*
X83156920Y-121703199D01*
X83157213Y-121700376D01*
X83157487Y-121697553D01*
X83157741Y-121694724D01*
X83157975Y-121691894D01*
X83158190Y-121689059D01*
X83158384Y-121686223D01*
X83158559Y-121683382D01*
X83158713Y-121680540D01*
X83158848Y-121677692D01*
X83158963Y-121674845D01*
X83159058Y-121671992D01*
X83159133Y-121669139D01*
X83159188Y-121666281D01*
X83159222Y-121663423D01*
X83159237Y-121660560D01*
X83159238Y-121659861D01*
X83159238Y-104178782D02*
X83159198Y-104173073D01*
X83159078Y-104167373D01*
X83158879Y-104161684D01*
X83158600Y-104156006D01*
X83158242Y-104150339D01*
X83157805Y-104144684D01*
X83157289Y-104139042D01*
X83156693Y-104133414D01*
X83156019Y-104127799D01*
X83155267Y-104122199D01*
X83154436Y-104116615D01*
X83153526Y-104111046D01*
X83152538Y-104105495D01*
X83151473Y-104099961D01*
X83150329Y-104094445D01*
X83149108Y-104088948D01*
X83147810Y-104083471D01*
X83146435Y-104078015D01*
X83144982Y-104072581D01*
X83143453Y-104067168D01*
X83141847Y-104061779D01*
X83140166Y-104056414D01*
X83138408Y-104051074D01*
X83136575Y-104045760D01*
X83134666Y-104040472D01*
X83132683Y-104035212D01*
X83130625Y-104029980D01*
X83128492Y-104024778D01*
X83126286Y-104019606D01*
X83124006Y-104014466D01*
X83121654Y-104009358D01*
X83119228Y-104004284D01*
X83116731Y-103999243D01*
X83114161Y-103994238D01*
X83111521Y-103989269D01*
X83108810Y-103984338D01*
X83106029Y-103979445D01*
X83103178Y-103974591D01*
X83100258Y-103969778D01*
X83097270Y-103965006D01*
X83094214Y-103960276D01*
X83091091Y-103955590D01*
X83087902Y-103950949D01*
X83084646Y-103946352D01*
X83081326Y-103941802D01*
X83077942Y-103937300D01*
X83074493Y-103932846D01*
X83070982Y-103928442D01*
X83067409Y-103924088D01*
X83063775Y-103919786D01*
X83060081Y-103915536D01*
X83056327Y-103911340D01*
X83052514Y-103907198D01*
X83050586Y-103905147D01*
X83048643Y-103903111D01*
X83046686Y-103901088D01*
X83044716Y-103899080D01*
X83042731Y-103897086D01*
X83040732Y-103895107D01*
X83038720Y-103893142D01*
X83036693Y-103891191D01*
X83034654Y-103889256D01*
X83032601Y-103887335D01*
X83030534Y-103885429D01*
X83028455Y-103883538D01*
X83026362Y-103881663D01*
X83024257Y-103879802D01*
X83022138Y-103877958D01*
X83020007Y-103876128D01*
X83017864Y-103874314D01*
X83015707Y-103872516D01*
X83013539Y-103870733D01*
X83011358Y-103868966D01*
X83009166Y-103867216D01*
X83006961Y-103865481D01*
X83004744Y-103863763D01*
X83002516Y-103862060D01*
X83000276Y-103860375D01*
X82998025Y-103858705D01*
X82995763Y-103857053D01*
X82993488Y-103855416D01*
X82991204Y-103853797D01*
X82988908Y-103852193D01*
X82986602Y-103850608D01*
X82984284Y-103849038D01*
X82981956Y-103847486D01*
X82979617Y-103845951D01*
X82977269Y-103844434D01*
X82974910Y-103842933D01*
X82972542Y-103841450D01*
X82970162Y-103839984D01*
X82967774Y-103838536D01*
X82965375Y-103837104D01*
X82962968Y-103835692D01*
X82960550Y-103834296D01*
X82958124Y-103832918D01*
X82955687Y-103831558D01*
X82953243Y-103830216D01*
X82950789Y-103828892D01*
X82948327Y-103827586D01*
X82945855Y-103826297D01*
X82943376Y-103825028D01*
X82940887Y-103823775D01*
X82938391Y-103822542D01*
X82935885Y-103821327D01*
X82933373Y-103820130D01*
X82930852Y-103818951D01*
X82928324Y-103817791D01*
X82925787Y-103816649D01*
X82923244Y-103815527D01*
X82920691Y-103814422D01*
X82918133Y-103813336D01*
X82915566Y-103812269D01*
X82912994Y-103811221D01*
X82910413Y-103810191D01*
X82907827Y-103809180D01*
X82905232Y-103808188D01*
X82902632Y-103807215D01*
X82900024Y-103806260D01*
X82897412Y-103805326D01*
X82894791Y-103804409D01*
X82892166Y-103803512D01*
X82889533Y-103802634D01*
X82886895Y-103801775D01*
X82884250Y-103800935D01*
X82881601Y-103800115D01*
X82878944Y-103799313D01*
X82876284Y-103798531D01*
X82873617Y-103797768D01*
X82870946Y-103797024D01*
X82868267Y-103796300D01*
X82865586Y-103795595D01*
X82862897Y-103794909D01*
X82860205Y-103794243D01*
X82857507Y-103793596D01*
X82854805Y-103792969D01*
X82852097Y-103792361D01*
X82849387Y-103791773D01*
X82846669Y-103791204D01*
X82843950Y-103790655D01*
X82841224Y-103790125D01*
X82838496Y-103789615D01*
X82835761Y-103789124D01*
X82833025Y-103788654D01*
X82830283Y-103788202D01*
X82827539Y-103787771D01*
X82824788Y-103787359D01*
X82822037Y-103786967D01*
X82819279Y-103786594D01*
X82816521Y-103786242D01*
X82813756Y-103785909D01*
X82810990Y-103785596D01*
X82808219Y-103785302D01*
X82805447Y-103785029D01*
X82802669Y-103784775D01*
X82799891Y-103784541D01*
X82797107Y-103784327D01*
X82794323Y-103784133D01*
X82791533Y-103783959D01*
X82788743Y-103783804D01*
X82785948Y-103783670D01*
X82783153Y-103783555D01*
X82780352Y-103783461D01*
X82777552Y-103783386D01*
X82774747Y-103783332D01*
X82771942Y-103783297D01*
X82769132Y-103783283D01*
X82768491Y-103783282D01*
X83550000Y-122938647D02*
X83554578Y-122938607D01*
X83559146Y-122938488D01*
X83563704Y-122938288D01*
X83568251Y-122938010D01*
X83572786Y-122937652D01*
X83577309Y-122937216D01*
X83581819Y-122936700D01*
X83586314Y-122936106D01*
X83590796Y-122935433D01*
X83595261Y-122934682D01*
X83599710Y-122933852D01*
X83604142Y-122932945D01*
X83608556Y-122931960D01*
X83612951Y-122930897D01*
X83617326Y-122929757D01*
X83621681Y-122928540D01*
X83626013Y-122927246D01*
X83630323Y-122925876D01*
X83634609Y-122924429D01*
X83638870Y-122922907D01*
X83643105Y-122921309D01*
X83647313Y-122919636D01*
X83651493Y-122917888D01*
X83655644Y-122916065D01*
X83659764Y-122914169D01*
X83663853Y-122912200D01*
X83667909Y-122910157D01*
X83671931Y-122908042D01*
X83675919Y-122905855D01*
X83679870Y-122903597D01*
X83683783Y-122901269D01*
X83687658Y-122898870D01*
X83691493Y-122896402D01*
X83695287Y-122893866D01*
X83699038Y-122891262D01*
X83702746Y-122888590D01*
X83706408Y-122885853D01*
X83710025Y-122883050D01*
X83713594Y-122880183D01*
X83717115Y-122877252D01*
X83720586Y-122874258D01*
X83724006Y-122871203D01*
X83727374Y-122868088D01*
X83730689Y-122864912D01*
X83733949Y-122861678D01*
X83737153Y-122858387D01*
X83738734Y-122856720D01*
X83740301Y-122855039D01*
X83741853Y-122853344D01*
X83743391Y-122851636D01*
X83744914Y-122849914D01*
X83746422Y-122848179D01*
X83747914Y-122846430D01*
X83749392Y-122844669D01*
X83750855Y-122842894D01*
X83752302Y-122841107D01*
X83753734Y-122839307D01*
X83755150Y-122837494D01*
X83756550Y-122835669D01*
X83757935Y-122833832D01*
X83759303Y-122831983D01*
X83760656Y-122830122D01*
X83761992Y-122828250D01*
X83763312Y-122826365D01*
X83764615Y-122824470D01*
X83765902Y-122822562D01*
X83767172Y-122820645D01*
X83768426Y-122818715D01*
X83769662Y-122816776D01*
X83770882Y-122814825D01*
X83772084Y-122812864D01*
X83773270Y-122810893D01*
X83774438Y-122808912D01*
X83775589Y-122806920D01*
X83776722Y-122804919D01*
X83777839Y-122802907D01*
X83778937Y-122800887D01*
X83780017Y-122798857D01*
X83781080Y-122796818D01*
X83782125Y-122794769D01*
X83783152Y-122792712D01*
X83784162Y-122790646D01*
X83785152Y-122788572D01*
X83786125Y-122786488D01*
X83787080Y-122784397D01*
X83788016Y-122782297D01*
X83788934Y-122780190D01*
X83789834Y-122778074D01*
X83790715Y-122775951D01*
X83791578Y-122773819D01*
X83792421Y-122771682D01*
X83793247Y-122769536D01*
X83794053Y-122767384D01*
X83794841Y-122765223D01*
X83795610Y-122763058D01*
X83796360Y-122760883D01*
X83797091Y-122758704D01*
X83797804Y-122756517D01*
X83798496Y-122754326D01*
X83799171Y-122752126D01*
X83799825Y-122749922D01*
X83800462Y-122747710D01*
X83801078Y-122745495D01*
X83801676Y-122743272D01*
X83802253Y-122741045D01*
X83802813Y-122738811D01*
X83803352Y-122736574D01*
X83803872Y-122734330D01*
X83804373Y-122732082D01*
X83804854Y-122729828D01*
X83805315Y-122727571D01*
X83805758Y-122725307D01*
X83806180Y-122723041D01*
X83806584Y-122720769D01*
X83806967Y-122718494D01*
X83807331Y-122716213D01*
X83807675Y-122713930D01*
X83808000Y-122711641D01*
X83808305Y-122709350D01*
X83808590Y-122707053D01*
X83808855Y-122704755D01*
X83809101Y-122702451D01*
X83809327Y-122700147D01*
X83809533Y-122697836D01*
X83809719Y-122695524D01*
X83809885Y-122693207D01*
X83810031Y-122690890D01*
X83810158Y-122688567D01*
X83810264Y-122686243D01*
X83810351Y-122683915D01*
X83810418Y-122681586D01*
X83810464Y-122679252D01*
X83810498Y-122674975D01*
X83810498Y-103163664D02*
X83810458Y-103159002D01*
X83810339Y-103154351D01*
X83810139Y-103149709D01*
X83809861Y-103145080D01*
X83809503Y-103140462D01*
X83809067Y-103135857D01*
X83808551Y-103131266D01*
X83807957Y-103126690D01*
X83807285Y-103122129D01*
X83806534Y-103117584D01*
X83805705Y-103113056D01*
X83804798Y-103108546D01*
X83803814Y-103104055D01*
X83802752Y-103099584D01*
X83801613Y-103095133D01*
X83800398Y-103090705D01*
X83799106Y-103086300D01*
X83797737Y-103081918D01*
X83796293Y-103077561D01*
X83794774Y-103073231D01*
X83793179Y-103068928D01*
X83791510Y-103064653D01*
X83789766Y-103060407D01*
X83787949Y-103056192D01*
X83786058Y-103052009D01*
X83784095Y-103047859D01*
X83782059Y-103043743D01*
X83779952Y-103039662D01*
X83777774Y-103035618D01*
X83775525Y-103031612D01*
X83773207Y-103027645D01*
X83770820Y-103023718D01*
X83768365Y-103019833D01*
X83765842Y-103015991D01*
X83763252Y-103012192D01*
X83760597Y-103008439D01*
X83757876Y-103004733D01*
X83755092Y-103001074D01*
X83752244Y-102997465D01*
X83749334Y-102993905D01*
X83746363Y-102990397D01*
X83743332Y-102986942D01*
X83740241Y-102983540D01*
X83738674Y-102981860D01*
X83737092Y-102980194D01*
X83735496Y-102978542D01*
X83733887Y-102976903D01*
X83732263Y-102975280D01*
X83730625Y-102973670D01*
X83728973Y-102972075D01*
X83727308Y-102970495D01*
X83725630Y-102968930D01*
X83723938Y-102967380D01*
X83722234Y-102965845D01*
X83720516Y-102964324D01*
X83718785Y-102962820D01*
X83717042Y-102961331D01*
X83715286Y-102959857D01*
X83713518Y-102958399D01*
X83711737Y-102956958D01*
X83709944Y-102955532D01*
X83708140Y-102954122D01*
X83706324Y-102952728D01*
X83704496Y-102951351D01*
X83702657Y-102949990D01*
X83700806Y-102948646D01*
X83698944Y-102947318D01*
X83697072Y-102946007D01*
X83695188Y-102944712D01*
X83693294Y-102943435D01*
X83691388Y-102942175D01*
X83689474Y-102940932D01*
X83687548Y-102939706D01*
X83685613Y-102938498D01*
X83683667Y-102937306D01*
X83681712Y-102936133D01*
X83679746Y-102934977D01*
X83677773Y-102933839D01*
X83675788Y-102932718D01*
X83673796Y-102931615D01*
X83671794Y-102930530D01*
X83669784Y-102929464D01*
X83667764Y-102928414D01*
X83665737Y-102927384D01*
X83663700Y-102926371D01*
X83661656Y-102925377D01*
X83659603Y-102924401D01*
X83657543Y-102923444D01*
X83655474Y-102922505D01*
X83653399Y-102921584D01*
X83651314Y-102920682D01*
X83649224Y-102919799D01*
X83647125Y-102918934D01*
X83645021Y-102918089D01*
X83642908Y-102917261D01*
X83640790Y-102916454D01*
X83638663Y-102915664D01*
X83636532Y-102914894D01*
X83634392Y-102914142D01*
X83632249Y-102913410D01*
X83630096Y-102912697D01*
X83627941Y-102912003D01*
X83625777Y-102911328D01*
X83623609Y-102910672D01*
X83621434Y-102910035D01*
X83619255Y-102909418D01*
X83617069Y-102908820D01*
X83614880Y-102908242D01*
X83612683Y-102907682D01*
X83610484Y-102907143D01*
X83608278Y-102906622D01*
X83606069Y-102906122D01*
X83603853Y-102905640D01*
X83601635Y-102905179D01*
X83599410Y-102904736D01*
X83597183Y-102904314D01*
X83594950Y-102903910D01*
X83592715Y-102903527D01*
X83590474Y-102903163D01*
X83588231Y-102902819D01*
X83585982Y-102902494D01*
X83583731Y-102902190D01*
X83581475Y-102901905D01*
X83579218Y-102901640D01*
X83576954Y-102901394D01*
X83574690Y-102901169D01*
X83572421Y-102900963D01*
X83570150Y-102900777D01*
X83567875Y-102900611D01*
X83565598Y-102900465D01*
X83563317Y-102900339D01*
X83561035Y-102900232D01*
X83558748Y-102900146D01*
X83556462Y-102900080D01*
X83554170Y-102900033D01*
X83550000Y-102900000D01*
D13*
%TO.C,F1*%
X74885000Y-81095000D02*
X74885000Y-100905000D01*
X74885000Y-100905000D02*
X81615000Y-100905000D01*
X81615000Y-81095000D02*
X74885000Y-81095000D01*
X81615000Y-100905000D02*
X81615000Y-81095000D01*
D14*
%TO.C,J1*%
X73150000Y-68300000D02*
X73150000Y-68000000D01*
X73150000Y-71000000D02*
X73150000Y-68300000D01*
X73150000Y-71000000D02*
X83310000Y-71000000D01*
X73150000Y-76627435D02*
X73150000Y-71000000D01*
X73150000Y-76927253D02*
X73150000Y-76627435D01*
X73150000Y-76927253D02*
X83310000Y-76927253D01*
X73150000Y-77203492D02*
X73150000Y-76927253D01*
X73150000Y-77203492D02*
X73150000Y-78133383D01*
X73150000Y-78931480D02*
X73150000Y-78133383D01*
X73150000Y-79200000D02*
X73150000Y-78931480D01*
X73150000Y-79200000D02*
X83310000Y-79200000D01*
X73490000Y-73500000D02*
X77890000Y-73500000D01*
X74616976Y-75067999D02*
X77257999Y-72426976D01*
X75690000Y-75700000D02*
X75690000Y-71300000D01*
X76763024Y-71932002D02*
X74122002Y-74573024D01*
X78570000Y-73500000D02*
X82970000Y-73500000D01*
X79696976Y-75067999D02*
X82337999Y-72426976D01*
X80770000Y-75700000D02*
X80770000Y-71300000D01*
X81843024Y-71932002D02*
X79202002Y-74573024D01*
X83310000Y-68000000D02*
X73150000Y-68000000D01*
X83310000Y-68000000D02*
X83310000Y-68300000D01*
X83310000Y-68300000D02*
X83310000Y-69693000D01*
X83310000Y-69693000D02*
X83310000Y-70107000D01*
X83310000Y-70107000D02*
X83310000Y-71000000D01*
X83310000Y-70107000D02*
X83438691Y-70107000D01*
X83310000Y-71000000D02*
X83310000Y-76627435D01*
X83310000Y-76627435D02*
X83310000Y-76927253D01*
X83310000Y-76927253D02*
X83310000Y-77203492D01*
X83310000Y-78133383D02*
X73150000Y-78133383D01*
X83310000Y-78133383D02*
X83310000Y-77203492D01*
X83310000Y-78133383D02*
X83310000Y-78931480D01*
X83310000Y-78931480D02*
X83310000Y-79200000D01*
X83438691Y-69693000D02*
X83310000Y-69693000D01*
X83438691Y-70107000D02*
X83617026Y-70256960D01*
X83617026Y-69543041D02*
X83438691Y-69693000D01*
X83617026Y-70256960D02*
X83880000Y-70256960D01*
X83880000Y-69543041D02*
X83617026Y-69543041D01*
X83880000Y-69543041D02*
X83880000Y-70256960D01*
X74122002Y-74573024D02*
G75*
G02*
X76763024Y-71932002I1567998J1073024D01*
G01*
X74616976Y-75067999D02*
G75*
G02*
X74122001Y-74573024I1073024J1567999D01*
G01*
X76763024Y-71932002D02*
G75*
G02*
X77257998Y-72426976I-1073024J-1567998D01*
G01*
X77257999Y-72426976D02*
G75*
G02*
X74616976Y-75067999I-1567999J-1073024D01*
G01*
X79202002Y-74573024D02*
G75*
G02*
X81843024Y-71932002I1567997J1073025D01*
G01*
X79696976Y-75067999D02*
G75*
G02*
X79202002Y-74573024I1073017J1567988D01*
G01*
X81843024Y-71932002D02*
G75*
G02*
X82337999Y-72426976I-1073013J-1567991D01*
G01*
X82337999Y-72426976D02*
G75*
G02*
X79696976Y-75067999I-1567999J-1073024D01*
G01*
X77690000Y-73500000D02*
G75*
G02*
X73690000Y-73500000I-2000000J0D01*
G01*
X73690000Y-73500000D02*
G75*
G02*
X77690000Y-73500000I2000000J0D01*
G01*
X78688257Y-75200000D02*
G75*
G02*
X77771743Y-75200000I-458257J0D01*
G01*
X77771743Y-75200000D02*
G75*
G02*
X78688257Y-75200000I458257J0D01*
G01*
X82770000Y-73500000D02*
G75*
G02*
X78770000Y-73500000I-2000000J0D01*
G01*
X78770000Y-73500000D02*
G75*
G02*
X82770000Y-73500000I2000000J0D01*
G01*
%TO.C,J2*%
X72620000Y-133956959D02*
X72620000Y-133243040D01*
X72620000Y-133956959D02*
X72882974Y-133956959D01*
X72882974Y-133243040D02*
X72620000Y-133243040D01*
X72882974Y-133956959D02*
X73061309Y-133807000D01*
X73061309Y-133393000D02*
X72882974Y-133243040D01*
X73061309Y-133807000D02*
X73190000Y-133807000D01*
X73190000Y-124568520D02*
X73190000Y-124300000D01*
X73190000Y-125366617D02*
X73190000Y-124568520D01*
X73190000Y-125366617D02*
X73190000Y-126296508D01*
X73190000Y-125366617D02*
X83350000Y-125366617D01*
X73190000Y-126572747D02*
X73190000Y-126296508D01*
X73190000Y-126872565D02*
X73190000Y-126572747D01*
X73190000Y-132500000D02*
X73190000Y-126872565D01*
X73190000Y-133393000D02*
X73061309Y-133393000D01*
X73190000Y-133393000D02*
X73190000Y-132500000D01*
X73190000Y-133807000D02*
X73190000Y-133393000D01*
X73190000Y-135200000D02*
X73190000Y-133807000D01*
X73190000Y-135500000D02*
X73190000Y-135200000D01*
X73190000Y-135500000D02*
X83350000Y-135500000D01*
X74656976Y-131567998D02*
X77297998Y-128926976D01*
X75730000Y-127800000D02*
X75730000Y-132200000D01*
X76803024Y-128432001D02*
X74162001Y-131073024D01*
X77930000Y-130000000D02*
X73530000Y-130000000D01*
X79736976Y-131567998D02*
X82377998Y-128926976D01*
X80810000Y-127800000D02*
X80810000Y-132200000D01*
X81883024Y-128432001D02*
X79242001Y-131073024D01*
X83010000Y-130000000D02*
X78610000Y-130000000D01*
X83350000Y-124300000D02*
X73190000Y-124300000D01*
X83350000Y-124300000D02*
X83350000Y-124568520D01*
X83350000Y-124568520D02*
X83350000Y-125366617D01*
X83350000Y-126296508D02*
X83350000Y-125366617D01*
X83350000Y-126296508D02*
X83350000Y-126572747D01*
X83350000Y-126572747D02*
X73190000Y-126572747D01*
X83350000Y-126572747D02*
X83350000Y-126872565D01*
X83350000Y-126872565D02*
X83350000Y-132500000D01*
X83350000Y-132500000D02*
X73190000Y-132500000D01*
X83350000Y-132500000D02*
X83350000Y-135200000D01*
X83350000Y-135200000D02*
X83350000Y-135500000D01*
X74162001Y-131073024D02*
G75*
G02*
X76803024Y-128432001I1567999J1073024D01*
G01*
X74656976Y-131567998D02*
G75*
G02*
X74162001Y-131073024I1073013J1567991D01*
G01*
X76803024Y-128432001D02*
G75*
G02*
X77297998Y-128926976I-1073017J-1567988D01*
G01*
X77297998Y-128926976D02*
G75*
G02*
X74656976Y-131567998I-1567997J-1073025D01*
G01*
X79242001Y-131073024D02*
G75*
G02*
X81883024Y-128432001I1567999J1073024D01*
G01*
X79736976Y-131567998D02*
G75*
G02*
X79242002Y-131073024I1073024J1567998D01*
G01*
X81883024Y-128432001D02*
G75*
G02*
X82377999Y-128926976I-1073024J-1567999D01*
G01*
X82377998Y-128926976D02*
G75*
G02*
X79736976Y-131567998I-1567998J-1073024D01*
G01*
X77730000Y-130000000D02*
G75*
G02*
X73730000Y-130000000I-2000000J0D01*
G01*
X73730000Y-130000000D02*
G75*
G02*
X77730000Y-130000000I2000000J0D01*
G01*
X78728257Y-128300000D02*
G75*
G02*
X77811743Y-128300000I-458257J0D01*
G01*
X77811743Y-128300000D02*
G75*
G02*
X78728257Y-128300000I458257J0D01*
G01*
X82810000Y-130000000D02*
G75*
G02*
X78810000Y-130000000I-2000000J0D01*
G01*
X78810000Y-130000000D02*
G75*
G02*
X82810000Y-130000000I2000000J0D01*
G01*
%TD*%
M02*
