%TF.GenerationSoftware,KiCad,Pcbnew,9.0.8-9.0.8~ubuntu24.04.1*%
%TF.CreationDate,2026-03-22T18:01:05+01:00*%
%TF.ProjectId,Schalter-Karte_HW,53636861-6c74-4657-922d-4b617274655f,V1.0*%
%TF.SameCoordinates,Original*%
%TF.FileFunction,Other,User*%
%FSLAX46Y46*%
G04 Gerber Fmt 4.6, Leading zero omitted, Abs format (unit mm)*
G04 Created by KiCad (PCBNEW 9.0.8-9.0.8~ubuntu24.04.1) date 2026-03-22 18:01:05*
%MOMM*%
%LPD*%
G01*
G04 APERTURE LIST*
%ADD10C,0.349069*%
%ADD11C,1.047206*%
%ADD12C,0.698138*%
%ADD13C,0.179521*%
%ADD14C,0.250000*%
%ADD15C,0.300000*%
%ADD16C,0.312500*%
%ADD17C,0.375000*%
G04 APERTURE END LIST*
D10*
X5299337Y-205017107D02*
X10282230Y-205017107D01*
X10282230Y-210000000D01*
X316444Y-210000000D01*
X316444Y-200034173D01*
X5299337Y-200034173D01*
X5299337Y-205017107D01*
G36*
X5299337Y-205017107D02*
G01*
X10282230Y-205017107D01*
X10282230Y-210000000D01*
X316444Y-210000000D01*
X316444Y-200034173D01*
X5299337Y-200034173D01*
X5299337Y-205017107D01*
G37*
X10282230Y-5534790D02*
X5299337Y-5534790D01*
X5299337Y-10517690D01*
X316444Y-10517690D01*
X316444Y-551890D01*
X10282230Y-551890D01*
X10282230Y-5534790D01*
G36*
X10282230Y-5534790D02*
G01*
X5299337Y-5534790D01*
X5299337Y-10517690D01*
X316444Y-10517690D01*
X316444Y-551890D01*
X10282230Y-551890D01*
X10282230Y-5534790D01*
G37*
X296500000Y-210000000D02*
X286534200Y-210000000D01*
X286534200Y-205017107D01*
X291517079Y-205017107D01*
X291517079Y-200034173D01*
X296500000Y-200034173D01*
X296500000Y-210000000D01*
G36*
X296500000Y-210000000D02*
G01*
X286534200Y-210000000D01*
X286534200Y-205017107D01*
X291517079Y-205017107D01*
X291517079Y-200034173D01*
X296500000Y-200034173D01*
X296500000Y-210000000D01*
G37*
X296500000Y-10517690D02*
X291517079Y-10517690D01*
X291517079Y-5534790D01*
X286534200Y-5534790D01*
X286534200Y-551890D01*
X296500000Y-551890D01*
X296500000Y-10517690D01*
G36*
X296500000Y-10517690D02*
G01*
X291517079Y-10517690D01*
X291517079Y-5534790D01*
X286534200Y-5534790D01*
X286534200Y-551890D01*
X296500000Y-551890D01*
X296500000Y-10517690D01*
G37*
X15265144Y-5534790D02*
X15265144Y-205017107D01*
X15265144Y-55447637D02*
X20248037Y-55447637D01*
X15265144Y-105276625D02*
X20248037Y-105276625D01*
D11*
X15265144Y-105276625D02*
X20248037Y-105276625D01*
D10*
X15265144Y-155104248D02*
X20248037Y-155104248D01*
X15265144Y-205017107D02*
X291517079Y-205017107D01*
D12*
X20248037Y-10517690D02*
X20248037Y-200034173D01*
X20248037Y-200034173D02*
X286534200Y-200034173D01*
D10*
X23119563Y-6969864D02*
X22781422Y-7138939D01*
X23457705Y-6633090D02*
X23119563Y-6969864D01*
X23795867Y-6125865D02*
X23457705Y-6633090D01*
X23795867Y-9588464D02*
X23795867Y-6125865D01*
X24723718Y-9588464D02*
X22781422Y-9588464D01*
X48708994Y-5534790D02*
X48708994Y-10517690D01*
X48708994Y-205017107D02*
X48708994Y-200034173D01*
X72441344Y-9588464D02*
X74636566Y-9588464D01*
X72610415Y-6464015D02*
X72779486Y-6294940D01*
X72779486Y-6294940D02*
X73117627Y-6125865D01*
X73117627Y-6125865D02*
X73961642Y-6125865D01*
X73961642Y-6125865D02*
X74299784Y-6294940D01*
X74299784Y-6294940D02*
X74468855Y-6464015D01*
X74468855Y-6464015D02*
X74632542Y-6794052D01*
X74636566Y-6802164D01*
X74468855Y-7646164D02*
X73771027Y-8314660D01*
X72441344Y-9588464D01*
X74636566Y-6802164D02*
X74636566Y-7138939D01*
X74636566Y-7138939D02*
X74468855Y-7646164D01*
X98537987Y-5534790D02*
X98537987Y-10517690D01*
X98537987Y-205017107D02*
X98537987Y-200034173D01*
X122354172Y-6125865D02*
X124465539Y-6125865D01*
X122523243Y-9504615D02*
X122470988Y-9452354D01*
X122354172Y-9335539D01*
X122861405Y-9588464D02*
X122523243Y-9504615D01*
X123283402Y-7477089D02*
X123790635Y-7477089D01*
X123790635Y-7477089D02*
X123963091Y-7563672D01*
X124127397Y-7646164D01*
X123790635Y-9588464D02*
X122861405Y-9588464D01*
X124127397Y-7646164D02*
X124239207Y-7757972D01*
X124296468Y-7815239D01*
X124127397Y-9504615D02*
X123955436Y-9547431D01*
X123790635Y-9588464D01*
X124296468Y-7815239D02*
X124408278Y-8038855D01*
X124465539Y-8153389D01*
X124296468Y-9335539D02*
X124241087Y-9390926D01*
X124127397Y-9504615D01*
X124465539Y-6125865D02*
X123283402Y-7477089D01*
X124465539Y-8153389D02*
X124465539Y-8997389D01*
X124465539Y-8997389D02*
X124409652Y-9109175D01*
X124296468Y-9335539D01*
X148450836Y-5534790D02*
X148450836Y-10517690D01*
D11*
X148450836Y-5534790D02*
X148450836Y-10517690D01*
D12*
X148450836Y-164140835D02*
X148450836Y-200034173D01*
X148450836Y-200034173D02*
X286534200Y-200034173D01*
D10*
X148450836Y-205017107D02*
X148450836Y-200034173D01*
D11*
X148450836Y-205017107D02*
X148450836Y-200034173D01*
D13*
X149718208Y-183481339D02*
X150900354Y-183481339D01*
X150054980Y-175965082D02*
X150054980Y-174022786D01*
X150309276Y-185508871D02*
X150309276Y-183481339D01*
X150984210Y-175965082D02*
X150054980Y-175965082D01*
X151406197Y-183565215D02*
X151575268Y-183650410D01*
X151491433Y-174106621D02*
X151623130Y-174173020D01*
X151660504Y-174191857D01*
X151575268Y-183481339D02*
X151471445Y-183532847D01*
X151406197Y-183565215D01*
X151575268Y-183481339D02*
X151575268Y-183650410D01*
X151575268Y-183650410D02*
X151660504Y-183565215D01*
X151575268Y-185508871D02*
X151575268Y-184157643D01*
X151660504Y-174022786D02*
X151491433Y-174106621D01*
X151660504Y-174022786D02*
X151660504Y-174191857D01*
X151660504Y-174191857D02*
X151691988Y-174159856D01*
X151744349Y-174106621D01*
X151660504Y-175965082D02*
X151660504Y-174697689D01*
X151660504Y-183565215D02*
X151585077Y-183490991D01*
X151575268Y-183481339D01*
X151744349Y-174106621D02*
X151660504Y-174022786D01*
X152166357Y-184157643D02*
X152926506Y-184157643D01*
X152504509Y-175035851D02*
X152532531Y-174980243D01*
X152589724Y-174866760D01*
X152504509Y-175626940D02*
X152504509Y-175035851D01*
X152504509Y-183481339D02*
X152504509Y-185170729D01*
X152504509Y-185170729D02*
X152589724Y-185423635D01*
X152589724Y-174866760D02*
X152641486Y-174815016D01*
X152673580Y-174782925D01*
X152589724Y-175796011D02*
X152546113Y-175709484D01*
X152504509Y-175626940D01*
X152589724Y-185423635D02*
X152757435Y-185508871D01*
X152673580Y-174782925D02*
X152791995Y-174723235D01*
X152842661Y-174697689D01*
X152673580Y-175879846D02*
X152589724Y-175796011D01*
X152757435Y-185508871D02*
X152926506Y-185508871D01*
X152842661Y-174697689D02*
X153264658Y-174697689D01*
X152842661Y-175965082D02*
X152782248Y-175934632D01*
X152673580Y-175879846D01*
X153264658Y-174697689D02*
X153433729Y-174782925D01*
X153264658Y-175965082D02*
X152842661Y-175965082D01*
X153433729Y-175879846D02*
X153264658Y-175965082D01*
X153602810Y-185170729D02*
X153602810Y-183481339D01*
X153686645Y-185423635D02*
X153602810Y-185170729D01*
X153940962Y-185508871D02*
X153686645Y-185423635D01*
X154193868Y-174951996D02*
X154250786Y-174837256D01*
X154277734Y-174782925D01*
X154193868Y-175712135D02*
X154193868Y-174951996D01*
X154277734Y-174782925D02*
X154446805Y-174697689D01*
X154277734Y-175879846D02*
X154193868Y-175712135D01*
X154446805Y-174697689D02*
X154868812Y-174697689D01*
X154446805Y-175965082D02*
X154277734Y-175879846D01*
X154532020Y-184410590D02*
X154574807Y-184367793D01*
X154637952Y-184304635D01*
X154701101Y-184241499D01*
X154532020Y-185170729D02*
X154532020Y-184410590D01*
X154701101Y-184241499D02*
X154816462Y-184183809D01*
X154866192Y-184158953D01*
X154868812Y-184157643D01*
X154701101Y-185423635D02*
X154532020Y-185170729D01*
X154868812Y-174697689D02*
X155037883Y-174782925D01*
X154868812Y-175965082D02*
X154446805Y-175965082D01*
X154868812Y-184157643D02*
X155206954Y-184157643D01*
X154868812Y-185508871D02*
X154701101Y-185423635D01*
X155037883Y-174782925D02*
X155038217Y-174783588D01*
X155123109Y-174951996D01*
X155037883Y-175879846D02*
X154868812Y-175965082D01*
X155123109Y-174951996D02*
X155123109Y-175119707D01*
X155123109Y-175119707D02*
X154661995Y-175245890D01*
X154193868Y-175373993D01*
X155206954Y-184157643D02*
X155461260Y-184241499D01*
X155206954Y-185508871D02*
X154868812Y-185508871D01*
X155461260Y-184241499D02*
X155545106Y-184410590D01*
X155461260Y-185423635D02*
X155206954Y-185508871D01*
X155545106Y-184410590D02*
X155545106Y-184663496D01*
X155545106Y-184663496D02*
X154540335Y-184831199D01*
X154532020Y-184832587D01*
X155967093Y-174697689D02*
X155967093Y-175965082D01*
X155967093Y-174866760D02*
X156052329Y-174782925D01*
X156052329Y-174782925D02*
X156211967Y-174729129D01*
X156305245Y-174697689D01*
X156305245Y-174697689D02*
X156558182Y-174697689D01*
X156558182Y-174697689D02*
X156727253Y-174782925D01*
X156727253Y-174782925D02*
X156768692Y-174865143D01*
X156812468Y-174951996D01*
X156812468Y-174951996D02*
X156812468Y-175965082D01*
X157740318Y-174951996D02*
X157825554Y-174782925D01*
X157740318Y-175035851D02*
X157740318Y-174951996D01*
X157740318Y-175879846D02*
X157845914Y-175933081D01*
X157909399Y-175965082D01*
X157825554Y-174782925D02*
X157929532Y-174730512D01*
X157994635Y-174697689D01*
X157825554Y-175204922D02*
X157740318Y-175035851D01*
X157909399Y-175965082D02*
X158247551Y-175965082D01*
X157994635Y-174697689D02*
X158247551Y-174697689D01*
X157994635Y-175373993D02*
X157903098Y-175282464D01*
X157825554Y-175204922D01*
X158247551Y-174697689D02*
X158321380Y-174722574D01*
X158500478Y-174782925D01*
X158247551Y-175373993D02*
X157994635Y-175373993D01*
X158247551Y-175965082D02*
X158341320Y-175933486D01*
X158500478Y-175879846D01*
X158500478Y-175457849D02*
X158379311Y-175417678D01*
X158247551Y-175373993D01*
X158500478Y-175879846D02*
X158583757Y-175715947D01*
X158585693Y-175712135D01*
X158585693Y-175626940D02*
X158500478Y-175457849D01*
X158585693Y-175712135D02*
X158585693Y-175626940D01*
X159345852Y-174951996D02*
X159389633Y-174863725D01*
X159429708Y-174782925D01*
X159345852Y-175712135D02*
X159345852Y-174951996D01*
X159429708Y-174782925D02*
X159531069Y-174731828D01*
X159598779Y-174697689D01*
X159429708Y-175879846D02*
X159345852Y-175712135D01*
X159598779Y-174697689D02*
X160020776Y-174697689D01*
X159598779Y-175965082D02*
X159561405Y-175946245D01*
X159429708Y-175879846D01*
X160020776Y-174697689D02*
X160088486Y-174731828D01*
X160189847Y-174782925D01*
X160020776Y-175965082D02*
X159598779Y-175965082D01*
X160189847Y-174782925D02*
X160275083Y-174951996D01*
X160189847Y-175879846D02*
X160058150Y-175946245D01*
X160020776Y-175965082D01*
X160275083Y-174951996D02*
X160275083Y-175119707D01*
X160275083Y-175119707D02*
X159839811Y-175238819D01*
X159345852Y-175373993D01*
X161035222Y-175035851D02*
X161109462Y-174886152D01*
X161119078Y-174866760D01*
X161035222Y-175626940D02*
X161035222Y-175035851D01*
X161119078Y-174866760D02*
X161169388Y-174816464D01*
X161202933Y-174782925D01*
X161119078Y-175796011D02*
X161115371Y-175788536D01*
X161035222Y-175626940D01*
X161202933Y-174782925D02*
X161304294Y-174731828D01*
X161372004Y-174697689D01*
X161202933Y-175879846D02*
X161119078Y-175796011D01*
X161372004Y-174697689D02*
X161795381Y-174697689D01*
X161372004Y-175965082D02*
X161334630Y-175946245D01*
X161202933Y-175879846D01*
X161795381Y-174697689D02*
X161856104Y-174728559D01*
X161963072Y-174782925D01*
X161795381Y-175965082D02*
X161372004Y-175965082D01*
X161963072Y-175879846D02*
X161844369Y-175940186D01*
X161795381Y-175965082D01*
X161963072Y-175965082D02*
X161963072Y-174022786D01*
X164412591Y-174697689D02*
X164412591Y-175712135D01*
X164412591Y-175712135D02*
X164464744Y-175763868D01*
X164581672Y-175879846D01*
X164581672Y-175879846D02*
X164750743Y-175965082D01*
X164750743Y-175965082D02*
X165003680Y-175965082D01*
X165003680Y-175965082D02*
X165067446Y-175932939D01*
X165172761Y-175879846D01*
X165172761Y-175879846D02*
X165341832Y-175796011D01*
X165341832Y-174697689D02*
X165341832Y-175965082D01*
X166271042Y-174697689D02*
X166271042Y-175965082D01*
X166271042Y-174866760D02*
X166338130Y-174799693D01*
X166354897Y-174782925D01*
X166354897Y-174782925D02*
X166523968Y-174697689D01*
X166523968Y-174697689D02*
X166862120Y-174697689D01*
X166862120Y-174697689D02*
X167031191Y-174782925D01*
X167031191Y-174782925D02*
X167058237Y-174837454D01*
X167115057Y-174951996D01*
X167115057Y-174951996D02*
X167115057Y-175965082D01*
X167960431Y-175035851D02*
X168044267Y-174866760D01*
X167960431Y-175626940D02*
X167960431Y-175035851D01*
X168044267Y-174866760D02*
X168100787Y-174811175D01*
X168129502Y-174782925D01*
X168044267Y-175796011D02*
X167960431Y-175626940D01*
X168129502Y-174782925D02*
X168303023Y-174724451D01*
X168382419Y-174697689D01*
X168129502Y-175879846D02*
X168044267Y-175796011D01*
X168382419Y-174697689D02*
X168720571Y-174697689D01*
X168382419Y-175965082D02*
X168292566Y-175934804D01*
X168129502Y-175879846D01*
X168720571Y-174697689D02*
X168784710Y-174730290D01*
X168888282Y-174782925D01*
X168720571Y-175965082D02*
X168382419Y-175965082D01*
X168888282Y-175879846D02*
X168766559Y-175941714D01*
X168720571Y-175965082D01*
X168888282Y-175965082D02*
X168888282Y-174022786D01*
X169733657Y-174951996D02*
X169827375Y-174858280D01*
X169902727Y-174782925D01*
X169733657Y-175712135D02*
X169733657Y-174951996D01*
X169902727Y-174782925D02*
X170008488Y-174729614D01*
X170071808Y-174697689D01*
X169902727Y-175879846D02*
X169766683Y-175744900D01*
X169733657Y-175712135D01*
X170071808Y-174697689D02*
X170408570Y-174697689D01*
X170071808Y-175965082D02*
X170030269Y-175944145D01*
X169902727Y-175879846D01*
X170408570Y-174697689D02*
X170481135Y-174722016D01*
X170662867Y-174782925D01*
X170408570Y-175965082D02*
X170071808Y-175965082D01*
X170662867Y-174782925D02*
X170704970Y-174867815D01*
X170746722Y-174951996D01*
X170662867Y-175879846D02*
X170501074Y-175934081D01*
X170408570Y-175965082D01*
X170746722Y-174951996D02*
X170746722Y-175119707D01*
X170746722Y-175119707D02*
X169733657Y-175373993D01*
X171592097Y-175035851D02*
X171666337Y-174886152D01*
X171675953Y-174866760D01*
X171592097Y-175965082D02*
X171592097Y-174697689D01*
X171675953Y-174866760D02*
X171738839Y-174803886D01*
X171759798Y-174782925D01*
X171759798Y-174782925D02*
X171928869Y-174697689D01*
X171928869Y-174697689D02*
X172183186Y-174697689D01*
D10*
X172352256Y-8490165D02*
X174547469Y-8490165D01*
X173196241Y-5956789D02*
X172352256Y-8490165D01*
X174040246Y-7308014D02*
X174040246Y-9588464D01*
X198279829Y-5534790D02*
X198279829Y-10517690D01*
X198279829Y-205017107D02*
X198279829Y-200034173D01*
X219730330Y-164140835D02*
X219730330Y-182046256D01*
D13*
X220828652Y-167012361D02*
X220828652Y-165070055D01*
X220913857Y-165830194D02*
X220878118Y-165865948D01*
X220828652Y-165915430D01*
X221081578Y-165661123D02*
X220977796Y-165765743D01*
X220913857Y-165830194D01*
X221335880Y-175965082D02*
X221335880Y-174022786D01*
X221419730Y-165661123D02*
X221081578Y-165661123D01*
X221588806Y-165830194D02*
X221554986Y-165796378D01*
X221419730Y-165661123D01*
X221672631Y-165999275D02*
X221621243Y-165895612D01*
X221588806Y-165830194D01*
X221672631Y-167012361D02*
X221672631Y-165999275D01*
D10*
X222265105Y-7815239D02*
X222340954Y-7738768D01*
X222432806Y-7646164D01*
D13*
X222265105Y-175965082D02*
X221335880Y-175965082D01*
X222348930Y-165661123D02*
X223109105Y-165661123D01*
D10*
X222432806Y-6125865D02*
X222339293Y-7067873D01*
X222265105Y-7815239D01*
X222432806Y-7646164D02*
X222566623Y-7557185D01*
X222687082Y-7477089D01*
X222432806Y-9504615D02*
X222340119Y-9411169D01*
X222265105Y-9335539D01*
D13*
X222601877Y-165070055D02*
X222601877Y-166759435D01*
X222601877Y-166759435D02*
X222687082Y-166928505D01*
D10*
X222687082Y-7477089D02*
X223531102Y-7477089D01*
X222687082Y-9588464D02*
X222569711Y-9549760D01*
X222432806Y-9504615D01*
D13*
X222687082Y-166928505D02*
X222824968Y-166974217D01*
X222940029Y-167012361D01*
X222856158Y-174106621D02*
X222940029Y-174191857D01*
X222940029Y-167012361D02*
X223109105Y-167012361D01*
X222940029Y-174022786D02*
X222856158Y-174106621D01*
X222940029Y-174022786D02*
X222940029Y-174191857D01*
X222940029Y-174191857D02*
X223009210Y-174122654D01*
X223025234Y-174106621D01*
X222940029Y-175965082D02*
X222940029Y-174697689D01*
X223025234Y-174106621D02*
X222940029Y-174022786D01*
X223447252Y-165661123D02*
X224207401Y-165661123D01*
D10*
X223531102Y-7477089D02*
X223869254Y-7646164D01*
X223531102Y-9588464D02*
X222687082Y-9588464D01*
D13*
X223784008Y-165070055D02*
X223784008Y-166759435D01*
X223784008Y-166759435D02*
X223862100Y-166914317D01*
X223869254Y-166928505D01*
X223784008Y-175035851D02*
X223815138Y-174974100D01*
X223869254Y-174866760D01*
X223784008Y-175626940D02*
X223784008Y-175035851D01*
D10*
X223869254Y-7646164D02*
X224038330Y-7815239D01*
X223869254Y-9504615D02*
X223531102Y-9588464D01*
D13*
X223869254Y-166928505D02*
X223969673Y-166978311D01*
X224038330Y-167012361D01*
X223869254Y-174866760D02*
X223953084Y-174782925D01*
X223869254Y-175796011D02*
X223835210Y-175728488D01*
X223784008Y-175626940D01*
X223953084Y-174782925D02*
X224127503Y-174724472D01*
X224207401Y-174697689D01*
X223953084Y-175879846D02*
X223869254Y-175796011D01*
D10*
X224038330Y-6125865D02*
X222432806Y-6125865D01*
X224038330Y-7815239D02*
X224207401Y-8153389D01*
X224038330Y-9335539D02*
X223869254Y-9504615D01*
D13*
X224038330Y-167012361D02*
X224207401Y-167012361D01*
D10*
X224207401Y-8153389D02*
X224207401Y-8997389D01*
X224207401Y-8997389D02*
X224038330Y-9335539D01*
D13*
X224207401Y-174697689D02*
X224544178Y-174697689D01*
X224207401Y-175965082D02*
X224118025Y-175935131D01*
X223953084Y-175879846D01*
X224544178Y-174697689D02*
X224713254Y-174782925D01*
X224544178Y-175965082D02*
X224207401Y-175965082D01*
X224713254Y-175879846D02*
X224619906Y-175926908D01*
X224544178Y-175965082D01*
X224882330Y-165661123D02*
X224882330Y-167688655D01*
X224882330Y-165830194D02*
X224994979Y-165755294D01*
X225136606Y-165661123D01*
X225136606Y-165661123D02*
X225473403Y-165661123D01*
X225136606Y-167012361D02*
X225019039Y-166973590D01*
X224882330Y-166928505D01*
X225473403Y-165661123D02*
X225579076Y-165766796D01*
X225642479Y-165830194D01*
X225473403Y-167012361D02*
X225136606Y-167012361D01*
X225473403Y-174951996D02*
X225591757Y-174833650D01*
X225642479Y-174782925D01*
X225473403Y-175712135D02*
X225473403Y-174951996D01*
X225642479Y-165830194D02*
X225663800Y-165851519D01*
X225727705Y-165915430D01*
X225642479Y-166928505D02*
X225554684Y-166972048D01*
X225473403Y-167012361D01*
X225642479Y-174782925D02*
X225750649Y-174728397D01*
X225811555Y-174697689D01*
X225642479Y-175879846D02*
X225473403Y-175712135D01*
X225727705Y-165915430D02*
X225809498Y-165997235D01*
X225895380Y-166083131D01*
X225727705Y-166843280D02*
X225678807Y-166892176D01*
X225642479Y-166928505D01*
X225811555Y-174697689D02*
X226149702Y-174697689D01*
X225811555Y-175965082D02*
X225760136Y-175939165D01*
X225642479Y-175879846D01*
X225895380Y-166083131D02*
X225895380Y-166674209D01*
X225895380Y-166674209D02*
X225823464Y-166746721D01*
X225727705Y-166843280D01*
X226149702Y-174697689D02*
X226402608Y-174782925D01*
X226149702Y-175965082D02*
X225811555Y-175965082D01*
X226402608Y-174782925D02*
X226419767Y-174816962D01*
X226487854Y-174951996D01*
X226402608Y-175879846D02*
X226149702Y-175965082D01*
X226487854Y-174951996D02*
X226487854Y-175119707D01*
X226487854Y-175119707D02*
X225473403Y-175373993D01*
X226655555Y-165999275D02*
X226740755Y-165830194D01*
X226655555Y-166083131D02*
X226655555Y-165999275D01*
X226655555Y-166928505D02*
X226763547Y-166982069D01*
X226824631Y-167012361D01*
X226740755Y-165830194D02*
X226790489Y-165780469D01*
X226850168Y-165720799D01*
X226909831Y-165661123D01*
X226740755Y-166252202D02*
X226655555Y-166083131D01*
X226824631Y-167012361D02*
X227162778Y-167012361D01*
X226909831Y-165661123D02*
X227162778Y-165661123D01*
X226909831Y-166337417D02*
X226905839Y-166335405D01*
X226740755Y-166252202D01*
X227162778Y-165661123D02*
X227311532Y-165760561D01*
X227415704Y-165830194D01*
X227162778Y-166337417D02*
X226909831Y-166337417D01*
X227162778Y-167012361D02*
X227285550Y-166971657D01*
X227415704Y-166928505D01*
X227331854Y-174697689D02*
X227331854Y-175965082D01*
X227331854Y-174866760D02*
X227370974Y-174827646D01*
X227415704Y-174782925D01*
X227415704Y-166421283D02*
X227280374Y-166376410D01*
X227162778Y-166337417D01*
X227415704Y-166928505D02*
X227500930Y-166759435D01*
X227415704Y-174782925D02*
X227523874Y-174728397D01*
X227584780Y-174697689D01*
X227500930Y-166674209D02*
X227415704Y-166421283D01*
X227500930Y-166759435D02*
X227500930Y-166674209D01*
X227584780Y-174697689D02*
X227922927Y-174697689D01*
X227922927Y-174697689D02*
X227983833Y-174728397D01*
X228092003Y-174782925D01*
X228092003Y-174782925D02*
X228113940Y-174827164D01*
X228175833Y-174951996D01*
X228175833Y-174951996D02*
X228175833Y-175965082D01*
X228261079Y-165915430D02*
X228291891Y-165884107D01*
X228344909Y-165830194D01*
X228261079Y-166928505D02*
X228297761Y-166891215D01*
X228344909Y-166843280D01*
X228344909Y-165830194D02*
X228344909Y-165999275D01*
X228344909Y-165830194D02*
X228405797Y-165891078D01*
X228430155Y-165915430D01*
X228344909Y-165999275D02*
X228289025Y-165943378D01*
X228261079Y-165915430D01*
X228344909Y-166843280D02*
X228344909Y-167012361D01*
X228344909Y-166843280D02*
X228415949Y-166914302D01*
X228430155Y-166928505D01*
X228344909Y-167012361D02*
X228295934Y-166963367D01*
X228261079Y-166928505D01*
X228430155Y-165915430D02*
X228373631Y-165971024D01*
X228344909Y-165999275D01*
X228430155Y-166928505D02*
X228393974Y-166964095D01*
X228344909Y-167012361D01*
X229021208Y-174951996D02*
X229068813Y-174856037D01*
X229105079Y-174782925D01*
X229021208Y-175035851D02*
X229021208Y-174951996D01*
X229021208Y-175879846D02*
X229117741Y-175928514D01*
X229190284Y-175965082D01*
X229105079Y-174782925D02*
X229208983Y-174730546D01*
X229274155Y-174697689D01*
X229105079Y-175204922D02*
X229068813Y-175131810D01*
X229021208Y-175035851D01*
X229190284Y-175965082D02*
X229612302Y-175965082D01*
X229274155Y-174697689D02*
X229612302Y-174697689D01*
X229274155Y-175373993D02*
X229157277Y-175257124D01*
X229105079Y-175204922D01*
X229612302Y-174697689D02*
X229781378Y-174782925D01*
X229612302Y-175373993D02*
X229274155Y-175373993D01*
X229612302Y-175965082D02*
X229688607Y-175926617D01*
X229781378Y-175879846D01*
X229781378Y-175457849D02*
X229704156Y-175419552D01*
X229612302Y-175373993D01*
X229781378Y-175879846D02*
X229813211Y-175816172D01*
X229865228Y-175712135D01*
X229865228Y-175626940D02*
X229802249Y-175499942D01*
X229781378Y-175457849D01*
X229865228Y-175712135D02*
X229865228Y-175626940D01*
X230625357Y-174951996D02*
X230678657Y-174846289D01*
X230710603Y-174782925D01*
X230625357Y-175712135D02*
X230625357Y-174951996D01*
X230710603Y-164900984D02*
X230334276Y-165484294D01*
X229021208Y-167519584D01*
X230710603Y-174782925D02*
X230963509Y-174697689D01*
X230710603Y-175879846D02*
X230644837Y-175750464D01*
X230625357Y-175712135D01*
X230963509Y-174697689D02*
X231301656Y-174697689D01*
X230963509Y-175965082D02*
X230710603Y-175879846D01*
X231301656Y-174697689D02*
X231352268Y-174723206D01*
X231470732Y-174782925D01*
X231301656Y-175965082D02*
X230963509Y-175965082D01*
X231470732Y-174782925D02*
X231506998Y-174856037D01*
X231554603Y-174951996D01*
X231470732Y-175879846D02*
X231388228Y-175921450D01*
X231359509Y-175935923D01*
X231301656Y-175965082D01*
X231554603Y-174951996D02*
X231554603Y-175119707D01*
X231554603Y-175119707D02*
X230625357Y-175373993D01*
X232821980Y-164900984D02*
X232206465Y-165809231D01*
X231047380Y-167519584D01*
X233327828Y-166083131D02*
X233437373Y-165974472D01*
X233496904Y-165915430D01*
X233327828Y-166674209D02*
X233327828Y-166083131D01*
X233496904Y-165915430D02*
X233550705Y-165861609D01*
X233582104Y-165830194D01*
X233496904Y-166843280D02*
X233420811Y-166767192D01*
X233327828Y-166674209D01*
X233582104Y-165830194D02*
X233617155Y-165794863D01*
X233749830Y-165661123D01*
X233582104Y-166928505D02*
X233545588Y-166891975D01*
X233496904Y-166843280D01*
X233665980Y-167688655D02*
X233496904Y-167603419D01*
X233749830Y-165661123D02*
X234087977Y-165661123D01*
X233749830Y-167012361D02*
X233668673Y-166971786D01*
X233582104Y-166928505D01*
X233918901Y-167688655D02*
X233665980Y-167688655D01*
X234004127Y-174022786D02*
X234004127Y-175626940D01*
X234004127Y-175626940D02*
X234038970Y-175697202D01*
X234087977Y-175796011D01*
X234087977Y-165661123D02*
X234340883Y-165830194D01*
X234087977Y-167012361D02*
X233749830Y-167012361D01*
X234087977Y-167603419D02*
X233918901Y-167688655D01*
X234087977Y-175796011D02*
X234173203Y-175879846D01*
X234173203Y-175879846D02*
X234276677Y-175932449D01*
X234340883Y-175965082D01*
X234257053Y-167519584D02*
X234087977Y-167603419D01*
X234340883Y-165661123D02*
X234340883Y-167350503D01*
X234340883Y-166928505D02*
X234087977Y-167012361D01*
X234340883Y-167350503D02*
X234287373Y-167458437D01*
X234257053Y-167519584D01*
X234340883Y-175965082D02*
X234764276Y-175965082D01*
X234764276Y-175965082D02*
X234815695Y-175939165D01*
X234933352Y-175879846D01*
X234933352Y-175879846D02*
X235017182Y-175796011D01*
X235017182Y-175796011D02*
X235054487Y-175720805D01*
X235101053Y-175626940D01*
X235101053Y-175626940D02*
X235101053Y-174022786D01*
X235186258Y-165155280D02*
X235214212Y-165183230D01*
X235270129Y-165239136D01*
X235270129Y-165070055D02*
X235214965Y-165126107D01*
X235186258Y-165155280D01*
X235270129Y-165070055D02*
X235270129Y-165239136D01*
X235270129Y-165239136D02*
X235316632Y-165193368D01*
X235355329Y-165155280D01*
X235270129Y-167012361D02*
X235270129Y-165661123D01*
X235355329Y-165155280D02*
X235319453Y-165119390D01*
X235270129Y-165070055D01*
D10*
X235693481Y-182046256D02*
X235693481Y-200034173D01*
D13*
X235946428Y-165661123D02*
X236706577Y-165661123D01*
X236030278Y-174022786D02*
X236790407Y-174022786D01*
X236030278Y-175965082D02*
X236030278Y-174022786D01*
X236199354Y-165070055D02*
X236199354Y-166759435D01*
X236199354Y-166759435D02*
X236235698Y-166831535D01*
X236284580Y-166928505D01*
X236284580Y-166928505D02*
X236414133Y-166971459D01*
X236537501Y-167012361D01*
X236537501Y-167012361D02*
X236706577Y-167012361D01*
X236790407Y-174022786D02*
X237044729Y-174106621D01*
X236790407Y-175035851D02*
X236030278Y-175035851D01*
X237044729Y-174106621D02*
X237086544Y-174149140D01*
X237128554Y-174191857D01*
X237044729Y-174951996D02*
X236790407Y-175035851D01*
X237128554Y-174191857D02*
X237177118Y-174289743D01*
X237212430Y-174360928D01*
X237128554Y-174866760D02*
X237083490Y-174912604D01*
X237051097Y-174945525D01*
X237044729Y-174951996D01*
X237212430Y-174360928D02*
X237212430Y-174697689D01*
X237212430Y-174697689D02*
X237177118Y-174768874D01*
X237128554Y-174866760D01*
X237212430Y-175965082D02*
X236943029Y-175594170D01*
X236537501Y-175035851D01*
X237212430Y-183819481D02*
X237259044Y-183634483D01*
X237297630Y-183481339D01*
X237212430Y-184157643D02*
X237212430Y-183819481D01*
X237297630Y-183481339D02*
X237372456Y-183255710D01*
X237381501Y-183228433D01*
X237297630Y-184494425D02*
X237254855Y-184325343D01*
X237212430Y-184157643D01*
X237297630Y-191926827D02*
X238057805Y-191926827D01*
X237297630Y-193954379D02*
X237297630Y-191926827D01*
X237381501Y-167012361D02*
X237381501Y-165070055D01*
X237381501Y-183228433D02*
X237550577Y-183059362D01*
X237381501Y-184663496D02*
X237297630Y-184494425D01*
X237466706Y-165830194D02*
X237430967Y-165865948D01*
X237381501Y-165915430D01*
X237550577Y-183059362D02*
X237888729Y-182974106D01*
X237550577Y-184917803D02*
X237491650Y-184829182D01*
X237436568Y-184746346D01*
X237381501Y-184663496D01*
X237635782Y-165661123D02*
X237525887Y-165771022D01*
X237466706Y-165830194D01*
X237888729Y-165661123D02*
X237635782Y-165661123D01*
X237888729Y-182974106D02*
X238057805Y-182974106D01*
X237888729Y-185001658D02*
X237733028Y-184963048D01*
X237550577Y-184917803D01*
X238057805Y-175965082D02*
X238057805Y-174022786D01*
X238057805Y-182974106D02*
X238121380Y-182995532D01*
X238310726Y-183059362D01*
X238057805Y-185001658D02*
X237888729Y-185001658D01*
X238057805Y-191926827D02*
X238061682Y-191930705D01*
X238144272Y-192013320D01*
X238226876Y-192095918D01*
X238057805Y-193025149D02*
X237297630Y-193025149D01*
X238141655Y-165830194D02*
X238037483Y-165760561D01*
X237888729Y-165661123D01*
X238226876Y-165999275D02*
X238141655Y-165830194D01*
X238226876Y-167012361D02*
X238226876Y-165999275D01*
X238226876Y-192095918D02*
X238310726Y-192179774D01*
X238226876Y-192939933D02*
X238154465Y-192976428D01*
X238057805Y-193025149D01*
X238310726Y-183059362D02*
X238340250Y-183088405D01*
X238368100Y-183115802D01*
X238395952Y-183143177D01*
X238310726Y-184917803D02*
X238057805Y-185001658D01*
X238310726Y-192179774D02*
X238372774Y-192302869D01*
X238395952Y-192348865D01*
X238310726Y-192856078D02*
X238278468Y-192888334D01*
X238226876Y-192939933D01*
X238395952Y-184748732D02*
X238349777Y-184840332D01*
X238310726Y-184917803D01*
X238395952Y-192348865D02*
X238395952Y-192603131D01*
X238395952Y-192603131D02*
X238362719Y-192701769D01*
X238310726Y-192856078D01*
X238395952Y-193954379D02*
X238314944Y-193843079D01*
X238017290Y-193434119D01*
X237719653Y-193025149D01*
X238987030Y-175965082D02*
X238057805Y-175965082D01*
X239156101Y-165661123D02*
X239156101Y-166759435D01*
X239156101Y-166759435D02*
X239182226Y-166812113D01*
X239211087Y-166870309D01*
X239239931Y-166928505D01*
X239156101Y-183988552D02*
X239260485Y-183883322D01*
X239323802Y-183819481D01*
X239156101Y-184579661D02*
X239156101Y-183988552D01*
X239156101Y-192939933D02*
X239178111Y-192873540D01*
X239209030Y-192780271D01*
X239239931Y-192687007D01*
X239156101Y-193700052D02*
X239156101Y-192939933D01*
X239239931Y-166928505D02*
X239310563Y-166963534D01*
X239409007Y-167012361D01*
X239239931Y-192687007D02*
X239492878Y-192603131D01*
X239239931Y-193869143D02*
X239175393Y-193738956D01*
X239156101Y-193700052D01*
X239323802Y-183819481D02*
X239378655Y-183764640D01*
X239409007Y-183734286D01*
X239323802Y-184748732D02*
X239260485Y-184684891D01*
X239156101Y-184579661D01*
X239409007Y-167012361D02*
X239747154Y-167012361D01*
X239409007Y-183734286D02*
X239481052Y-183698548D01*
X239578083Y-183650410D01*
X239409007Y-184917803D02*
X239370046Y-184840488D01*
X239323802Y-184748732D01*
X239492878Y-192603131D02*
X239831030Y-192603131D01*
X239492878Y-193954379D02*
X239239931Y-193869143D01*
X239578083Y-183650410D02*
X239831030Y-183650410D01*
X239578083Y-185001658D02*
X239485977Y-184955974D01*
X239409007Y-184917803D01*
X239747154Y-167012361D02*
X239808238Y-166982069D01*
X239916230Y-166928505D01*
X239831030Y-183650410D02*
X239963499Y-183694341D01*
X240083951Y-183734286D01*
X239831030Y-185001658D02*
X239578083Y-185001658D01*
X239831030Y-192603131D02*
X239926215Y-192650355D01*
X240000101Y-192687007D01*
X239831030Y-193954379D02*
X239492878Y-193954379D01*
X239916230Y-166928505D02*
X239954478Y-166889639D01*
X240000101Y-166843280D01*
X240000101Y-165661123D02*
X240000101Y-167012361D01*
X240000101Y-192687007D02*
X240123722Y-192871941D01*
X240169177Y-192939933D01*
X240000101Y-193869143D02*
X239831030Y-193954379D01*
X240083951Y-183734286D02*
X240097693Y-183748025D01*
X240169177Y-183819481D01*
X240083951Y-184917803D02*
X239959697Y-184958999D01*
X239831030Y-185001658D01*
X240169177Y-183819481D02*
X240190106Y-183861692D01*
X240221561Y-183925129D01*
X240253027Y-183988552D01*
X240169177Y-184748732D02*
X240121048Y-184844205D01*
X240083951Y-184917803D01*
X240169177Y-192939933D02*
X240169177Y-193109004D01*
X240169177Y-193109004D02*
X239156101Y-193278075D01*
X240253027Y-183988552D02*
X240253027Y-184579661D01*
X240253027Y-184579661D02*
X240204717Y-184677052D01*
X240190106Y-184706521D01*
X240169177Y-184748732D01*
X240760255Y-192603131D02*
X241267478Y-193954379D01*
X240929326Y-165830194D02*
X241182232Y-165661123D01*
X240929326Y-167012361D02*
X240929326Y-165070055D01*
X241098402Y-183650410D02*
X241098402Y-185676582D01*
X241098402Y-183734286D02*
X241181101Y-183693261D01*
X241267478Y-183650410D01*
X241182232Y-165661123D02*
X241520379Y-165661123D01*
X241182232Y-167012361D02*
X240929326Y-166928505D01*
X241267478Y-183650410D02*
X241689455Y-183650410D01*
X241267478Y-185001658D02*
X241098402Y-184917803D01*
X241267478Y-193954379D02*
X241569937Y-193146440D01*
X241773326Y-192603131D01*
X241520379Y-165661123D02*
X241590009Y-165730747D01*
X241689455Y-165830194D01*
X241520379Y-167012361D02*
X241182232Y-167012361D01*
X241689455Y-165830194D02*
X241773896Y-165872763D01*
X241858531Y-165915430D01*
X241689455Y-166928505D02*
X241581463Y-166982069D01*
X241520379Y-167012361D01*
X241689455Y-183650410D02*
X241764041Y-183687409D01*
X241858531Y-183734286D01*
X241689455Y-185001658D02*
X241267478Y-185001658D01*
X241858531Y-165915430D02*
X241900908Y-166000163D01*
X241942402Y-166083131D01*
X241858531Y-166843280D02*
X241770238Y-166887785D01*
X241689455Y-166928505D01*
X241858531Y-183734286D02*
X241870885Y-183746838D01*
X241942402Y-183819481D01*
X241858531Y-184917803D02*
X241766692Y-184963354D01*
X241689455Y-185001658D01*
X241942402Y-166083131D02*
X241942402Y-166674209D01*
X241942402Y-166674209D02*
X241894187Y-166771401D01*
X241858531Y-166843280D01*
X241942402Y-183819481D02*
X241981494Y-183897055D01*
X242027607Y-183988552D01*
X241942402Y-184748732D02*
X241894956Y-184844371D01*
X241858531Y-184917803D01*
X242027607Y-183988552D02*
X242027607Y-184579661D01*
X242027607Y-184579661D02*
X241981494Y-184671158D01*
X241942402Y-184748732D01*
X242449630Y-193869143D02*
X242492118Y-193826660D01*
X242533475Y-193785308D01*
X242533475Y-193785308D02*
X242533475Y-193954379D01*
X242533475Y-193785308D02*
X242569058Y-193820314D01*
X242618701Y-193869143D01*
X242533475Y-193954379D02*
X242449630Y-193869143D01*
X242618701Y-193869143D02*
X242533475Y-193954379D01*
X242702551Y-166928505D02*
X242731904Y-166898668D01*
X242786381Y-166843280D01*
X242702551Y-183650410D02*
X243209779Y-185001658D01*
X242786381Y-166843280D02*
X242786381Y-167012361D01*
X242786381Y-166843280D02*
X242847272Y-166904154D01*
X242871627Y-166928505D01*
X242786381Y-167012361D02*
X242732699Y-166958657D01*
X242702551Y-166928505D01*
X242871627Y-166928505D02*
X242825186Y-166974189D01*
X242786381Y-167012361D01*
X242871627Y-185508871D02*
X242774402Y-185605312D01*
X242702551Y-185676582D01*
X242955457Y-185423635D02*
X242871627Y-185508871D01*
X243209779Y-185001658D02*
X242955457Y-185423635D01*
X243631756Y-166083131D02*
X243674107Y-165998450D01*
X243715627Y-165915430D01*
X243631756Y-166674209D02*
X243631756Y-166083131D01*
X243631756Y-183650410D02*
X243209779Y-185001658D01*
X243715627Y-165915430D02*
X243765093Y-165865948D01*
X243800832Y-165830194D01*
X243715627Y-166843280D02*
X243680611Y-166772689D01*
X243631756Y-166674209D01*
X243800832Y-165830194D02*
X243860013Y-165771022D01*
X243969908Y-165661123D01*
X243800832Y-166928505D02*
X243761949Y-166889611D01*
X243715627Y-166843280D01*
X243969908Y-165661123D02*
X244391926Y-165661123D01*
X243969908Y-167012361D02*
X243871844Y-166963722D01*
X243800832Y-166928505D01*
X244391926Y-165661123D02*
X244481609Y-165750814D01*
X244501903Y-165771104D01*
X244561002Y-165830194D01*
X244391926Y-167012361D02*
X243969908Y-167012361D01*
X244391926Y-183988552D02*
X244426769Y-183918290D01*
X244475776Y-183819481D01*
X244391926Y-185001658D02*
X244391926Y-183650410D01*
X244475776Y-183819481D02*
X244644852Y-183734286D01*
X244561002Y-166928505D02*
X244490370Y-166963534D01*
X244391926Y-167012361D01*
X244644852Y-183734286D02*
X244727551Y-183693261D01*
X244813928Y-183650410D01*
D10*
X244644852Y-191082853D02*
X244644852Y-200034173D01*
D13*
X244813928Y-183650410D02*
X244983004Y-183650410D01*
X245321151Y-166083131D02*
X245347468Y-166030495D01*
X245404981Y-165915430D01*
X245321151Y-166674209D02*
X245321151Y-166083131D01*
X245404981Y-165915430D02*
X245426295Y-165894120D01*
X245490227Y-165830194D01*
X245404981Y-166843280D02*
X245362125Y-166756823D01*
X245347414Y-166727164D01*
X245321151Y-166674209D01*
X245490227Y-165830194D02*
X245743133Y-165661123D01*
X245490227Y-166928505D02*
X245465872Y-166904154D01*
X245404981Y-166843280D01*
X245574057Y-183059362D02*
X245603476Y-183088770D01*
X245630699Y-183115985D01*
X245657928Y-183143177D01*
X245657928Y-182974106D02*
X245591002Y-183042134D01*
X245574057Y-183059362D01*
X245657928Y-182974106D02*
X245657928Y-183143177D01*
X245657928Y-183143177D02*
X245693509Y-183108195D01*
X245710592Y-183091382D01*
X245743133Y-183059362D01*
X245657928Y-185001658D02*
X245657928Y-183650410D01*
X245743133Y-165661123D02*
X245996080Y-165661123D01*
X245743133Y-167012361D02*
X245490227Y-166928505D01*
X245743133Y-183059362D02*
X245712349Y-183028555D01*
X245657928Y-182974106D01*
X245996080Y-165661123D02*
X246165151Y-165830194D01*
X245996080Y-167012361D02*
X245743133Y-167012361D01*
X246165151Y-165830194D02*
X246200890Y-165865948D01*
X246250356Y-165915430D01*
X246165151Y-166928505D02*
X246095463Y-166963067D01*
X245996080Y-167012361D01*
X246250356Y-165915430D02*
X246327765Y-165992829D01*
X246418077Y-166083131D01*
X246250356Y-166843280D02*
X246204034Y-166889611D01*
X246165151Y-166928505D01*
X246250356Y-191926827D02*
X246756229Y-191926827D01*
X246250356Y-193954379D02*
X246250356Y-191926827D01*
X246418077Y-166083131D02*
X246418077Y-166674209D01*
X246418077Y-166674209D02*
X246354138Y-166738660D01*
X246250356Y-166843280D01*
X246503303Y-183988552D02*
X246531090Y-183932517D01*
X246587153Y-183819481D01*
X246503303Y-184579661D02*
X246503303Y-183988552D01*
X246587153Y-183819481D02*
X246658637Y-183748025D01*
X246672379Y-183734286D01*
X246587153Y-184748732D02*
X246531090Y-184635696D01*
X246503303Y-184579661D01*
X246672379Y-183734286D02*
X246792831Y-183694341D01*
X246925300Y-183650410D01*
X246672379Y-184917803D02*
X246635282Y-184844205D01*
X246587153Y-184748732D01*
X246756229Y-185676582D02*
X246684378Y-185605312D01*
X246587153Y-185508871D01*
X246756229Y-191926827D02*
X246851789Y-191990725D01*
X247009130Y-192095918D01*
X246756229Y-193954379D02*
X246250356Y-193954379D01*
X246925300Y-183650410D02*
X247263452Y-183650410D01*
X246925300Y-185001658D02*
X246796633Y-184958999D01*
X246672379Y-184917803D01*
X247009130Y-192095918D02*
X247178206Y-192264989D01*
X247009130Y-193869143D02*
X246756229Y-193954379D01*
X247094376Y-185676582D02*
X246756229Y-185676582D01*
X247178206Y-192264989D02*
X247210152Y-192328353D01*
X247263452Y-192434060D01*
X247178206Y-193700052D02*
X247039871Y-193838402D01*
X247009130Y-193869143D01*
X247263452Y-165915430D02*
X247289707Y-165888742D01*
X247347282Y-165830194D01*
X247263452Y-167012361D02*
X247263452Y-165661123D01*
X247263452Y-183650410D02*
X247349829Y-183693261D01*
X247432528Y-183734286D01*
X247263452Y-185001658D02*
X246925300Y-185001658D01*
X247263452Y-185508871D02*
X247166227Y-185605312D01*
X247094376Y-185676582D01*
X247263452Y-192434060D02*
X247432528Y-192856078D01*
X247263452Y-193447146D02*
X247192727Y-193656973D01*
X247178206Y-193700052D01*
X247347282Y-165830194D02*
X247406381Y-165771104D01*
X247461377Y-165716117D01*
X247516358Y-165661123D01*
X247347282Y-185423635D02*
X247263452Y-185508871D01*
X247432528Y-183650410D02*
X247432528Y-185254564D01*
X247432528Y-184917803D02*
X247263452Y-185001658D01*
X247432528Y-185254564D02*
X247398802Y-185321456D01*
X247347282Y-185423635D01*
X247432528Y-192856078D02*
X247432528Y-193109004D01*
X247432528Y-193109004D02*
X247263452Y-193447146D01*
X247516358Y-165661123D02*
X247769305Y-165661123D01*
X247769305Y-165661123D02*
X247923009Y-165763326D01*
X248023581Y-165830194D01*
X248023581Y-165830194D02*
X248066862Y-165917447D01*
X248107452Y-165999275D01*
X248107452Y-165999275D02*
X248107452Y-167012361D01*
X248107452Y-165999275D02*
X248192657Y-165830194D01*
D10*
X248192657Y-5534790D02*
X248192657Y-10517690D01*
D13*
X248192657Y-165830194D02*
X248251838Y-165771022D01*
X248361733Y-165661123D01*
X248192657Y-193447146D02*
X248276528Y-193278075D01*
X248192657Y-193700052D02*
X248192657Y-193447146D01*
D10*
X248192657Y-205017107D02*
X248192657Y-200034173D01*
D13*
X248276528Y-193278075D02*
X248360835Y-193236260D01*
X248392441Y-193220594D01*
X248445604Y-193194240D01*
X248276528Y-193869143D02*
X248235185Y-193785791D01*
X248192657Y-193700052D01*
X248361733Y-165661123D02*
X248614675Y-165661123D01*
X248445604Y-185001658D02*
X248445604Y-182974106D01*
X248445604Y-192603131D02*
X248377648Y-192636839D01*
X248276528Y-192687007D01*
X248445604Y-193194240D02*
X248952827Y-193194240D01*
X248445604Y-193954379D02*
X248276528Y-193869143D01*
X248529454Y-183734286D02*
X248445604Y-183819481D01*
X248614675Y-165661123D02*
X248763429Y-165760561D01*
X248867601Y-165830194D01*
X248698525Y-183650410D02*
X248529454Y-183734286D01*
X248783751Y-192603131D02*
X248445604Y-192603131D01*
X248867601Y-165830194D02*
X248952827Y-165999275D01*
X248952827Y-165999275D02*
X248952827Y-167012361D01*
X248952827Y-183650410D02*
X248698525Y-183650410D01*
X248952827Y-193194240D02*
X249056301Y-193141637D01*
X249120507Y-193109004D01*
X248952827Y-193954379D02*
X248445604Y-193954379D01*
X249036677Y-192687007D02*
X248907883Y-192644296D01*
X248783751Y-192603131D01*
X249120507Y-192939933D02*
X249056446Y-192746640D01*
X249036677Y-192687007D01*
X249120507Y-193869143D02*
X248952827Y-193954379D01*
X249120507Y-193954379D02*
X249120507Y-192939933D01*
X249205753Y-183734286D02*
X249081621Y-183693121D01*
X248952827Y-183650410D01*
X249289583Y-183903357D02*
X249232501Y-183788218D01*
X249219260Y-183761520D01*
X249205753Y-183734286D01*
X249289583Y-185001658D02*
X249289583Y-183903357D01*
X249796806Y-192603131D02*
X250556976Y-192603131D01*
X249965882Y-183650410D02*
X250726052Y-183650410D01*
X250049753Y-191926827D02*
X250049753Y-193700052D01*
X250049753Y-193700052D02*
X250134958Y-193869143D01*
X250134958Y-193869143D02*
X250304029Y-193954379D01*
X250218829Y-182974106D02*
X250218829Y-184663496D01*
X250218829Y-184663496D02*
X250255931Y-184774245D01*
X250304029Y-184917803D01*
X250304029Y-184917803D02*
X250378807Y-184954887D01*
X250473105Y-185001658D01*
X250304029Y-193954379D02*
X250556976Y-193954379D01*
X250473105Y-185001658D02*
X250726052Y-185001658D01*
X251064204Y-192939933D02*
X251231879Y-192687007D01*
X251064204Y-193700052D02*
X251064204Y-192939933D01*
X251231879Y-192687007D02*
X251302011Y-192652218D01*
X251400955Y-192603131D01*
X251231879Y-193869143D02*
X251064204Y-193700052D01*
X251400955Y-192603131D02*
X251739107Y-192603131D01*
X251400955Y-193954379D02*
X251231879Y-193869143D01*
X251739107Y-192603131D02*
X251859436Y-192643031D01*
X251992054Y-192687007D01*
X251739107Y-193954379D02*
X251400955Y-193954379D01*
X251992054Y-192687007D02*
X252077254Y-192939933D01*
X251992054Y-193869143D02*
X251739107Y-193954379D01*
X252077254Y-192939933D02*
X252077254Y-193109004D01*
X252077254Y-193109004D02*
X251064204Y-193278075D01*
X254357705Y-193025149D02*
X254393838Y-192952308D01*
X254441578Y-192856078D01*
X254357705Y-193616237D02*
X254357705Y-193025149D01*
X254441578Y-192856078D02*
X254479938Y-192779954D01*
X254526781Y-192687007D01*
X254441578Y-193785308D02*
X254357705Y-193616237D01*
X254526781Y-192687007D02*
X254602508Y-192649442D01*
X254695857Y-192603131D01*
X254526781Y-193869143D02*
X254477619Y-193820776D01*
X254441578Y-193785308D01*
X254695857Y-192603131D02*
X255032651Y-192603131D01*
X254695857Y-193954379D02*
X254526781Y-193869143D01*
X255032651Y-192603131D02*
X255113906Y-192643440D01*
X255201727Y-192687007D01*
X255032651Y-193954379D02*
X254695857Y-193954379D01*
X255201727Y-192687007D02*
X255248976Y-192780736D01*
X255286953Y-192856078D01*
X255201727Y-193869143D02*
X255032651Y-193954379D01*
X255286953Y-192856078D02*
X255318769Y-192920235D01*
X255370803Y-193025149D01*
X255286953Y-193785308D02*
X255251968Y-193819727D01*
X255201727Y-193869143D01*
X255370803Y-193025149D02*
X255370803Y-193616237D01*
X255370803Y-193616237D02*
X255286953Y-193785308D01*
X255961856Y-192603131D02*
X256722026Y-192603131D01*
X256214803Y-192264989D02*
X256261023Y-192173278D01*
X256300006Y-192095918D01*
X256214803Y-193954379D02*
X256214803Y-192264989D01*
X256300006Y-192095918D02*
X256416684Y-192017929D01*
X256446949Y-191997694D01*
X256552952Y-191926827D01*
X256552952Y-191926827D02*
X256722026Y-191926827D01*
X258833403Y-192095918D02*
X258886737Y-192148404D01*
X258918606Y-192179774D01*
X258918606Y-191926827D02*
X258878327Y-192006767D01*
X258833403Y-192095918D01*
X258918606Y-191926827D02*
X258918606Y-192179774D01*
X258918606Y-192179774D02*
X259002476Y-192095918D01*
X258918606Y-193954379D02*
X258918606Y-192603131D01*
X259002476Y-192095918D02*
X258954981Y-192000168D01*
X258918606Y-191926827D01*
X259762626Y-192939933D02*
X259783468Y-192877064D01*
X259846456Y-192687007D01*
X259762626Y-193025149D02*
X259762626Y-192939933D01*
X259762626Y-193869143D02*
X259931702Y-193954379D01*
X259846456Y-192687007D02*
X259920276Y-192650387D01*
X260015529Y-192603131D01*
X259846456Y-193194240D02*
X259762626Y-193025149D01*
X259931702Y-193954379D02*
X260353681Y-193954379D01*
X260015529Y-192603131D02*
X260353681Y-192603131D01*
X260015529Y-193278075D02*
X259932587Y-193236936D01*
X259903418Y-193222478D01*
X259846456Y-193194240D01*
X260353681Y-192603131D02*
X260425705Y-192638859D01*
X260522755Y-192687007D01*
X260353681Y-193278075D02*
X260015529Y-193278075D01*
X260353681Y-193954379D02*
X260522755Y-193869143D01*
X260522755Y-193363311D02*
X260353681Y-193278075D01*
X260522755Y-193869143D02*
X260606628Y-193700052D01*
X260606628Y-193616237D02*
X260522755Y-193363311D01*
X260606628Y-193700052D02*
X260606628Y-193616237D01*
X261366777Y-192939933D02*
X261407907Y-192817871D01*
X261452003Y-192687007D01*
X261366777Y-193025149D02*
X261366777Y-192939933D01*
X261366777Y-193869143D02*
X261535851Y-193954379D01*
X261452003Y-192687007D02*
X261549533Y-192638620D01*
X261621076Y-192603131D01*
X261452003Y-193194240D02*
X261421497Y-193133706D01*
X261366777Y-193025149D01*
X261535851Y-193954379D02*
X261957830Y-193954379D01*
X261621076Y-192603131D02*
X261957830Y-192603131D01*
X261621076Y-193278075D02*
X261527833Y-193231838D01*
X261452003Y-193194240D01*
X261957830Y-192603131D02*
X262027380Y-192637630D01*
X262126906Y-192687007D01*
X261957830Y-193278075D02*
X261621076Y-193278075D01*
X261957830Y-193954379D02*
X262126906Y-193869143D01*
X262126906Y-193363311D02*
X261957830Y-193278075D01*
X262126906Y-193869143D02*
X262166001Y-193791595D01*
X262212152Y-193700052D01*
X262212152Y-193616237D02*
X262164652Y-193475305D01*
X262126906Y-193363311D01*
X262212152Y-193700052D02*
X262212152Y-193616237D01*
X263056152Y-192603131D02*
X263056152Y-193700052D01*
X263056152Y-193700052D02*
X263098332Y-193783762D01*
X263141355Y-193869143D01*
X263141355Y-193869143D02*
X263394301Y-193954379D01*
X263394301Y-193954379D02*
X263647228Y-193954379D01*
X263647228Y-193954379D02*
X263816301Y-193869143D01*
X263816301Y-193869143D02*
X263900131Y-193785308D01*
X263900131Y-192603131D02*
X263900131Y-193954379D01*
X264745506Y-192939933D02*
X264786978Y-192877898D01*
X264914580Y-192687007D01*
X264745506Y-193700052D02*
X264745506Y-192939933D01*
X264914580Y-192687007D02*
X264987606Y-192650782D01*
X265083656Y-192603131D01*
X264914580Y-193869143D02*
X264765014Y-193719560D01*
X264745506Y-193700052D01*
X265083656Y-192603131D02*
X265420453Y-192603131D01*
X265083656Y-193954379D02*
X264914580Y-193869143D01*
X265420453Y-192603131D02*
X265547555Y-192645053D01*
X265674752Y-192687007D01*
X265420453Y-193954379D02*
X265083656Y-193954379D01*
X265674752Y-192687007D02*
X265688525Y-192728563D01*
X265758602Y-192939933D01*
X265674752Y-193869143D02*
X265420453Y-193954379D01*
X265758602Y-192939933D02*
X265758602Y-193109004D01*
X265758602Y-193109004D02*
X264745506Y-193278075D01*
D10*
X270234255Y-204087856D02*
X270613045Y-202979669D01*
X271015420Y-201802482D01*
X271417779Y-200625282D01*
X270572404Y-203160006D02*
X272261802Y-203160006D01*
X271417779Y-200625282D02*
X272194524Y-202900369D01*
X272599951Y-204087856D01*
X272092726Y-7646164D02*
X272092726Y-8997389D01*
X272092726Y-8997389D02*
X272154208Y-9120353D01*
X272261802Y-9335539D01*
X272261802Y-6969864D02*
X272092726Y-7646164D01*
X272261802Y-7815239D02*
X272165187Y-8008468D01*
X272092726Y-8153389D01*
X272261802Y-9335539D02*
X272336946Y-9410684D01*
X272430875Y-9504615D01*
X272430875Y-7646164D02*
X272261802Y-7815239D01*
X272430875Y-9504615D02*
X272769027Y-9588464D01*
X272599951Y-6464015D02*
X272261802Y-6969864D01*
X272769027Y-6294940D02*
X272599951Y-6464015D01*
X272769027Y-7477089D02*
X272430875Y-7646164D01*
X272769027Y-9588464D02*
X273443951Y-9588464D01*
X273105802Y-6125865D02*
X273073200Y-6142231D01*
X272769027Y-6294940D01*
X273443951Y-7477089D02*
X272769027Y-7477089D01*
X273443951Y-9588464D02*
X273545304Y-9563331D01*
X273782100Y-9504615D01*
X273613027Y-202990935D02*
X275724401Y-202990935D01*
X273782100Y-6125865D02*
X273105802Y-6125865D01*
X273782100Y-7646164D02*
X273546600Y-7528416D01*
X273443951Y-7477089D01*
X273782100Y-9504615D02*
X273894812Y-9391898D01*
X273951176Y-9335539D01*
X273951176Y-7815239D02*
X273896547Y-7760615D01*
X273782100Y-7646164D01*
X273951176Y-9335539D02*
X274060876Y-9116129D01*
X274120250Y-8997389D01*
X274120250Y-8153389D02*
X274062126Y-8037150D01*
X273951176Y-7815239D01*
X274120250Y-8997389D02*
X274120250Y-8153389D01*
X274457004Y-200456211D02*
X273613027Y-202990935D01*
X275217176Y-201808799D02*
X275217176Y-204087856D01*
X277582829Y-191082853D02*
X277582829Y-200034173D01*
D13*
X278088701Y-192348865D02*
X278118868Y-192289003D01*
X278173925Y-192179774D01*
X278088701Y-192517936D02*
X278088701Y-192348865D01*
X278088701Y-193869143D02*
X278343001Y-193954379D01*
X278173925Y-192179774D02*
X278257776Y-192095918D01*
X278173925Y-192687007D02*
X278138438Y-192616601D01*
X278088701Y-192517936D01*
X278257776Y-192095918D02*
X278426850Y-191926827D01*
X278257776Y-192856078D02*
X278207676Y-192755064D01*
X278173925Y-192687007D01*
X278343001Y-193954379D02*
X278848829Y-193954379D01*
X278426850Y-191926827D02*
X278934076Y-191926827D01*
X278426850Y-192939933D02*
X278257776Y-192856078D01*
X278848829Y-193025149D02*
X278635688Y-192982106D01*
X278426850Y-192939933D01*
X278848829Y-193954379D02*
X279017905Y-193869143D01*
X278934076Y-191926827D02*
X279034407Y-191993913D01*
X279186980Y-192095918D01*
X279017905Y-193109004D02*
X278925122Y-193062984D01*
X278848829Y-193025149D01*
X279017905Y-193869143D02*
X279073819Y-193814159D01*
X279103151Y-193785308D01*
X279103151Y-193194240D02*
X279048152Y-193139244D01*
X279017905Y-193109004D01*
X279103151Y-193785308D02*
X279186980Y-193616237D01*
X279186980Y-193363311D02*
X279132397Y-193253207D01*
X279112039Y-193212161D01*
X279103151Y-193194240D01*
X279186980Y-193616237D02*
X279186980Y-193363311D01*
X280032354Y-193954379D02*
X280032354Y-191926827D01*
X280200076Y-192687007D02*
X280087289Y-192800697D01*
X280032354Y-192856078D01*
X280369150Y-192603131D02*
X280200076Y-192687007D01*
X280623450Y-192603131D02*
X280369150Y-192603131D01*
X280791130Y-192687007D02*
X280623450Y-192603131D01*
X280960205Y-192939933D02*
X280829267Y-192744052D01*
X280791130Y-192687007D01*
X280960205Y-193954379D02*
X280960205Y-192939933D01*
X281805579Y-192939933D02*
X281889450Y-192687007D01*
X281805579Y-193700052D02*
X281805579Y-192939933D01*
X281889450Y-192687007D02*
X281986672Y-192638774D01*
X282058526Y-192603131D01*
X281889450Y-193869143D02*
X281805579Y-193700052D01*
X282058526Y-192603131D02*
X282480526Y-192603131D01*
X282058526Y-193954379D02*
X281889450Y-193869143D01*
X282480526Y-192603131D02*
X282563050Y-192644070D01*
X282649601Y-192687007D01*
X282480526Y-193954379D02*
X282058526Y-193954379D01*
X282649601Y-192687007D02*
X282693025Y-192815880D01*
X282734825Y-192939933D01*
X282649601Y-193869143D02*
X282480526Y-193954379D01*
X282734825Y-192939933D02*
X282734825Y-193109004D01*
X282734825Y-193109004D02*
X281805579Y-193278075D01*
X283494976Y-192939933D02*
X283520372Y-192863319D01*
X283578804Y-192687007D01*
X283494976Y-193700052D02*
X283494976Y-192939933D01*
X283578804Y-192687007D02*
X283651671Y-192650861D01*
X283747879Y-192603131D01*
X283578804Y-193869143D02*
X283517913Y-193746310D01*
X283494976Y-193700052D01*
X283747879Y-192603131D02*
X284169901Y-192603131D01*
X283747879Y-193954379D02*
X283578804Y-193869143D01*
X284169901Y-192603131D02*
X284265795Y-192650705D01*
X284338975Y-192687007D01*
X284169901Y-193954379D02*
X283747879Y-193954379D01*
X284338975Y-192687007D02*
X284353603Y-192731141D01*
X284422826Y-192939933D01*
X284338975Y-193869143D02*
X284169901Y-193954379D01*
X284422826Y-192939933D02*
X284422826Y-193109004D01*
X284422826Y-193109004D02*
X283494976Y-193278075D01*
X285013879Y-192603131D02*
X285774051Y-192603131D01*
X285268201Y-191926827D02*
X285268201Y-193700052D01*
X285268201Y-193700052D02*
X285291669Y-193747382D01*
X285352030Y-193869143D01*
X285352030Y-193869143D02*
X285606350Y-193954379D01*
X285606350Y-193954379D02*
X285774051Y-193954379D01*
D12*
X286534200Y-10517690D02*
X20248037Y-10517690D01*
X286534200Y-164140835D02*
X148450836Y-164140835D01*
D10*
X286534200Y-173093555D02*
X148450836Y-173093555D01*
X286534200Y-182130132D02*
X148450836Y-182130132D01*
X286534200Y-191082853D02*
X235693481Y-191082853D01*
D12*
X286534200Y-200034173D02*
X286534200Y-10517690D01*
X286534200Y-200034173D02*
X286534200Y-164140835D01*
D10*
X287885426Y-32053439D02*
X288672351Y-29751142D01*
X289068950Y-28590837D01*
X287970629Y-129767744D02*
X288024317Y-129580076D01*
X288139703Y-129176686D01*
X287970629Y-130274977D02*
X287970629Y-129767744D01*
X288139703Y-78419832D02*
X289321875Y-78419832D01*
X288139703Y-81966283D02*
X288139703Y-78419832D01*
X288139703Y-129176686D02*
X288205462Y-129045174D01*
X288308779Y-128838534D01*
X288139703Y-130949911D02*
X288029009Y-130508011D01*
X287970629Y-130274977D01*
X288139703Y-178160304D02*
X288983725Y-178160304D01*
X288139703Y-181708114D02*
X288139703Y-178160304D01*
X288223576Y-31040361D02*
X289912929Y-31040361D01*
X288308779Y-128838534D02*
X288513269Y-128634056D01*
X288645575Y-128501752D01*
X288308779Y-131288063D02*
X288209239Y-131088963D01*
X288174143Y-131018780D01*
X288139703Y-130949911D01*
X288645575Y-128501752D02*
X289152800Y-128332671D01*
X288645575Y-131626205D02*
X288534510Y-131514689D01*
X288421652Y-131401373D01*
X288308779Y-131288063D01*
X288983725Y-178160304D02*
X289490950Y-178329375D01*
X288983725Y-181708114D02*
X288139703Y-181708114D01*
X289068950Y-28590837D02*
X289682809Y-30388908D01*
X290251079Y-32053439D01*
X289152800Y-128332671D02*
X289490950Y-128332671D01*
X289152800Y-131795286D02*
X288645575Y-131626205D01*
X289321875Y-78419832D02*
X289438114Y-78477951D01*
X289660025Y-78588903D01*
X289321875Y-80107837D02*
X288139703Y-80107837D01*
X289321875Y-80107837D02*
X289829100Y-80276913D01*
X289490950Y-81966283D02*
X288139703Y-81966283D01*
X289490950Y-128332671D02*
X289747262Y-128418344D01*
X289996801Y-128501752D01*
X289490950Y-131795286D02*
X289152800Y-131795286D01*
X289490950Y-178329375D02*
X289829100Y-178667537D01*
X289490950Y-181539043D02*
X288983725Y-181708114D01*
X289660025Y-78588903D02*
X289795230Y-78723015D01*
X289829100Y-78756609D01*
X289660025Y-79940136D02*
X289321875Y-80107837D01*
X289829100Y-78756609D02*
X289986856Y-79074710D01*
X289996801Y-79094761D01*
X289829100Y-79771060D02*
X289736877Y-79863284D01*
X289660025Y-79940136D01*
X289829100Y-80276913D02*
X289996801Y-80445984D01*
X289829100Y-81797207D02*
X289490950Y-81966283D01*
X289829100Y-178667537D02*
X289996801Y-179005679D01*
X289829100Y-181200881D02*
X289490950Y-181539043D01*
X289996801Y-79094761D02*
X289996801Y-79432913D01*
X289996801Y-79432913D02*
X289829100Y-79771060D01*
X289996801Y-80445984D02*
X290102331Y-80657056D01*
X290165875Y-80784136D01*
X289996801Y-81628131D02*
X289829100Y-81797207D01*
X289996801Y-128501752D02*
X290123778Y-128627710D01*
X290165875Y-128669463D01*
X289996801Y-131626205D02*
X289490950Y-131795286D01*
X289996801Y-179005679D02*
X290091562Y-179383990D01*
X290119084Y-179493841D01*
X290165875Y-179680603D01*
X289996801Y-180862739D02*
X289931897Y-180993602D01*
X289829100Y-181200881D01*
X290165875Y-80784136D02*
X290165875Y-81291359D01*
X290165875Y-81291359D02*
X290104654Y-81413292D01*
X289996801Y-81628131D01*
X290165875Y-131457134D02*
X289996801Y-131626205D01*
X290165875Y-179680603D02*
X290165875Y-180187836D01*
X290165875Y-180187836D02*
X290114558Y-180392664D01*
X289996801Y-180862739D01*
X291517079Y-5534790D02*
X15265144Y-5534790D01*
X291517079Y-55447637D02*
X286534200Y-55447637D01*
X291517079Y-105276625D02*
X286534200Y-105276625D01*
D11*
X291517079Y-105276625D02*
X286534200Y-105276625D01*
D10*
X291517079Y-155104248D02*
X286534200Y-155104248D01*
X291517079Y-205017107D02*
X291517079Y-5534790D01*
D14*
X237171393Y-196242238D02*
X237838059Y-198242238D01*
X237838059Y-198242238D02*
X238504726Y-196242238D01*
X240219012Y-198242238D02*
X239076155Y-198242238D01*
X239647583Y-198242238D02*
X239647583Y-196242238D01*
X239647583Y-196242238D02*
X239457107Y-196527952D01*
X239457107Y-196527952D02*
X239266631Y-196718428D01*
X239266631Y-196718428D02*
X239076155Y-196813666D01*
X241076155Y-198051761D02*
X241171393Y-198147000D01*
X241171393Y-198147000D02*
X241076155Y-198242238D01*
X241076155Y-198242238D02*
X240980917Y-198147000D01*
X240980917Y-198147000D02*
X241076155Y-198051761D01*
X241076155Y-198051761D02*
X241076155Y-198242238D01*
X242409488Y-196242238D02*
X242599965Y-196242238D01*
X242599965Y-196242238D02*
X242790441Y-196337476D01*
X242790441Y-196337476D02*
X242885679Y-196432714D01*
X242885679Y-196432714D02*
X242980917Y-196623190D01*
X242980917Y-196623190D02*
X243076155Y-197004142D01*
X243076155Y-197004142D02*
X243076155Y-197480333D01*
X243076155Y-197480333D02*
X242980917Y-197861285D01*
X242980917Y-197861285D02*
X242885679Y-198051761D01*
X242885679Y-198051761D02*
X242790441Y-198147000D01*
X242790441Y-198147000D02*
X242599965Y-198242238D01*
X242599965Y-198242238D02*
X242409488Y-198242238D01*
X242409488Y-198242238D02*
X242219012Y-198147000D01*
X242219012Y-198147000D02*
X242123774Y-198051761D01*
X242123774Y-198051761D02*
X242028536Y-197861285D01*
X242028536Y-197861285D02*
X241933298Y-197480333D01*
X241933298Y-197480333D02*
X241933298Y-197004142D01*
X241933298Y-197004142D02*
X242028536Y-196623190D01*
X242028536Y-196623190D02*
X242123774Y-196432714D01*
X242123774Y-196432714D02*
X242219012Y-196337476D01*
X242219012Y-196337476D02*
X242409488Y-196242238D01*
D15*
X240028097Y-187862114D02*
X239799526Y-187747828D01*
X239799526Y-187747828D02*
X239342383Y-187747828D01*
X239342383Y-187747828D02*
X239113812Y-187862114D01*
X239113812Y-187862114D02*
X238885240Y-188090685D01*
X238885240Y-188090685D02*
X238770954Y-188319257D01*
X238770954Y-188319257D02*
X238770954Y-188776400D01*
X238770954Y-188776400D02*
X238885240Y-189004971D01*
X238885240Y-189004971D02*
X239113812Y-189233542D01*
X239113812Y-189233542D02*
X239342383Y-189347828D01*
X239342383Y-189347828D02*
X239799526Y-189347828D01*
X239799526Y-189347828D02*
X240028097Y-189233542D01*
X239570954Y-186947828D02*
X238999526Y-187062114D01*
X238999526Y-187062114D02*
X238428097Y-187404971D01*
X238428097Y-187404971D02*
X238085240Y-187976400D01*
X238085240Y-187976400D02*
X237970954Y-188547828D01*
X237970954Y-188547828D02*
X238085240Y-189119257D01*
X238085240Y-189119257D02*
X238428097Y-189690685D01*
X238428097Y-189690685D02*
X238999526Y-190033542D01*
X238999526Y-190033542D02*
X239570954Y-190147828D01*
X239570954Y-190147828D02*
X240142383Y-190033542D01*
X240142383Y-190033542D02*
X240713812Y-189690685D01*
X240713812Y-189690685D02*
X241056669Y-189119257D01*
X241056669Y-189119257D02*
X241170954Y-188547828D01*
X241170954Y-188547828D02*
X241056669Y-187976400D01*
X241056669Y-187976400D02*
X240713812Y-187404971D01*
X240713812Y-187404971D02*
X240142383Y-187062114D01*
X240142383Y-187062114D02*
X239570954Y-186947828D01*
X243913811Y-187519257D02*
X244028097Y-187404971D01*
X244028097Y-187404971D02*
X244256669Y-187290685D01*
X244256669Y-187290685D02*
X244828097Y-187290685D01*
X244828097Y-187290685D02*
X245056669Y-187404971D01*
X245056669Y-187404971D02*
X245170954Y-187519257D01*
X245170954Y-187519257D02*
X245285240Y-187747828D01*
X245285240Y-187747828D02*
X245285240Y-187976400D01*
X245285240Y-187976400D02*
X245170954Y-188319257D01*
X245170954Y-188319257D02*
X243799526Y-189690685D01*
X243799526Y-189690685D02*
X245285240Y-189690685D01*
X246770954Y-187290685D02*
X246999525Y-187290685D01*
X246999525Y-187290685D02*
X247228097Y-187404971D01*
X247228097Y-187404971D02*
X247342383Y-187519257D01*
X247342383Y-187519257D02*
X247456668Y-187747828D01*
X247456668Y-187747828D02*
X247570954Y-188204971D01*
X247570954Y-188204971D02*
X247570954Y-188776400D01*
X247570954Y-188776400D02*
X247456668Y-189233542D01*
X247456668Y-189233542D02*
X247342383Y-189462114D01*
X247342383Y-189462114D02*
X247228097Y-189576400D01*
X247228097Y-189576400D02*
X246999525Y-189690685D01*
X246999525Y-189690685D02*
X246770954Y-189690685D01*
X246770954Y-189690685D02*
X246542383Y-189576400D01*
X246542383Y-189576400D02*
X246428097Y-189462114D01*
X246428097Y-189462114D02*
X246313811Y-189233542D01*
X246313811Y-189233542D02*
X246199525Y-188776400D01*
X246199525Y-188776400D02*
X246199525Y-188204971D01*
X246199525Y-188204971D02*
X246313811Y-187747828D01*
X246313811Y-187747828D02*
X246428097Y-187519257D01*
X246428097Y-187519257D02*
X246542383Y-187404971D01*
X246542383Y-187404971D02*
X246770954Y-187290685D01*
X248485239Y-187519257D02*
X248599525Y-187404971D01*
X248599525Y-187404971D02*
X248828097Y-187290685D01*
X248828097Y-187290685D02*
X249399525Y-187290685D01*
X249399525Y-187290685D02*
X249628097Y-187404971D01*
X249628097Y-187404971D02*
X249742382Y-187519257D01*
X249742382Y-187519257D02*
X249856668Y-187747828D01*
X249856668Y-187747828D02*
X249856668Y-187976400D01*
X249856668Y-187976400D02*
X249742382Y-188319257D01*
X249742382Y-188319257D02*
X248370954Y-189690685D01*
X248370954Y-189690685D02*
X249856668Y-189690685D01*
X251913811Y-187290685D02*
X251456668Y-187290685D01*
X251456668Y-187290685D02*
X251228096Y-187404971D01*
X251228096Y-187404971D02*
X251113811Y-187519257D01*
X251113811Y-187519257D02*
X250885239Y-187862114D01*
X250885239Y-187862114D02*
X250770953Y-188319257D01*
X250770953Y-188319257D02*
X250770953Y-189233542D01*
X250770953Y-189233542D02*
X250885239Y-189462114D01*
X250885239Y-189462114D02*
X250999525Y-189576400D01*
X250999525Y-189576400D02*
X251228096Y-189690685D01*
X251228096Y-189690685D02*
X251685239Y-189690685D01*
X251685239Y-189690685D02*
X251913811Y-189576400D01*
X251913811Y-189576400D02*
X252028096Y-189462114D01*
X252028096Y-189462114D02*
X252142382Y-189233542D01*
X252142382Y-189233542D02*
X252142382Y-188662114D01*
X252142382Y-188662114D02*
X252028096Y-188433542D01*
X252028096Y-188433542D02*
X251913811Y-188319257D01*
X251913811Y-188319257D02*
X251685239Y-188204971D01*
X251685239Y-188204971D02*
X251228096Y-188204971D01*
X251228096Y-188204971D02*
X250999525Y-188319257D01*
X250999525Y-188319257D02*
X250885239Y-188433542D01*
X250885239Y-188433542D02*
X250770953Y-188662114D01*
X254999524Y-189690685D02*
X254999524Y-187290685D01*
X254999524Y-187290685D02*
X255913810Y-187290685D01*
X255913810Y-187290685D02*
X256142381Y-187404971D01*
X256142381Y-187404971D02*
X256256667Y-187519257D01*
X256256667Y-187519257D02*
X256370953Y-187747828D01*
X256370953Y-187747828D02*
X256370953Y-188090685D01*
X256370953Y-188090685D02*
X256256667Y-188319257D01*
X256256667Y-188319257D02*
X256142381Y-188433542D01*
X256142381Y-188433542D02*
X255913810Y-188547828D01*
X255913810Y-188547828D02*
X254999524Y-188547828D01*
X258313810Y-189576400D02*
X258085238Y-189690685D01*
X258085238Y-189690685D02*
X257628096Y-189690685D01*
X257628096Y-189690685D02*
X257399524Y-189576400D01*
X257399524Y-189576400D02*
X257285238Y-189347828D01*
X257285238Y-189347828D02*
X257285238Y-188433542D01*
X257285238Y-188433542D02*
X257399524Y-188204971D01*
X257399524Y-188204971D02*
X257628096Y-188090685D01*
X257628096Y-188090685D02*
X258085238Y-188090685D01*
X258085238Y-188090685D02*
X258313810Y-188204971D01*
X258313810Y-188204971D02*
X258428096Y-188433542D01*
X258428096Y-188433542D02*
X258428096Y-188662114D01*
X258428096Y-188662114D02*
X257285238Y-188890685D01*
X259456667Y-189690685D02*
X259456667Y-188090685D01*
X259456667Y-188547828D02*
X259570953Y-188319257D01*
X259570953Y-188319257D02*
X259685239Y-188204971D01*
X259685239Y-188204971D02*
X259913810Y-188090685D01*
X259913810Y-188090685D02*
X260142381Y-188090685D01*
X260942381Y-188776400D02*
X262770953Y-188776400D01*
X263799524Y-189576400D02*
X264142382Y-189690685D01*
X264142382Y-189690685D02*
X264713810Y-189690685D01*
X264713810Y-189690685D02*
X264942382Y-189576400D01*
X264942382Y-189576400D02*
X265056667Y-189462114D01*
X265056667Y-189462114D02*
X265170953Y-189233542D01*
X265170953Y-189233542D02*
X265170953Y-189004971D01*
X265170953Y-189004971D02*
X265056667Y-188776400D01*
X265056667Y-188776400D02*
X264942382Y-188662114D01*
X264942382Y-188662114D02*
X264713810Y-188547828D01*
X264713810Y-188547828D02*
X264256667Y-188433542D01*
X264256667Y-188433542D02*
X264028096Y-188319257D01*
X264028096Y-188319257D02*
X263913810Y-188204971D01*
X263913810Y-188204971D02*
X263799524Y-187976400D01*
X263799524Y-187976400D02*
X263799524Y-187747828D01*
X263799524Y-187747828D02*
X263913810Y-187519257D01*
X263913810Y-187519257D02*
X264028096Y-187404971D01*
X264028096Y-187404971D02*
X264256667Y-187290685D01*
X264256667Y-187290685D02*
X264828096Y-187290685D01*
X264828096Y-187290685D02*
X265170953Y-187404971D01*
X266199524Y-189690685D02*
X266199524Y-188090685D01*
X266199524Y-187290685D02*
X266085238Y-187404971D01*
X266085238Y-187404971D02*
X266199524Y-187519257D01*
X266199524Y-187519257D02*
X266313810Y-187404971D01*
X266313810Y-187404971D02*
X266199524Y-187290685D01*
X266199524Y-187290685D02*
X266199524Y-187519257D01*
X267342381Y-189690685D02*
X267342381Y-188090685D01*
X267342381Y-188319257D02*
X267456667Y-188204971D01*
X267456667Y-188204971D02*
X267685238Y-188090685D01*
X267685238Y-188090685D02*
X268028095Y-188090685D01*
X268028095Y-188090685D02*
X268256667Y-188204971D01*
X268256667Y-188204971D02*
X268370953Y-188433542D01*
X268370953Y-188433542D02*
X268370953Y-189690685D01*
X268370953Y-188433542D02*
X268485238Y-188204971D01*
X268485238Y-188204971D02*
X268713810Y-188090685D01*
X268713810Y-188090685D02*
X269056667Y-188090685D01*
X269056667Y-188090685D02*
X269285238Y-188204971D01*
X269285238Y-188204971D02*
X269399524Y-188433542D01*
X269399524Y-188433542D02*
X269399524Y-189690685D01*
X270885238Y-189690685D02*
X270656667Y-189576400D01*
X270656667Y-189576400D02*
X270542381Y-189462114D01*
X270542381Y-189462114D02*
X270428095Y-189233542D01*
X270428095Y-189233542D02*
X270428095Y-188547828D01*
X270428095Y-188547828D02*
X270542381Y-188319257D01*
X270542381Y-188319257D02*
X270656667Y-188204971D01*
X270656667Y-188204971D02*
X270885238Y-188090685D01*
X270885238Y-188090685D02*
X271228095Y-188090685D01*
X271228095Y-188090685D02*
X271456667Y-188204971D01*
X271456667Y-188204971D02*
X271570953Y-188319257D01*
X271570953Y-188319257D02*
X271685238Y-188547828D01*
X271685238Y-188547828D02*
X271685238Y-189233542D01*
X271685238Y-189233542D02*
X271570953Y-189462114D01*
X271570953Y-189462114D02*
X271456667Y-189576400D01*
X271456667Y-189576400D02*
X271228095Y-189690685D01*
X271228095Y-189690685D02*
X270885238Y-189690685D01*
X272713810Y-188090685D02*
X272713810Y-189690685D01*
X272713810Y-188319257D02*
X272828096Y-188204971D01*
X272828096Y-188204971D02*
X273056667Y-188090685D01*
X273056667Y-188090685D02*
X273399524Y-188090685D01*
X273399524Y-188090685D02*
X273628096Y-188204971D01*
X273628096Y-188204971D02*
X273742382Y-188433542D01*
X273742382Y-188433542D02*
X273742382Y-189690685D01*
X276599524Y-189576400D02*
X276942382Y-189690685D01*
X276942382Y-189690685D02*
X277513810Y-189690685D01*
X277513810Y-189690685D02*
X277742382Y-189576400D01*
X277742382Y-189576400D02*
X277856667Y-189462114D01*
X277856667Y-189462114D02*
X277970953Y-189233542D01*
X277970953Y-189233542D02*
X277970953Y-189004971D01*
X277970953Y-189004971D02*
X277856667Y-188776400D01*
X277856667Y-188776400D02*
X277742382Y-188662114D01*
X277742382Y-188662114D02*
X277513810Y-188547828D01*
X277513810Y-188547828D02*
X277056667Y-188433542D01*
X277056667Y-188433542D02*
X276828096Y-188319257D01*
X276828096Y-188319257D02*
X276713810Y-188204971D01*
X276713810Y-188204971D02*
X276599524Y-187976400D01*
X276599524Y-187976400D02*
X276599524Y-187747828D01*
X276599524Y-187747828D02*
X276713810Y-187519257D01*
X276713810Y-187519257D02*
X276828096Y-187404971D01*
X276828096Y-187404971D02*
X277056667Y-187290685D01*
X277056667Y-187290685D02*
X277628096Y-187290685D01*
X277628096Y-187290685D02*
X277970953Y-187404971D01*
X280028096Y-189690685D02*
X280028096Y-188433542D01*
X280028096Y-188433542D02*
X279913810Y-188204971D01*
X279913810Y-188204971D02*
X279685238Y-188090685D01*
X279685238Y-188090685D02*
X279228096Y-188090685D01*
X279228096Y-188090685D02*
X278999524Y-188204971D01*
X280028096Y-189576400D02*
X279799524Y-189690685D01*
X279799524Y-189690685D02*
X279228096Y-189690685D01*
X279228096Y-189690685D02*
X278999524Y-189576400D01*
X278999524Y-189576400D02*
X278885238Y-189347828D01*
X278885238Y-189347828D02*
X278885238Y-189119257D01*
X278885238Y-189119257D02*
X278999524Y-188890685D01*
X278999524Y-188890685D02*
X279228096Y-188776400D01*
X279228096Y-188776400D02*
X279799524Y-188776400D01*
X279799524Y-188776400D02*
X280028096Y-188662114D01*
X282199525Y-189690685D02*
X282199525Y-188433542D01*
X282199525Y-188433542D02*
X282085239Y-188204971D01*
X282085239Y-188204971D02*
X281856667Y-188090685D01*
X281856667Y-188090685D02*
X281399525Y-188090685D01*
X281399525Y-188090685D02*
X281170953Y-188204971D01*
X282199525Y-189576400D02*
X281970953Y-189690685D01*
X281970953Y-189690685D02*
X281399525Y-189690685D01*
X281399525Y-189690685D02*
X281170953Y-189576400D01*
X281170953Y-189576400D02*
X281056667Y-189347828D01*
X281056667Y-189347828D02*
X281056667Y-189119257D01*
X281056667Y-189119257D02*
X281170953Y-188890685D01*
X281170953Y-188890685D02*
X281399525Y-188776400D01*
X281399525Y-188776400D02*
X281970953Y-188776400D01*
X281970953Y-188776400D02*
X282199525Y-188662114D01*
X283685239Y-189690685D02*
X283456668Y-189576400D01*
X283456668Y-189576400D02*
X283342382Y-189347828D01*
X283342382Y-189347828D02*
X283342382Y-187290685D01*
D16*
X221593464Y-180616607D02*
X221593464Y-177616607D01*
X222622036Y-180616607D02*
X222622036Y-179045178D01*
X222622036Y-179045178D02*
X222507750Y-178759464D01*
X222507750Y-178759464D02*
X222279178Y-178616607D01*
X222279178Y-178616607D02*
X221936321Y-178616607D01*
X221936321Y-178616607D02*
X221707750Y-178759464D01*
X221707750Y-178759464D02*
X221593464Y-178902321D01*
X223422036Y-178616607D02*
X224336322Y-178616607D01*
X223764893Y-177616607D02*
X223764893Y-180188035D01*
X223764893Y-180188035D02*
X223879179Y-180473750D01*
X223879179Y-180473750D02*
X224107750Y-180616607D01*
X224107750Y-180616607D02*
X224336322Y-180616607D01*
X224793465Y-178616607D02*
X225707751Y-178616607D01*
X225136322Y-177616607D02*
X225136322Y-180188035D01*
X225136322Y-180188035D02*
X225250608Y-180473750D01*
X225250608Y-180473750D02*
X225479179Y-180616607D01*
X225479179Y-180616607D02*
X225707751Y-180616607D01*
X226507751Y-178616607D02*
X226507751Y-181616607D01*
X226507751Y-178759464D02*
X226736323Y-178616607D01*
X226736323Y-178616607D02*
X227193465Y-178616607D01*
X227193465Y-178616607D02*
X227422037Y-178759464D01*
X227422037Y-178759464D02*
X227536323Y-178902321D01*
X227536323Y-178902321D02*
X227650608Y-179188035D01*
X227650608Y-179188035D02*
X227650608Y-180045178D01*
X227650608Y-180045178D02*
X227536323Y-180330892D01*
X227536323Y-180330892D02*
X227422037Y-180473750D01*
X227422037Y-180473750D02*
X227193465Y-180616607D01*
X227193465Y-180616607D02*
X226736323Y-180616607D01*
X226736323Y-180616607D02*
X226507751Y-180473750D01*
X228564894Y-180473750D02*
X228793466Y-180616607D01*
X228793466Y-180616607D02*
X229250609Y-180616607D01*
X229250609Y-180616607D02*
X229479180Y-180473750D01*
X229479180Y-180473750D02*
X229593466Y-180188035D01*
X229593466Y-180188035D02*
X229593466Y-180045178D01*
X229593466Y-180045178D02*
X229479180Y-179759464D01*
X229479180Y-179759464D02*
X229250609Y-179616607D01*
X229250609Y-179616607D02*
X228907752Y-179616607D01*
X228907752Y-179616607D02*
X228679180Y-179473750D01*
X228679180Y-179473750D02*
X228564894Y-179188035D01*
X228564894Y-179188035D02*
X228564894Y-179045178D01*
X228564894Y-179045178D02*
X228679180Y-178759464D01*
X228679180Y-178759464D02*
X228907752Y-178616607D01*
X228907752Y-178616607D02*
X229250609Y-178616607D01*
X229250609Y-178616607D02*
X229479180Y-178759464D01*
X230622037Y-180330892D02*
X230736323Y-180473750D01*
X230736323Y-180473750D02*
X230622037Y-180616607D01*
X230622037Y-180616607D02*
X230507751Y-180473750D01*
X230507751Y-180473750D02*
X230622037Y-180330892D01*
X230622037Y-180330892D02*
X230622037Y-180616607D01*
X230622037Y-178759464D02*
X230736323Y-178902321D01*
X230736323Y-178902321D02*
X230622037Y-179045178D01*
X230622037Y-179045178D02*
X230507751Y-178902321D01*
X230507751Y-178902321D02*
X230622037Y-178759464D01*
X230622037Y-178759464D02*
X230622037Y-179045178D01*
X233479180Y-177473750D02*
X231422037Y-181330892D01*
X235993466Y-177473750D02*
X233936323Y-181330892D01*
X237136323Y-180616607D02*
X236907752Y-180473750D01*
X236907752Y-180473750D02*
X236793466Y-180330892D01*
X236793466Y-180330892D02*
X236679180Y-180045178D01*
X236679180Y-180045178D02*
X236679180Y-179188035D01*
X236679180Y-179188035D02*
X236793466Y-178902321D01*
X236793466Y-178902321D02*
X236907752Y-178759464D01*
X236907752Y-178759464D02*
X237136323Y-178616607D01*
X237136323Y-178616607D02*
X237479180Y-178616607D01*
X237479180Y-178616607D02*
X237707752Y-178759464D01*
X237707752Y-178759464D02*
X237822038Y-178902321D01*
X237822038Y-178902321D02*
X237936323Y-179188035D01*
X237936323Y-179188035D02*
X237936323Y-180045178D01*
X237936323Y-180045178D02*
X237822038Y-180330892D01*
X237822038Y-180330892D02*
X237707752Y-180473750D01*
X237707752Y-180473750D02*
X237479180Y-180616607D01*
X237479180Y-180616607D02*
X237136323Y-180616607D01*
X238964895Y-180616607D02*
X238964895Y-177616607D01*
X239993467Y-180616607D02*
X239993467Y-179045178D01*
X239993467Y-179045178D02*
X239879181Y-178759464D01*
X239879181Y-178759464D02*
X239650609Y-178616607D01*
X239650609Y-178616607D02*
X239307752Y-178616607D01*
X239307752Y-178616607D02*
X239079181Y-178759464D01*
X239079181Y-178759464D02*
X238964895Y-178902321D01*
X240907753Y-178616607D02*
X241364896Y-180616607D01*
X241364896Y-180616607D02*
X241822038Y-179188035D01*
X241822038Y-179188035D02*
X242279181Y-180616607D01*
X242279181Y-180616607D02*
X242736324Y-178616607D01*
X243650610Y-180616607D02*
X243650610Y-178616607D01*
X243650610Y-179188035D02*
X243764896Y-178902321D01*
X243764896Y-178902321D02*
X243879182Y-178759464D01*
X243879182Y-178759464D02*
X244107753Y-178616607D01*
X244107753Y-178616607D02*
X244336324Y-178616607D01*
X245136324Y-180330892D02*
X245250610Y-180473750D01*
X245250610Y-180473750D02*
X245136324Y-180616607D01*
X245136324Y-180616607D02*
X245022038Y-180473750D01*
X245022038Y-180473750D02*
X245136324Y-180330892D01*
X245136324Y-180330892D02*
X245136324Y-180616607D01*
X246622038Y-180616607D02*
X246393467Y-180473750D01*
X246393467Y-180473750D02*
X246279181Y-180330892D01*
X246279181Y-180330892D02*
X246164895Y-180045178D01*
X246164895Y-180045178D02*
X246164895Y-179188035D01*
X246164895Y-179188035D02*
X246279181Y-178902321D01*
X246279181Y-178902321D02*
X246393467Y-178759464D01*
X246393467Y-178759464D02*
X246622038Y-178616607D01*
X246622038Y-178616607D02*
X246964895Y-178616607D01*
X246964895Y-178616607D02*
X247193467Y-178759464D01*
X247193467Y-178759464D02*
X247307753Y-178902321D01*
X247307753Y-178902321D02*
X247422038Y-179188035D01*
X247422038Y-179188035D02*
X247422038Y-180045178D01*
X247422038Y-180045178D02*
X247307753Y-180330892D01*
X247307753Y-180330892D02*
X247193467Y-180473750D01*
X247193467Y-180473750D02*
X246964895Y-180616607D01*
X246964895Y-180616607D02*
X246622038Y-180616607D01*
X248450610Y-180616607D02*
X248450610Y-178616607D01*
X248450610Y-179188035D02*
X248564896Y-178902321D01*
X248564896Y-178902321D02*
X248679182Y-178759464D01*
X248679182Y-178759464D02*
X248907753Y-178616607D01*
X248907753Y-178616607D02*
X249136324Y-178616607D01*
X250964896Y-178616607D02*
X250964896Y-181045178D01*
X250964896Y-181045178D02*
X250850610Y-181330892D01*
X250850610Y-181330892D02*
X250736324Y-181473750D01*
X250736324Y-181473750D02*
X250507753Y-181616607D01*
X250507753Y-181616607D02*
X250164896Y-181616607D01*
X250164896Y-181616607D02*
X249936324Y-181473750D01*
X250964896Y-180473750D02*
X250736324Y-180616607D01*
X250736324Y-180616607D02*
X250279181Y-180616607D01*
X250279181Y-180616607D02*
X250050610Y-180473750D01*
X250050610Y-180473750D02*
X249936324Y-180330892D01*
X249936324Y-180330892D02*
X249822038Y-180045178D01*
X249822038Y-180045178D02*
X249822038Y-179188035D01*
X249822038Y-179188035D02*
X249936324Y-178902321D01*
X249936324Y-178902321D02*
X250050610Y-178759464D01*
X250050610Y-178759464D02*
X250279181Y-178616607D01*
X250279181Y-178616607D02*
X250736324Y-178616607D01*
X250736324Y-178616607D02*
X250964896Y-178759464D01*
X253822039Y-177473750D02*
X251764896Y-181330892D01*
X255650611Y-180473750D02*
X255422039Y-180616607D01*
X255422039Y-180616607D02*
X254964896Y-180616607D01*
X254964896Y-180616607D02*
X254736325Y-180473750D01*
X254736325Y-180473750D02*
X254622039Y-180330892D01*
X254622039Y-180330892D02*
X254507753Y-180045178D01*
X254507753Y-180045178D02*
X254507753Y-179188035D01*
X254507753Y-179188035D02*
X254622039Y-178902321D01*
X254622039Y-178902321D02*
X254736325Y-178759464D01*
X254736325Y-178759464D02*
X254964896Y-178616607D01*
X254964896Y-178616607D02*
X255422039Y-178616607D01*
X255422039Y-178616607D02*
X255650611Y-178759464D01*
X257593468Y-180473750D02*
X257364896Y-180616607D01*
X257364896Y-180616607D02*
X256907754Y-180616607D01*
X256907754Y-180616607D02*
X256679182Y-180473750D01*
X256679182Y-180473750D02*
X256564896Y-180188035D01*
X256564896Y-180188035D02*
X256564896Y-179045178D01*
X256564896Y-179045178D02*
X256679182Y-178759464D01*
X256679182Y-178759464D02*
X256907754Y-178616607D01*
X256907754Y-178616607D02*
X257364896Y-178616607D01*
X257364896Y-178616607D02*
X257593468Y-178759464D01*
X257593468Y-178759464D02*
X257707754Y-179045178D01*
X257707754Y-179045178D02*
X257707754Y-179330892D01*
X257707754Y-179330892D02*
X256564896Y-179616607D01*
X258736325Y-180616607D02*
X258736325Y-178616607D01*
X258736325Y-179188035D02*
X258850611Y-178902321D01*
X258850611Y-178902321D02*
X258964897Y-178759464D01*
X258964897Y-178759464D02*
X259193468Y-178616607D01*
X259193468Y-178616607D02*
X259422039Y-178616607D01*
X260222039Y-178616607D02*
X260222039Y-180616607D01*
X260222039Y-178902321D02*
X260336325Y-178759464D01*
X260336325Y-178759464D02*
X260564896Y-178616607D01*
X260564896Y-178616607D02*
X260907753Y-178616607D01*
X260907753Y-178616607D02*
X261136325Y-178759464D01*
X261136325Y-178759464D02*
X261250611Y-179045178D01*
X261250611Y-179045178D02*
X261250611Y-180616607D01*
X261822040Y-180902321D02*
X263650611Y-180902321D01*
X264564896Y-180616607D02*
X264336325Y-180473750D01*
X264336325Y-180473750D02*
X264222039Y-180330892D01*
X264222039Y-180330892D02*
X264107753Y-180045178D01*
X264107753Y-180045178D02*
X264107753Y-179188035D01*
X264107753Y-179188035D02*
X264222039Y-178902321D01*
X264222039Y-178902321D02*
X264336325Y-178759464D01*
X264336325Y-178759464D02*
X264564896Y-178616607D01*
X264564896Y-178616607D02*
X264907753Y-178616607D01*
X264907753Y-178616607D02*
X265136325Y-178759464D01*
X265136325Y-178759464D02*
X265250611Y-178902321D01*
X265250611Y-178902321D02*
X265364896Y-179188035D01*
X265364896Y-179188035D02*
X265364896Y-180045178D01*
X265364896Y-180045178D02*
X265250611Y-180330892D01*
X265250611Y-180330892D02*
X265136325Y-180473750D01*
X265136325Y-180473750D02*
X264907753Y-180616607D01*
X264907753Y-180616607D02*
X264564896Y-180616607D01*
X266393468Y-180616607D02*
X266393468Y-177616607D01*
X267422040Y-180616607D02*
X267422040Y-179045178D01*
X267422040Y-179045178D02*
X267307754Y-178759464D01*
X267307754Y-178759464D02*
X267079182Y-178616607D01*
X267079182Y-178616607D02*
X266736325Y-178616607D01*
X266736325Y-178616607D02*
X266507754Y-178759464D01*
X266507754Y-178759464D02*
X266393468Y-178902321D01*
X268907754Y-180616607D02*
X268679183Y-180473750D01*
X268679183Y-180473750D02*
X268564897Y-180188035D01*
X268564897Y-180188035D02*
X268564897Y-177616607D01*
X269250612Y-180902321D02*
X271079183Y-180902321D01*
X271536325Y-180473750D02*
X271764897Y-180616607D01*
X271764897Y-180616607D02*
X272222040Y-180616607D01*
X272222040Y-180616607D02*
X272450611Y-180473750D01*
X272450611Y-180473750D02*
X272564897Y-180188035D01*
X272564897Y-180188035D02*
X272564897Y-180045178D01*
X272564897Y-180045178D02*
X272450611Y-179759464D01*
X272450611Y-179759464D02*
X272222040Y-179616607D01*
X272222040Y-179616607D02*
X271879183Y-179616607D01*
X271879183Y-179616607D02*
X271650611Y-179473750D01*
X271650611Y-179473750D02*
X271536325Y-179188035D01*
X271536325Y-179188035D02*
X271536325Y-179045178D01*
X271536325Y-179045178D02*
X271650611Y-178759464D01*
X271650611Y-178759464D02*
X271879183Y-178616607D01*
X271879183Y-178616607D02*
X272222040Y-178616607D01*
X272222040Y-178616607D02*
X272450611Y-178759464D01*
X273022040Y-180902321D02*
X274850611Y-180902321D01*
X275193468Y-178616607D02*
X275764896Y-180616607D01*
X275764896Y-180616607D02*
X276336325Y-178616607D01*
X277136324Y-177902321D02*
X277250610Y-177759464D01*
X277250610Y-177759464D02*
X277479182Y-177616607D01*
X277479182Y-177616607D02*
X278050610Y-177616607D01*
X278050610Y-177616607D02*
X278279182Y-177759464D01*
X278279182Y-177759464D02*
X278393467Y-177902321D01*
X278393467Y-177902321D02*
X278507753Y-178188035D01*
X278507753Y-178188035D02*
X278507753Y-178473750D01*
X278507753Y-178473750D02*
X278393467Y-178902321D01*
X278393467Y-178902321D02*
X277022039Y-180616607D01*
X277022039Y-180616607D02*
X278507753Y-180616607D01*
X279536324Y-180330892D02*
X279650610Y-180473750D01*
X279650610Y-180473750D02*
X279536324Y-180616607D01*
X279536324Y-180616607D02*
X279422038Y-180473750D01*
X279422038Y-180473750D02*
X279536324Y-180330892D01*
X279536324Y-180330892D02*
X279536324Y-180616607D01*
X280336324Y-178616607D02*
X281250610Y-178616607D01*
X280679181Y-177616607D02*
X280679181Y-180188035D01*
X280679181Y-180188035D02*
X280793467Y-180473750D01*
X280793467Y-180473750D02*
X281022038Y-180616607D01*
X281022038Y-180616607D02*
X281250610Y-180616607D01*
X281822039Y-180616607D02*
X283079182Y-178616607D01*
X281822039Y-178616607D02*
X283079182Y-180616607D01*
X283650610Y-178616607D02*
X284564896Y-178616607D01*
X283993467Y-177616607D02*
X283993467Y-180188035D01*
X283993467Y-180188035D02*
X284107753Y-180473750D01*
X284107753Y-180473750D02*
X284336324Y-180616607D01*
X284336324Y-180616607D02*
X284564896Y-180616607D01*
X151807750Y-180616607D02*
X150617274Y-180616607D01*
X150617274Y-180616607D02*
X150617274Y-177616607D01*
X152641084Y-180616607D02*
X152641084Y-178616607D01*
X152641084Y-177616607D02*
X152522036Y-177759464D01*
X152522036Y-177759464D02*
X152641084Y-177902321D01*
X152641084Y-177902321D02*
X152760131Y-177759464D01*
X152760131Y-177759464D02*
X152641084Y-177616607D01*
X152641084Y-177616607D02*
X152641084Y-177902321D01*
X154902988Y-180473750D02*
X154664893Y-180616607D01*
X154664893Y-180616607D02*
X154188702Y-180616607D01*
X154188702Y-180616607D02*
X153950607Y-180473750D01*
X153950607Y-180473750D02*
X153831560Y-180330892D01*
X153831560Y-180330892D02*
X153712512Y-180045178D01*
X153712512Y-180045178D02*
X153712512Y-179188035D01*
X153712512Y-179188035D02*
X153831560Y-178902321D01*
X153831560Y-178902321D02*
X153950607Y-178759464D01*
X153950607Y-178759464D02*
X154188702Y-178616607D01*
X154188702Y-178616607D02*
X154664893Y-178616607D01*
X154664893Y-178616607D02*
X154902988Y-178759464D01*
X156926798Y-180473750D02*
X156688702Y-180616607D01*
X156688702Y-180616607D02*
X156212512Y-180616607D01*
X156212512Y-180616607D02*
X155974417Y-180473750D01*
X155974417Y-180473750D02*
X155855369Y-180188035D01*
X155855369Y-180188035D02*
X155855369Y-179045178D01*
X155855369Y-179045178D02*
X155974417Y-178759464D01*
X155974417Y-178759464D02*
X156212512Y-178616607D01*
X156212512Y-178616607D02*
X156688702Y-178616607D01*
X156688702Y-178616607D02*
X156926798Y-178759464D01*
X156926798Y-178759464D02*
X157045845Y-179045178D01*
X157045845Y-179045178D02*
X157045845Y-179330892D01*
X157045845Y-179330892D02*
X155855369Y-179616607D01*
X158117274Y-178616607D02*
X158117274Y-180616607D01*
X158117274Y-178902321D02*
X158236321Y-178759464D01*
X158236321Y-178759464D02*
X158474416Y-178616607D01*
X158474416Y-178616607D02*
X158831559Y-178616607D01*
X158831559Y-178616607D02*
X159069655Y-178759464D01*
X159069655Y-178759464D02*
X159188702Y-179045178D01*
X159188702Y-179045178D02*
X159188702Y-180616607D01*
X160260131Y-180473750D02*
X160498226Y-180616607D01*
X160498226Y-180616607D02*
X160974417Y-180616607D01*
X160974417Y-180616607D02*
X161212512Y-180473750D01*
X161212512Y-180473750D02*
X161331560Y-180188035D01*
X161331560Y-180188035D02*
X161331560Y-180045178D01*
X161331560Y-180045178D02*
X161212512Y-179759464D01*
X161212512Y-179759464D02*
X160974417Y-179616607D01*
X160974417Y-179616607D02*
X160617274Y-179616607D01*
X160617274Y-179616607D02*
X160379179Y-179473750D01*
X160379179Y-179473750D02*
X160260131Y-179188035D01*
X160260131Y-179188035D02*
X160260131Y-179045178D01*
X160260131Y-179045178D02*
X160379179Y-178759464D01*
X160379179Y-178759464D02*
X160617274Y-178616607D01*
X160617274Y-178616607D02*
X160974417Y-178616607D01*
X160974417Y-178616607D02*
X161212512Y-178759464D01*
X163355370Y-180473750D02*
X163117274Y-180616607D01*
X163117274Y-180616607D02*
X162641084Y-180616607D01*
X162641084Y-180616607D02*
X162402989Y-180473750D01*
X162402989Y-180473750D02*
X162283941Y-180188035D01*
X162283941Y-180188035D02*
X162283941Y-179045178D01*
X162283941Y-179045178D02*
X162402989Y-178759464D01*
X162402989Y-178759464D02*
X162641084Y-178616607D01*
X162641084Y-178616607D02*
X163117274Y-178616607D01*
X163117274Y-178616607D02*
X163355370Y-178759464D01*
X163355370Y-178759464D02*
X163474417Y-179045178D01*
X163474417Y-179045178D02*
X163474417Y-179330892D01*
X163474417Y-179330892D02*
X162283941Y-179616607D01*
X165617274Y-180616607D02*
X165617274Y-177616607D01*
X165617274Y-180473750D02*
X165379179Y-180616607D01*
X165379179Y-180616607D02*
X164902988Y-180616607D01*
X164902988Y-180616607D02*
X164664893Y-180473750D01*
X164664893Y-180473750D02*
X164545846Y-180330892D01*
X164545846Y-180330892D02*
X164426798Y-180045178D01*
X164426798Y-180045178D02*
X164426798Y-179188035D01*
X164426798Y-179188035D02*
X164545846Y-178902321D01*
X164545846Y-178902321D02*
X164664893Y-178759464D01*
X164664893Y-178759464D02*
X164902988Y-178616607D01*
X164902988Y-178616607D02*
X165379179Y-178616607D01*
X165379179Y-178616607D02*
X165617274Y-178759464D01*
X169783941Y-178616607D02*
X169783941Y-180616607D01*
X168712513Y-178616607D02*
X168712513Y-180188035D01*
X168712513Y-180188035D02*
X168831560Y-180473750D01*
X168831560Y-180473750D02*
X169069655Y-180616607D01*
X169069655Y-180616607D02*
X169426798Y-180616607D01*
X169426798Y-180616607D02*
X169664894Y-180473750D01*
X169664894Y-180473750D02*
X169783941Y-180330892D01*
X170974418Y-178616607D02*
X170974418Y-180616607D01*
X170974418Y-178902321D02*
X171093465Y-178759464D01*
X171093465Y-178759464D02*
X171331560Y-178616607D01*
X171331560Y-178616607D02*
X171688703Y-178616607D01*
X171688703Y-178616607D02*
X171926799Y-178759464D01*
X171926799Y-178759464D02*
X172045846Y-179045178D01*
X172045846Y-179045178D02*
X172045846Y-180616607D01*
X174307751Y-180616607D02*
X174307751Y-177616607D01*
X174307751Y-180473750D02*
X174069656Y-180616607D01*
X174069656Y-180616607D02*
X173593465Y-180616607D01*
X173593465Y-180616607D02*
X173355370Y-180473750D01*
X173355370Y-180473750D02*
X173236323Y-180330892D01*
X173236323Y-180330892D02*
X173117275Y-180045178D01*
X173117275Y-180045178D02*
X173117275Y-179188035D01*
X173117275Y-179188035D02*
X173236323Y-178902321D01*
X173236323Y-178902321D02*
X173355370Y-178759464D01*
X173355370Y-178759464D02*
X173593465Y-178616607D01*
X173593465Y-178616607D02*
X174069656Y-178616607D01*
X174069656Y-178616607D02*
X174307751Y-178759464D01*
X176450609Y-180473750D02*
X176212513Y-180616607D01*
X176212513Y-180616607D02*
X175736323Y-180616607D01*
X175736323Y-180616607D02*
X175498228Y-180473750D01*
X175498228Y-180473750D02*
X175379180Y-180188035D01*
X175379180Y-180188035D02*
X175379180Y-179045178D01*
X175379180Y-179045178D02*
X175498228Y-178759464D01*
X175498228Y-178759464D02*
X175736323Y-178616607D01*
X175736323Y-178616607D02*
X176212513Y-178616607D01*
X176212513Y-178616607D02*
X176450609Y-178759464D01*
X176450609Y-178759464D02*
X176569656Y-179045178D01*
X176569656Y-179045178D02*
X176569656Y-179330892D01*
X176569656Y-179330892D02*
X175379180Y-179616607D01*
X177641085Y-180616607D02*
X177641085Y-178616607D01*
X177641085Y-179188035D02*
X177760132Y-178902321D01*
X177760132Y-178902321D02*
X177879180Y-178759464D01*
X177879180Y-178759464D02*
X178117275Y-178616607D01*
X178117275Y-178616607D02*
X178355370Y-178616607D01*
X182522037Y-180330892D02*
X182402989Y-180473750D01*
X182402989Y-180473750D02*
X182045847Y-180616607D01*
X182045847Y-180616607D02*
X181807751Y-180616607D01*
X181807751Y-180616607D02*
X181450608Y-180473750D01*
X181450608Y-180473750D02*
X181212513Y-180188035D01*
X181212513Y-180188035D02*
X181093466Y-179902321D01*
X181093466Y-179902321D02*
X180974418Y-179330892D01*
X180974418Y-179330892D02*
X180974418Y-178902321D01*
X180974418Y-178902321D02*
X181093466Y-178330892D01*
X181093466Y-178330892D02*
X181212513Y-178045178D01*
X181212513Y-178045178D02*
X181450608Y-177759464D01*
X181450608Y-177759464D02*
X181807751Y-177616607D01*
X181807751Y-177616607D02*
X182045847Y-177616607D01*
X182045847Y-177616607D02*
X182402989Y-177759464D01*
X182402989Y-177759464D02*
X182522037Y-177902321D01*
X183593466Y-179045178D02*
X184426799Y-179045178D01*
X184783942Y-180616607D02*
X183593466Y-180616607D01*
X183593466Y-180616607D02*
X183593466Y-177616607D01*
X183593466Y-177616607D02*
X184783942Y-177616607D01*
X187283942Y-180616607D02*
X186450609Y-179188035D01*
X185855371Y-180616607D02*
X185855371Y-177616607D01*
X185855371Y-177616607D02*
X186807752Y-177616607D01*
X186807752Y-177616607D02*
X187045847Y-177759464D01*
X187045847Y-177759464D02*
X187164894Y-177902321D01*
X187164894Y-177902321D02*
X187283942Y-178188035D01*
X187283942Y-178188035D02*
X187283942Y-178616607D01*
X187283942Y-178616607D02*
X187164894Y-178902321D01*
X187164894Y-178902321D02*
X187045847Y-179045178D01*
X187045847Y-179045178D02*
X186807752Y-179188035D01*
X186807752Y-179188035D02*
X185855371Y-179188035D01*
X188355371Y-180616607D02*
X188355371Y-177616607D01*
X188355371Y-177616607D02*
X189783942Y-180616607D01*
X189783942Y-180616607D02*
X189783942Y-177616607D01*
X190974419Y-179473750D02*
X192879181Y-179473750D01*
X194545847Y-177616607D02*
X195022038Y-177616607D01*
X195022038Y-177616607D02*
X195260133Y-177759464D01*
X195260133Y-177759464D02*
X195498228Y-178045178D01*
X195498228Y-178045178D02*
X195617276Y-178616607D01*
X195617276Y-178616607D02*
X195617276Y-179616607D01*
X195617276Y-179616607D02*
X195498228Y-180188035D01*
X195498228Y-180188035D02*
X195260133Y-180473750D01*
X195260133Y-180473750D02*
X195022038Y-180616607D01*
X195022038Y-180616607D02*
X194545847Y-180616607D01*
X194545847Y-180616607D02*
X194307752Y-180473750D01*
X194307752Y-180473750D02*
X194069657Y-180188035D01*
X194069657Y-180188035D02*
X193950609Y-179616607D01*
X193950609Y-179616607D02*
X193950609Y-178616607D01*
X193950609Y-178616607D02*
X194069657Y-178045178D01*
X194069657Y-178045178D02*
X194307752Y-177759464D01*
X194307752Y-177759464D02*
X194545847Y-177616607D01*
X196688705Y-180616607D02*
X196688705Y-177616607D01*
X196688705Y-179045178D02*
X198117276Y-179045178D01*
X198117276Y-180616607D02*
X198117276Y-177616607D01*
X200498229Y-180616607D02*
X199307753Y-180616607D01*
X199307753Y-180616607D02*
X199307753Y-177616607D01*
X201331563Y-179473750D02*
X203236325Y-179473750D01*
X204307753Y-180473750D02*
X204664896Y-180616607D01*
X204664896Y-180616607D02*
X205260134Y-180616607D01*
X205260134Y-180616607D02*
X205498229Y-180473750D01*
X205498229Y-180473750D02*
X205617277Y-180330892D01*
X205617277Y-180330892D02*
X205736324Y-180045178D01*
X205736324Y-180045178D02*
X205736324Y-179759464D01*
X205736324Y-179759464D02*
X205617277Y-179473750D01*
X205617277Y-179473750D02*
X205498229Y-179330892D01*
X205498229Y-179330892D02*
X205260134Y-179188035D01*
X205260134Y-179188035D02*
X204783943Y-179045178D01*
X204783943Y-179045178D02*
X204545848Y-178902321D01*
X204545848Y-178902321D02*
X204426801Y-178759464D01*
X204426801Y-178759464D02*
X204307753Y-178473750D01*
X204307753Y-178473750D02*
X204307753Y-178188035D01*
X204307753Y-178188035D02*
X204426801Y-177902321D01*
X204426801Y-177902321D02*
X204545848Y-177759464D01*
X204545848Y-177759464D02*
X204783943Y-177616607D01*
X204783943Y-177616607D02*
X205379182Y-177616607D01*
X205379182Y-177616607D02*
X205736324Y-177759464D01*
X208474419Y-178616607D02*
X209069657Y-180616607D01*
X209069657Y-180616607D02*
X209664896Y-178616607D01*
X210498229Y-177902321D02*
X210617277Y-177759464D01*
X210617277Y-177759464D02*
X210855372Y-177616607D01*
X210855372Y-177616607D02*
X211450610Y-177616607D01*
X211450610Y-177616607D02*
X211688705Y-177759464D01*
X211688705Y-177759464D02*
X211807753Y-177902321D01*
X211807753Y-177902321D02*
X211926800Y-178188035D01*
X211926800Y-178188035D02*
X211926800Y-178473750D01*
X211926800Y-178473750D02*
X211807753Y-178902321D01*
X211807753Y-178902321D02*
X210379181Y-180616607D01*
X210379181Y-180616607D02*
X211926800Y-180616607D01*
D17*
X223444106Y-167970500D02*
X221301249Y-171827642D01*
X224277440Y-169113357D02*
X224277440Y-172113357D01*
X224277440Y-169256214D02*
X224515535Y-169113357D01*
X224515535Y-169113357D02*
X224991725Y-169113357D01*
X224991725Y-169113357D02*
X225229821Y-169256214D01*
X225229821Y-169256214D02*
X225348868Y-169399071D01*
X225348868Y-169399071D02*
X225467916Y-169684785D01*
X225467916Y-169684785D02*
X225467916Y-170541928D01*
X225467916Y-170541928D02*
X225348868Y-170827642D01*
X225348868Y-170827642D02*
X225229821Y-170970500D01*
X225229821Y-170970500D02*
X224991725Y-171113357D01*
X224991725Y-171113357D02*
X224515535Y-171113357D01*
X224515535Y-171113357D02*
X224277440Y-170970500D01*
X227491726Y-170970500D02*
X227253630Y-171113357D01*
X227253630Y-171113357D02*
X226777440Y-171113357D01*
X226777440Y-171113357D02*
X226539345Y-170970500D01*
X226539345Y-170970500D02*
X226420297Y-170684785D01*
X226420297Y-170684785D02*
X226420297Y-169541928D01*
X226420297Y-169541928D02*
X226539345Y-169256214D01*
X226539345Y-169256214D02*
X226777440Y-169113357D01*
X226777440Y-169113357D02*
X227253630Y-169113357D01*
X227253630Y-169113357D02*
X227491726Y-169256214D01*
X227491726Y-169256214D02*
X227610773Y-169541928D01*
X227610773Y-169541928D02*
X227610773Y-169827642D01*
X227610773Y-169827642D02*
X226420297Y-170113357D01*
X229039344Y-171113357D02*
X228801249Y-170970500D01*
X228801249Y-170970500D02*
X228682202Y-170684785D01*
X228682202Y-170684785D02*
X228682202Y-168113357D01*
X230348868Y-171113357D02*
X230110773Y-170970500D01*
X230110773Y-170970500D02*
X229991726Y-170684785D01*
X229991726Y-170684785D02*
X229991726Y-168113357D01*
X232253631Y-170970500D02*
X232015535Y-171113357D01*
X232015535Y-171113357D02*
X231539345Y-171113357D01*
X231539345Y-171113357D02*
X231301250Y-170970500D01*
X231301250Y-170970500D02*
X231182202Y-170684785D01*
X231182202Y-170684785D02*
X231182202Y-169541928D01*
X231182202Y-169541928D02*
X231301250Y-169256214D01*
X231301250Y-169256214D02*
X231539345Y-169113357D01*
X231539345Y-169113357D02*
X232015535Y-169113357D01*
X232015535Y-169113357D02*
X232253631Y-169256214D01*
X232253631Y-169256214D02*
X232372678Y-169541928D01*
X232372678Y-169541928D02*
X232372678Y-169827642D01*
X232372678Y-169827642D02*
X231182202Y-170113357D01*
X233444107Y-171113357D02*
X233444107Y-169113357D01*
X233444107Y-169399071D02*
X233563154Y-169256214D01*
X233563154Y-169256214D02*
X233801249Y-169113357D01*
X233801249Y-169113357D02*
X234158392Y-169113357D01*
X234158392Y-169113357D02*
X234396488Y-169256214D01*
X234396488Y-169256214D02*
X234515535Y-169541928D01*
X234515535Y-169541928D02*
X234515535Y-171113357D01*
X234515535Y-169541928D02*
X234634583Y-169256214D01*
X234634583Y-169256214D02*
X234872678Y-169113357D01*
X234872678Y-169113357D02*
X235229821Y-169113357D01*
X235229821Y-169113357D02*
X235467916Y-169256214D01*
X235467916Y-169256214D02*
X235586964Y-169541928D01*
X235586964Y-169541928D02*
X235586964Y-171113357D01*
X237848868Y-171113357D02*
X237848868Y-169541928D01*
X237848868Y-169541928D02*
X237729821Y-169256214D01*
X237729821Y-169256214D02*
X237491725Y-169113357D01*
X237491725Y-169113357D02*
X237015535Y-169113357D01*
X237015535Y-169113357D02*
X236777440Y-169256214D01*
X237848868Y-170970500D02*
X237610773Y-171113357D01*
X237610773Y-171113357D02*
X237015535Y-171113357D01*
X237015535Y-171113357D02*
X236777440Y-170970500D01*
X236777440Y-170970500D02*
X236658392Y-170684785D01*
X236658392Y-170684785D02*
X236658392Y-170399071D01*
X236658392Y-170399071D02*
X236777440Y-170113357D01*
X236777440Y-170113357D02*
X237015535Y-169970500D01*
X237015535Y-169970500D02*
X237610773Y-169970500D01*
X237610773Y-169970500D02*
X237848868Y-169827642D01*
X238682202Y-169113357D02*
X239634583Y-169113357D01*
X239039345Y-168113357D02*
X239039345Y-170684785D01*
X239039345Y-170684785D02*
X239158392Y-170970500D01*
X239158392Y-170970500D02*
X239396487Y-171113357D01*
X239396487Y-171113357D02*
X239634583Y-171113357D01*
X240467916Y-171113357D02*
X240467916Y-169113357D01*
X240467916Y-169684785D02*
X240586963Y-169399071D01*
X240586963Y-169399071D02*
X240706011Y-169256214D01*
X240706011Y-169256214D02*
X240944106Y-169113357D01*
X240944106Y-169113357D02*
X241182201Y-169113357D01*
X242372677Y-171113357D02*
X242134582Y-170970500D01*
X242134582Y-170970500D02*
X242015535Y-170827642D01*
X242015535Y-170827642D02*
X241896487Y-170541928D01*
X241896487Y-170541928D02*
X241896487Y-169684785D01*
X241896487Y-169684785D02*
X242015535Y-169399071D01*
X242015535Y-169399071D02*
X242134582Y-169256214D01*
X242134582Y-169256214D02*
X242372677Y-169113357D01*
X242372677Y-169113357D02*
X242729820Y-169113357D01*
X242729820Y-169113357D02*
X242967916Y-169256214D01*
X242967916Y-169256214D02*
X243086963Y-169399071D01*
X243086963Y-169399071D02*
X243206011Y-169684785D01*
X243206011Y-169684785D02*
X243206011Y-170541928D01*
X243206011Y-170541928D02*
X243086963Y-170827642D01*
X243086963Y-170827642D02*
X242967916Y-170970500D01*
X242967916Y-170970500D02*
X242729820Y-171113357D01*
X242729820Y-171113357D02*
X242372677Y-171113357D01*
X244158392Y-170970500D02*
X244396487Y-171113357D01*
X244396487Y-171113357D02*
X244872678Y-171113357D01*
X244872678Y-171113357D02*
X245110773Y-170970500D01*
X245110773Y-170970500D02*
X245229821Y-170684785D01*
X245229821Y-170684785D02*
X245229821Y-170541928D01*
X245229821Y-170541928D02*
X245110773Y-170256214D01*
X245110773Y-170256214D02*
X244872678Y-170113357D01*
X244872678Y-170113357D02*
X244515535Y-170113357D01*
X244515535Y-170113357D02*
X244277440Y-169970500D01*
X244277440Y-169970500D02*
X244158392Y-169684785D01*
X244158392Y-169684785D02*
X244158392Y-169541928D01*
X244158392Y-169541928D02*
X244277440Y-169256214D01*
X244277440Y-169256214D02*
X244515535Y-169113357D01*
X244515535Y-169113357D02*
X244872678Y-169113357D01*
X244872678Y-169113357D02*
X245110773Y-169256214D01*
X247253631Y-170970500D02*
X247015535Y-171113357D01*
X247015535Y-171113357D02*
X246539345Y-171113357D01*
X246539345Y-171113357D02*
X246301250Y-170970500D01*
X246301250Y-170970500D02*
X246182202Y-170684785D01*
X246182202Y-170684785D02*
X246182202Y-169541928D01*
X246182202Y-169541928D02*
X246301250Y-169256214D01*
X246301250Y-169256214D02*
X246539345Y-169113357D01*
X246539345Y-169113357D02*
X247015535Y-169113357D01*
X247015535Y-169113357D02*
X247253631Y-169256214D01*
X247253631Y-169256214D02*
X247372678Y-169541928D01*
X247372678Y-169541928D02*
X247372678Y-169827642D01*
X247372678Y-169827642D02*
X246182202Y-170113357D01*
X250229821Y-167970500D02*
X248086964Y-171827642D01*
X250944107Y-170970500D02*
X251301250Y-171113357D01*
X251301250Y-171113357D02*
X251896488Y-171113357D01*
X251896488Y-171113357D02*
X252134583Y-170970500D01*
X252134583Y-170970500D02*
X252253631Y-170827642D01*
X252253631Y-170827642D02*
X252372678Y-170541928D01*
X252372678Y-170541928D02*
X252372678Y-170256214D01*
X252372678Y-170256214D02*
X252253631Y-169970500D01*
X252253631Y-169970500D02*
X252134583Y-169827642D01*
X252134583Y-169827642D02*
X251896488Y-169684785D01*
X251896488Y-169684785D02*
X251420297Y-169541928D01*
X251420297Y-169541928D02*
X251182202Y-169399071D01*
X251182202Y-169399071D02*
X251063155Y-169256214D01*
X251063155Y-169256214D02*
X250944107Y-168970500D01*
X250944107Y-168970500D02*
X250944107Y-168684785D01*
X250944107Y-168684785D02*
X251063155Y-168399071D01*
X251063155Y-168399071D02*
X251182202Y-168256214D01*
X251182202Y-168256214D02*
X251420297Y-168113357D01*
X251420297Y-168113357D02*
X252015536Y-168113357D01*
X252015536Y-168113357D02*
X252372678Y-168256214D01*
X254515535Y-170970500D02*
X254277440Y-171113357D01*
X254277440Y-171113357D02*
X253801249Y-171113357D01*
X253801249Y-171113357D02*
X253563154Y-170970500D01*
X253563154Y-170970500D02*
X253444107Y-170827642D01*
X253444107Y-170827642D02*
X253325059Y-170541928D01*
X253325059Y-170541928D02*
X253325059Y-169684785D01*
X253325059Y-169684785D02*
X253444107Y-169399071D01*
X253444107Y-169399071D02*
X253563154Y-169256214D01*
X253563154Y-169256214D02*
X253801249Y-169113357D01*
X253801249Y-169113357D02*
X254277440Y-169113357D01*
X254277440Y-169113357D02*
X254515535Y-169256214D01*
X255586964Y-171113357D02*
X255586964Y-168113357D01*
X256658392Y-171113357D02*
X256658392Y-169541928D01*
X256658392Y-169541928D02*
X256539345Y-169256214D01*
X256539345Y-169256214D02*
X256301249Y-169113357D01*
X256301249Y-169113357D02*
X255944106Y-169113357D01*
X255944106Y-169113357D02*
X255706011Y-169256214D01*
X255706011Y-169256214D02*
X255586964Y-169399071D01*
X258920297Y-171113357D02*
X258920297Y-169541928D01*
X258920297Y-169541928D02*
X258801250Y-169256214D01*
X258801250Y-169256214D02*
X258563154Y-169113357D01*
X258563154Y-169113357D02*
X258086964Y-169113357D01*
X258086964Y-169113357D02*
X257848869Y-169256214D01*
X258920297Y-170970500D02*
X258682202Y-171113357D01*
X258682202Y-171113357D02*
X258086964Y-171113357D01*
X258086964Y-171113357D02*
X257848869Y-170970500D01*
X257848869Y-170970500D02*
X257729821Y-170684785D01*
X257729821Y-170684785D02*
X257729821Y-170399071D01*
X257729821Y-170399071D02*
X257848869Y-170113357D01*
X257848869Y-170113357D02*
X258086964Y-169970500D01*
X258086964Y-169970500D02*
X258682202Y-169970500D01*
X258682202Y-169970500D02*
X258920297Y-169827642D01*
X260467916Y-171113357D02*
X260229821Y-170970500D01*
X260229821Y-170970500D02*
X260110774Y-170684785D01*
X260110774Y-170684785D02*
X260110774Y-168113357D01*
X261063155Y-169113357D02*
X262015536Y-169113357D01*
X261420298Y-168113357D02*
X261420298Y-170684785D01*
X261420298Y-170684785D02*
X261539345Y-170970500D01*
X261539345Y-170970500D02*
X261777440Y-171113357D01*
X261777440Y-171113357D02*
X262015536Y-171113357D01*
X263801250Y-170970500D02*
X263563154Y-171113357D01*
X263563154Y-171113357D02*
X263086964Y-171113357D01*
X263086964Y-171113357D02*
X262848869Y-170970500D01*
X262848869Y-170970500D02*
X262729821Y-170684785D01*
X262729821Y-170684785D02*
X262729821Y-169541928D01*
X262729821Y-169541928D02*
X262848869Y-169256214D01*
X262848869Y-169256214D02*
X263086964Y-169113357D01*
X263086964Y-169113357D02*
X263563154Y-169113357D01*
X263563154Y-169113357D02*
X263801250Y-169256214D01*
X263801250Y-169256214D02*
X263920297Y-169541928D01*
X263920297Y-169541928D02*
X263920297Y-169827642D01*
X263920297Y-169827642D02*
X262729821Y-170113357D01*
X264991726Y-171113357D02*
X264991726Y-169113357D01*
X264991726Y-169684785D02*
X265110773Y-169399071D01*
X265110773Y-169399071D02*
X265229821Y-169256214D01*
X265229821Y-169256214D02*
X265467916Y-169113357D01*
X265467916Y-169113357D02*
X265706011Y-169113357D01*
X266539345Y-169970500D02*
X268444107Y-169970500D01*
X269634583Y-171113357D02*
X269634583Y-168113357D01*
X271063154Y-171113357D02*
X269991725Y-169399071D01*
X271063154Y-168113357D02*
X269634583Y-169827642D01*
X273206011Y-171113357D02*
X273206011Y-169541928D01*
X273206011Y-169541928D02*
X273086964Y-169256214D01*
X273086964Y-169256214D02*
X272848868Y-169113357D01*
X272848868Y-169113357D02*
X272372678Y-169113357D01*
X272372678Y-169113357D02*
X272134583Y-169256214D01*
X273206011Y-170970500D02*
X272967916Y-171113357D01*
X272967916Y-171113357D02*
X272372678Y-171113357D01*
X272372678Y-171113357D02*
X272134583Y-170970500D01*
X272134583Y-170970500D02*
X272015535Y-170684785D01*
X272015535Y-170684785D02*
X272015535Y-170399071D01*
X272015535Y-170399071D02*
X272134583Y-170113357D01*
X272134583Y-170113357D02*
X272372678Y-169970500D01*
X272372678Y-169970500D02*
X272967916Y-169970500D01*
X272967916Y-169970500D02*
X273206011Y-169827642D01*
X274396488Y-171113357D02*
X274396488Y-169113357D01*
X274396488Y-169684785D02*
X274515535Y-169399071D01*
X274515535Y-169399071D02*
X274634583Y-169256214D01*
X274634583Y-169256214D02*
X274872678Y-169113357D01*
X274872678Y-169113357D02*
X275110773Y-169113357D01*
X275586964Y-169113357D02*
X276539345Y-169113357D01*
X275944107Y-168113357D02*
X275944107Y-170684785D01*
X275944107Y-170684785D02*
X276063154Y-170970500D01*
X276063154Y-170970500D02*
X276301249Y-171113357D01*
X276301249Y-171113357D02*
X276539345Y-171113357D01*
X278325059Y-170970500D02*
X278086963Y-171113357D01*
X278086963Y-171113357D02*
X277610773Y-171113357D01*
X277610773Y-171113357D02*
X277372678Y-170970500D01*
X277372678Y-170970500D02*
X277253630Y-170684785D01*
X277253630Y-170684785D02*
X277253630Y-169541928D01*
X277253630Y-169541928D02*
X277372678Y-169256214D01*
X277372678Y-169256214D02*
X277610773Y-169113357D01*
X277610773Y-169113357D02*
X278086963Y-169113357D01*
X278086963Y-169113357D02*
X278325059Y-169256214D01*
X278325059Y-169256214D02*
X278444106Y-169541928D01*
X278444106Y-169541928D02*
X278444106Y-169827642D01*
X278444106Y-169827642D02*
X277253630Y-170113357D01*
X150777439Y-170113357D02*
X150777439Y-167113357D01*
X152063154Y-170113357D02*
X152063154Y-168541928D01*
X152063154Y-168541928D02*
X151920296Y-168256214D01*
X151920296Y-168256214D02*
X151634582Y-168113357D01*
X151634582Y-168113357D02*
X151206011Y-168113357D01*
X151206011Y-168113357D02*
X150920296Y-168256214D01*
X150920296Y-168256214D02*
X150777439Y-168399071D01*
X154777440Y-170113357D02*
X154777440Y-168541928D01*
X154777440Y-168541928D02*
X154634582Y-168256214D01*
X154634582Y-168256214D02*
X154348868Y-168113357D01*
X154348868Y-168113357D02*
X153777440Y-168113357D01*
X153777440Y-168113357D02*
X153491725Y-168256214D01*
X154777440Y-169970500D02*
X154491725Y-170113357D01*
X154491725Y-170113357D02*
X153777440Y-170113357D01*
X153777440Y-170113357D02*
X153491725Y-169970500D01*
X153491725Y-169970500D02*
X153348868Y-169684785D01*
X153348868Y-169684785D02*
X153348868Y-169399071D01*
X153348868Y-169399071D02*
X153491725Y-169113357D01*
X153491725Y-169113357D02*
X153777440Y-168970500D01*
X153777440Y-168970500D02*
X154491725Y-168970500D01*
X154491725Y-168970500D02*
X154777440Y-168827642D01*
X156206011Y-168113357D02*
X156206011Y-170113357D01*
X156206011Y-168399071D02*
X156348868Y-168256214D01*
X156348868Y-168256214D02*
X156634583Y-168113357D01*
X156634583Y-168113357D02*
X157063154Y-168113357D01*
X157063154Y-168113357D02*
X157348868Y-168256214D01*
X157348868Y-168256214D02*
X157491726Y-168541928D01*
X157491726Y-168541928D02*
X157491726Y-170113357D01*
X160206012Y-170113357D02*
X160206012Y-167113357D01*
X160206012Y-169970500D02*
X159920297Y-170113357D01*
X159920297Y-170113357D02*
X159348869Y-170113357D01*
X159348869Y-170113357D02*
X159063154Y-169970500D01*
X159063154Y-169970500D02*
X158920297Y-169827642D01*
X158920297Y-169827642D02*
X158777440Y-169541928D01*
X158777440Y-169541928D02*
X158777440Y-168684785D01*
X158777440Y-168684785D02*
X158920297Y-168399071D01*
X158920297Y-168399071D02*
X159063154Y-168256214D01*
X159063154Y-168256214D02*
X159348869Y-168113357D01*
X159348869Y-168113357D02*
X159920297Y-168113357D01*
X159920297Y-168113357D02*
X160206012Y-168256214D01*
X161634583Y-168970500D02*
X163920298Y-168970500D01*
X166634584Y-169970500D02*
X166348869Y-170113357D01*
X166348869Y-170113357D02*
X165777441Y-170113357D01*
X165777441Y-170113357D02*
X165491726Y-169970500D01*
X165491726Y-169970500D02*
X165348869Y-169827642D01*
X165348869Y-169827642D02*
X165206012Y-169541928D01*
X165206012Y-169541928D02*
X165206012Y-168684785D01*
X165206012Y-168684785D02*
X165348869Y-168399071D01*
X165348869Y-168399071D02*
X165491726Y-168256214D01*
X165491726Y-168256214D02*
X165777441Y-168113357D01*
X165777441Y-168113357D02*
X166348869Y-168113357D01*
X166348869Y-168113357D02*
X166634584Y-168256214D01*
X167920298Y-170113357D02*
X167920298Y-168113357D01*
X167920298Y-168684785D02*
X168063155Y-168399071D01*
X168063155Y-168399071D02*
X168206013Y-168256214D01*
X168206013Y-168256214D02*
X168491727Y-168113357D01*
X168491727Y-168113357D02*
X168777441Y-168113357D01*
X171063156Y-170113357D02*
X171063156Y-168541928D01*
X171063156Y-168541928D02*
X170920298Y-168256214D01*
X170920298Y-168256214D02*
X170634584Y-168113357D01*
X170634584Y-168113357D02*
X170063156Y-168113357D01*
X170063156Y-168113357D02*
X169777441Y-168256214D01*
X171063156Y-169970500D02*
X170777441Y-170113357D01*
X170777441Y-170113357D02*
X170063156Y-170113357D01*
X170063156Y-170113357D02*
X169777441Y-169970500D01*
X169777441Y-169970500D02*
X169634584Y-169684785D01*
X169634584Y-169684785D02*
X169634584Y-169399071D01*
X169634584Y-169399071D02*
X169777441Y-169113357D01*
X169777441Y-169113357D02*
X170063156Y-168970500D01*
X170063156Y-168970500D02*
X170777441Y-168970500D01*
X170777441Y-168970500D02*
X171063156Y-168827642D01*
X172063156Y-168113357D02*
X173206013Y-168113357D01*
X172491727Y-170113357D02*
X172491727Y-167541928D01*
X172491727Y-167541928D02*
X172634584Y-167256214D01*
X172634584Y-167256214D02*
X172920299Y-167113357D01*
X172920299Y-167113357D02*
X173206013Y-167113357D01*
X173777442Y-168113357D02*
X174920299Y-168113357D01*
X174206013Y-167113357D02*
X174206013Y-169684785D01*
X174206013Y-169684785D02*
X174348870Y-169970500D01*
X174348870Y-169970500D02*
X174634585Y-170113357D01*
X174634585Y-170113357D02*
X174920299Y-170113357D01*
X177063156Y-169970500D02*
X176777442Y-170113357D01*
X176777442Y-170113357D02*
X176206014Y-170113357D01*
X176206014Y-170113357D02*
X175920299Y-169970500D01*
X175920299Y-169970500D02*
X175777442Y-169684785D01*
X175777442Y-169684785D02*
X175777442Y-168541928D01*
X175777442Y-168541928D02*
X175920299Y-168256214D01*
X175920299Y-168256214D02*
X176206014Y-168113357D01*
X176206014Y-168113357D02*
X176777442Y-168113357D01*
X176777442Y-168113357D02*
X177063156Y-168256214D01*
X177063156Y-168256214D02*
X177206014Y-168541928D01*
X177206014Y-168541928D02*
X177206014Y-168827642D01*
X177206014Y-168827642D02*
X175777442Y-169113357D01*
X179777443Y-170113357D02*
X179777443Y-167113357D01*
X179777443Y-169970500D02*
X179491728Y-170113357D01*
X179491728Y-170113357D02*
X178920300Y-170113357D01*
X178920300Y-170113357D02*
X178634585Y-169970500D01*
X178634585Y-169970500D02*
X178491728Y-169827642D01*
X178491728Y-169827642D02*
X178348871Y-169541928D01*
X178348871Y-169541928D02*
X178348871Y-168684785D01*
X178348871Y-168684785D02*
X178491728Y-168399071D01*
X178491728Y-168399071D02*
X178634585Y-168256214D01*
X178634585Y-168256214D02*
X178920300Y-168113357D01*
X178920300Y-168113357D02*
X179491728Y-168113357D01*
X179491728Y-168113357D02*
X179777443Y-168256214D01*
X181206014Y-168970500D02*
X183491729Y-168970500D01*
X186063157Y-169970500D02*
X185777443Y-170113357D01*
X185777443Y-170113357D02*
X185206015Y-170113357D01*
X185206015Y-170113357D02*
X184920300Y-169970500D01*
X184920300Y-169970500D02*
X184777443Y-169684785D01*
X184777443Y-169684785D02*
X184777443Y-168541928D01*
X184777443Y-168541928D02*
X184920300Y-168256214D01*
X184920300Y-168256214D02*
X185206015Y-168113357D01*
X185206015Y-168113357D02*
X185777443Y-168113357D01*
X185777443Y-168113357D02*
X186063157Y-168256214D01*
X186063157Y-168256214D02*
X186206015Y-168541928D01*
X186206015Y-168541928D02*
X186206015Y-168827642D01*
X186206015Y-168827642D02*
X184777443Y-169113357D01*
X187920301Y-170113357D02*
X187634586Y-169970500D01*
X187634586Y-169970500D02*
X187491729Y-169684785D01*
X187491729Y-169684785D02*
X187491729Y-167113357D01*
X190206015Y-169970500D02*
X189920301Y-170113357D01*
X189920301Y-170113357D02*
X189348873Y-170113357D01*
X189348873Y-170113357D02*
X189063158Y-169970500D01*
X189063158Y-169970500D02*
X188920301Y-169684785D01*
X188920301Y-169684785D02*
X188920301Y-168541928D01*
X188920301Y-168541928D02*
X189063158Y-168256214D01*
X189063158Y-168256214D02*
X189348873Y-168113357D01*
X189348873Y-168113357D02*
X189920301Y-168113357D01*
X189920301Y-168113357D02*
X190206015Y-168256214D01*
X190206015Y-168256214D02*
X190348873Y-168541928D01*
X190348873Y-168541928D02*
X190348873Y-168827642D01*
X190348873Y-168827642D02*
X188920301Y-169113357D01*
X192920302Y-169970500D02*
X192634587Y-170113357D01*
X192634587Y-170113357D02*
X192063159Y-170113357D01*
X192063159Y-170113357D02*
X191777444Y-169970500D01*
X191777444Y-169970500D02*
X191634587Y-169827642D01*
X191634587Y-169827642D02*
X191491730Y-169541928D01*
X191491730Y-169541928D02*
X191491730Y-168684785D01*
X191491730Y-168684785D02*
X191634587Y-168399071D01*
X191634587Y-168399071D02*
X191777444Y-168256214D01*
X191777444Y-168256214D02*
X192063159Y-168113357D01*
X192063159Y-168113357D02*
X192634587Y-168113357D01*
X192634587Y-168113357D02*
X192920302Y-168256214D01*
X193777445Y-168113357D02*
X194920302Y-168113357D01*
X194206016Y-167113357D02*
X194206016Y-169684785D01*
X194206016Y-169684785D02*
X194348873Y-169970500D01*
X194348873Y-169970500D02*
X194634588Y-170113357D01*
X194634588Y-170113357D02*
X194920302Y-170113357D01*
X195920302Y-170113357D02*
X195920302Y-168113357D01*
X195920302Y-168684785D02*
X196063159Y-168399071D01*
X196063159Y-168399071D02*
X196206017Y-168256214D01*
X196206017Y-168256214D02*
X196491731Y-168113357D01*
X196491731Y-168113357D02*
X196777445Y-168113357D01*
X198206017Y-170113357D02*
X197920302Y-169970500D01*
X197920302Y-169970500D02*
X197777445Y-169827642D01*
X197777445Y-169827642D02*
X197634588Y-169541928D01*
X197634588Y-169541928D02*
X197634588Y-168684785D01*
X197634588Y-168684785D02*
X197777445Y-168399071D01*
X197777445Y-168399071D02*
X197920302Y-168256214D01*
X197920302Y-168256214D02*
X198206017Y-168113357D01*
X198206017Y-168113357D02*
X198634588Y-168113357D01*
X198634588Y-168113357D02*
X198920302Y-168256214D01*
X198920302Y-168256214D02*
X199063160Y-168399071D01*
X199063160Y-168399071D02*
X199206017Y-168684785D01*
X199206017Y-168684785D02*
X199206017Y-169541928D01*
X199206017Y-169541928D02*
X199063160Y-169827642D01*
X199063160Y-169827642D02*
X198920302Y-169970500D01*
X198920302Y-169970500D02*
X198634588Y-170113357D01*
X198634588Y-170113357D02*
X198206017Y-170113357D01*
X200491731Y-168113357D02*
X200491731Y-170113357D01*
X200491731Y-168399071D02*
X200634588Y-168256214D01*
X200634588Y-168256214D02*
X200920303Y-168113357D01*
X200920303Y-168113357D02*
X201348874Y-168113357D01*
X201348874Y-168113357D02*
X201634588Y-168256214D01*
X201634588Y-168256214D02*
X201777446Y-168541928D01*
X201777446Y-168541928D02*
X201777446Y-170113357D01*
X203206017Y-170113357D02*
X203206017Y-168113357D01*
X203206017Y-167113357D02*
X203063160Y-167256214D01*
X203063160Y-167256214D02*
X203206017Y-167399071D01*
X203206017Y-167399071D02*
X203348874Y-167256214D01*
X203348874Y-167256214D02*
X203206017Y-167113357D01*
X203206017Y-167113357D02*
X203206017Y-167399071D01*
X205920303Y-169970500D02*
X205634588Y-170113357D01*
X205634588Y-170113357D02*
X205063160Y-170113357D01*
X205063160Y-170113357D02*
X204777445Y-169970500D01*
X204777445Y-169970500D02*
X204634588Y-169827642D01*
X204634588Y-169827642D02*
X204491731Y-169541928D01*
X204491731Y-169541928D02*
X204491731Y-168684785D01*
X204491731Y-168684785D02*
X204634588Y-168399071D01*
X204634588Y-168399071D02*
X204777445Y-168256214D01*
X204777445Y-168256214D02*
X205063160Y-168113357D01*
X205063160Y-168113357D02*
X205634588Y-168113357D01*
X205634588Y-168113357D02*
X205920303Y-168256214D01*
X207063160Y-169970500D02*
X207348874Y-170113357D01*
X207348874Y-170113357D02*
X207920303Y-170113357D01*
X207920303Y-170113357D02*
X208206017Y-169970500D01*
X208206017Y-169970500D02*
X208348874Y-169684785D01*
X208348874Y-169684785D02*
X208348874Y-169541928D01*
X208348874Y-169541928D02*
X208206017Y-169256214D01*
X208206017Y-169256214D02*
X207920303Y-169113357D01*
X207920303Y-169113357D02*
X207491732Y-169113357D01*
X207491732Y-169113357D02*
X207206017Y-168970500D01*
X207206017Y-168970500D02*
X207063160Y-168684785D01*
X207063160Y-168684785D02*
X207063160Y-168541928D01*
X207063160Y-168541928D02*
X207206017Y-168256214D01*
X207206017Y-168256214D02*
X207491732Y-168113357D01*
X207491732Y-168113357D02*
X207920303Y-168113357D01*
X207920303Y-168113357D02*
X208206017Y-168256214D01*
X172134582Y-192470500D02*
X172563154Y-192613357D01*
X172563154Y-192613357D02*
X173277439Y-192613357D01*
X173277439Y-192613357D02*
X173563154Y-192470500D01*
X173563154Y-192470500D02*
X173706011Y-192327642D01*
X173706011Y-192327642D02*
X173848868Y-192041928D01*
X173848868Y-192041928D02*
X173848868Y-191756214D01*
X173848868Y-191756214D02*
X173706011Y-191470500D01*
X173706011Y-191470500D02*
X173563154Y-191327642D01*
X173563154Y-191327642D02*
X173277439Y-191184785D01*
X173277439Y-191184785D02*
X172706011Y-191041928D01*
X172706011Y-191041928D02*
X172420296Y-190899071D01*
X172420296Y-190899071D02*
X172277439Y-190756214D01*
X172277439Y-190756214D02*
X172134582Y-190470500D01*
X172134582Y-190470500D02*
X172134582Y-190184785D01*
X172134582Y-190184785D02*
X172277439Y-189899071D01*
X172277439Y-189899071D02*
X172420296Y-189756214D01*
X172420296Y-189756214D02*
X172706011Y-189613357D01*
X172706011Y-189613357D02*
X173420296Y-189613357D01*
X173420296Y-189613357D02*
X173848868Y-189756214D01*
X176420297Y-192470500D02*
X176134582Y-192613357D01*
X176134582Y-192613357D02*
X175563154Y-192613357D01*
X175563154Y-192613357D02*
X175277439Y-192470500D01*
X175277439Y-192470500D02*
X175134582Y-192327642D01*
X175134582Y-192327642D02*
X174991725Y-192041928D01*
X174991725Y-192041928D02*
X174991725Y-191184785D01*
X174991725Y-191184785D02*
X175134582Y-190899071D01*
X175134582Y-190899071D02*
X175277439Y-190756214D01*
X175277439Y-190756214D02*
X175563154Y-190613357D01*
X175563154Y-190613357D02*
X176134582Y-190613357D01*
X176134582Y-190613357D02*
X176420297Y-190756214D01*
X177706011Y-192613357D02*
X177706011Y-189613357D01*
X178991726Y-192613357D02*
X178991726Y-191041928D01*
X178991726Y-191041928D02*
X178848868Y-190756214D01*
X178848868Y-190756214D02*
X178563154Y-190613357D01*
X178563154Y-190613357D02*
X178134583Y-190613357D01*
X178134583Y-190613357D02*
X177848868Y-190756214D01*
X177848868Y-190756214D02*
X177706011Y-190899071D01*
X181706012Y-192613357D02*
X181706012Y-191041928D01*
X181706012Y-191041928D02*
X181563154Y-190756214D01*
X181563154Y-190756214D02*
X181277440Y-190613357D01*
X181277440Y-190613357D02*
X180706012Y-190613357D01*
X180706012Y-190613357D02*
X180420297Y-190756214D01*
X181706012Y-192470500D02*
X181420297Y-192613357D01*
X181420297Y-192613357D02*
X180706012Y-192613357D01*
X180706012Y-192613357D02*
X180420297Y-192470500D01*
X180420297Y-192470500D02*
X180277440Y-192184785D01*
X180277440Y-192184785D02*
X180277440Y-191899071D01*
X180277440Y-191899071D02*
X180420297Y-191613357D01*
X180420297Y-191613357D02*
X180706012Y-191470500D01*
X180706012Y-191470500D02*
X181420297Y-191470500D01*
X181420297Y-191470500D02*
X181706012Y-191327642D01*
X183563155Y-192613357D02*
X183277440Y-192470500D01*
X183277440Y-192470500D02*
X183134583Y-192184785D01*
X183134583Y-192184785D02*
X183134583Y-189613357D01*
X184277441Y-190613357D02*
X185420298Y-190613357D01*
X184706012Y-189613357D02*
X184706012Y-192184785D01*
X184706012Y-192184785D02*
X184848869Y-192470500D01*
X184848869Y-192470500D02*
X185134584Y-192613357D01*
X185134584Y-192613357D02*
X185420298Y-192613357D01*
X187563155Y-192470500D02*
X187277441Y-192613357D01*
X187277441Y-192613357D02*
X186706013Y-192613357D01*
X186706013Y-192613357D02*
X186420298Y-192470500D01*
X186420298Y-192470500D02*
X186277441Y-192184785D01*
X186277441Y-192184785D02*
X186277441Y-191041928D01*
X186277441Y-191041928D02*
X186420298Y-190756214D01*
X186420298Y-190756214D02*
X186706013Y-190613357D01*
X186706013Y-190613357D02*
X187277441Y-190613357D01*
X187277441Y-190613357D02*
X187563155Y-190756214D01*
X187563155Y-190756214D02*
X187706013Y-191041928D01*
X187706013Y-191041928D02*
X187706013Y-191327642D01*
X187706013Y-191327642D02*
X186277441Y-191613357D01*
X188991727Y-192613357D02*
X188991727Y-190613357D01*
X188991727Y-191184785D02*
X189134584Y-190899071D01*
X189134584Y-190899071D02*
X189277442Y-190756214D01*
X189277442Y-190756214D02*
X189563156Y-190613357D01*
X189563156Y-190613357D02*
X189848870Y-190613357D01*
X190848870Y-191470500D02*
X193134585Y-191470500D01*
X194563156Y-192613357D02*
X194563156Y-189613357D01*
X196277442Y-192613357D02*
X194991728Y-190899071D01*
X196277442Y-189613357D02*
X194563156Y-191327642D01*
X198848871Y-192613357D02*
X198848871Y-191041928D01*
X198848871Y-191041928D02*
X198706013Y-190756214D01*
X198706013Y-190756214D02*
X198420299Y-190613357D01*
X198420299Y-190613357D02*
X197848871Y-190613357D01*
X197848871Y-190613357D02*
X197563156Y-190756214D01*
X198848871Y-192470500D02*
X198563156Y-192613357D01*
X198563156Y-192613357D02*
X197848871Y-192613357D01*
X197848871Y-192613357D02*
X197563156Y-192470500D01*
X197563156Y-192470500D02*
X197420299Y-192184785D01*
X197420299Y-192184785D02*
X197420299Y-191899071D01*
X197420299Y-191899071D02*
X197563156Y-191613357D01*
X197563156Y-191613357D02*
X197848871Y-191470500D01*
X197848871Y-191470500D02*
X198563156Y-191470500D01*
X198563156Y-191470500D02*
X198848871Y-191327642D01*
X200277442Y-192613357D02*
X200277442Y-190613357D01*
X200277442Y-191184785D02*
X200420299Y-190899071D01*
X200420299Y-190899071D02*
X200563157Y-190756214D01*
X200563157Y-190756214D02*
X200848871Y-190613357D01*
X200848871Y-190613357D02*
X201134585Y-190613357D01*
X201706014Y-190613357D02*
X202848871Y-190613357D01*
X202134585Y-189613357D02*
X202134585Y-192184785D01*
X202134585Y-192184785D02*
X202277442Y-192470500D01*
X202277442Y-192470500D02*
X202563157Y-192613357D01*
X202563157Y-192613357D02*
X202848871Y-192613357D01*
X204991728Y-192470500D02*
X204706014Y-192613357D01*
X204706014Y-192613357D02*
X204134586Y-192613357D01*
X204134586Y-192613357D02*
X203848871Y-192470500D01*
X203848871Y-192470500D02*
X203706014Y-192184785D01*
X203706014Y-192184785D02*
X203706014Y-191041928D01*
X203706014Y-191041928D02*
X203848871Y-190756214D01*
X203848871Y-190756214D02*
X204134586Y-190613357D01*
X204134586Y-190613357D02*
X204706014Y-190613357D01*
X204706014Y-190613357D02*
X204991728Y-190756214D01*
X204991728Y-190756214D02*
X205134586Y-191041928D01*
X205134586Y-191041928D02*
X205134586Y-191327642D01*
X205134586Y-191327642D02*
X203706014Y-191613357D01*
X247134582Y-195899071D02*
X247277439Y-195756214D01*
X247277439Y-195756214D02*
X247563154Y-195613357D01*
X247563154Y-195613357D02*
X248277439Y-195613357D01*
X248277439Y-195613357D02*
X248563154Y-195756214D01*
X248563154Y-195756214D02*
X248706011Y-195899071D01*
X248706011Y-195899071D02*
X248848868Y-196184785D01*
X248848868Y-196184785D02*
X248848868Y-196470500D01*
X248848868Y-196470500D02*
X248706011Y-196899071D01*
X248706011Y-196899071D02*
X246991725Y-198613357D01*
X246991725Y-198613357D02*
X248848868Y-198613357D01*
X250706011Y-195613357D02*
X250991725Y-195613357D01*
X250991725Y-195613357D02*
X251277439Y-195756214D01*
X251277439Y-195756214D02*
X251420297Y-195899071D01*
X251420297Y-195899071D02*
X251563154Y-196184785D01*
X251563154Y-196184785D02*
X251706011Y-196756214D01*
X251706011Y-196756214D02*
X251706011Y-197470500D01*
X251706011Y-197470500D02*
X251563154Y-198041928D01*
X251563154Y-198041928D02*
X251420297Y-198327642D01*
X251420297Y-198327642D02*
X251277439Y-198470500D01*
X251277439Y-198470500D02*
X250991725Y-198613357D01*
X250991725Y-198613357D02*
X250706011Y-198613357D01*
X250706011Y-198613357D02*
X250420297Y-198470500D01*
X250420297Y-198470500D02*
X250277439Y-198327642D01*
X250277439Y-198327642D02*
X250134582Y-198041928D01*
X250134582Y-198041928D02*
X249991725Y-197470500D01*
X249991725Y-197470500D02*
X249991725Y-196756214D01*
X249991725Y-196756214D02*
X250134582Y-196184785D01*
X250134582Y-196184785D02*
X250277439Y-195899071D01*
X250277439Y-195899071D02*
X250420297Y-195756214D01*
X250420297Y-195756214D02*
X250706011Y-195613357D01*
X252848868Y-195899071D02*
X252991725Y-195756214D01*
X252991725Y-195756214D02*
X253277440Y-195613357D01*
X253277440Y-195613357D02*
X253991725Y-195613357D01*
X253991725Y-195613357D02*
X254277440Y-195756214D01*
X254277440Y-195756214D02*
X254420297Y-195899071D01*
X254420297Y-195899071D02*
X254563154Y-196184785D01*
X254563154Y-196184785D02*
X254563154Y-196470500D01*
X254563154Y-196470500D02*
X254420297Y-196899071D01*
X254420297Y-196899071D02*
X252706011Y-198613357D01*
X252706011Y-198613357D02*
X254563154Y-198613357D01*
X257134583Y-195613357D02*
X256563154Y-195613357D01*
X256563154Y-195613357D02*
X256277440Y-195756214D01*
X256277440Y-195756214D02*
X256134583Y-195899071D01*
X256134583Y-195899071D02*
X255848868Y-196327642D01*
X255848868Y-196327642D02*
X255706011Y-196899071D01*
X255706011Y-196899071D02*
X255706011Y-198041928D01*
X255706011Y-198041928D02*
X255848868Y-198327642D01*
X255848868Y-198327642D02*
X255991725Y-198470500D01*
X255991725Y-198470500D02*
X256277440Y-198613357D01*
X256277440Y-198613357D02*
X256848868Y-198613357D01*
X256848868Y-198613357D02*
X257134583Y-198470500D01*
X257134583Y-198470500D02*
X257277440Y-198327642D01*
X257277440Y-198327642D02*
X257420297Y-198041928D01*
X257420297Y-198041928D02*
X257420297Y-197327642D01*
X257420297Y-197327642D02*
X257277440Y-197041928D01*
X257277440Y-197041928D02*
X257134583Y-196899071D01*
X257134583Y-196899071D02*
X256848868Y-196756214D01*
X256848868Y-196756214D02*
X256277440Y-196756214D01*
X256277440Y-196756214D02*
X255991725Y-196899071D01*
X255991725Y-196899071D02*
X255848868Y-197041928D01*
X255848868Y-197041928D02*
X255706011Y-197327642D01*
X258706011Y-197470500D02*
X260991726Y-197470500D01*
X262991726Y-195613357D02*
X263277440Y-195613357D01*
X263277440Y-195613357D02*
X263563154Y-195756214D01*
X263563154Y-195756214D02*
X263706012Y-195899071D01*
X263706012Y-195899071D02*
X263848869Y-196184785D01*
X263848869Y-196184785D02*
X263991726Y-196756214D01*
X263991726Y-196756214D02*
X263991726Y-197470500D01*
X263991726Y-197470500D02*
X263848869Y-198041928D01*
X263848869Y-198041928D02*
X263706012Y-198327642D01*
X263706012Y-198327642D02*
X263563154Y-198470500D01*
X263563154Y-198470500D02*
X263277440Y-198613357D01*
X263277440Y-198613357D02*
X262991726Y-198613357D01*
X262991726Y-198613357D02*
X262706012Y-198470500D01*
X262706012Y-198470500D02*
X262563154Y-198327642D01*
X262563154Y-198327642D02*
X262420297Y-198041928D01*
X262420297Y-198041928D02*
X262277440Y-197470500D01*
X262277440Y-197470500D02*
X262277440Y-196756214D01*
X262277440Y-196756214D02*
X262420297Y-196184785D01*
X262420297Y-196184785D02*
X262563154Y-195899071D01*
X262563154Y-195899071D02*
X262706012Y-195756214D01*
X262706012Y-195756214D02*
X262991726Y-195613357D01*
X264991726Y-195613357D02*
X266848869Y-195613357D01*
X266848869Y-195613357D02*
X265848869Y-196756214D01*
X265848869Y-196756214D02*
X266277440Y-196756214D01*
X266277440Y-196756214D02*
X266563155Y-196899071D01*
X266563155Y-196899071D02*
X266706012Y-197041928D01*
X266706012Y-197041928D02*
X266848869Y-197327642D01*
X266848869Y-197327642D02*
X266848869Y-198041928D01*
X266848869Y-198041928D02*
X266706012Y-198327642D01*
X266706012Y-198327642D02*
X266563155Y-198470500D01*
X266563155Y-198470500D02*
X266277440Y-198613357D01*
X266277440Y-198613357D02*
X265420297Y-198613357D01*
X265420297Y-198613357D02*
X265134583Y-198470500D01*
X265134583Y-198470500D02*
X264991726Y-198327642D01*
X268134583Y-197470500D02*
X270420298Y-197470500D01*
X271706012Y-195899071D02*
X271848869Y-195756214D01*
X271848869Y-195756214D02*
X272134584Y-195613357D01*
X272134584Y-195613357D02*
X272848869Y-195613357D01*
X272848869Y-195613357D02*
X273134584Y-195756214D01*
X273134584Y-195756214D02*
X273277441Y-195899071D01*
X273277441Y-195899071D02*
X273420298Y-196184785D01*
X273420298Y-196184785D02*
X273420298Y-196470500D01*
X273420298Y-196470500D02*
X273277441Y-196899071D01*
X273277441Y-196899071D02*
X271563155Y-198613357D01*
X271563155Y-198613357D02*
X273420298Y-198613357D01*
X275277441Y-195613357D02*
X275563155Y-195613357D01*
X275563155Y-195613357D02*
X275848869Y-195756214D01*
X275848869Y-195756214D02*
X275991727Y-195899071D01*
X275991727Y-195899071D02*
X276134584Y-196184785D01*
X276134584Y-196184785D02*
X276277441Y-196756214D01*
X276277441Y-196756214D02*
X276277441Y-197470500D01*
X276277441Y-197470500D02*
X276134584Y-198041928D01*
X276134584Y-198041928D02*
X275991727Y-198327642D01*
X275991727Y-198327642D02*
X275848869Y-198470500D01*
X275848869Y-198470500D02*
X275563155Y-198613357D01*
X275563155Y-198613357D02*
X275277441Y-198613357D01*
X275277441Y-198613357D02*
X274991727Y-198470500D01*
X274991727Y-198470500D02*
X274848869Y-198327642D01*
X274848869Y-198327642D02*
X274706012Y-198041928D01*
X274706012Y-198041928D02*
X274563155Y-197470500D01*
X274563155Y-197470500D02*
X274563155Y-196756214D01*
X274563155Y-196756214D02*
X274706012Y-196184785D01*
X274706012Y-196184785D02*
X274848869Y-195899071D01*
X274848869Y-195899071D02*
X274991727Y-195756214D01*
X274991727Y-195756214D02*
X275277441Y-195613357D01*
M02*
