%TF.GenerationSoftware,KiCad,Pcbnew,9.0.8-9.0.8~ubuntu24.04.1*%
%TF.CreationDate,2026-03-22T18:01:05+01:00*%
%TF.ProjectId,Schalter-Karte_HW,53636861-6c74-4657-922d-4b617274655f,V1.0*%
%TF.SameCoordinates,Original*%
%TF.FileFunction,AssemblyDrawing,Bot*%
%FSLAX46Y46*%
G04 Gerber Fmt 4.6, Leading zero omitted, Abs format (unit mm)*
G04 Created by KiCad (PCBNEW 9.0.8-9.0.8~ubuntu24.04.1) date 2026-03-22 18:01:05*
%MOMM*%
%LPD*%
G01*
G04 APERTURE LIST*
%ADD10C,0.012500*%
G04 APERTURE END LIST*
D10*
X85345800Y-76892910D02*
X85298181Y-76859577D01*
X85345800Y-76835767D02*
X85245800Y-76835767D01*
X85245800Y-76835767D02*
X85245800Y-76873862D01*
X85245800Y-76873862D02*
X85250562Y-76883386D01*
X85250562Y-76883386D02*
X85255324Y-76888148D01*
X85255324Y-76888148D02*
X85264848Y-76892910D01*
X85264848Y-76892910D02*
X85279134Y-76892910D01*
X85279134Y-76892910D02*
X85288658Y-76888148D01*
X85288658Y-76888148D02*
X85293419Y-76883386D01*
X85293419Y-76883386D02*
X85298181Y-76873862D01*
X85298181Y-76873862D02*
X85298181Y-76835767D01*
X85341039Y-76973862D02*
X85345800Y-76964338D01*
X85345800Y-76964338D02*
X85345800Y-76945291D01*
X85345800Y-76945291D02*
X85341039Y-76935767D01*
X85341039Y-76935767D02*
X85331515Y-76931005D01*
X85331515Y-76931005D02*
X85293419Y-76931005D01*
X85293419Y-76931005D02*
X85283896Y-76935767D01*
X85283896Y-76935767D02*
X85279134Y-76945291D01*
X85279134Y-76945291D02*
X85279134Y-76964338D01*
X85279134Y-76964338D02*
X85283896Y-76973862D01*
X85283896Y-76973862D02*
X85293419Y-76978624D01*
X85293419Y-76978624D02*
X85302943Y-76978624D01*
X85302943Y-76978624D02*
X85312467Y-76931005D01*
X85279134Y-77021481D02*
X85379134Y-77021481D01*
X85283896Y-77021481D02*
X85279134Y-77031005D01*
X85279134Y-77031005D02*
X85279134Y-77050052D01*
X85279134Y-77050052D02*
X85283896Y-77059576D01*
X85283896Y-77059576D02*
X85288658Y-77064338D01*
X85288658Y-77064338D02*
X85298181Y-77069100D01*
X85298181Y-77069100D02*
X85326753Y-77069100D01*
X85326753Y-77069100D02*
X85336277Y-77064338D01*
X85336277Y-77064338D02*
X85341039Y-77059576D01*
X85341039Y-77059576D02*
X85345800Y-77050052D01*
X85345800Y-77050052D02*
X85345800Y-77031005D01*
X85345800Y-77031005D02*
X85341039Y-77021481D01*
X85345800Y-77126243D02*
X85341039Y-77116719D01*
X85341039Y-77116719D02*
X85336277Y-77111957D01*
X85336277Y-77111957D02*
X85326753Y-77107195D01*
X85326753Y-77107195D02*
X85298181Y-77107195D01*
X85298181Y-77107195D02*
X85288658Y-77111957D01*
X85288658Y-77111957D02*
X85283896Y-77116719D01*
X85283896Y-77116719D02*
X85279134Y-77126243D01*
X85279134Y-77126243D02*
X85279134Y-77140528D01*
X85279134Y-77140528D02*
X85283896Y-77150052D01*
X85283896Y-77150052D02*
X85288658Y-77154814D01*
X85288658Y-77154814D02*
X85298181Y-77159576D01*
X85298181Y-77159576D02*
X85326753Y-77159576D01*
X85326753Y-77159576D02*
X85336277Y-77154814D01*
X85336277Y-77154814D02*
X85341039Y-77150052D01*
X85341039Y-77150052D02*
X85345800Y-77140528D01*
X85345800Y-77140528D02*
X85345800Y-77126243D01*
X85345800Y-77254814D02*
X85345800Y-77197671D01*
X85345800Y-77226243D02*
X85245800Y-77226243D01*
X85245800Y-77226243D02*
X85260086Y-77216719D01*
X85260086Y-77216719D02*
X85269610Y-77207195D01*
X85269610Y-77207195D02*
X85274372Y-77197671D01*
M02*
