%TF.GenerationSoftware,KiCad,Pcbnew,9.0.8-9.0.8~ubuntu24.04.1*%
%TF.CreationDate,2026-03-22T18:01:05+01:00*%
%TF.ProjectId,Schalter-Karte_HW,53636861-6c74-4657-922d-4b617274655f,V1.0*%
%TF.SameCoordinates,Original*%
%TF.FileFunction,Other,User*%
%FSLAX46Y46*%
G04 Gerber Fmt 4.6, Leading zero omitted, Abs format (unit mm)*
G04 Created by KiCad (PCBNEW 9.0.8-9.0.8~ubuntu24.04.1) date 2026-03-22 18:01:05*
%MOMM*%
%LPD*%
G01*
G04 APERTURE LIST*
%ADD10C,0.150000*%
%ADD11C,0.100000*%
G04 APERTURE END LIST*
D10*
X77345238Y-145304819D02*
X76773810Y-145304819D01*
X77059524Y-145304819D02*
X77059524Y-144304819D01*
X77059524Y-144304819D02*
X76964286Y-144447676D01*
X76964286Y-144447676D02*
X76869048Y-144542914D01*
X76869048Y-144542914D02*
X76773810Y-144590533D01*
X77678572Y-144304819D02*
X78345238Y-144304819D01*
X78345238Y-144304819D02*
X77916667Y-145304819D01*
X78726191Y-145209580D02*
X78773810Y-145257200D01*
X78773810Y-145257200D02*
X78726191Y-145304819D01*
X78726191Y-145304819D02*
X78678572Y-145257200D01*
X78678572Y-145257200D02*
X78726191Y-145209580D01*
X78726191Y-145209580D02*
X78726191Y-145304819D01*
X79678571Y-144304819D02*
X79202381Y-144304819D01*
X79202381Y-144304819D02*
X79154762Y-144781009D01*
X79154762Y-144781009D02*
X79202381Y-144733390D01*
X79202381Y-144733390D02*
X79297619Y-144685771D01*
X79297619Y-144685771D02*
X79535714Y-144685771D01*
X79535714Y-144685771D02*
X79630952Y-144733390D01*
X79630952Y-144733390D02*
X79678571Y-144781009D01*
X79678571Y-144781009D02*
X79726190Y-144876247D01*
X79726190Y-144876247D02*
X79726190Y-145114342D01*
X79726190Y-145114342D02*
X79678571Y-145209580D01*
X79678571Y-145209580D02*
X79630952Y-145257200D01*
X79630952Y-145257200D02*
X79535714Y-145304819D01*
X79535714Y-145304819D02*
X79297619Y-145304819D01*
X79297619Y-145304819D02*
X79202381Y-145257200D01*
X79202381Y-145257200D02*
X79154762Y-145209580D01*
D11*
X69500000Y-140500000D02*
X69500000Y-146586420D01*
X87000000Y-146586420D02*
X87000000Y-140500000D01*
X69500000Y-146000000D02*
X87000000Y-146000000D01*
X69500000Y-146000000D02*
X70626504Y-145413579D01*
X69500000Y-146000000D02*
X70626504Y-146586421D01*
X87000000Y-146000000D02*
X85873496Y-146586421D01*
X87000000Y-146000000D02*
X85873496Y-145413579D01*
D10*
X61804819Y-102309523D02*
X61804819Y-101642857D01*
X61804819Y-101642857D02*
X62804819Y-102071428D01*
X61804819Y-101357142D02*
X61804819Y-100690476D01*
X61804819Y-100690476D02*
X62804819Y-101119047D01*
D11*
X69000000Y-140000000D02*
X62913580Y-140000000D01*
X62913580Y-63000000D02*
X69000000Y-63000000D01*
X63500000Y-140000000D02*
X63500000Y-63000000D01*
X63500000Y-140000000D02*
X62913579Y-138873496D01*
X63500000Y-140000000D02*
X64086421Y-138873496D01*
X63500000Y-63000000D02*
X64086421Y-64126504D01*
X63500000Y-63000000D02*
X62913579Y-64126504D01*
M02*
