%TF.GenerationSoftware,KiCad,Pcbnew,9.0.8-9.0.8~ubuntu24.04.1*%
%TF.CreationDate,2026-03-22T18:01:05+01:00*%
%TF.ProjectId,Schalter-Karte_HW,53636861-6c74-4657-922d-4b617274655f,V1.0*%
%TF.SameCoordinates,Original*%
%TF.FileFunction,Legend,Top*%
%TF.FilePolarity,Positive*%
%FSLAX46Y46*%
G04 Gerber Fmt 4.6, Leading zero omitted, Abs format (unit mm)*
G04 Created by KiCad (PCBNEW 9.0.8-9.0.8~ubuntu24.04.1) date 2026-03-22 18:01:05*
%MOMM*%
%LPD*%
G01*
G04 APERTURE LIST*
%ADD10C,0.187500*%
%ADD11C,0.100000*%
%ADD12C,0.150000*%
%ADD13C,0.625000*%
%ADD14C,0.127000*%
%ADD15C,0.200000*%
G04 APERTURE END LIST*
D10*
X71409069Y-109234283D02*
X72123355Y-109234283D01*
X71266212Y-109805712D02*
X71766212Y-107805712D01*
X71766212Y-107805712D02*
X72266212Y-109805712D01*
X71980497Y-115197869D02*
X72194783Y-115293107D01*
X72194783Y-115293107D02*
X72266212Y-115388345D01*
X72266212Y-115388345D02*
X72337640Y-115578821D01*
X72337640Y-115578821D02*
X72337640Y-115864535D01*
X72337640Y-115864535D02*
X72266212Y-116055011D01*
X72266212Y-116055011D02*
X72194783Y-116150250D01*
X72194783Y-116150250D02*
X72051926Y-116245488D01*
X72051926Y-116245488D02*
X71480497Y-116245488D01*
X71480497Y-116245488D02*
X71480497Y-114245488D01*
X71480497Y-114245488D02*
X71980497Y-114245488D01*
X71980497Y-114245488D02*
X72123355Y-114340726D01*
X72123355Y-114340726D02*
X72194783Y-114435964D01*
X72194783Y-114435964D02*
X72266212Y-114626440D01*
X72266212Y-114626440D02*
X72266212Y-114816916D01*
X72266212Y-114816916D02*
X72194783Y-115007392D01*
X72194783Y-115007392D02*
X72123355Y-115102630D01*
X72123355Y-115102630D02*
X71980497Y-115197869D01*
X71980497Y-115197869D02*
X71480497Y-115197869D01*
X76409069Y-65435964D02*
X76480497Y-65340726D01*
X76480497Y-65340726D02*
X76623355Y-65245488D01*
X76623355Y-65245488D02*
X76980497Y-65245488D01*
X76980497Y-65245488D02*
X77123355Y-65340726D01*
X77123355Y-65340726D02*
X77194783Y-65435964D01*
X77194783Y-65435964D02*
X77266212Y-65626440D01*
X77266212Y-65626440D02*
X77266212Y-65816916D01*
X77266212Y-65816916D02*
X77194783Y-66102630D01*
X77194783Y-66102630D02*
X76337640Y-67245488D01*
X76337640Y-67245488D02*
X77266212Y-67245488D01*
X78551926Y-65912154D02*
X78551926Y-67245488D01*
X78194783Y-65150250D02*
X77837640Y-66578821D01*
X77837640Y-66578821D02*
X78766211Y-66578821D01*
X79123354Y-65245488D02*
X79623354Y-67245488D01*
X79623354Y-67245488D02*
X80123354Y-65245488D01*
X76090931Y-137674059D02*
X76805217Y-137674059D01*
X75948074Y-138245488D02*
X76448074Y-136245488D01*
X76448074Y-136245488D02*
X76948074Y-138245488D01*
X80233787Y-137197869D02*
X80448073Y-137293107D01*
X80448073Y-137293107D02*
X80519502Y-137388345D01*
X80519502Y-137388345D02*
X80590930Y-137578821D01*
X80590930Y-137578821D02*
X80590930Y-137864535D01*
X80590930Y-137864535D02*
X80519502Y-138055011D01*
X80519502Y-138055011D02*
X80448073Y-138150250D01*
X80448073Y-138150250D02*
X80305216Y-138245488D01*
X80305216Y-138245488D02*
X79733787Y-138245488D01*
X79733787Y-138245488D02*
X79733787Y-136245488D01*
X79733787Y-136245488D02*
X80233787Y-136245488D01*
X80233787Y-136245488D02*
X80376645Y-136340726D01*
X80376645Y-136340726D02*
X80448073Y-136435964D01*
X80448073Y-136435964D02*
X80519502Y-136626440D01*
X80519502Y-136626440D02*
X80519502Y-136816916D01*
X80519502Y-136816916D02*
X80448073Y-137007392D01*
X80448073Y-137007392D02*
X80376645Y-137102630D01*
X80376645Y-137102630D02*
X80233787Y-137197869D01*
X80233787Y-137197869D02*
X79733787Y-137197869D01*
D11*
X72666667Y-102409800D02*
X72809524Y-102457419D01*
X72809524Y-102457419D02*
X73047619Y-102457419D01*
X73047619Y-102457419D02*
X73142857Y-102409800D01*
X73142857Y-102409800D02*
X73190476Y-102362180D01*
X73190476Y-102362180D02*
X73238095Y-102266942D01*
X73238095Y-102266942D02*
X73238095Y-102171704D01*
X73238095Y-102171704D02*
X73190476Y-102076466D01*
X73190476Y-102076466D02*
X73142857Y-102028847D01*
X73142857Y-102028847D02*
X73047619Y-101981228D01*
X73047619Y-101981228D02*
X72857143Y-101933609D01*
X72857143Y-101933609D02*
X72761905Y-101885990D01*
X72761905Y-101885990D02*
X72714286Y-101838371D01*
X72714286Y-101838371D02*
X72666667Y-101743133D01*
X72666667Y-101743133D02*
X72666667Y-101647895D01*
X72666667Y-101647895D02*
X72714286Y-101552657D01*
X72714286Y-101552657D02*
X72761905Y-101505038D01*
X72761905Y-101505038D02*
X72857143Y-101457419D01*
X72857143Y-101457419D02*
X73095238Y-101457419D01*
X73095238Y-101457419D02*
X73238095Y-101505038D01*
X73571429Y-101457419D02*
X73809524Y-102457419D01*
X73809524Y-102457419D02*
X74000000Y-101743133D01*
X74000000Y-101743133D02*
X74190476Y-102457419D01*
X74190476Y-102457419D02*
X74428572Y-101457419D01*
X75333333Y-102457419D02*
X74761905Y-102457419D01*
X75047619Y-102457419D02*
X75047619Y-101457419D01*
X75047619Y-101457419D02*
X74952381Y-101600276D01*
X74952381Y-101600276D02*
X74857143Y-101695514D01*
X74857143Y-101695514D02*
X74761905Y-101743133D01*
D12*
X73166666Y-81931009D02*
X72833333Y-81931009D01*
X72833333Y-82454819D02*
X72833333Y-81454819D01*
X72833333Y-81454819D02*
X73309523Y-81454819D01*
X74214285Y-82454819D02*
X73642857Y-82454819D01*
X73928571Y-82454819D02*
X73928571Y-81454819D01*
X73928571Y-81454819D02*
X73833333Y-81597676D01*
X73833333Y-81597676D02*
X73738095Y-81692914D01*
X73738095Y-81692914D02*
X73642857Y-81740533D01*
X71666666Y-70454819D02*
X71666666Y-71169104D01*
X71666666Y-71169104D02*
X71619047Y-71311961D01*
X71619047Y-71311961D02*
X71523809Y-71407200D01*
X71523809Y-71407200D02*
X71380952Y-71454819D01*
X71380952Y-71454819D02*
X71285714Y-71454819D01*
X72666666Y-71454819D02*
X72095238Y-71454819D01*
X72380952Y-71454819D02*
X72380952Y-70454819D01*
X72380952Y-70454819D02*
X72285714Y-70597676D01*
X72285714Y-70597676D02*
X72190476Y-70692914D01*
X72190476Y-70692914D02*
X72095238Y-70740533D01*
D13*
D11*
X84862531Y-101727174D02*
X84910150Y-101584317D01*
X84910150Y-101584317D02*
X84910150Y-101346222D01*
X84910150Y-101346222D02*
X84862531Y-101250984D01*
X84862531Y-101250984D02*
X84814911Y-101203365D01*
X84814911Y-101203365D02*
X84719673Y-101155746D01*
X84719673Y-101155746D02*
X84624435Y-101155746D01*
X84624435Y-101155746D02*
X84529197Y-101203365D01*
X84529197Y-101203365D02*
X84481578Y-101250984D01*
X84481578Y-101250984D02*
X84433959Y-101346222D01*
X84433959Y-101346222D02*
X84386340Y-101536698D01*
X84386340Y-101536698D02*
X84338721Y-101631936D01*
X84338721Y-101631936D02*
X84291102Y-101679555D01*
X84291102Y-101679555D02*
X84195864Y-101727174D01*
X84195864Y-101727174D02*
X84100626Y-101727174D01*
X84100626Y-101727174D02*
X84005388Y-101679555D01*
X84005388Y-101679555D02*
X83957769Y-101631936D01*
X83957769Y-101631936D02*
X83910150Y-101536698D01*
X83910150Y-101536698D02*
X83910150Y-101298603D01*
X83910150Y-101298603D02*
X83957769Y-101155746D01*
X84862531Y-100298603D02*
X84910150Y-100393841D01*
X84910150Y-100393841D02*
X84910150Y-100584317D01*
X84910150Y-100584317D02*
X84862531Y-100679555D01*
X84862531Y-100679555D02*
X84814911Y-100727174D01*
X84814911Y-100727174D02*
X84719673Y-100774793D01*
X84719673Y-100774793D02*
X84433959Y-100774793D01*
X84433959Y-100774793D02*
X84338721Y-100727174D01*
X84338721Y-100727174D02*
X84291102Y-100679555D01*
X84291102Y-100679555D02*
X84243483Y-100584317D01*
X84243483Y-100584317D02*
X84243483Y-100393841D01*
X84243483Y-100393841D02*
X84291102Y-100298603D01*
X84910150Y-99870031D02*
X83910150Y-99870031D01*
X84910150Y-99441460D02*
X84386340Y-99441460D01*
X84386340Y-99441460D02*
X84291102Y-99489079D01*
X84291102Y-99489079D02*
X84243483Y-99584317D01*
X84243483Y-99584317D02*
X84243483Y-99727174D01*
X84243483Y-99727174D02*
X84291102Y-99822412D01*
X84291102Y-99822412D02*
X84338721Y-99870031D01*
X84910150Y-98536698D02*
X84386340Y-98536698D01*
X84386340Y-98536698D02*
X84291102Y-98584317D01*
X84291102Y-98584317D02*
X84243483Y-98679555D01*
X84243483Y-98679555D02*
X84243483Y-98870031D01*
X84243483Y-98870031D02*
X84291102Y-98965269D01*
X84862531Y-98536698D02*
X84910150Y-98631936D01*
X84910150Y-98631936D02*
X84910150Y-98870031D01*
X84910150Y-98870031D02*
X84862531Y-98965269D01*
X84862531Y-98965269D02*
X84767292Y-99012888D01*
X84767292Y-99012888D02*
X84672054Y-99012888D01*
X84672054Y-99012888D02*
X84576816Y-98965269D01*
X84576816Y-98965269D02*
X84529197Y-98870031D01*
X84529197Y-98870031D02*
X84529197Y-98631936D01*
X84529197Y-98631936D02*
X84481578Y-98536698D01*
X84910150Y-97917650D02*
X84862531Y-98012888D01*
X84862531Y-98012888D02*
X84767292Y-98060507D01*
X84767292Y-98060507D02*
X83910150Y-98060507D01*
X84243483Y-97679554D02*
X84243483Y-97298602D01*
X83910150Y-97536697D02*
X84767292Y-97536697D01*
X84767292Y-97536697D02*
X84862531Y-97489078D01*
X84862531Y-97489078D02*
X84910150Y-97393840D01*
X84910150Y-97393840D02*
X84910150Y-97298602D01*
X84862531Y-96584316D02*
X84910150Y-96679554D01*
X84910150Y-96679554D02*
X84910150Y-96870030D01*
X84910150Y-96870030D02*
X84862531Y-96965268D01*
X84862531Y-96965268D02*
X84767292Y-97012887D01*
X84767292Y-97012887D02*
X84386340Y-97012887D01*
X84386340Y-97012887D02*
X84291102Y-96965268D01*
X84291102Y-96965268D02*
X84243483Y-96870030D01*
X84243483Y-96870030D02*
X84243483Y-96679554D01*
X84243483Y-96679554D02*
X84291102Y-96584316D01*
X84291102Y-96584316D02*
X84386340Y-96536697D01*
X84386340Y-96536697D02*
X84481578Y-96536697D01*
X84481578Y-96536697D02*
X84576816Y-97012887D01*
X84910150Y-96108125D02*
X84243483Y-96108125D01*
X84433959Y-96108125D02*
X84338721Y-96060506D01*
X84338721Y-96060506D02*
X84291102Y-96012887D01*
X84291102Y-96012887D02*
X84243483Y-95917649D01*
X84243483Y-95917649D02*
X84243483Y-95822411D01*
X84529197Y-95489077D02*
X84529197Y-94727173D01*
X84910150Y-94250982D02*
X83910150Y-94250982D01*
X84910150Y-93679554D02*
X84338721Y-94108125D01*
X83910150Y-93679554D02*
X84481578Y-94250982D01*
X84910150Y-92822411D02*
X84386340Y-92822411D01*
X84386340Y-92822411D02*
X84291102Y-92870030D01*
X84291102Y-92870030D02*
X84243483Y-92965268D01*
X84243483Y-92965268D02*
X84243483Y-93155744D01*
X84243483Y-93155744D02*
X84291102Y-93250982D01*
X84862531Y-92822411D02*
X84910150Y-92917649D01*
X84910150Y-92917649D02*
X84910150Y-93155744D01*
X84910150Y-93155744D02*
X84862531Y-93250982D01*
X84862531Y-93250982D02*
X84767292Y-93298601D01*
X84767292Y-93298601D02*
X84672054Y-93298601D01*
X84672054Y-93298601D02*
X84576816Y-93250982D01*
X84576816Y-93250982D02*
X84529197Y-93155744D01*
X84529197Y-93155744D02*
X84529197Y-92917649D01*
X84529197Y-92917649D02*
X84481578Y-92822411D01*
X84910150Y-92346220D02*
X84243483Y-92346220D01*
X84433959Y-92346220D02*
X84338721Y-92298601D01*
X84338721Y-92298601D02*
X84291102Y-92250982D01*
X84291102Y-92250982D02*
X84243483Y-92155744D01*
X84243483Y-92155744D02*
X84243483Y-92060506D01*
X84243483Y-91870029D02*
X84243483Y-91489077D01*
X83910150Y-91727172D02*
X84767292Y-91727172D01*
X84767292Y-91727172D02*
X84862531Y-91679553D01*
X84862531Y-91679553D02*
X84910150Y-91584315D01*
X84910150Y-91584315D02*
X84910150Y-91489077D01*
X84862531Y-90774791D02*
X84910150Y-90870029D01*
X84910150Y-90870029D02*
X84910150Y-91060505D01*
X84910150Y-91060505D02*
X84862531Y-91155743D01*
X84862531Y-91155743D02*
X84767292Y-91203362D01*
X84767292Y-91203362D02*
X84386340Y-91203362D01*
X84386340Y-91203362D02*
X84291102Y-91155743D01*
X84291102Y-91155743D02*
X84243483Y-91060505D01*
X84243483Y-91060505D02*
X84243483Y-90870029D01*
X84243483Y-90870029D02*
X84291102Y-90774791D01*
X84291102Y-90774791D02*
X84386340Y-90727172D01*
X84386340Y-90727172D02*
X84481578Y-90727172D01*
X84481578Y-90727172D02*
X84576816Y-91203362D01*
X85005388Y-90536696D02*
X85005388Y-89774791D01*
X84005388Y-89584314D02*
X83957769Y-89536695D01*
X83957769Y-89536695D02*
X83910150Y-89441457D01*
X83910150Y-89441457D02*
X83910150Y-89203362D01*
X83910150Y-89203362D02*
X83957769Y-89108124D01*
X83957769Y-89108124D02*
X84005388Y-89060505D01*
X84005388Y-89060505D02*
X84100626Y-89012886D01*
X84100626Y-89012886D02*
X84195864Y-89012886D01*
X84195864Y-89012886D02*
X84338721Y-89060505D01*
X84338721Y-89060505D02*
X84910150Y-89631933D01*
X84910150Y-89631933D02*
X84910150Y-89012886D01*
X83910150Y-88393838D02*
X83910150Y-88298600D01*
X83910150Y-88298600D02*
X83957769Y-88203362D01*
X83957769Y-88203362D02*
X84005388Y-88155743D01*
X84005388Y-88155743D02*
X84100626Y-88108124D01*
X84100626Y-88108124D02*
X84291102Y-88060505D01*
X84291102Y-88060505D02*
X84529197Y-88060505D01*
X84529197Y-88060505D02*
X84719673Y-88108124D01*
X84719673Y-88108124D02*
X84814911Y-88155743D01*
X84814911Y-88155743D02*
X84862531Y-88203362D01*
X84862531Y-88203362D02*
X84910150Y-88298600D01*
X84910150Y-88298600D02*
X84910150Y-88393838D01*
X84910150Y-88393838D02*
X84862531Y-88489076D01*
X84862531Y-88489076D02*
X84814911Y-88536695D01*
X84814911Y-88536695D02*
X84719673Y-88584314D01*
X84719673Y-88584314D02*
X84529197Y-88631933D01*
X84529197Y-88631933D02*
X84291102Y-88631933D01*
X84291102Y-88631933D02*
X84100626Y-88584314D01*
X84100626Y-88584314D02*
X84005388Y-88536695D01*
X84005388Y-88536695D02*
X83957769Y-88489076D01*
X83957769Y-88489076D02*
X83910150Y-88393838D01*
X84005388Y-87679552D02*
X83957769Y-87631933D01*
X83957769Y-87631933D02*
X83910150Y-87536695D01*
X83910150Y-87536695D02*
X83910150Y-87298600D01*
X83910150Y-87298600D02*
X83957769Y-87203362D01*
X83957769Y-87203362D02*
X84005388Y-87155743D01*
X84005388Y-87155743D02*
X84100626Y-87108124D01*
X84100626Y-87108124D02*
X84195864Y-87108124D01*
X84195864Y-87108124D02*
X84338721Y-87155743D01*
X84338721Y-87155743D02*
X84910150Y-87727171D01*
X84910150Y-87727171D02*
X84910150Y-87108124D01*
X83910150Y-86250981D02*
X83910150Y-86441457D01*
X83910150Y-86441457D02*
X83957769Y-86536695D01*
X83957769Y-86536695D02*
X84005388Y-86584314D01*
X84005388Y-86584314D02*
X84148245Y-86679552D01*
X84148245Y-86679552D02*
X84338721Y-86727171D01*
X84338721Y-86727171D02*
X84719673Y-86727171D01*
X84719673Y-86727171D02*
X84814911Y-86679552D01*
X84814911Y-86679552D02*
X84862531Y-86631933D01*
X84862531Y-86631933D02*
X84910150Y-86536695D01*
X84910150Y-86536695D02*
X84910150Y-86346219D01*
X84910150Y-86346219D02*
X84862531Y-86250981D01*
X84862531Y-86250981D02*
X84814911Y-86203362D01*
X84814911Y-86203362D02*
X84719673Y-86155743D01*
X84719673Y-86155743D02*
X84481578Y-86155743D01*
X84481578Y-86155743D02*
X84386340Y-86203362D01*
X84386340Y-86203362D02*
X84338721Y-86250981D01*
X84338721Y-86250981D02*
X84291102Y-86346219D01*
X84291102Y-86346219D02*
X84291102Y-86536695D01*
X84291102Y-86536695D02*
X84338721Y-86631933D01*
X84338721Y-86631933D02*
X84386340Y-86679552D01*
X84386340Y-86679552D02*
X84481578Y-86727171D01*
X84529197Y-85727171D02*
X84529197Y-84965267D01*
X83910150Y-84298600D02*
X83910150Y-84203362D01*
X83910150Y-84203362D02*
X83957769Y-84108124D01*
X83957769Y-84108124D02*
X84005388Y-84060505D01*
X84005388Y-84060505D02*
X84100626Y-84012886D01*
X84100626Y-84012886D02*
X84291102Y-83965267D01*
X84291102Y-83965267D02*
X84529197Y-83965267D01*
X84529197Y-83965267D02*
X84719673Y-84012886D01*
X84719673Y-84012886D02*
X84814911Y-84060505D01*
X84814911Y-84060505D02*
X84862531Y-84108124D01*
X84862531Y-84108124D02*
X84910150Y-84203362D01*
X84910150Y-84203362D02*
X84910150Y-84298600D01*
X84910150Y-84298600D02*
X84862531Y-84393838D01*
X84862531Y-84393838D02*
X84814911Y-84441457D01*
X84814911Y-84441457D02*
X84719673Y-84489076D01*
X84719673Y-84489076D02*
X84529197Y-84536695D01*
X84529197Y-84536695D02*
X84291102Y-84536695D01*
X84291102Y-84536695D02*
X84100626Y-84489076D01*
X84100626Y-84489076D02*
X84005388Y-84441457D01*
X84005388Y-84441457D02*
X83957769Y-84393838D01*
X83957769Y-84393838D02*
X83910150Y-84298600D01*
X83910150Y-83631933D02*
X83910150Y-83012886D01*
X83910150Y-83012886D02*
X84291102Y-83346219D01*
X84291102Y-83346219D02*
X84291102Y-83203362D01*
X84291102Y-83203362D02*
X84338721Y-83108124D01*
X84338721Y-83108124D02*
X84386340Y-83060505D01*
X84386340Y-83060505D02*
X84481578Y-83012886D01*
X84481578Y-83012886D02*
X84719673Y-83012886D01*
X84719673Y-83012886D02*
X84814911Y-83060505D01*
X84814911Y-83060505D02*
X84862531Y-83108124D01*
X84862531Y-83108124D02*
X84910150Y-83203362D01*
X84910150Y-83203362D02*
X84910150Y-83489076D01*
X84910150Y-83489076D02*
X84862531Y-83584314D01*
X84862531Y-83584314D02*
X84814911Y-83631933D01*
X84529197Y-82584314D02*
X84529197Y-81822410D01*
X84005388Y-81393838D02*
X83957769Y-81346219D01*
X83957769Y-81346219D02*
X83910150Y-81250981D01*
X83910150Y-81250981D02*
X83910150Y-81012886D01*
X83910150Y-81012886D02*
X83957769Y-80917648D01*
X83957769Y-80917648D02*
X84005388Y-80870029D01*
X84005388Y-80870029D02*
X84100626Y-80822410D01*
X84100626Y-80822410D02*
X84195864Y-80822410D01*
X84195864Y-80822410D02*
X84338721Y-80870029D01*
X84338721Y-80870029D02*
X84910150Y-81441457D01*
X84910150Y-81441457D02*
X84910150Y-80822410D01*
X83910150Y-80203362D02*
X83910150Y-80108124D01*
X83910150Y-80108124D02*
X83957769Y-80012886D01*
X83957769Y-80012886D02*
X84005388Y-79965267D01*
X84005388Y-79965267D02*
X84100626Y-79917648D01*
X84100626Y-79917648D02*
X84291102Y-79870029D01*
X84291102Y-79870029D02*
X84529197Y-79870029D01*
X84529197Y-79870029D02*
X84719673Y-79917648D01*
X84719673Y-79917648D02*
X84814911Y-79965267D01*
X84814911Y-79965267D02*
X84862531Y-80012886D01*
X84862531Y-80012886D02*
X84910150Y-80108124D01*
X84910150Y-80108124D02*
X84910150Y-80203362D01*
X84910150Y-80203362D02*
X84862531Y-80298600D01*
X84862531Y-80298600D02*
X84814911Y-80346219D01*
X84814911Y-80346219D02*
X84719673Y-80393838D01*
X84719673Y-80393838D02*
X84529197Y-80441457D01*
X84529197Y-80441457D02*
X84291102Y-80441457D01*
X84291102Y-80441457D02*
X84100626Y-80393838D01*
X84100626Y-80393838D02*
X84005388Y-80346219D01*
X84005388Y-80346219D02*
X83957769Y-80298600D01*
X83957769Y-80298600D02*
X83910150Y-80203362D01*
D12*
X71166666Y-124454819D02*
X71166666Y-125169104D01*
X71166666Y-125169104D02*
X71119047Y-125311961D01*
X71119047Y-125311961D02*
X71023809Y-125407200D01*
X71023809Y-125407200D02*
X70880952Y-125454819D01*
X70880952Y-125454819D02*
X70785714Y-125454819D01*
X71595238Y-124550057D02*
X71642857Y-124502438D01*
X71642857Y-124502438D02*
X71738095Y-124454819D01*
X71738095Y-124454819D02*
X71976190Y-124454819D01*
X71976190Y-124454819D02*
X72071428Y-124502438D01*
X72071428Y-124502438D02*
X72119047Y-124550057D01*
X72119047Y-124550057D02*
X72166666Y-124645295D01*
X72166666Y-124645295D02*
X72166666Y-124740533D01*
X72166666Y-124740533D02*
X72119047Y-124883390D01*
X72119047Y-124883390D02*
X71547619Y-125454819D01*
X71547619Y-125454819D02*
X72166666Y-125454819D01*
D13*
%TO.C,SW1*%
D11*
X72650000Y-122900000D02*
X83650000Y-122900000D01*
X83650000Y-102900000D01*
X72650000Y-102900000D01*
X72650000Y-122900000D01*
D14*
%TO.C,F1*%
X74885000Y-81095000D02*
X74885000Y-100905000D01*
X74885000Y-100905000D02*
X81615000Y-100905000D01*
X81615000Y-81095000D02*
X74885000Y-81095000D01*
X81615000Y-100905000D02*
X81615000Y-81095000D01*
D15*
%TO.C,J1*%
X73170001Y-68300001D02*
X73170001Y-68000001D01*
X73170001Y-71000001D02*
X73170001Y-68300001D01*
X73170001Y-76627436D02*
X73170001Y-71000001D01*
X73170001Y-76927254D02*
X73170001Y-76627436D01*
X73170001Y-77203493D02*
X73170001Y-76927254D01*
X73170001Y-77203493D02*
X73170001Y-78133384D01*
X73170001Y-78931481D02*
X73170001Y-78133384D01*
X73170001Y-79200001D02*
X73170001Y-78931481D01*
X73170001Y-79200001D02*
X83330001Y-79200001D01*
X83330001Y-68000001D02*
X73170001Y-68000001D01*
X83330001Y-68000001D02*
X83330001Y-68300001D01*
X83330001Y-68300001D02*
X83330001Y-69693001D01*
X83330001Y-69693001D02*
X83330001Y-70107001D01*
X83330001Y-70107001D02*
X83330001Y-71000001D01*
X83330001Y-70107001D02*
X83458692Y-70107001D01*
X83330001Y-71000001D02*
X83330001Y-76627436D01*
X83330001Y-76627436D02*
X83330001Y-76927254D01*
X83330001Y-76927254D02*
X83330001Y-77203493D01*
X83330001Y-78133384D02*
X83330001Y-77203493D01*
X83330001Y-78133384D02*
X83330001Y-78931481D01*
X83330001Y-78931481D02*
X83330001Y-79200001D01*
X83458692Y-69693001D02*
X83330001Y-69693001D01*
X83458692Y-70107001D02*
X83637027Y-70256961D01*
X83637027Y-69543042D02*
X83458692Y-69693001D01*
X83637027Y-70256961D02*
X83900001Y-70256961D01*
X83900001Y-69543042D02*
X83637027Y-69543042D01*
X83900001Y-69543042D02*
X83900001Y-70256961D01*
%TO.C,J2*%
X72599999Y-133956958D02*
X72599999Y-133243039D01*
X72599999Y-133956958D02*
X72862973Y-133956958D01*
X72862973Y-133243039D02*
X72599999Y-133243039D01*
X72862973Y-133956958D02*
X73041308Y-133806999D01*
X73041308Y-133392999D02*
X72862973Y-133243039D01*
X73041308Y-133806999D02*
X73169999Y-133806999D01*
X73169999Y-124568519D02*
X73169999Y-124299999D01*
X73169999Y-125366616D02*
X73169999Y-124568519D01*
X73169999Y-125366616D02*
X73169999Y-126296507D01*
X73169999Y-126572746D02*
X73169999Y-126296507D01*
X73169999Y-126872564D02*
X73169999Y-126572746D01*
X73169999Y-132499999D02*
X73169999Y-126872564D01*
X73169999Y-133392999D02*
X73041308Y-133392999D01*
X73169999Y-133392999D02*
X73169999Y-132499999D01*
X73169999Y-133806999D02*
X73169999Y-133392999D01*
X73169999Y-135199999D02*
X73169999Y-133806999D01*
X73169999Y-135499999D02*
X73169999Y-135199999D01*
X73169999Y-135499999D02*
X83329999Y-135499999D01*
X83329999Y-124299999D02*
X73169999Y-124299999D01*
X83329999Y-124299999D02*
X83329999Y-124568519D01*
X83329999Y-124568519D02*
X83329999Y-125366616D01*
X83329999Y-126296507D02*
X83329999Y-125366616D01*
X83329999Y-126296507D02*
X83329999Y-126572746D01*
X83329999Y-126572746D02*
X83329999Y-126872564D01*
X83329999Y-126872564D02*
X83329999Y-132499999D01*
X83329999Y-132499999D02*
X83329999Y-135199999D01*
X83329999Y-135199999D02*
X83329999Y-135499999D01*
%TD*%
M02*
