%TF.GenerationSoftware,KiCad,Pcbnew,9.0.8-9.0.8~ubuntu24.04.1*%
%TF.CreationDate,2026-03-22T18:01:05+01:00*%
%TF.ProjectId,Schalter-Karte_HW,53636861-6c74-4657-922d-4b617274655f,V1.0*%
%TF.SameCoordinates,Original*%
%TF.FileFunction,OtherDrawing,Comment*%
%FSLAX46Y46*%
G04 Gerber Fmt 4.6, Leading zero omitted, Abs format (unit mm)*
G04 Created by KiCad (PCBNEW 9.0.8-9.0.8~ubuntu24.04.1) date 2026-03-22 18:01:05*
%MOMM*%
%LPD*%
G01*
G04 APERTURE LIST*
%ADD10C,0.030333*%
%ADD11C,0.200000*%
G04 APERTURE END LIST*
D10*
%TO.C,SW1*%
X72702127Y-107372956D02*
X72702127Y-108954953D01*
X72702127Y-108954953D02*
X72754236Y-108954953D01*
X72702127Y-112145322D02*
X72702127Y-113727319D01*
X72702127Y-113727319D02*
X72754236Y-113727319D01*
X72702127Y-116917684D02*
X72702127Y-118499681D01*
X72702127Y-118499681D02*
X72754236Y-118499681D01*
X72754236Y-103180661D02*
X72754236Y-122691972D01*
X72754236Y-107372956D02*
X72702127Y-107372956D01*
X72754236Y-108954953D02*
X73092889Y-109139524D01*
X72754236Y-112145322D02*
X72702127Y-112145322D01*
X72754236Y-113727316D02*
X73092889Y-113911882D01*
X72754236Y-116917684D02*
X72702127Y-116917684D01*
X72754236Y-118499681D02*
X73092889Y-118684247D01*
X73092889Y-107162026D02*
X73092889Y-109139524D01*
X73092889Y-107162026D02*
X73353387Y-107162026D01*
X73092889Y-109139524D02*
X73353387Y-109139524D01*
X73092889Y-111934388D02*
X73092889Y-113727319D01*
X73092889Y-111934388D02*
X73353387Y-111934388D01*
X73092889Y-113727319D02*
X73405496Y-113727319D01*
X73092889Y-113911882D02*
X73353387Y-113911882D01*
X73092889Y-116706746D02*
X73092889Y-118499681D01*
X73092889Y-116706746D02*
X73353387Y-116706746D01*
X73092889Y-118499681D02*
X73405496Y-118499681D01*
X73092889Y-118684247D02*
X73353387Y-118684247D01*
X73353387Y-103707997D02*
X73353387Y-122164643D01*
X73353387Y-107162026D02*
X73353387Y-107372956D01*
X73353387Y-109139524D02*
X73353387Y-108954953D01*
X73353387Y-111934388D02*
X73353387Y-112145322D01*
X73353387Y-113911882D02*
X73353387Y-113727319D01*
X73353387Y-116706746D02*
X73353387Y-116917684D01*
X73353387Y-118684247D02*
X73353387Y-118499681D01*
X73353387Y-122164643D02*
X83825586Y-122164643D01*
X73405496Y-104195779D02*
X73405496Y-121676858D01*
X73405496Y-107372956D02*
X72754236Y-107372956D01*
X73405496Y-107372956D02*
X73353387Y-107372956D01*
X73405496Y-112145322D02*
X72754236Y-112145322D01*
X73405496Y-112145322D02*
X73353387Y-112145322D01*
X73405496Y-116917684D02*
X72754236Y-116917684D01*
X73405496Y-116917684D02*
X73353387Y-116917684D01*
X73796259Y-122072358D02*
X82783579Y-122072358D01*
X76336145Y-103800279D02*
X73796259Y-103800279D01*
X76336145Y-104182595D02*
X79918054Y-104182595D01*
X76336145Y-104195779D02*
X76336145Y-103800279D01*
X76466394Y-108163957D02*
X79918054Y-108163957D01*
X76466394Y-108776982D02*
X76661768Y-108890748D01*
X76466394Y-113298860D02*
X76505472Y-113298860D01*
X76466394Y-117708680D02*
X76466394Y-108163957D01*
X76505472Y-108249650D02*
X76505472Y-108776982D01*
X76505472Y-108776982D02*
X76466394Y-108776982D01*
X76505472Y-113298860D02*
X76505472Y-113826192D01*
X76505472Y-113826192D02*
X80074350Y-113826192D01*
X76661768Y-108401258D02*
X76661768Y-113674584D01*
X76661768Y-108890748D02*
X80074350Y-108890748D01*
X76661768Y-109742173D02*
X76661768Y-110597009D01*
X76661768Y-109742173D02*
X79918054Y-109742173D01*
X76661768Y-110597009D02*
X79918054Y-110597009D01*
X76661768Y-111478948D02*
X76661768Y-111914857D01*
X76661768Y-111478948D02*
X79918054Y-111478948D01*
X76661768Y-111914857D02*
X79918054Y-111914857D01*
X76661768Y-112333669D02*
X76661768Y-113185094D01*
X76661768Y-112333669D02*
X79918054Y-112333669D01*
X76661768Y-113185094D02*
X80074350Y-113185094D01*
X77729822Y-104182595D02*
X77729822Y-104195779D01*
X77729822Y-117300000D02*
X77729822Y-117708680D01*
X78850000Y-104195779D02*
X78850000Y-104182595D01*
X78850000Y-117300000D02*
X77729822Y-117300000D01*
X78850000Y-117708680D02*
X78850000Y-117300000D01*
X79918054Y-104182595D02*
X79918054Y-104195779D01*
X79918054Y-108163957D02*
X79918054Y-113674584D01*
X79918054Y-108401258D02*
X76661768Y-108401258D01*
X79918054Y-110597009D02*
X79918054Y-111478948D01*
X79918054Y-111914857D02*
X79918054Y-112333669D01*
X79918054Y-113674584D02*
X76661768Y-113674584D01*
X80074350Y-108249650D02*
X76505472Y-108249650D01*
X80074350Y-108249650D02*
X80113428Y-108163957D01*
X80074350Y-108890748D02*
X80074350Y-108249650D01*
X80074350Y-113826192D02*
X80074350Y-113185094D01*
X80113428Y-108163957D02*
X80113428Y-117708680D01*
X80113428Y-117708680D02*
X76466394Y-117708680D01*
X80243677Y-103800279D02*
X80243677Y-104195779D01*
X80243677Y-104195779D02*
X76336145Y-104195779D01*
X82783579Y-103800279D02*
X80243677Y-103800279D01*
X83174326Y-108954953D02*
X83226419Y-108954953D01*
X83174326Y-108954953D02*
X83825586Y-108954953D01*
X83174326Y-113727319D02*
X83226419Y-113727319D01*
X83174326Y-118499681D02*
X83486932Y-118499681D01*
X83174326Y-121676858D02*
X83174326Y-104195779D01*
X83226419Y-103707997D02*
X73353387Y-103707997D01*
X83226419Y-103707997D02*
X83226419Y-122164643D01*
X83226419Y-107162026D02*
X83226419Y-107372956D01*
X83226419Y-107372956D02*
X83174326Y-107372956D01*
X83226419Y-109139524D02*
X83226419Y-108954953D01*
X83226419Y-111934388D02*
X83226419Y-112145322D01*
X83226419Y-112145322D02*
X83174326Y-112145322D01*
X83226419Y-113911882D02*
X83226419Y-113727319D01*
X83226419Y-116706746D02*
X83226419Y-116917684D01*
X83226419Y-116917684D02*
X83174326Y-116917684D01*
X83226419Y-118684247D02*
X83226419Y-118499681D01*
X83486932Y-107162026D02*
X83226419Y-107162026D01*
X83486932Y-107162026D02*
X83486932Y-109139524D01*
X83486932Y-109139524D02*
X83226419Y-109139524D01*
X83486932Y-111934388D02*
X83226419Y-111934388D01*
X83486932Y-111934388D02*
X83486932Y-113727319D01*
X83486932Y-113727319D02*
X83877695Y-113727319D01*
X83486932Y-116706746D02*
X83226419Y-116706746D01*
X83486932Y-116706746D02*
X83486932Y-118499681D01*
X83486932Y-118684247D02*
X83226419Y-118684247D01*
X83565088Y-102916997D02*
X73014749Y-102916997D01*
X83565088Y-122955644D02*
X73014749Y-122955644D01*
X83825586Y-103180661D02*
X83825586Y-103158933D01*
X83825586Y-103180661D02*
X83825586Y-122164643D01*
X83825586Y-107372956D02*
X83486932Y-107162026D01*
X83825586Y-108954953D02*
X83877695Y-108954953D01*
X83825586Y-118499681D02*
X83486932Y-118684247D01*
X83825586Y-118499681D02*
X83877695Y-118499681D01*
X83825586Y-122691972D02*
X83825586Y-122164643D01*
X83877695Y-107372956D02*
X83825586Y-107372956D01*
X83877695Y-108954953D02*
X83877695Y-107372956D01*
X83877695Y-112145322D02*
X83825586Y-112145322D01*
X83877695Y-113911882D02*
X83226419Y-113911882D01*
X83877695Y-113911882D02*
X83877695Y-112145322D01*
X83877695Y-116917684D02*
X83825586Y-116917684D01*
X83877695Y-118499681D02*
X83877695Y-116917684D01*
X72754236Y-122691972D02*
X72754276Y-122696634D01*
X72754395Y-122701285D01*
X72754595Y-122705926D01*
X72754873Y-122710556D01*
X72755231Y-122715173D01*
X72755667Y-122719778D01*
X72756183Y-122724369D01*
X72756777Y-122728946D01*
X72757449Y-122733507D01*
X72758200Y-122738052D01*
X72759029Y-122742580D01*
X72759936Y-122747089D01*
X72760920Y-122751580D01*
X72761982Y-122756052D01*
X72763121Y-122760502D01*
X72764336Y-122764930D01*
X72765629Y-122769336D01*
X72766997Y-122773717D01*
X72768441Y-122778074D01*
X72769961Y-122782405D01*
X72771555Y-122786708D01*
X72773225Y-122790983D01*
X72774968Y-122795229D01*
X72776786Y-122799444D01*
X72778676Y-122803627D01*
X72780640Y-122807777D01*
X72782675Y-122811893D01*
X72784782Y-122815974D01*
X72786961Y-122820018D01*
X72789209Y-122824025D01*
X72791527Y-122827992D01*
X72793915Y-122831919D01*
X72796370Y-122835804D01*
X72798893Y-122839646D01*
X72801483Y-122843445D01*
X72804138Y-122847198D01*
X72806859Y-122850904D01*
X72809643Y-122854563D01*
X72812491Y-122858173D01*
X72815401Y-122861732D01*
X72818372Y-122865240D01*
X72821404Y-122868696D01*
X72824494Y-122872097D01*
X72826062Y-122873778D01*
X72827643Y-122875444D01*
X72829239Y-122877096D01*
X72830849Y-122878735D01*
X72832473Y-122880359D01*
X72834111Y-122881968D01*
X72835762Y-122883563D01*
X72837427Y-122885143D01*
X72839106Y-122886708D01*
X72840797Y-122888259D01*
X72842502Y-122889794D01*
X72844220Y-122891314D01*
X72845951Y-122892819D01*
X72847694Y-122894308D01*
X72849450Y-122895781D01*
X72851218Y-122897239D01*
X72852999Y-122898681D01*
X72854791Y-122900107D01*
X72856596Y-122901517D01*
X72858412Y-122902911D01*
X72860240Y-122904288D01*
X72862079Y-122905649D01*
X72863930Y-122906994D01*
X72865792Y-122908322D01*
X72867664Y-122909632D01*
X72869549Y-122910927D01*
X72871442Y-122912204D01*
X72873348Y-122913465D01*
X72875263Y-122914707D01*
X72877189Y-122915934D01*
X72879124Y-122917142D01*
X72881070Y-122918333D01*
X72883024Y-122919507D01*
X72884990Y-122920663D01*
X72886964Y-122921801D01*
X72888948Y-122922922D01*
X72890940Y-122924025D01*
X72892943Y-122925110D01*
X72894953Y-122926177D01*
X72896973Y-122927226D01*
X72899000Y-122928256D01*
X72901037Y-122929269D01*
X72903081Y-122930263D01*
X72905134Y-122931239D01*
X72907194Y-122932197D01*
X72909263Y-122933136D01*
X72911338Y-122934056D01*
X72913423Y-122934959D01*
X72915513Y-122935842D01*
X72917612Y-122936707D01*
X72919716Y-122937552D01*
X72921829Y-122938380D01*
X72923947Y-122939188D01*
X72926074Y-122939977D01*
X72928205Y-122940747D01*
X72930345Y-122941499D01*
X72932489Y-122942231D01*
X72934641Y-122942945D01*
X72936797Y-122943639D01*
X72938961Y-122944314D01*
X72941128Y-122944969D01*
X72943304Y-122945606D01*
X72945482Y-122946223D01*
X72947669Y-122946822D01*
X72949858Y-122947400D01*
X72952054Y-122947959D01*
X72954254Y-122948499D01*
X72956460Y-122949020D01*
X72958669Y-122949520D01*
X72960885Y-122950002D01*
X72963103Y-122950464D01*
X72965328Y-122950906D01*
X72967555Y-122951329D01*
X72969788Y-122951732D01*
X72972024Y-122952116D01*
X72974265Y-122952480D01*
X72976508Y-122952824D01*
X72978757Y-122953148D01*
X72981008Y-122953453D01*
X72983264Y-122953738D01*
X72985521Y-122954003D01*
X72987785Y-122954249D01*
X72990049Y-122954474D01*
X72992319Y-122954680D01*
X72994589Y-122954866D01*
X72996865Y-122955033D01*
X72999141Y-122955179D01*
X73001423Y-122955305D01*
X73003704Y-122955411D01*
X73005991Y-122955498D01*
X73008278Y-122955564D01*
X73010570Y-122955611D01*
X73014749Y-122955644D01*
X73014749Y-102916997D02*
X73010170Y-102917037D01*
X73005602Y-102917156D01*
X73001043Y-102917356D01*
X72996496Y-102917634D01*
X72991960Y-102917992D01*
X72987437Y-102918428D01*
X72982927Y-102918944D01*
X72978430Y-102919538D01*
X72973949Y-102920211D01*
X72969483Y-102920962D01*
X72965033Y-102921792D01*
X72960601Y-102922699D01*
X72956187Y-102923684D01*
X72951791Y-102924747D01*
X72947416Y-102925887D01*
X72943061Y-102927104D01*
X72938728Y-102928398D01*
X72934418Y-102929768D01*
X72930132Y-102931214D01*
X72925871Y-102932737D01*
X72921636Y-102934335D01*
X72917427Y-102936008D01*
X72913247Y-102937756D01*
X72909096Y-102939578D01*
X72904975Y-102941474D01*
X72900886Y-102943444D01*
X72896830Y-102945486D01*
X72892807Y-102947601D01*
X72888820Y-102949788D01*
X72884869Y-102952046D01*
X72880955Y-102954374D01*
X72877080Y-102956773D01*
X72873245Y-102959240D01*
X72869451Y-102961777D01*
X72865700Y-102964381D01*
X72861992Y-102967052D01*
X72858329Y-102969789D01*
X72854712Y-102972592D01*
X72851143Y-102975459D01*
X72847622Y-102978390D01*
X72844150Y-102981383D01*
X72840730Y-102984438D01*
X72837362Y-102987554D01*
X72834048Y-102990729D01*
X72830788Y-102993963D01*
X72827583Y-102997254D01*
X72826002Y-102998921D01*
X72824435Y-103000602D01*
X72822883Y-103002296D01*
X72821346Y-103004004D01*
X72819823Y-103005726D01*
X72818315Y-103007462D01*
X72816822Y-103009210D01*
X72815344Y-103010971D01*
X72813881Y-103012746D01*
X72812434Y-103014533D01*
X72811002Y-103016333D01*
X72809586Y-103018146D01*
X72808186Y-103019970D01*
X72806801Y-103021807D01*
X72805433Y-103023656D01*
X72804080Y-103025517D01*
X72802744Y-103027389D01*
X72801424Y-103029274D01*
X72800121Y-103031169D01*
X72798834Y-103033076D01*
X72797564Y-103034994D01*
X72796310Y-103036923D01*
X72795074Y-103038863D01*
X72793854Y-103040813D01*
X72792651Y-103042774D01*
X72791466Y-103044746D01*
X72790298Y-103046726D01*
X72789146Y-103048718D01*
X72788013Y-103050719D01*
X72786897Y-103052730D01*
X72785799Y-103054750D01*
X72784718Y-103056781D01*
X72783655Y-103058819D01*
X72782610Y-103060868D01*
X72781583Y-103062925D01*
X72780574Y-103064991D01*
X72779583Y-103067065D01*
X72778610Y-103069149D01*
X72777656Y-103071240D01*
X72776719Y-103073340D01*
X72775801Y-103075447D01*
X72774901Y-103077563D01*
X72774021Y-103079685D01*
X72773158Y-103081817D01*
X72772314Y-103083954D01*
X72771488Y-103086100D01*
X72770682Y-103088252D01*
X72769894Y-103090413D01*
X72769125Y-103092578D01*
X72768375Y-103094752D01*
X72767644Y-103096931D01*
X72766931Y-103099118D01*
X72766239Y-103101310D01*
X72765564Y-103103509D01*
X72764909Y-103105713D01*
X72764273Y-103107925D01*
X72763657Y-103110140D01*
X72763059Y-103112363D01*
X72762481Y-103114590D01*
X72761922Y-103116824D01*
X72761383Y-103119061D01*
X72760863Y-103121305D01*
X72760362Y-103123552D01*
X72759881Y-103125806D01*
X72759419Y-103128063D01*
X72758977Y-103130327D01*
X72758554Y-103132593D01*
X72758151Y-103134865D01*
X72757768Y-103137140D01*
X72757403Y-103139421D01*
X72757059Y-103141704D01*
X72756735Y-103143993D01*
X72756430Y-103146283D01*
X72756145Y-103148580D01*
X72755879Y-103150878D01*
X72755634Y-103153182D01*
X72755408Y-103155487D01*
X72755202Y-103157797D01*
X72755016Y-103160109D01*
X72754849Y-103162426D01*
X72754703Y-103164743D01*
X72754576Y-103167066D01*
X72754470Y-103169389D01*
X72754383Y-103171718D01*
X72754316Y-103174046D01*
X72754270Y-103176380D01*
X72754236Y-103180661D01*
X73405496Y-121676858D02*
X73405536Y-121682572D01*
X73405656Y-121688276D01*
X73405855Y-121693970D01*
X73406134Y-121699652D01*
X73406492Y-121705323D01*
X73406929Y-121710982D01*
X73407445Y-121716627D01*
X73408040Y-121722259D01*
X73408714Y-121727877D01*
X73409467Y-121733480D01*
X73410298Y-121739067D01*
X73411207Y-121744639D01*
X73412195Y-121750193D01*
X73413260Y-121755729D01*
X73414403Y-121761247D01*
X73415624Y-121766746D01*
X73416922Y-121772224D01*
X73418297Y-121777682D01*
X73419749Y-121783118D01*
X73421278Y-121788531D01*
X73422883Y-121793922D01*
X73424564Y-121799288D01*
X73426321Y-121804629D01*
X73428154Y-121809944D01*
X73430062Y-121815232D01*
X73432044Y-121820492D01*
X73434102Y-121825724D01*
X73436233Y-121830926D01*
X73438438Y-121836098D01*
X73440717Y-121841238D01*
X73443069Y-121846346D01*
X73445493Y-121851420D01*
X73447990Y-121856460D01*
X73450558Y-121861464D01*
X73453197Y-121866432D01*
X73455907Y-121871363D01*
X73458686Y-121876255D01*
X73461536Y-121881108D01*
X73464454Y-121885920D01*
X73467441Y-121890691D01*
X73470495Y-121895419D01*
X73473616Y-121900104D01*
X73476804Y-121904744D01*
X73480058Y-121909339D01*
X73483376Y-121913887D01*
X73486759Y-121918388D01*
X73490206Y-121922840D01*
X73493715Y-121927242D01*
X73497286Y-121931594D01*
X73500918Y-121935895D01*
X73504611Y-121940143D01*
X73508363Y-121944338D01*
X73512174Y-121948478D01*
X73514101Y-121950528D01*
X73516043Y-121952563D01*
X73517999Y-121954585D01*
X73519968Y-121956592D01*
X73521952Y-121958585D01*
X73523950Y-121960564D01*
X73525962Y-121962528D01*
X73527987Y-121964477D01*
X73530025Y-121966412D01*
X73532078Y-121968332D01*
X73534143Y-121970237D01*
X73536222Y-121972127D01*
X73538313Y-121974002D01*
X73540418Y-121975861D01*
X73542536Y-121977705D01*
X73544666Y-121979534D01*
X73546808Y-121981347D01*
X73548964Y-121983145D01*
X73551131Y-121984926D01*
X73553311Y-121986692D01*
X73555503Y-121988442D01*
X73557707Y-121990176D01*
X73559922Y-121991893D01*
X73562150Y-121993595D01*
X73564389Y-121995280D01*
X73566640Y-121996949D01*
X73568901Y-121998601D01*
X73571175Y-122000237D01*
X73573458Y-122001855D01*
X73575754Y-122003458D01*
X73578059Y-122005043D01*
X73580376Y-122006612D01*
X73582703Y-122008163D01*
X73585041Y-122009697D01*
X73587389Y-122011214D01*
X73589748Y-122012715D01*
X73592115Y-122014197D01*
X73594494Y-122015662D01*
X73596882Y-122017110D01*
X73599280Y-122018541D01*
X73601687Y-122019953D01*
X73604105Y-122021348D01*
X73606530Y-122022725D01*
X73608966Y-122024085D01*
X73611410Y-122025426D01*
X73613864Y-122026750D01*
X73616326Y-122028056D01*
X73618797Y-122029344D01*
X73621276Y-122030613D01*
X73623765Y-122031865D01*
X73626261Y-122033097D01*
X73628766Y-122034313D01*
X73631278Y-122035509D01*
X73633799Y-122036688D01*
X73636327Y-122037847D01*
X73638864Y-122038989D01*
X73641407Y-122040111D01*
X73643960Y-122041216D01*
X73646518Y-122042301D01*
X73649085Y-122043368D01*
X73651657Y-122044416D01*
X73654238Y-122045446D01*
X73656825Y-122046456D01*
X73659420Y-122047448D01*
X73662020Y-122048421D01*
X73664628Y-122049375D01*
X73667241Y-122050310D01*
X73669862Y-122051226D01*
X73672488Y-122052123D01*
X73675121Y-122053001D01*
X73677759Y-122053860D01*
X73680405Y-122054700D01*
X73683054Y-122055520D01*
X73685712Y-122056322D01*
X73688372Y-122057104D01*
X73691041Y-122057867D01*
X73693713Y-122058610D01*
X73696392Y-122059335D01*
X73699074Y-122060040D01*
X73701764Y-122060726D01*
X73704456Y-122061392D01*
X73707156Y-122062039D01*
X73709858Y-122062666D01*
X73712568Y-122063274D01*
X73715279Y-122063862D01*
X73717998Y-122064431D01*
X73720718Y-122064980D01*
X73723446Y-122065510D01*
X73726175Y-122066020D01*
X73728911Y-122066511D01*
X73731648Y-122066982D01*
X73734392Y-122067433D01*
X73737138Y-122067865D01*
X73739889Y-122068277D01*
X73742642Y-122068669D01*
X73745402Y-122069042D01*
X73748162Y-122069395D01*
X73750928Y-122069728D01*
X73753696Y-122070041D01*
X73756469Y-122070335D01*
X73759243Y-122070608D01*
X73762022Y-122070862D01*
X73764803Y-122071096D01*
X73767588Y-122071311D01*
X73770375Y-122071505D01*
X73773166Y-122071680D01*
X73775958Y-122071834D01*
X73778756Y-122071969D01*
X73781553Y-122072083D01*
X73784356Y-122072178D01*
X73787159Y-122072253D01*
X73789966Y-122072308D01*
X73792774Y-122072343D01*
X73795586Y-122072357D01*
X73796259Y-122072358D01*
X73796259Y-103800279D02*
X73790649Y-103800319D01*
X73785049Y-103800439D01*
X73779459Y-103800638D01*
X73773880Y-103800917D01*
X73768311Y-103801275D01*
X73762755Y-103801712D01*
X73757211Y-103802228D01*
X73751680Y-103802824D01*
X73746163Y-103803498D01*
X73740660Y-103804251D01*
X73735171Y-103805082D01*
X73729699Y-103805992D01*
X73724242Y-103806980D01*
X73718803Y-103808046D01*
X73713380Y-103809190D01*
X73707977Y-103810412D01*
X73702592Y-103811711D01*
X73697227Y-103813088D01*
X73691883Y-103814542D01*
X73686560Y-103816072D01*
X73681260Y-103817680D01*
X73675982Y-103819364D01*
X73670728Y-103821124D01*
X73665499Y-103822960D01*
X73660295Y-103824872D01*
X73655118Y-103826860D01*
X73649968Y-103828922D01*
X73644846Y-103831059D01*
X73639754Y-103833271D01*
X73634691Y-103835556D01*
X73629660Y-103837916D01*
X73624660Y-103840348D01*
X73619693Y-103842854D01*
X73614760Y-103845432D01*
X73609862Y-103848082D01*
X73604999Y-103850803D01*
X73600174Y-103853595D01*
X73595386Y-103856458D01*
X73590637Y-103859391D01*
X73585928Y-103862393D01*
X73581259Y-103865464D01*
X73576633Y-103868603D01*
X73572049Y-103871810D01*
X73567509Y-103875084D01*
X73563013Y-103878424D01*
X73558564Y-103881829D01*
X73554161Y-103885300D01*
X73549807Y-103888834D01*
X73545501Y-103892432D01*
X73541245Y-103896093D01*
X73537039Y-103899815D01*
X73532886Y-103903598D01*
X73528785Y-103907441D01*
X73524738Y-103911344D01*
X73520745Y-103915305D01*
X73516808Y-103919324D01*
X73514861Y-103921355D01*
X73512928Y-103923400D01*
X73511009Y-103925458D01*
X73509105Y-103927531D01*
X73507215Y-103929617D01*
X73505340Y-103931717D01*
X73503480Y-103933830D01*
X73501634Y-103935957D01*
X73499804Y-103938096D01*
X73497989Y-103940249D01*
X73496189Y-103942415D01*
X73494404Y-103944594D01*
X73492635Y-103946786D01*
X73490881Y-103948990D01*
X73489143Y-103951207D01*
X73487420Y-103953436D01*
X73485713Y-103955677D01*
X73484022Y-103957931D01*
X73482348Y-103960196D01*
X73480689Y-103962474D01*
X73479047Y-103964763D01*
X73477420Y-103967064D01*
X73475811Y-103969376D01*
X73474217Y-103971700D01*
X73472641Y-103974034D01*
X73471080Y-103976381D01*
X73469537Y-103978737D01*
X73468010Y-103981106D01*
X73466501Y-103983484D01*
X73465008Y-103985873D01*
X73463532Y-103988273D01*
X73462074Y-103990683D01*
X73460633Y-103993103D01*
X73459208Y-103995534D01*
X73457802Y-103997974D01*
X73456412Y-104000425D01*
X73455041Y-104002884D01*
X73453686Y-104005354D01*
X73452350Y-104007833D01*
X73451031Y-104010322D01*
X73449730Y-104012819D01*
X73448446Y-104015326D01*
X73447181Y-104017841D01*
X73445934Y-104020366D01*
X73444705Y-104022899D01*
X73443493Y-104025441D01*
X73442300Y-104027991D01*
X73441125Y-104030550D01*
X73439969Y-104033116D01*
X73438830Y-104035692D01*
X73437711Y-104038274D01*
X73436609Y-104040865D01*
X73435526Y-104043463D01*
X73434461Y-104046070D01*
X73433415Y-104048682D01*
X73432388Y-104051304D01*
X73431379Y-104053931D01*
X73430389Y-104056568D01*
X73429418Y-104059209D01*
X73428466Y-104061859D01*
X73427532Y-104064514D01*
X73426617Y-104067178D01*
X73425722Y-104069846D01*
X73424845Y-104072523D01*
X73423988Y-104075204D01*
X73423149Y-104077893D01*
X73422329Y-104080586D01*
X73421529Y-104083287D01*
X73420747Y-104085993D01*
X73419985Y-104088706D01*
X73419242Y-104091422D01*
X73418518Y-104094146D01*
X73417814Y-104096874D01*
X73417129Y-104099609D01*
X73416463Y-104102347D01*
X73415817Y-104105093D01*
X73415190Y-104107841D01*
X73414582Y-104110597D01*
X73413994Y-104113355D01*
X73413425Y-104116120D01*
X73412876Y-104118888D01*
X73412346Y-104121662D01*
X73411836Y-104124439D01*
X73411346Y-104127222D01*
X73410875Y-104130007D01*
X73410423Y-104132799D01*
X73409992Y-104135592D01*
X73409580Y-104138392D01*
X73409187Y-104141193D01*
X73408815Y-104144001D01*
X73408462Y-104146810D01*
X73408129Y-104149625D01*
X73407815Y-104152441D01*
X73407521Y-104155263D01*
X73407248Y-104158085D01*
X73406994Y-104160914D01*
X73406759Y-104163743D01*
X73406545Y-104166578D01*
X73406350Y-104169414D01*
X73406176Y-104172255D01*
X73406021Y-104175097D01*
X73405886Y-104177943D01*
X73405771Y-104180790D01*
X73405676Y-104183643D01*
X73405602Y-104186495D01*
X73405547Y-104189352D01*
X73405512Y-104192210D01*
X73405497Y-104195072D01*
X73405496Y-104195779D01*
X82783579Y-122072358D02*
X82789188Y-122072318D01*
X82794787Y-122072198D01*
X82800376Y-122071999D01*
X82805954Y-122071720D01*
X82811521Y-122071362D01*
X82817077Y-122070925D01*
X82822620Y-122070409D01*
X82828150Y-122069813D01*
X82833667Y-122069139D01*
X82839170Y-122068386D01*
X82844658Y-122067555D01*
X82850130Y-122066645D01*
X82855586Y-122065657D01*
X82861026Y-122064590D01*
X82866447Y-122063446D01*
X82871851Y-122062224D01*
X82877236Y-122060925D01*
X82882600Y-122059548D01*
X82887945Y-122058094D01*
X82893268Y-122056563D01*
X82898568Y-122054956D01*
X82903846Y-122053271D01*
X82909100Y-122051511D01*
X82914330Y-122049675D01*
X82919534Y-122047762D01*
X82924711Y-122045775D01*
X82929861Y-122043712D01*
X82934983Y-122041575D01*
X82940076Y-122039363D01*
X82945139Y-122037077D01*
X82950171Y-122034717D01*
X82955171Y-122032285D01*
X82960138Y-122029779D01*
X82965072Y-122027201D01*
X82969970Y-122024550D01*
X82974833Y-122021829D01*
X82979659Y-122019036D01*
X82984447Y-122016173D01*
X82989196Y-122013240D01*
X82993906Y-122010237D01*
X82998575Y-122007166D01*
X83003202Y-122004027D01*
X83007786Y-122000820D01*
X83012326Y-121997546D01*
X83016822Y-121994206D01*
X83021271Y-121990800D01*
X83025674Y-121987329D01*
X83030029Y-121983795D01*
X83034335Y-121980197D01*
X83038591Y-121976536D01*
X83042797Y-121972814D01*
X83046950Y-121969031D01*
X83051051Y-121965187D01*
X83055098Y-121961284D01*
X83059091Y-121957323D01*
X83063028Y-121953305D01*
X83064975Y-121951274D01*
X83066908Y-121949229D01*
X83068827Y-121947171D01*
X83070731Y-121945098D01*
X83072621Y-121943012D01*
X83074496Y-121940912D01*
X83076356Y-121938799D01*
X83078201Y-121936672D01*
X83080031Y-121934533D01*
X83081847Y-121932380D01*
X83083646Y-121930214D01*
X83085431Y-121928035D01*
X83087200Y-121925844D01*
X83088954Y-121923640D01*
X83090692Y-121921423D01*
X83092415Y-121919194D01*
X83094121Y-121916953D01*
X83095812Y-121914699D01*
X83097486Y-121912434D01*
X83099145Y-121910157D01*
X83100787Y-121907868D01*
X83102413Y-121905567D01*
X83104023Y-121903255D01*
X83105616Y-121900931D01*
X83107192Y-121898597D01*
X83108753Y-121896251D01*
X83110296Y-121893894D01*
X83111822Y-121891526D01*
X83113332Y-121889148D01*
X83114824Y-121886759D01*
X83116300Y-121884360D01*
X83117758Y-121881949D01*
X83119199Y-121879529D01*
X83120623Y-121877099D01*
X83122030Y-121874659D01*
X83123419Y-121872208D01*
X83124790Y-121869749D01*
X83126145Y-121867279D01*
X83127481Y-121864801D01*
X83128800Y-121862312D01*
X83130100Y-121859816D01*
X83131384Y-121857308D01*
X83132649Y-121854794D01*
X83133896Y-121852269D01*
X83135125Y-121849736D01*
X83136336Y-121847194D01*
X83137529Y-121844645D01*
X83138704Y-121842086D01*
X83139860Y-121839520D01*
X83140999Y-121836944D01*
X83142118Y-121834362D01*
X83143220Y-121831771D01*
X83144302Y-121829174D01*
X83145367Y-121826567D01*
X83146412Y-121823955D01*
X83147440Y-121821333D01*
X83148448Y-121818706D01*
X83149438Y-121816070D01*
X83150409Y-121813429D01*
X83151361Y-121810779D01*
X83152294Y-121808124D01*
X83153209Y-121805460D01*
X83154104Y-121802792D01*
X83154981Y-121800116D01*
X83155838Y-121797435D01*
X83156677Y-121794746D01*
X83157497Y-121792052D01*
X83158297Y-121789351D01*
X83159078Y-121786646D01*
X83159840Y-121783933D01*
X83160583Y-121781217D01*
X83161307Y-121778492D01*
X83162011Y-121775765D01*
X83162696Y-121773030D01*
X83163361Y-121770292D01*
X83164008Y-121767546D01*
X83164635Y-121764798D01*
X83165242Y-121762042D01*
X83165830Y-121759284D01*
X83166399Y-121756518D01*
X83166948Y-121753751D01*
X83167478Y-121750976D01*
X83167987Y-121748200D01*
X83168478Y-121745416D01*
X83168949Y-121742631D01*
X83169400Y-121739839D01*
X83169832Y-121737046D01*
X83170244Y-121734246D01*
X83170636Y-121731444D01*
X83171009Y-121728636D01*
X83171361Y-121725827D01*
X83171695Y-121723012D01*
X83172008Y-121720196D01*
X83172301Y-121717373D01*
X83172575Y-121714550D01*
X83172829Y-121711721D01*
X83173063Y-121708891D01*
X83173278Y-121706056D01*
X83173472Y-121703220D01*
X83173647Y-121700379D01*
X83173801Y-121697537D01*
X83173936Y-121694689D01*
X83174051Y-121691842D01*
X83174146Y-121688989D01*
X83174221Y-121686136D01*
X83174276Y-121683278D01*
X83174310Y-121680420D01*
X83174325Y-121677557D01*
X83174326Y-121676858D01*
X83174326Y-104195779D02*
X83174286Y-104190070D01*
X83174166Y-104184370D01*
X83173967Y-104178681D01*
X83173688Y-104173003D01*
X83173330Y-104167336D01*
X83172893Y-104161681D01*
X83172377Y-104156039D01*
X83171781Y-104150411D01*
X83171107Y-104144796D01*
X83170355Y-104139196D01*
X83169524Y-104133612D01*
X83168614Y-104128043D01*
X83167626Y-104122492D01*
X83166561Y-104116958D01*
X83165417Y-104111442D01*
X83164196Y-104105945D01*
X83162898Y-104100468D01*
X83161523Y-104095012D01*
X83160070Y-104089578D01*
X83158541Y-104084165D01*
X83156935Y-104078776D01*
X83155254Y-104073411D01*
X83153496Y-104068071D01*
X83151663Y-104062757D01*
X83149754Y-104057469D01*
X83147771Y-104052209D01*
X83145713Y-104046977D01*
X83143580Y-104041775D01*
X83141374Y-104036603D01*
X83139094Y-104031463D01*
X83136742Y-104026355D01*
X83134316Y-104021281D01*
X83131819Y-104016240D01*
X83129249Y-104011235D01*
X83126609Y-104006266D01*
X83123898Y-104001335D01*
X83121117Y-103996442D01*
X83118266Y-103991588D01*
X83115346Y-103986775D01*
X83112358Y-103982003D01*
X83109302Y-103977273D01*
X83106179Y-103972587D01*
X83102990Y-103967946D01*
X83099734Y-103963349D01*
X83096414Y-103958799D01*
X83093030Y-103954297D01*
X83089581Y-103949843D01*
X83086070Y-103945439D01*
X83082497Y-103941085D01*
X83078863Y-103936783D01*
X83075169Y-103932533D01*
X83071415Y-103928337D01*
X83067602Y-103924195D01*
X83065674Y-103922144D01*
X83063731Y-103920108D01*
X83061774Y-103918085D01*
X83059804Y-103916077D01*
X83057819Y-103914083D01*
X83055820Y-103912104D01*
X83053808Y-103910139D01*
X83051781Y-103908188D01*
X83049742Y-103906253D01*
X83047689Y-103904332D01*
X83045622Y-103902426D01*
X83043543Y-103900535D01*
X83041450Y-103898660D01*
X83039345Y-103896799D01*
X83037226Y-103894955D01*
X83035095Y-103893125D01*
X83032952Y-103891311D01*
X83030795Y-103889513D01*
X83028627Y-103887730D01*
X83026446Y-103885963D01*
X83024254Y-103884213D01*
X83022049Y-103882478D01*
X83019832Y-103880760D01*
X83017604Y-103879057D01*
X83015364Y-103877372D01*
X83013113Y-103875702D01*
X83010851Y-103874050D01*
X83008576Y-103872413D01*
X83006292Y-103870794D01*
X83003996Y-103869190D01*
X83001690Y-103867605D01*
X82999372Y-103866035D01*
X82997044Y-103864483D01*
X82994705Y-103862948D01*
X82992357Y-103861431D01*
X82989998Y-103859930D01*
X82987630Y-103858447D01*
X82985250Y-103856981D01*
X82982862Y-103855533D01*
X82980463Y-103854101D01*
X82978056Y-103852689D01*
X82975638Y-103851293D01*
X82973212Y-103849915D01*
X82970775Y-103848555D01*
X82968331Y-103847213D01*
X82965877Y-103845889D01*
X82963415Y-103844583D01*
X82960943Y-103843294D01*
X82958464Y-103842025D01*
X82955975Y-103840772D01*
X82953479Y-103839539D01*
X82950973Y-103838324D01*
X82948461Y-103837127D01*
X82945940Y-103835948D01*
X82943412Y-103834788D01*
X82940875Y-103833646D01*
X82938332Y-103832524D01*
X82935779Y-103831419D01*
X82933221Y-103830333D01*
X82930654Y-103829266D01*
X82928082Y-103828218D01*
X82925501Y-103827188D01*
X82922915Y-103826177D01*
X82920320Y-103825185D01*
X82917720Y-103824212D01*
X82915112Y-103823257D01*
X82912500Y-103822323D01*
X82909879Y-103821406D01*
X82907254Y-103820509D01*
X82904621Y-103819631D01*
X82901983Y-103818772D01*
X82899338Y-103817932D01*
X82896689Y-103817112D01*
X82894032Y-103816310D01*
X82891372Y-103815528D01*
X82888705Y-103814765D01*
X82886034Y-103814021D01*
X82883355Y-103813297D01*
X82880674Y-103812592D01*
X82877985Y-103811906D01*
X82875293Y-103811240D01*
X82872595Y-103810593D01*
X82869893Y-103809966D01*
X82867185Y-103809358D01*
X82864475Y-103808770D01*
X82861757Y-103808201D01*
X82859038Y-103807652D01*
X82856312Y-103807122D01*
X82853584Y-103806612D01*
X82850849Y-103806121D01*
X82848113Y-103805651D01*
X82845371Y-103805199D01*
X82842627Y-103804768D01*
X82839876Y-103804356D01*
X82837125Y-103803964D01*
X82834367Y-103803591D01*
X82831609Y-103803239D01*
X82828844Y-103802906D01*
X82826078Y-103802593D01*
X82823307Y-103802299D01*
X82820535Y-103802026D01*
X82817757Y-103801772D01*
X82814979Y-103801538D01*
X82812195Y-103801324D01*
X82809411Y-103801130D01*
X82806621Y-103800956D01*
X82803831Y-103800801D01*
X82801036Y-103800667D01*
X82798241Y-103800552D01*
X82795440Y-103800458D01*
X82792640Y-103800383D01*
X82789835Y-103800329D01*
X82787030Y-103800294D01*
X82784220Y-103800280D01*
X82783579Y-103800279D01*
X83565088Y-122955644D02*
X83569666Y-122955604D01*
X83574234Y-122955485D01*
X83578792Y-122955285D01*
X83583339Y-122955007D01*
X83587874Y-122954649D01*
X83592397Y-122954213D01*
X83596907Y-122953697D01*
X83601402Y-122953103D01*
X83605884Y-122952430D01*
X83610349Y-122951679D01*
X83614798Y-122950849D01*
X83619230Y-122949942D01*
X83623644Y-122948957D01*
X83628039Y-122947894D01*
X83632414Y-122946754D01*
X83636769Y-122945537D01*
X83641101Y-122944243D01*
X83645411Y-122942873D01*
X83649697Y-122941426D01*
X83653958Y-122939904D01*
X83658193Y-122938306D01*
X83662401Y-122936633D01*
X83666581Y-122934885D01*
X83670732Y-122933062D01*
X83674852Y-122931166D01*
X83678941Y-122929197D01*
X83682997Y-122927154D01*
X83687019Y-122925039D01*
X83691007Y-122922852D01*
X83694958Y-122920594D01*
X83698871Y-122918266D01*
X83702746Y-122915867D01*
X83706581Y-122913399D01*
X83710375Y-122910863D01*
X83714126Y-122908259D01*
X83717834Y-122905587D01*
X83721496Y-122902850D01*
X83725113Y-122900047D01*
X83728682Y-122897180D01*
X83732203Y-122894249D01*
X83735674Y-122891255D01*
X83739094Y-122888200D01*
X83742462Y-122885085D01*
X83745777Y-122881909D01*
X83749037Y-122878675D01*
X83752241Y-122875384D01*
X83753822Y-122873717D01*
X83755389Y-122872036D01*
X83756941Y-122870341D01*
X83758479Y-122868633D01*
X83760002Y-122866911D01*
X83761510Y-122865176D01*
X83763002Y-122863427D01*
X83764480Y-122861666D01*
X83765943Y-122859891D01*
X83767390Y-122858104D01*
X83768822Y-122856304D01*
X83770238Y-122854491D01*
X83771638Y-122852666D01*
X83773023Y-122850829D01*
X83774391Y-122848980D01*
X83775744Y-122847119D01*
X83777080Y-122845247D01*
X83778400Y-122843362D01*
X83779703Y-122841467D01*
X83780990Y-122839559D01*
X83782260Y-122837642D01*
X83783514Y-122835712D01*
X83784750Y-122833773D01*
X83785970Y-122831822D01*
X83787172Y-122829861D01*
X83788358Y-122827890D01*
X83789526Y-122825909D01*
X83790677Y-122823917D01*
X83791810Y-122821916D01*
X83792927Y-122819904D01*
X83794025Y-122817884D01*
X83795105Y-122815854D01*
X83796168Y-122813815D01*
X83797213Y-122811766D01*
X83798240Y-122809709D01*
X83799250Y-122807643D01*
X83800240Y-122805569D01*
X83801213Y-122803485D01*
X83802168Y-122801394D01*
X83803104Y-122799294D01*
X83804022Y-122797187D01*
X83804922Y-122795071D01*
X83805803Y-122792948D01*
X83806666Y-122790816D01*
X83807509Y-122788679D01*
X83808335Y-122786533D01*
X83809141Y-122784381D01*
X83809929Y-122782220D01*
X83810698Y-122780055D01*
X83811448Y-122777880D01*
X83812179Y-122775701D01*
X83812892Y-122773514D01*
X83813584Y-122771323D01*
X83814259Y-122769123D01*
X83814913Y-122766919D01*
X83815550Y-122764707D01*
X83816166Y-122762492D01*
X83816764Y-122760269D01*
X83817341Y-122758042D01*
X83817901Y-122755808D01*
X83818440Y-122753571D01*
X83818960Y-122751327D01*
X83819461Y-122749079D01*
X83819942Y-122746825D01*
X83820403Y-122744568D01*
X83820846Y-122742304D01*
X83821268Y-122740038D01*
X83821672Y-122737766D01*
X83822055Y-122735491D01*
X83822419Y-122733210D01*
X83822763Y-122730927D01*
X83823088Y-122728638D01*
X83823393Y-122726347D01*
X83823678Y-122724050D01*
X83823943Y-122721752D01*
X83824189Y-122719448D01*
X83824415Y-122717144D01*
X83824621Y-122714833D01*
X83824807Y-122712521D01*
X83824973Y-122710204D01*
X83825119Y-122707887D01*
X83825246Y-122705564D01*
X83825352Y-122703240D01*
X83825439Y-122700912D01*
X83825506Y-122698583D01*
X83825552Y-122696249D01*
X83825586Y-122691972D01*
X83825586Y-103180661D02*
X83825546Y-103175999D01*
X83825427Y-103171348D01*
X83825227Y-103166706D01*
X83824949Y-103162077D01*
X83824591Y-103157459D01*
X83824155Y-103152854D01*
X83823639Y-103148263D01*
X83823045Y-103143687D01*
X83822373Y-103139126D01*
X83821622Y-103134581D01*
X83820793Y-103130053D01*
X83819886Y-103125543D01*
X83818902Y-103121052D01*
X83817840Y-103116581D01*
X83816701Y-103112130D01*
X83815486Y-103107702D01*
X83814194Y-103103297D01*
X83812825Y-103098915D01*
X83811381Y-103094558D01*
X83809862Y-103090228D01*
X83808267Y-103085925D01*
X83806598Y-103081650D01*
X83804854Y-103077404D01*
X83803037Y-103073189D01*
X83801146Y-103069006D01*
X83799183Y-103064856D01*
X83797147Y-103060740D01*
X83795040Y-103056659D01*
X83792862Y-103052615D01*
X83790613Y-103048609D01*
X83788295Y-103044642D01*
X83785908Y-103040715D01*
X83783453Y-103036830D01*
X83780930Y-103032988D01*
X83778340Y-103029189D01*
X83775685Y-103025436D01*
X83772964Y-103021730D01*
X83770180Y-103018071D01*
X83767332Y-103014462D01*
X83764422Y-103010902D01*
X83761451Y-103007394D01*
X83758420Y-103003939D01*
X83755329Y-103000537D01*
X83753762Y-102998857D01*
X83752180Y-102997191D01*
X83750584Y-102995539D01*
X83748975Y-102993900D01*
X83747351Y-102992277D01*
X83745713Y-102990667D01*
X83744061Y-102989072D01*
X83742396Y-102987492D01*
X83740718Y-102985927D01*
X83739026Y-102984377D01*
X83737322Y-102982842D01*
X83735604Y-102981321D01*
X83733873Y-102979817D01*
X83732130Y-102978328D01*
X83730374Y-102976854D01*
X83728606Y-102975396D01*
X83726825Y-102973955D01*
X83725032Y-102972529D01*
X83723228Y-102971119D01*
X83721412Y-102969725D01*
X83719584Y-102968348D01*
X83717745Y-102966987D01*
X83715894Y-102965643D01*
X83714032Y-102964315D01*
X83712160Y-102963004D01*
X83710276Y-102961709D01*
X83708382Y-102960432D01*
X83706476Y-102959172D01*
X83704562Y-102957929D01*
X83702636Y-102956703D01*
X83700701Y-102955495D01*
X83698755Y-102954303D01*
X83696800Y-102953130D01*
X83694834Y-102951974D01*
X83692861Y-102950836D01*
X83690876Y-102949715D01*
X83688884Y-102948612D01*
X83686882Y-102947527D01*
X83684872Y-102946461D01*
X83682852Y-102945411D01*
X83680825Y-102944381D01*
X83678788Y-102943368D01*
X83676744Y-102942374D01*
X83674691Y-102941398D01*
X83672631Y-102940441D01*
X83670562Y-102939502D01*
X83668487Y-102938581D01*
X83666402Y-102937679D01*
X83664312Y-102936796D01*
X83662213Y-102935931D01*
X83660109Y-102935086D01*
X83657996Y-102934258D01*
X83655878Y-102933451D01*
X83653751Y-102932661D01*
X83651620Y-102931891D01*
X83649480Y-102931139D01*
X83647337Y-102930407D01*
X83645184Y-102929694D01*
X83643029Y-102929000D01*
X83640865Y-102928325D01*
X83638697Y-102927669D01*
X83636522Y-102927032D01*
X83634343Y-102926415D01*
X83632157Y-102925817D01*
X83629968Y-102925239D01*
X83627771Y-102924679D01*
X83625572Y-102924140D01*
X83623366Y-102923619D01*
X83621157Y-102923119D01*
X83618941Y-102922637D01*
X83616723Y-102922176D01*
X83614498Y-102921733D01*
X83612271Y-102921311D01*
X83610038Y-102920907D01*
X83607803Y-102920524D01*
X83605562Y-102920160D01*
X83603319Y-102919816D01*
X83601070Y-102919491D01*
X83598819Y-102919187D01*
X83596563Y-102918902D01*
X83594306Y-102918637D01*
X83592042Y-102918391D01*
X83589778Y-102918166D01*
X83587509Y-102917960D01*
X83585238Y-102917774D01*
X83582963Y-102917608D01*
X83580686Y-102917462D01*
X83578405Y-102917336D01*
X83576123Y-102917229D01*
X83573836Y-102917143D01*
X83571550Y-102917077D01*
X83569258Y-102917030D01*
X83565088Y-102916997D01*
D11*
%TO.C,J1*%
X73150000Y-68300000D02*
X73150000Y-68000000D01*
X73150000Y-71000000D02*
X73150000Y-68300000D01*
X73150000Y-71000000D02*
X83310000Y-71000000D01*
X73150000Y-76627435D02*
X73150000Y-71000000D01*
X73150000Y-76927253D02*
X73150000Y-76627435D01*
X73150000Y-76927253D02*
X83310000Y-76927253D01*
X73150000Y-77203492D02*
X73150000Y-76927253D01*
X73150000Y-77203492D02*
X73150000Y-78133383D01*
X73150000Y-78931480D02*
X73150000Y-78133383D01*
X73150000Y-79200000D02*
X73150000Y-78931480D01*
X73150000Y-79200000D02*
X83310000Y-79200000D01*
X73490000Y-73500000D02*
X77890000Y-73500000D01*
X74616976Y-75067999D02*
X77257999Y-72426976D01*
X75690000Y-75700000D02*
X75690000Y-71300000D01*
X76763024Y-71932002D02*
X74122002Y-74573024D01*
X78570000Y-73500000D02*
X82970000Y-73500000D01*
X79696976Y-75067999D02*
X82337999Y-72426976D01*
X80770000Y-75700000D02*
X80770000Y-71300000D01*
X81843024Y-71932002D02*
X79202002Y-74573024D01*
X83310000Y-68000000D02*
X73150000Y-68000000D01*
X83310000Y-68000000D02*
X83310000Y-68300000D01*
X83310000Y-68300000D02*
X83310000Y-69693000D01*
X83310000Y-69693000D02*
X83310000Y-70107000D01*
X83310000Y-70107000D02*
X83310000Y-71000000D01*
X83310000Y-70107000D02*
X83438691Y-70107000D01*
X83310000Y-71000000D02*
X83310000Y-76627435D01*
X83310000Y-76627435D02*
X83310000Y-76927253D01*
X83310000Y-76927253D02*
X83310000Y-77203492D01*
X83310000Y-78133383D02*
X73150000Y-78133383D01*
X83310000Y-78133383D02*
X83310000Y-77203492D01*
X83310000Y-78133383D02*
X83310000Y-78931480D01*
X83310000Y-78931480D02*
X83310000Y-79200000D01*
X83438691Y-69693000D02*
X83310000Y-69693000D01*
X83438691Y-70107000D02*
X83617026Y-70256960D01*
X83617026Y-69543041D02*
X83438691Y-69693000D01*
X83617026Y-70256960D02*
X83880000Y-70256960D01*
X83880000Y-69543041D02*
X83617026Y-69543041D01*
X83880000Y-69543041D02*
X83880000Y-70256960D01*
X74122002Y-74573024D02*
G75*
G02*
X76763024Y-71932002I1567998J1073024D01*
G01*
X74616976Y-75067999D02*
G75*
G02*
X74122001Y-74573024I1073024J1567999D01*
G01*
X76763024Y-71932002D02*
G75*
G02*
X77257998Y-72426976I-1073024J-1567998D01*
G01*
X77257999Y-72426976D02*
G75*
G02*
X74616976Y-75067999I-1567999J-1073024D01*
G01*
X79202002Y-74573024D02*
G75*
G02*
X81843024Y-71932002I1567997J1073025D01*
G01*
X79696976Y-75067999D02*
G75*
G02*
X79202002Y-74573024I1073017J1567988D01*
G01*
X81843024Y-71932002D02*
G75*
G02*
X82337999Y-72426976I-1073013J-1567991D01*
G01*
X82337999Y-72426976D02*
G75*
G02*
X79696976Y-75067999I-1567999J-1073024D01*
G01*
X77690000Y-73500000D02*
G75*
G02*
X73690000Y-73500000I-2000000J0D01*
G01*
X73690000Y-73500000D02*
G75*
G02*
X77690000Y-73500000I2000000J0D01*
G01*
X78688257Y-75200000D02*
G75*
G02*
X77771743Y-75200000I-458257J0D01*
G01*
X77771743Y-75200000D02*
G75*
G02*
X78688257Y-75200000I458257J0D01*
G01*
X82770000Y-73500000D02*
G75*
G02*
X78770000Y-73500000I-2000000J0D01*
G01*
X78770000Y-73500000D02*
G75*
G02*
X82770000Y-73500000I2000000J0D01*
G01*
%TO.C,J2*%
X72620000Y-133956959D02*
X72620000Y-133243040D01*
X72620000Y-133956959D02*
X72882974Y-133956959D01*
X72882974Y-133243040D02*
X72620000Y-133243040D01*
X72882974Y-133956959D02*
X73061309Y-133807000D01*
X73061309Y-133393000D02*
X72882974Y-133243040D01*
X73061309Y-133807000D02*
X73190000Y-133807000D01*
X73190000Y-124568520D02*
X73190000Y-124300000D01*
X73190000Y-125366617D02*
X73190000Y-124568520D01*
X73190000Y-125366617D02*
X73190000Y-126296508D01*
X73190000Y-125366617D02*
X83350000Y-125366617D01*
X73190000Y-126572747D02*
X73190000Y-126296508D01*
X73190000Y-126872565D02*
X73190000Y-126572747D01*
X73190000Y-132500000D02*
X73190000Y-126872565D01*
X73190000Y-133393000D02*
X73061309Y-133393000D01*
X73190000Y-133393000D02*
X73190000Y-132500000D01*
X73190000Y-133807000D02*
X73190000Y-133393000D01*
X73190000Y-135200000D02*
X73190000Y-133807000D01*
X73190000Y-135500000D02*
X73190000Y-135200000D01*
X73190000Y-135500000D02*
X83350000Y-135500000D01*
X74656976Y-131567998D02*
X77297998Y-128926976D01*
X75730000Y-127800000D02*
X75730000Y-132200000D01*
X76803024Y-128432001D02*
X74162001Y-131073024D01*
X77930000Y-130000000D02*
X73530000Y-130000000D01*
X79736976Y-131567998D02*
X82377998Y-128926976D01*
X80810000Y-127800000D02*
X80810000Y-132200000D01*
X81883024Y-128432001D02*
X79242001Y-131073024D01*
X83010000Y-130000000D02*
X78610000Y-130000000D01*
X83350000Y-124300000D02*
X73190000Y-124300000D01*
X83350000Y-124300000D02*
X83350000Y-124568520D01*
X83350000Y-124568520D02*
X83350000Y-125366617D01*
X83350000Y-126296508D02*
X83350000Y-125366617D01*
X83350000Y-126296508D02*
X83350000Y-126572747D01*
X83350000Y-126572747D02*
X73190000Y-126572747D01*
X83350000Y-126572747D02*
X83350000Y-126872565D01*
X83350000Y-126872565D02*
X83350000Y-132500000D01*
X83350000Y-132500000D02*
X73190000Y-132500000D01*
X83350000Y-132500000D02*
X83350000Y-135200000D01*
X83350000Y-135200000D02*
X83350000Y-135500000D01*
X74162001Y-131073024D02*
G75*
G02*
X76803024Y-128432001I1567999J1073024D01*
G01*
X74656976Y-131567998D02*
G75*
G02*
X74162001Y-131073024I1073013J1567991D01*
G01*
X76803024Y-128432001D02*
G75*
G02*
X77297998Y-128926976I-1073017J-1567988D01*
G01*
X77297998Y-128926976D02*
G75*
G02*
X74656976Y-131567998I-1567997J-1073025D01*
G01*
X79242001Y-131073024D02*
G75*
G02*
X81883024Y-128432001I1567999J1073024D01*
G01*
X79736976Y-131567998D02*
G75*
G02*
X79242002Y-131073024I1073024J1567998D01*
G01*
X81883024Y-128432001D02*
G75*
G02*
X82377999Y-128926976I-1073024J-1567999D01*
G01*
X82377998Y-128926976D02*
G75*
G02*
X79736976Y-131567998I-1567998J-1073024D01*
G01*
X77730000Y-130000000D02*
G75*
G02*
X73730000Y-130000000I-2000000J0D01*
G01*
X73730000Y-130000000D02*
G75*
G02*
X77730000Y-130000000I2000000J0D01*
G01*
X78728257Y-128300000D02*
G75*
G02*
X77811743Y-128300000I-458257J0D01*
G01*
X77811743Y-128300000D02*
G75*
G02*
X78728257Y-128300000I458257J0D01*
G01*
X82810000Y-130000000D02*
G75*
G02*
X78810000Y-130000000I-2000000J0D01*
G01*
X78810000Y-130000000D02*
G75*
G02*
X82810000Y-130000000I2000000J0D01*
G01*
%TD*%
M02*
