%TF.GenerationSoftware,KiCad,Pcbnew,9.0.7-9.0.7~ubuntu24.04.1*%
%TF.CreationDate,2026-03-19T22:11:49+01:00*%
%TF.ProjectId,Schalter-Karte_HW,53636861-6c74-4657-922d-4b617274655f,rev?*%
%TF.SameCoordinates,Original*%
%TF.FileFunction,OtherDrawing,Comment*%
%FSLAX46Y46*%
G04 Gerber Fmt 4.6, Leading zero omitted, Abs format (unit mm)*
G04 Created by KiCad (PCBNEW 9.0.7-9.0.7~ubuntu24.04.1) date 2026-03-19 22:11:49*
%MOMM*%
%LPD*%
G01*
G04 APERTURE LIST*
%ADD10C,0.150000*%
%ADD11C,0.100000*%
%ADD12C,0.030333*%
%ADD13C,0.200000*%
G04 APERTURE END LIST*
D10*
X77345238Y-145304819D02*
X76773810Y-145304819D01*
X77059524Y-145304819D02*
X77059524Y-144304819D01*
X77059524Y-144304819D02*
X76964286Y-144447676D01*
X76964286Y-144447676D02*
X76869048Y-144542914D01*
X76869048Y-144542914D02*
X76773810Y-144590533D01*
X77678572Y-144304819D02*
X78345238Y-144304819D01*
X78345238Y-144304819D02*
X77916667Y-145304819D01*
X78726191Y-145209580D02*
X78773810Y-145257200D01*
X78773810Y-145257200D02*
X78726191Y-145304819D01*
X78726191Y-145304819D02*
X78678572Y-145257200D01*
X78678572Y-145257200D02*
X78726191Y-145209580D01*
X78726191Y-145209580D02*
X78726191Y-145304819D01*
X79678571Y-144304819D02*
X79202381Y-144304819D01*
X79202381Y-144304819D02*
X79154762Y-144781009D01*
X79154762Y-144781009D02*
X79202381Y-144733390D01*
X79202381Y-144733390D02*
X79297619Y-144685771D01*
X79297619Y-144685771D02*
X79535714Y-144685771D01*
X79535714Y-144685771D02*
X79630952Y-144733390D01*
X79630952Y-144733390D02*
X79678571Y-144781009D01*
X79678571Y-144781009D02*
X79726190Y-144876247D01*
X79726190Y-144876247D02*
X79726190Y-145114342D01*
X79726190Y-145114342D02*
X79678571Y-145209580D01*
X79678571Y-145209580D02*
X79630952Y-145257200D01*
X79630952Y-145257200D02*
X79535714Y-145304819D01*
X79535714Y-145304819D02*
X79297619Y-145304819D01*
X79297619Y-145304819D02*
X79202381Y-145257200D01*
X79202381Y-145257200D02*
X79154762Y-145209580D01*
D11*
X69500000Y-140500000D02*
X69500000Y-146586420D01*
X87000000Y-146586420D02*
X87000000Y-140500000D01*
X69500000Y-146000000D02*
X87000000Y-146000000D01*
X69500000Y-146000000D02*
X70626504Y-145413579D01*
X69500000Y-146000000D02*
X70626504Y-146586421D01*
X87000000Y-146000000D02*
X85873496Y-146586421D01*
X87000000Y-146000000D02*
X85873496Y-145413579D01*
D10*
X62233390Y-97071428D02*
X62185771Y-97166666D01*
X62185771Y-97166666D02*
X62138152Y-97214285D01*
X62138152Y-97214285D02*
X62042914Y-97261904D01*
X62042914Y-97261904D02*
X61995295Y-97261904D01*
X61995295Y-97261904D02*
X61900057Y-97214285D01*
X61900057Y-97214285D02*
X61852438Y-97166666D01*
X61852438Y-97166666D02*
X61804819Y-97071428D01*
X61804819Y-97071428D02*
X61804819Y-96880952D01*
X61804819Y-96880952D02*
X61852438Y-96785714D01*
X61852438Y-96785714D02*
X61900057Y-96738095D01*
X61900057Y-96738095D02*
X61995295Y-96690476D01*
X61995295Y-96690476D02*
X62042914Y-96690476D01*
X62042914Y-96690476D02*
X62138152Y-96738095D01*
X62138152Y-96738095D02*
X62185771Y-96785714D01*
X62185771Y-96785714D02*
X62233390Y-96880952D01*
X62233390Y-96880952D02*
X62233390Y-97071428D01*
X62233390Y-97071428D02*
X62281009Y-97166666D01*
X62281009Y-97166666D02*
X62328628Y-97214285D01*
X62328628Y-97214285D02*
X62423866Y-97261904D01*
X62423866Y-97261904D02*
X62614342Y-97261904D01*
X62614342Y-97261904D02*
X62709580Y-97214285D01*
X62709580Y-97214285D02*
X62757200Y-97166666D01*
X62757200Y-97166666D02*
X62804819Y-97071428D01*
X62804819Y-97071428D02*
X62804819Y-96880952D01*
X62804819Y-96880952D02*
X62757200Y-96785714D01*
X62757200Y-96785714D02*
X62709580Y-96738095D01*
X62709580Y-96738095D02*
X62614342Y-96690476D01*
X62614342Y-96690476D02*
X62423866Y-96690476D01*
X62423866Y-96690476D02*
X62328628Y-96738095D01*
X62328628Y-96738095D02*
X62281009Y-96785714D01*
X62281009Y-96785714D02*
X62233390Y-96880952D01*
X61804819Y-96357142D02*
X61804819Y-95690476D01*
X61804819Y-95690476D02*
X62804819Y-96119047D01*
D11*
X69000000Y-140000000D02*
X62913580Y-140000000D01*
X62913580Y-53000000D02*
X69000000Y-53000000D01*
X63500000Y-140000000D02*
X63500000Y-53000000D01*
X63500000Y-140000000D02*
X62913579Y-138873496D01*
X63500000Y-140000000D02*
X64086421Y-138873496D01*
X63500000Y-53000000D02*
X64086421Y-54126504D01*
X63500000Y-53000000D02*
X62913579Y-54126504D01*
D12*
%TO.C,SW1*%
X72512305Y-98300319D02*
X72512305Y-99882316D01*
X72512305Y-99882316D02*
X72564414Y-99882316D01*
X72512305Y-102888118D02*
X72512305Y-104654678D01*
X72512305Y-102888118D02*
X73163581Y-102888118D01*
X72512305Y-104654678D02*
X72564414Y-104654678D01*
X72512305Y-107845047D02*
X72512305Y-109427044D01*
X72512305Y-109427044D02*
X72564414Y-109427044D01*
X72564414Y-94108028D02*
X72564414Y-94635357D01*
X72564414Y-98300319D02*
X72512305Y-98300319D01*
X72564414Y-98300319D02*
X72903068Y-98115753D01*
X72564414Y-107845047D02*
X72512305Y-107845047D01*
X72564414Y-109427044D02*
X72903068Y-109637974D01*
X72564414Y-113619339D02*
X72564414Y-94635357D01*
X72564414Y-113619339D02*
X72564414Y-113641067D01*
X72824912Y-93844356D02*
X83375251Y-93844356D01*
X72824912Y-113883003D02*
X83375251Y-113883003D01*
X72903068Y-98115753D02*
X73163581Y-98115753D01*
X72903068Y-100093254D02*
X72903068Y-98300319D01*
X72903068Y-100093254D02*
X73163581Y-100093254D01*
X72903068Y-103072681D02*
X72512305Y-103072681D01*
X72903068Y-104865612D02*
X72903068Y-103072681D01*
X72903068Y-104865612D02*
X73163581Y-104865612D01*
X72903068Y-107660476D02*
X73163581Y-107660476D01*
X72903068Y-109637974D02*
X72903068Y-107660476D01*
X72903068Y-109637974D02*
X73163581Y-109637974D01*
X73163581Y-98115753D02*
X73163581Y-98300319D01*
X73163581Y-99882316D02*
X73215674Y-99882316D01*
X73163581Y-100093254D02*
X73163581Y-99882316D01*
X73163581Y-102888118D02*
X73163581Y-103072681D01*
X73163581Y-104654678D02*
X73215674Y-104654678D01*
X73163581Y-104865612D02*
X73163581Y-104654678D01*
X73163581Y-107660476D02*
X73163581Y-107845047D01*
X73163581Y-109427044D02*
X73215674Y-109427044D01*
X73163581Y-109637974D02*
X73163581Y-109427044D01*
X73163581Y-113092003D02*
X73163581Y-94635357D01*
X73163581Y-113092003D02*
X83036613Y-113092003D01*
X73215674Y-95123142D02*
X73215674Y-112604221D01*
X73215674Y-98300319D02*
X72903068Y-98300319D01*
X73215674Y-103072681D02*
X73163581Y-103072681D01*
X73215674Y-107845047D02*
X72564414Y-107845047D01*
X73215674Y-107845047D02*
X73163581Y-107845047D01*
X73606421Y-112999721D02*
X76146323Y-112999721D01*
X76146323Y-112604221D02*
X80053855Y-112604221D01*
X76146323Y-112999721D02*
X76146323Y-112604221D01*
X76276572Y-99091320D02*
X79923606Y-99091320D01*
X76276572Y-108636043D02*
X76276572Y-99091320D01*
X76315650Y-102973808D02*
X76315650Y-103614906D01*
X76315650Y-107909252D02*
X76315650Y-108550350D01*
X76315650Y-108550350D02*
X76276572Y-108636043D01*
X76315650Y-108550350D02*
X79884528Y-108550350D01*
X76471946Y-103125416D02*
X79728232Y-103125416D01*
X76471946Y-104885143D02*
X76471946Y-104466331D01*
X76471946Y-106202991D02*
X76471946Y-105321052D01*
X76471946Y-108398742D02*
X79728232Y-108398742D01*
X76471946Y-108636043D02*
X76471946Y-103125416D01*
X76471946Y-112617405D02*
X76471946Y-112604221D01*
X77540000Y-99091320D02*
X77540000Y-99500000D01*
X77540000Y-99500000D02*
X78660178Y-99500000D01*
X77540000Y-112604221D02*
X77540000Y-112617405D01*
X78660178Y-99500000D02*
X78660178Y-99091320D01*
X78660178Y-112617405D02*
X78660178Y-112604221D01*
X79728232Y-103614906D02*
X76315650Y-103614906D01*
X79728232Y-104466331D02*
X76471946Y-104466331D01*
X79728232Y-104466331D02*
X79728232Y-103614906D01*
X79728232Y-104885143D02*
X76471946Y-104885143D01*
X79728232Y-105321052D02*
X76471946Y-105321052D01*
X79728232Y-105321052D02*
X79728232Y-104885143D01*
X79728232Y-106202991D02*
X76471946Y-106202991D01*
X79728232Y-107057827D02*
X76471946Y-107057827D01*
X79728232Y-107057827D02*
X79728232Y-106202991D01*
X79728232Y-107909252D02*
X76315650Y-107909252D01*
X79728232Y-108398742D02*
X79728232Y-103125416D01*
X79884528Y-102973808D02*
X76315650Y-102973808D01*
X79884528Y-103501140D02*
X79884528Y-102973808D01*
X79884528Y-108023018D02*
X79923606Y-108023018D01*
X79884528Y-108550350D02*
X79884528Y-108023018D01*
X79923606Y-99091320D02*
X79923606Y-108636043D01*
X79923606Y-103501140D02*
X79884528Y-103501140D01*
X79923606Y-108023018D02*
X79728232Y-107909252D01*
X79923606Y-108636043D02*
X76471946Y-108636043D01*
X80053855Y-112604221D02*
X80053855Y-112999721D01*
X80053855Y-112617405D02*
X76471946Y-112617405D01*
X80053855Y-112999721D02*
X82593741Y-112999721D01*
X82593741Y-94727642D02*
X73606421Y-94727642D01*
X82984504Y-99882316D02*
X83036613Y-99882316D01*
X82984504Y-99882316D02*
X83635764Y-99882316D01*
X82984504Y-104654678D02*
X83036613Y-104654678D01*
X82984504Y-104654678D02*
X83635764Y-104654678D01*
X82984504Y-109427044D02*
X83036613Y-109427044D01*
X82984504Y-109427044D02*
X83635764Y-109427044D01*
X82984504Y-112604221D02*
X82984504Y-95123142D01*
X83036613Y-94635357D02*
X72564414Y-94635357D01*
X83036613Y-98115753D02*
X83036613Y-98300319D01*
X83036613Y-100093254D02*
X83036613Y-99882316D01*
X83036613Y-102888118D02*
X83036613Y-103072681D01*
X83036613Y-104865612D02*
X83036613Y-104654678D01*
X83036613Y-107660476D02*
X83036613Y-107845047D01*
X83036613Y-109637974D02*
X83036613Y-109427044D01*
X83036613Y-113092003D02*
X83036613Y-94635357D01*
X83297111Y-98115753D02*
X83036613Y-98115753D01*
X83297111Y-98300319D02*
X82984504Y-98300319D01*
X83297111Y-100093254D02*
X83036613Y-100093254D01*
X83297111Y-100093254D02*
X83297111Y-98300319D01*
X83297111Y-102888118D02*
X83036613Y-102888118D01*
X83297111Y-103072681D02*
X82984504Y-103072681D01*
X83297111Y-104865612D02*
X83036613Y-104865612D01*
X83297111Y-104865612D02*
X83297111Y-103072681D01*
X83297111Y-107660476D02*
X83036613Y-107660476D01*
X83297111Y-109637974D02*
X83036613Y-109637974D01*
X83297111Y-109637974D02*
X83297111Y-107660476D01*
X83635764Y-98300319D02*
X83297111Y-98115753D01*
X83635764Y-99882316D02*
X83687873Y-99882316D01*
X83635764Y-103072684D02*
X83297111Y-102888118D01*
X83635764Y-104654678D02*
X83687873Y-104654678D01*
X83635764Y-107845047D02*
X83297111Y-107660476D01*
X83635764Y-109427044D02*
X83687873Y-109427044D01*
X83635764Y-113619339D02*
X83635764Y-94108028D01*
X83687873Y-98300319D02*
X83635764Y-98300319D01*
X83687873Y-99882316D02*
X83687873Y-98300319D01*
X83687873Y-103072681D02*
X83635764Y-103072681D01*
X83687873Y-104654678D02*
X83687873Y-103072681D01*
X83687873Y-107845047D02*
X83635764Y-107845047D01*
X83687873Y-109427044D02*
X83687873Y-107845047D01*
X72564414Y-113619339D02*
X72564454Y-113624001D01*
X72564573Y-113628652D01*
X72564773Y-113633294D01*
X72565051Y-113637923D01*
X72565409Y-113642541D01*
X72565845Y-113647146D01*
X72566361Y-113651737D01*
X72566955Y-113656313D01*
X72567627Y-113660874D01*
X72568378Y-113665419D01*
X72569207Y-113669947D01*
X72570114Y-113674457D01*
X72571098Y-113678948D01*
X72572160Y-113683419D01*
X72573299Y-113687870D01*
X72574514Y-113692298D01*
X72575806Y-113696703D01*
X72577175Y-113701085D01*
X72578619Y-113705442D01*
X72580138Y-113709772D01*
X72581733Y-113714075D01*
X72583402Y-113718350D01*
X72585146Y-113722596D01*
X72586963Y-113726811D01*
X72588854Y-113730994D01*
X72590817Y-113735144D01*
X72592853Y-113739260D01*
X72594960Y-113743341D01*
X72597138Y-113747385D01*
X72599387Y-113751391D01*
X72601705Y-113755358D01*
X72604092Y-113759285D01*
X72606547Y-113763170D01*
X72609070Y-113767012D01*
X72611660Y-113770811D01*
X72614315Y-113774564D01*
X72617036Y-113778270D01*
X72619820Y-113781929D01*
X72622668Y-113785538D01*
X72625578Y-113789098D01*
X72628549Y-113792606D01*
X72631580Y-113796061D01*
X72634671Y-113799463D01*
X72636238Y-113801143D01*
X72637820Y-113802809D01*
X72639416Y-113804461D01*
X72641025Y-113806100D01*
X72642649Y-113807723D01*
X72644287Y-113809333D01*
X72645939Y-113810928D01*
X72647604Y-113812508D01*
X72649282Y-113814073D01*
X72650974Y-113815623D01*
X72652678Y-113817158D01*
X72654396Y-113818679D01*
X72656127Y-113820183D01*
X72657870Y-113821672D01*
X72659626Y-113823146D01*
X72661394Y-113824604D01*
X72663175Y-113826045D01*
X72664968Y-113827471D01*
X72666772Y-113828881D01*
X72668588Y-113830275D01*
X72670416Y-113831652D01*
X72672255Y-113833013D01*
X72674106Y-113834357D01*
X72675968Y-113835685D01*
X72677840Y-113836996D01*
X72679724Y-113838291D01*
X72681618Y-113839568D01*
X72683524Y-113840828D01*
X72685438Y-113842071D01*
X72687364Y-113843297D01*
X72689299Y-113844505D01*
X72691245Y-113845697D01*
X72693200Y-113846870D01*
X72695166Y-113848026D01*
X72697139Y-113849164D01*
X72699124Y-113850285D01*
X72701116Y-113851388D01*
X72703118Y-113852473D01*
X72705128Y-113853539D01*
X72707148Y-113854589D01*
X72709175Y-113855619D01*
X72711212Y-113856632D01*
X72713256Y-113857626D01*
X72715309Y-113858602D01*
X72717369Y-113859559D01*
X72719438Y-113860498D01*
X72721513Y-113861419D01*
X72723598Y-113862321D01*
X72725688Y-113863204D01*
X72727787Y-113864069D01*
X72729891Y-113864914D01*
X72732004Y-113865742D01*
X72734122Y-113866549D01*
X72736249Y-113867339D01*
X72738380Y-113868109D01*
X72740520Y-113868861D01*
X72742663Y-113869593D01*
X72744816Y-113870306D01*
X72746971Y-113871000D01*
X72749135Y-113871675D01*
X72751303Y-113872331D01*
X72753478Y-113872968D01*
X72755657Y-113873585D01*
X72757843Y-113874183D01*
X72760032Y-113874761D01*
X72762229Y-113875321D01*
X72764428Y-113875860D01*
X72766634Y-113876381D01*
X72768843Y-113876881D01*
X72771059Y-113877363D01*
X72773277Y-113877824D01*
X72775502Y-113878267D01*
X72777729Y-113878689D01*
X72779962Y-113879093D01*
X72782197Y-113879476D01*
X72784438Y-113879840D01*
X72786681Y-113880184D01*
X72788930Y-113880509D01*
X72791181Y-113880813D01*
X72793437Y-113881098D01*
X72795694Y-113881363D01*
X72797958Y-113881609D01*
X72800222Y-113881834D01*
X72802491Y-113882040D01*
X72804762Y-113882226D01*
X72807037Y-113882392D01*
X72809314Y-113882538D01*
X72811595Y-113882664D01*
X72813877Y-113882771D01*
X72816164Y-113882857D01*
X72818450Y-113882923D01*
X72820742Y-113882970D01*
X72824912Y-113883003D01*
X72824912Y-93844356D02*
X72820334Y-93844396D01*
X72815766Y-93844515D01*
X72811208Y-93844715D01*
X72806661Y-93844993D01*
X72802126Y-93845351D01*
X72797603Y-93845787D01*
X72793093Y-93846303D01*
X72788598Y-93846897D01*
X72784116Y-93847570D01*
X72779651Y-93848321D01*
X72775202Y-93849151D01*
X72770770Y-93850058D01*
X72766356Y-93851043D01*
X72761961Y-93852106D01*
X72757586Y-93853246D01*
X72753231Y-93854463D01*
X72748899Y-93855757D01*
X72744589Y-93857127D01*
X72740303Y-93858574D01*
X72736042Y-93860096D01*
X72731807Y-93861694D01*
X72727599Y-93863367D01*
X72723419Y-93865115D01*
X72719268Y-93866938D01*
X72715148Y-93868834D01*
X72711059Y-93870803D01*
X72707003Y-93872846D01*
X72702981Y-93874961D01*
X72698993Y-93877148D01*
X72695042Y-93879406D01*
X72691129Y-93881734D01*
X72687254Y-93884133D01*
X72683419Y-93886601D01*
X72679625Y-93889137D01*
X72675874Y-93891741D01*
X72672166Y-93894413D01*
X72668504Y-93897150D01*
X72664887Y-93899953D01*
X72661318Y-93902820D01*
X72657797Y-93905751D01*
X72654326Y-93908745D01*
X72650906Y-93911800D01*
X72647538Y-93914915D01*
X72644223Y-93918091D01*
X72640963Y-93921325D01*
X72637759Y-93924616D01*
X72636178Y-93926283D01*
X72634611Y-93927964D01*
X72633059Y-93929659D01*
X72631521Y-93931367D01*
X72629998Y-93933089D01*
X72628490Y-93934824D01*
X72626998Y-93936573D01*
X72625520Y-93938334D01*
X72624057Y-93940109D01*
X72622610Y-93941896D01*
X72621178Y-93943696D01*
X72619762Y-93945509D01*
X72618362Y-93947334D01*
X72616977Y-93949171D01*
X72615609Y-93951020D01*
X72614256Y-93952881D01*
X72612920Y-93954753D01*
X72611600Y-93956638D01*
X72610297Y-93958533D01*
X72609010Y-93960441D01*
X72607740Y-93962358D01*
X72606486Y-93964288D01*
X72605250Y-93966227D01*
X72604030Y-93968178D01*
X72602828Y-93970139D01*
X72601642Y-93972110D01*
X72600474Y-93974091D01*
X72599323Y-93976083D01*
X72598190Y-93978084D01*
X72597073Y-93980096D01*
X72595975Y-93982116D01*
X72594895Y-93984146D01*
X72593832Y-93986185D01*
X72592787Y-93988234D01*
X72591760Y-93990291D01*
X72590750Y-93992357D01*
X72589760Y-93994431D01*
X72588787Y-93996515D01*
X72587832Y-93998606D01*
X72586896Y-94000706D01*
X72585978Y-94002813D01*
X72585078Y-94004929D01*
X72584197Y-94007052D01*
X72583334Y-94009184D01*
X72582491Y-94011321D01*
X72581665Y-94013467D01*
X72580859Y-94015619D01*
X72580071Y-94017780D01*
X72579302Y-94019945D01*
X72578552Y-94022120D01*
X72577821Y-94024299D01*
X72577108Y-94026486D01*
X72576416Y-94028677D01*
X72575741Y-94030877D01*
X72575087Y-94033081D01*
X72574450Y-94035293D01*
X72573834Y-94037508D01*
X72573236Y-94039731D01*
X72572659Y-94041958D01*
X72572099Y-94044192D01*
X72571560Y-94046429D01*
X72571040Y-94048673D01*
X72570539Y-94050921D01*
X72570058Y-94053175D01*
X72569597Y-94055432D01*
X72569154Y-94057696D01*
X72568732Y-94059962D01*
X72568328Y-94062234D01*
X72567945Y-94064509D01*
X72567581Y-94066790D01*
X72567237Y-94069073D01*
X72566912Y-94071362D01*
X72566607Y-94073653D01*
X72566322Y-94075950D01*
X72566057Y-94078248D01*
X72565811Y-94080552D01*
X72565585Y-94082856D01*
X72565379Y-94085167D01*
X72565193Y-94087479D01*
X72565027Y-94089796D01*
X72564881Y-94092113D01*
X72564754Y-94094436D01*
X72564648Y-94096760D01*
X72564561Y-94099088D01*
X72564494Y-94101417D01*
X72564448Y-94103751D01*
X72564414Y-94108028D01*
X73215674Y-112604221D02*
X73215714Y-112609930D01*
X73215834Y-112615630D01*
X73216033Y-112621319D01*
X73216312Y-112626997D01*
X73216670Y-112632664D01*
X73217107Y-112638319D01*
X73217623Y-112643961D01*
X73218219Y-112649589D01*
X73218893Y-112655204D01*
X73219645Y-112660804D01*
X73220476Y-112666388D01*
X73221386Y-112671957D01*
X73222374Y-112677508D01*
X73223439Y-112683042D01*
X73224583Y-112688558D01*
X73225804Y-112694055D01*
X73227102Y-112699532D01*
X73228477Y-112704988D01*
X73229930Y-112710422D01*
X73231459Y-112715835D01*
X73233065Y-112721224D01*
X73234746Y-112726589D01*
X73236504Y-112731929D01*
X73238337Y-112737243D01*
X73240246Y-112742531D01*
X73242229Y-112747791D01*
X73244287Y-112753023D01*
X73246420Y-112758225D01*
X73248626Y-112763397D01*
X73250906Y-112768537D01*
X73253258Y-112773645D01*
X73255684Y-112778719D01*
X73258181Y-112783760D01*
X73260751Y-112788765D01*
X73263391Y-112793734D01*
X73266102Y-112798665D01*
X73268883Y-112803558D01*
X73271734Y-112808412D01*
X73274654Y-112813225D01*
X73277642Y-112817997D01*
X73280698Y-112822727D01*
X73283821Y-112827413D01*
X73287010Y-112832054D01*
X73290266Y-112836651D01*
X73293586Y-112841201D01*
X73296970Y-112845703D01*
X73300419Y-112850157D01*
X73303930Y-112854561D01*
X73307503Y-112858915D01*
X73311137Y-112863217D01*
X73314831Y-112867467D01*
X73318585Y-112871663D01*
X73322398Y-112875805D01*
X73324326Y-112877856D01*
X73326269Y-112879892D01*
X73328226Y-112881915D01*
X73330196Y-112883923D01*
X73332181Y-112885917D01*
X73334180Y-112887896D01*
X73336192Y-112889861D01*
X73338219Y-112891812D01*
X73340258Y-112893747D01*
X73342311Y-112895668D01*
X73344378Y-112897574D01*
X73346457Y-112899465D01*
X73348550Y-112901340D01*
X73350655Y-112903201D01*
X73352774Y-112905045D01*
X73354905Y-112906875D01*
X73357048Y-112908689D01*
X73359205Y-112910487D01*
X73361373Y-112912270D01*
X73363554Y-112914037D01*
X73365746Y-112915787D01*
X73367951Y-112917522D01*
X73370168Y-112919240D01*
X73372396Y-112920943D01*
X73374636Y-112922628D01*
X73376887Y-112924298D01*
X73379149Y-112925950D01*
X73381424Y-112927587D01*
X73383708Y-112929206D01*
X73386004Y-112930810D01*
X73388310Y-112932395D01*
X73390628Y-112933965D01*
X73392956Y-112935517D01*
X73395295Y-112937052D01*
X73397643Y-112938569D01*
X73400002Y-112940070D01*
X73402370Y-112941553D01*
X73404750Y-112943019D01*
X73407138Y-112944467D01*
X73409537Y-112945899D01*
X73411944Y-112947311D01*
X73414362Y-112948707D01*
X73416788Y-112950085D01*
X73419225Y-112951445D01*
X73421669Y-112952787D01*
X73424123Y-112954111D01*
X73426585Y-112955417D01*
X73429057Y-112956706D01*
X73431536Y-112957975D01*
X73434025Y-112959228D01*
X73436521Y-112960461D01*
X73439027Y-112961676D01*
X73441539Y-112962873D01*
X73444060Y-112964052D01*
X73446588Y-112965212D01*
X73449125Y-112966354D01*
X73451668Y-112967476D01*
X73454221Y-112968581D01*
X73456779Y-112969667D01*
X73459346Y-112970734D01*
X73461918Y-112971782D01*
X73464499Y-112972812D01*
X73467085Y-112973823D01*
X73469680Y-112974815D01*
X73472280Y-112975788D01*
X73474888Y-112976743D01*
X73477500Y-112977677D01*
X73480121Y-112978594D01*
X73482746Y-112979491D01*
X73485379Y-112980369D01*
X73488017Y-112981228D01*
X73490662Y-112982068D01*
X73493311Y-112982888D01*
X73495968Y-112983690D01*
X73498628Y-112984472D01*
X73501295Y-112985235D01*
X73503966Y-112985979D01*
X73506645Y-112986703D01*
X73509326Y-112987408D01*
X73512015Y-112988094D01*
X73514707Y-112988760D01*
X73517405Y-112989407D01*
X73520107Y-112990034D01*
X73522815Y-112990642D01*
X73525525Y-112991230D01*
X73528243Y-112991799D01*
X73530962Y-112992348D01*
X73533688Y-112992878D01*
X73536416Y-112993388D01*
X73539151Y-112993879D01*
X73541887Y-112994349D01*
X73544629Y-112994801D01*
X73547373Y-112995232D01*
X73550124Y-112995644D01*
X73552875Y-112996036D01*
X73555633Y-112996409D01*
X73558391Y-112996761D01*
X73561156Y-112997094D01*
X73563922Y-112997407D01*
X73566693Y-112997701D01*
X73569465Y-112997974D01*
X73572243Y-112998228D01*
X73575021Y-112998462D01*
X73577805Y-112998676D01*
X73580589Y-112998870D01*
X73583379Y-112999044D01*
X73586169Y-112999199D01*
X73588964Y-112999333D01*
X73591759Y-112999448D01*
X73594560Y-112999542D01*
X73597360Y-112999617D01*
X73600165Y-112999671D01*
X73602970Y-112999706D01*
X73605780Y-112999720D01*
X73606421Y-112999721D01*
X73606421Y-94727642D02*
X73600812Y-94727682D01*
X73595213Y-94727802D01*
X73589624Y-94728001D01*
X73584046Y-94728280D01*
X73578479Y-94728638D01*
X73572923Y-94729075D01*
X73567380Y-94729591D01*
X73561850Y-94730187D01*
X73556333Y-94730861D01*
X73550830Y-94731614D01*
X73545342Y-94732445D01*
X73539870Y-94733355D01*
X73534414Y-94734343D01*
X73528974Y-94735410D01*
X73523553Y-94736554D01*
X73518149Y-94737776D01*
X73512764Y-94739075D01*
X73507400Y-94740452D01*
X73502055Y-94741906D01*
X73496732Y-94743437D01*
X73491432Y-94745044D01*
X73486154Y-94746729D01*
X73480900Y-94748489D01*
X73475670Y-94750325D01*
X73470466Y-94752238D01*
X73465289Y-94754225D01*
X73460139Y-94756288D01*
X73455017Y-94758425D01*
X73449924Y-94760637D01*
X73444861Y-94762923D01*
X73439829Y-94765283D01*
X73434829Y-94767715D01*
X73429862Y-94770221D01*
X73424928Y-94772799D01*
X73420030Y-94775450D01*
X73415167Y-94778171D01*
X73410341Y-94780964D01*
X73405553Y-94783827D01*
X73400804Y-94786760D01*
X73396094Y-94789763D01*
X73391425Y-94792834D01*
X73386798Y-94795973D01*
X73382214Y-94799180D01*
X73377674Y-94802454D01*
X73373178Y-94805794D01*
X73368729Y-94809200D01*
X73364326Y-94812671D01*
X73359971Y-94816205D01*
X73355665Y-94819803D01*
X73351409Y-94823464D01*
X73347203Y-94827186D01*
X73343050Y-94830969D01*
X73338949Y-94834813D01*
X73334902Y-94838716D01*
X73330909Y-94842677D01*
X73326972Y-94846695D01*
X73325025Y-94848726D01*
X73323092Y-94850771D01*
X73321173Y-94852829D01*
X73319269Y-94854902D01*
X73317379Y-94856988D01*
X73315504Y-94859088D01*
X73313644Y-94861201D01*
X73311799Y-94863328D01*
X73309969Y-94865467D01*
X73308153Y-94867620D01*
X73306354Y-94869786D01*
X73304569Y-94871965D01*
X73302800Y-94874156D01*
X73301046Y-94876360D01*
X73299308Y-94878577D01*
X73297585Y-94880806D01*
X73295879Y-94883047D01*
X73294188Y-94885301D01*
X73292514Y-94887566D01*
X73290855Y-94889843D01*
X73289213Y-94892132D01*
X73287587Y-94894433D01*
X73285977Y-94896745D01*
X73284384Y-94899069D01*
X73282808Y-94901403D01*
X73281247Y-94903749D01*
X73279704Y-94906106D01*
X73278178Y-94908474D01*
X73276668Y-94910852D01*
X73275176Y-94913241D01*
X73273700Y-94915640D01*
X73272242Y-94918051D01*
X73270801Y-94920471D01*
X73269377Y-94922901D01*
X73267970Y-94925341D01*
X73266581Y-94927792D01*
X73265210Y-94930251D01*
X73263855Y-94932721D01*
X73262519Y-94935199D01*
X73261200Y-94937688D01*
X73259900Y-94940184D01*
X73258616Y-94942692D01*
X73257351Y-94945206D01*
X73256104Y-94947731D01*
X73254875Y-94950264D01*
X73253664Y-94952806D01*
X73252471Y-94955355D01*
X73251296Y-94957914D01*
X73250140Y-94960480D01*
X73249001Y-94963056D01*
X73247882Y-94965638D01*
X73246780Y-94968229D01*
X73245698Y-94970826D01*
X73244633Y-94973433D01*
X73243588Y-94976045D01*
X73242560Y-94978667D01*
X73241552Y-94981294D01*
X73240562Y-94983930D01*
X73239591Y-94986571D01*
X73238639Y-94989221D01*
X73237706Y-94991876D01*
X73236791Y-94994540D01*
X73235896Y-94997208D01*
X73235019Y-94999884D01*
X73234162Y-95002565D01*
X73233323Y-95005254D01*
X73232503Y-95007948D01*
X73231703Y-95010649D01*
X73230922Y-95013354D01*
X73230160Y-95016067D01*
X73229417Y-95018783D01*
X73228693Y-95021508D01*
X73227989Y-95024235D01*
X73227304Y-95026970D01*
X73226639Y-95029708D01*
X73225992Y-95032454D01*
X73225365Y-95035202D01*
X73224758Y-95037958D01*
X73224170Y-95040716D01*
X73223601Y-95043482D01*
X73223052Y-95046249D01*
X73222522Y-95049024D01*
X73222013Y-95051800D01*
X73221522Y-95054584D01*
X73221051Y-95057369D01*
X73220600Y-95060161D01*
X73220168Y-95062954D01*
X73219756Y-95065754D01*
X73219364Y-95068556D01*
X73218991Y-95071364D01*
X73218639Y-95074173D01*
X73218305Y-95076988D01*
X73217992Y-95079804D01*
X73217699Y-95082627D01*
X73217425Y-95085450D01*
X73217171Y-95088279D01*
X73216937Y-95091109D01*
X73216722Y-95093944D01*
X73216528Y-95096780D01*
X73216353Y-95099621D01*
X73216199Y-95102463D01*
X73216064Y-95105311D01*
X73215949Y-95108158D01*
X73215854Y-95111011D01*
X73215779Y-95113864D01*
X73215724Y-95116722D01*
X73215690Y-95119580D01*
X73215675Y-95122443D01*
X73215674Y-95123142D01*
X82593741Y-112999721D02*
X82599351Y-112999681D01*
X82604951Y-112999561D01*
X82610541Y-112999362D01*
X82616120Y-112999083D01*
X82621689Y-112998725D01*
X82627245Y-112998288D01*
X82632789Y-112997772D01*
X82638320Y-112997176D01*
X82643837Y-112996502D01*
X82649340Y-112995749D01*
X82654829Y-112994918D01*
X82660301Y-112994008D01*
X82665758Y-112993020D01*
X82671197Y-112991954D01*
X82676620Y-112990810D01*
X82682023Y-112989588D01*
X82687408Y-112988289D01*
X82692773Y-112986912D01*
X82698117Y-112985458D01*
X82703440Y-112983928D01*
X82708740Y-112982320D01*
X82714018Y-112980636D01*
X82719272Y-112978876D01*
X82724501Y-112977040D01*
X82729705Y-112975128D01*
X82734882Y-112973140D01*
X82740032Y-112971078D01*
X82745154Y-112968941D01*
X82750246Y-112966729D01*
X82755309Y-112964444D01*
X82760340Y-112962084D01*
X82765340Y-112959652D01*
X82770307Y-112957146D01*
X82775240Y-112954568D01*
X82780138Y-112951918D01*
X82785001Y-112949197D01*
X82789826Y-112946405D01*
X82794614Y-112943542D01*
X82799363Y-112940609D01*
X82804072Y-112937607D01*
X82808741Y-112934536D01*
X82813367Y-112931397D01*
X82817951Y-112928190D01*
X82822491Y-112924916D01*
X82826987Y-112921576D01*
X82831436Y-112918171D01*
X82835839Y-112914700D01*
X82840193Y-112911166D01*
X82844499Y-112907568D01*
X82848755Y-112903907D01*
X82852961Y-112900185D01*
X82857114Y-112896402D01*
X82861215Y-112892559D01*
X82865262Y-112888656D01*
X82869255Y-112884695D01*
X82873192Y-112880676D01*
X82875139Y-112878645D01*
X82877072Y-112876600D01*
X82878991Y-112874542D01*
X82880895Y-112872469D01*
X82882785Y-112870383D01*
X82884660Y-112868283D01*
X82886520Y-112866170D01*
X82888366Y-112864043D01*
X82890196Y-112861904D01*
X82892011Y-112859751D01*
X82893811Y-112857585D01*
X82895596Y-112855406D01*
X82897365Y-112853214D01*
X82899119Y-112851010D01*
X82900857Y-112848793D01*
X82902580Y-112846564D01*
X82904287Y-112844323D01*
X82905978Y-112842069D01*
X82907652Y-112839804D01*
X82909311Y-112837526D01*
X82910953Y-112835237D01*
X82912580Y-112832936D01*
X82914189Y-112830624D01*
X82915783Y-112828300D01*
X82917359Y-112825966D01*
X82918920Y-112823619D01*
X82920463Y-112821263D01*
X82921990Y-112818894D01*
X82923499Y-112816516D01*
X82924992Y-112814127D01*
X82926468Y-112811727D01*
X82927926Y-112809317D01*
X82929367Y-112806897D01*
X82930792Y-112804466D01*
X82932198Y-112802026D01*
X82933588Y-112799575D01*
X82934959Y-112797116D01*
X82936314Y-112794646D01*
X82937650Y-112792167D01*
X82938969Y-112789678D01*
X82940270Y-112787181D01*
X82941554Y-112784674D01*
X82942819Y-112782159D01*
X82944066Y-112779634D01*
X82945295Y-112777101D01*
X82946507Y-112774559D01*
X82947700Y-112772009D01*
X82948875Y-112769450D01*
X82950031Y-112766884D01*
X82951170Y-112764308D01*
X82952289Y-112761726D01*
X82953391Y-112759135D01*
X82954474Y-112756537D01*
X82955539Y-112753930D01*
X82956585Y-112751318D01*
X82957612Y-112748696D01*
X82958621Y-112746069D01*
X82959611Y-112743432D01*
X82960582Y-112740791D01*
X82961534Y-112738141D01*
X82962468Y-112735486D01*
X82963383Y-112732822D01*
X82964278Y-112730154D01*
X82965155Y-112727477D01*
X82966012Y-112724796D01*
X82966851Y-112722107D01*
X82967671Y-112719414D01*
X82968471Y-112716713D01*
X82969253Y-112714007D01*
X82970015Y-112711294D01*
X82970758Y-112708578D01*
X82971482Y-112705853D01*
X82972186Y-112703126D01*
X82972871Y-112700391D01*
X82973537Y-112697653D01*
X82974183Y-112694907D01*
X82974810Y-112692159D01*
X82975418Y-112689403D01*
X82976006Y-112686645D01*
X82976575Y-112683880D01*
X82977124Y-112681112D01*
X82977654Y-112678338D01*
X82978164Y-112675561D01*
X82978654Y-112672778D01*
X82979125Y-112669993D01*
X82979577Y-112667201D01*
X82980008Y-112664408D01*
X82980420Y-112661608D01*
X82980813Y-112658807D01*
X82981185Y-112655999D01*
X82981538Y-112653190D01*
X82981871Y-112650375D01*
X82982185Y-112647559D01*
X82982479Y-112644737D01*
X82982752Y-112641915D01*
X82983006Y-112639086D01*
X82983241Y-112636257D01*
X82983455Y-112633422D01*
X82983650Y-112630586D01*
X82983824Y-112627745D01*
X82983979Y-112624903D01*
X82984114Y-112622057D01*
X82984229Y-112619210D01*
X82984324Y-112616357D01*
X82984398Y-112613505D01*
X82984453Y-112610648D01*
X82984488Y-112607790D01*
X82984503Y-112604928D01*
X82984504Y-112604221D01*
X82984504Y-95123142D02*
X82984464Y-95117428D01*
X82984344Y-95111724D01*
X82984145Y-95106030D01*
X82983866Y-95100348D01*
X82983508Y-95094677D01*
X82983071Y-95089018D01*
X82982555Y-95083373D01*
X82981960Y-95077741D01*
X82981286Y-95072123D01*
X82980533Y-95066520D01*
X82979702Y-95060933D01*
X82978793Y-95055361D01*
X82977805Y-95049807D01*
X82976740Y-95044271D01*
X82975597Y-95038753D01*
X82974376Y-95033254D01*
X82973078Y-95027776D01*
X82971703Y-95022318D01*
X82970251Y-95016882D01*
X82968722Y-95011469D01*
X82967117Y-95006078D01*
X82965436Y-95000712D01*
X82963679Y-94995371D01*
X82961846Y-94990056D01*
X82959938Y-94984768D01*
X82957956Y-94979508D01*
X82955898Y-94974276D01*
X82953767Y-94969074D01*
X82951562Y-94963902D01*
X82949283Y-94958762D01*
X82946931Y-94953654D01*
X82944507Y-94948580D01*
X82942010Y-94943540D01*
X82939442Y-94938536D01*
X82936803Y-94933568D01*
X82934093Y-94928637D01*
X82931314Y-94923745D01*
X82928464Y-94918892D01*
X82925546Y-94914080D01*
X82922559Y-94909309D01*
X82919505Y-94904581D01*
X82916384Y-94899896D01*
X82913196Y-94895256D01*
X82909942Y-94890661D01*
X82906624Y-94886113D01*
X82903241Y-94881612D01*
X82899794Y-94877160D01*
X82896285Y-94872758D01*
X82892714Y-94868406D01*
X82889082Y-94864105D01*
X82885389Y-94859857D01*
X82881637Y-94855662D01*
X82877826Y-94851522D01*
X82875899Y-94849472D01*
X82873957Y-94847437D01*
X82872001Y-94845415D01*
X82870032Y-94843408D01*
X82868048Y-94841415D01*
X82866050Y-94839436D01*
X82864038Y-94837472D01*
X82862013Y-94835523D01*
X82859975Y-94833588D01*
X82857922Y-94831668D01*
X82855857Y-94829763D01*
X82853778Y-94827873D01*
X82851687Y-94825998D01*
X82849582Y-94824139D01*
X82847464Y-94822295D01*
X82845334Y-94820466D01*
X82843192Y-94818653D01*
X82841036Y-94816855D01*
X82838869Y-94815074D01*
X82836689Y-94813308D01*
X82834497Y-94811558D01*
X82832293Y-94809824D01*
X82830078Y-94808107D01*
X82827850Y-94806405D01*
X82825611Y-94804720D01*
X82823360Y-94803051D01*
X82821099Y-94801399D01*
X82818825Y-94799763D01*
X82816542Y-94798145D01*
X82814246Y-94796542D01*
X82811941Y-94794957D01*
X82809624Y-94793388D01*
X82807297Y-94791837D01*
X82804959Y-94790303D01*
X82802611Y-94788786D01*
X82800252Y-94787285D01*
X82797885Y-94785803D01*
X82795506Y-94784338D01*
X82793118Y-94782890D01*
X82790720Y-94781459D01*
X82788313Y-94780047D01*
X82785895Y-94778652D01*
X82783470Y-94777275D01*
X82781034Y-94775915D01*
X82778590Y-94774574D01*
X82776136Y-94773250D01*
X82773674Y-94771944D01*
X82771203Y-94770656D01*
X82768724Y-94769387D01*
X82766235Y-94768135D01*
X82763739Y-94766903D01*
X82761234Y-94765687D01*
X82758722Y-94764491D01*
X82756201Y-94763312D01*
X82753673Y-94762153D01*
X82751136Y-94761011D01*
X82748593Y-94759889D01*
X82746040Y-94758784D01*
X82743482Y-94757699D01*
X82740915Y-94756632D01*
X82738343Y-94755584D01*
X82735762Y-94754554D01*
X82733175Y-94753544D01*
X82730580Y-94752552D01*
X82727980Y-94751579D01*
X82725372Y-94750625D01*
X82722759Y-94749690D01*
X82720138Y-94748774D01*
X82717512Y-94747877D01*
X82714879Y-94746999D01*
X82712241Y-94746140D01*
X82709595Y-94745300D01*
X82706946Y-94744480D01*
X82704288Y-94743678D01*
X82701628Y-94742896D01*
X82698959Y-94742133D01*
X82696287Y-94741390D01*
X82693608Y-94740665D01*
X82690926Y-94739960D01*
X82688236Y-94739274D01*
X82685544Y-94738608D01*
X82682844Y-94737961D01*
X82680142Y-94737334D01*
X82677432Y-94736726D01*
X82674721Y-94736138D01*
X82672002Y-94735569D01*
X82669282Y-94735020D01*
X82666554Y-94734490D01*
X82663825Y-94733980D01*
X82661089Y-94733489D01*
X82658352Y-94733018D01*
X82655608Y-94732567D01*
X82652862Y-94732135D01*
X82650111Y-94731723D01*
X82647358Y-94731331D01*
X82644598Y-94730958D01*
X82641838Y-94730605D01*
X82639072Y-94730272D01*
X82636304Y-94729959D01*
X82633531Y-94729665D01*
X82630757Y-94729392D01*
X82627978Y-94729138D01*
X82625197Y-94728904D01*
X82622412Y-94728689D01*
X82619625Y-94728495D01*
X82616834Y-94728320D01*
X82614042Y-94728166D01*
X82611244Y-94728031D01*
X82608447Y-94727917D01*
X82605644Y-94727822D01*
X82602841Y-94727747D01*
X82600034Y-94727692D01*
X82597226Y-94727657D01*
X82594414Y-94727643D01*
X82593741Y-94727642D01*
X83375251Y-113883003D02*
X83379830Y-113882963D01*
X83384398Y-113882844D01*
X83388957Y-113882644D01*
X83393504Y-113882366D01*
X83398040Y-113882008D01*
X83402563Y-113881572D01*
X83407073Y-113881056D01*
X83411570Y-113880462D01*
X83416051Y-113879789D01*
X83420517Y-113879038D01*
X83424967Y-113878208D01*
X83429399Y-113877301D01*
X83433813Y-113876316D01*
X83438209Y-113875253D01*
X83442584Y-113874113D01*
X83446939Y-113872896D01*
X83451272Y-113871602D01*
X83455582Y-113870232D01*
X83459868Y-113868786D01*
X83464129Y-113867263D01*
X83468364Y-113865665D01*
X83472573Y-113863992D01*
X83476753Y-113862244D01*
X83480904Y-113860422D01*
X83485025Y-113858526D01*
X83489114Y-113856556D01*
X83493170Y-113854514D01*
X83497193Y-113852399D01*
X83501180Y-113850212D01*
X83505131Y-113847954D01*
X83509045Y-113845626D01*
X83512920Y-113843227D01*
X83516755Y-113840760D01*
X83520549Y-113838223D01*
X83524300Y-113835619D01*
X83528008Y-113832948D01*
X83531671Y-113830211D01*
X83535288Y-113827408D01*
X83538857Y-113824541D01*
X83542378Y-113821610D01*
X83545850Y-113818617D01*
X83549270Y-113815562D01*
X83552638Y-113812446D01*
X83555952Y-113809271D01*
X83559212Y-113806037D01*
X83562417Y-113802746D01*
X83563998Y-113801079D01*
X83565565Y-113799398D01*
X83567117Y-113797704D01*
X83568654Y-113795996D01*
X83570177Y-113794274D01*
X83571685Y-113792538D01*
X83573178Y-113790790D01*
X83574656Y-113789029D01*
X83576119Y-113787254D01*
X83577566Y-113785467D01*
X83578998Y-113783667D01*
X83580414Y-113781854D01*
X83581814Y-113780030D01*
X83583199Y-113778193D01*
X83584567Y-113776344D01*
X83585920Y-113774483D01*
X83587256Y-113772611D01*
X83588576Y-113770726D01*
X83589879Y-113768831D01*
X83591166Y-113766924D01*
X83592436Y-113765006D01*
X83593690Y-113763077D01*
X83594926Y-113761137D01*
X83596146Y-113759187D01*
X83597349Y-113757226D01*
X83598534Y-113755254D01*
X83599702Y-113753274D01*
X83600854Y-113751282D01*
X83601987Y-113749281D01*
X83603103Y-113747270D01*
X83604201Y-113745250D01*
X83605282Y-113743219D01*
X83606345Y-113741181D01*
X83607390Y-113739132D01*
X83608417Y-113737075D01*
X83609426Y-113735009D01*
X83610417Y-113732935D01*
X83611390Y-113730851D01*
X83612344Y-113728760D01*
X83613281Y-113726660D01*
X83614199Y-113724553D01*
X83615099Y-113722437D01*
X83615979Y-113720315D01*
X83616842Y-113718183D01*
X83617686Y-113716046D01*
X83618512Y-113713900D01*
X83619318Y-113711748D01*
X83620106Y-113709587D01*
X83620875Y-113707422D01*
X83621625Y-113705248D01*
X83622356Y-113703069D01*
X83623069Y-113700882D01*
X83623761Y-113698690D01*
X83624436Y-113696491D01*
X83625091Y-113694287D01*
X83625727Y-113692075D01*
X83626343Y-113689860D01*
X83626941Y-113687637D01*
X83627519Y-113685410D01*
X83628078Y-113683176D01*
X83628617Y-113680939D01*
X83629137Y-113678695D01*
X83629638Y-113676448D01*
X83630119Y-113674194D01*
X83630581Y-113671937D01*
X83631023Y-113669673D01*
X83631446Y-113667407D01*
X83631849Y-113665135D01*
X83632232Y-113662860D01*
X83632597Y-113660579D01*
X83632941Y-113658296D01*
X83633265Y-113656007D01*
X83633570Y-113653717D01*
X83633855Y-113651420D01*
X83634121Y-113649122D01*
X83634366Y-113646818D01*
X83634592Y-113644513D01*
X83634798Y-113642203D01*
X83634984Y-113639891D01*
X83635151Y-113637574D01*
X83635297Y-113635257D01*
X83635424Y-113632934D01*
X83635530Y-113630611D01*
X83635617Y-113628282D01*
X83635684Y-113625954D01*
X83635730Y-113623620D01*
X83635764Y-113619339D01*
X83635764Y-94108028D02*
X83635724Y-94103366D01*
X83635605Y-94098715D01*
X83635405Y-94094074D01*
X83635127Y-94089444D01*
X83634769Y-94084827D01*
X83634333Y-94080222D01*
X83633817Y-94075631D01*
X83633223Y-94071054D01*
X83632551Y-94066493D01*
X83631800Y-94061948D01*
X83630971Y-94057420D01*
X83630064Y-94052911D01*
X83629080Y-94048420D01*
X83628018Y-94043948D01*
X83626879Y-94039498D01*
X83625664Y-94035070D01*
X83624371Y-94030664D01*
X83623003Y-94026283D01*
X83621559Y-94021926D01*
X83620039Y-94017595D01*
X83618445Y-94013292D01*
X83616775Y-94009017D01*
X83615032Y-94004771D01*
X83613214Y-94000556D01*
X83611324Y-93996373D01*
X83609360Y-93992223D01*
X83607325Y-93988107D01*
X83605218Y-93984026D01*
X83603039Y-93979982D01*
X83600791Y-93975975D01*
X83598473Y-93972008D01*
X83596085Y-93968081D01*
X83593630Y-93964196D01*
X83591107Y-93960354D01*
X83588517Y-93956555D01*
X83585862Y-93952802D01*
X83583141Y-93949096D01*
X83580357Y-93945437D01*
X83577509Y-93941827D01*
X83574599Y-93938268D01*
X83571628Y-93934760D01*
X83568596Y-93931304D01*
X83565506Y-93927903D01*
X83563938Y-93926222D01*
X83562357Y-93924556D01*
X83560761Y-93922904D01*
X83559151Y-93921265D01*
X83557527Y-93919641D01*
X83555889Y-93918032D01*
X83554238Y-93916437D01*
X83552573Y-93914857D01*
X83550894Y-93913292D01*
X83549203Y-93911741D01*
X83547498Y-93910206D01*
X83545780Y-93908686D01*
X83544049Y-93907181D01*
X83542306Y-93905692D01*
X83540550Y-93904219D01*
X83538782Y-93902761D01*
X83537001Y-93901319D01*
X83535209Y-93899893D01*
X83533404Y-93898483D01*
X83531588Y-93897089D01*
X83529760Y-93895712D01*
X83527921Y-93894351D01*
X83526070Y-93893006D01*
X83524208Y-93891678D01*
X83522336Y-93890368D01*
X83520451Y-93889073D01*
X83518558Y-93887796D01*
X83516652Y-93886535D01*
X83514737Y-93885293D01*
X83512811Y-93884066D01*
X83510876Y-93882858D01*
X83508930Y-93881667D01*
X83506976Y-93880493D01*
X83505010Y-93879337D01*
X83503036Y-93878199D01*
X83501052Y-93877078D01*
X83499060Y-93875975D01*
X83497057Y-93874890D01*
X83495047Y-93873823D01*
X83493027Y-93872774D01*
X83491000Y-93871744D01*
X83488963Y-93870731D01*
X83486919Y-93869737D01*
X83484866Y-93868761D01*
X83482806Y-93867803D01*
X83480737Y-93866864D01*
X83478662Y-93865944D01*
X83476577Y-93865041D01*
X83474487Y-93864158D01*
X83472388Y-93863293D01*
X83470284Y-93862448D01*
X83468171Y-93861620D01*
X83466053Y-93860812D01*
X83463926Y-93860023D01*
X83461795Y-93859253D01*
X83459655Y-93858501D01*
X83457511Y-93857769D01*
X83455359Y-93857055D01*
X83453203Y-93856361D01*
X83451039Y-93855686D01*
X83448872Y-93855031D01*
X83446696Y-93854394D01*
X83444518Y-93853777D01*
X83442331Y-93853178D01*
X83440142Y-93852600D01*
X83437946Y-93852041D01*
X83435746Y-93851501D01*
X83433540Y-93850980D01*
X83431331Y-93850480D01*
X83429115Y-93849998D01*
X83426897Y-93849536D01*
X83424672Y-93849094D01*
X83422445Y-93848671D01*
X83420212Y-93848268D01*
X83417976Y-93847884D01*
X83415735Y-93847520D01*
X83413492Y-93847176D01*
X83411243Y-93846852D01*
X83408992Y-93846547D01*
X83406736Y-93846262D01*
X83404479Y-93845997D01*
X83402215Y-93845751D01*
X83399951Y-93845526D01*
X83397681Y-93845320D01*
X83395411Y-93845134D01*
X83393135Y-93844967D01*
X83390859Y-93844821D01*
X83388577Y-93844695D01*
X83386296Y-93844589D01*
X83384009Y-93844502D01*
X83381722Y-93844436D01*
X83379430Y-93844389D01*
X83375251Y-93844356D01*
D13*
%TO.C,J2*%
X132625001Y-68857959D02*
X132625001Y-68144040D01*
X132625001Y-68857959D02*
X132887975Y-68857959D01*
X132887975Y-68144040D02*
X132625001Y-68144040D01*
X132887975Y-68857959D02*
X133066310Y-68708000D01*
X133066310Y-68294000D02*
X132887975Y-68144040D01*
X133066310Y-68708000D02*
X133195001Y-68708000D01*
X133195001Y-59469520D02*
X133195001Y-59201000D01*
X133195001Y-60267617D02*
X133195001Y-59469520D01*
X133195001Y-60267617D02*
X133195001Y-61197508D01*
X133195001Y-60267617D02*
X143355001Y-60267617D01*
X133195001Y-61473747D02*
X133195001Y-61197508D01*
X133195001Y-61773565D02*
X133195001Y-61473747D01*
X133195001Y-67401000D02*
X133195001Y-61773565D01*
X133195001Y-68294000D02*
X133066310Y-68294000D01*
X133195001Y-68294000D02*
X133195001Y-67401000D01*
X133195001Y-68708000D02*
X133195001Y-68294000D01*
X133195001Y-70101000D02*
X133195001Y-68708000D01*
X133195001Y-70401000D02*
X133195001Y-70101000D01*
X133195001Y-70401000D02*
X143355001Y-70401000D01*
X134661977Y-66468998D02*
X137302999Y-63827976D01*
X135735001Y-62701000D02*
X135735001Y-67101000D01*
X136808025Y-63333001D02*
X134167002Y-65974024D01*
X137935001Y-64901000D02*
X133535001Y-64901000D01*
X139741977Y-66468998D02*
X142382999Y-63827976D01*
X140815001Y-62701000D02*
X140815001Y-67101000D01*
X141888025Y-63333001D02*
X139247002Y-65974024D01*
X143015001Y-64901000D02*
X138615001Y-64901000D01*
X143355001Y-59201000D02*
X133195001Y-59201000D01*
X143355001Y-59201000D02*
X143355001Y-59469520D01*
X143355001Y-59469520D02*
X143355001Y-60267617D01*
X143355001Y-61197508D02*
X143355001Y-60267617D01*
X143355001Y-61197508D02*
X143355001Y-61473747D01*
X143355001Y-61473747D02*
X133195001Y-61473747D01*
X143355001Y-61473747D02*
X143355001Y-61773565D01*
X143355001Y-61773565D02*
X143355001Y-67401000D01*
X143355001Y-67401000D02*
X133195001Y-67401000D01*
X143355001Y-67401000D02*
X143355001Y-70101000D01*
X143355001Y-70101000D02*
X143355001Y-70401000D01*
X134167002Y-65974024D02*
G75*
G02*
X136808025Y-63333001I1567999J1073024D01*
G01*
X134661977Y-66468998D02*
G75*
G02*
X134167002Y-65974024I1073013J1567991D01*
G01*
X136808025Y-63333001D02*
G75*
G02*
X137302999Y-63827976I-1073017J-1567988D01*
G01*
X137302999Y-63827976D02*
G75*
G02*
X134661977Y-66468998I-1567997J-1073025D01*
G01*
X139247002Y-65974024D02*
G75*
G02*
X141888025Y-63333001I1567999J1073024D01*
G01*
X139741977Y-66468998D02*
G75*
G02*
X139247003Y-65974024I1073024J1567998D01*
G01*
X141888025Y-63333001D02*
G75*
G02*
X142383000Y-63827976I-1073024J-1567999D01*
G01*
X142382999Y-63827976D02*
G75*
G02*
X139741977Y-66468998I-1567998J-1073024D01*
G01*
X137735001Y-64901000D02*
G75*
G02*
X133735001Y-64901000I-2000000J0D01*
G01*
X133735001Y-64901000D02*
G75*
G02*
X137735001Y-64901000I2000000J0D01*
G01*
X138733258Y-63201000D02*
G75*
G02*
X137816744Y-63201000I-458257J0D01*
G01*
X137816744Y-63201000D02*
G75*
G02*
X138733258Y-63201000I458257J0D01*
G01*
X142815001Y-64901000D02*
G75*
G02*
X138815001Y-64901000I-2000000J0D01*
G01*
X138815001Y-64901000D02*
G75*
G02*
X142815001Y-64901000I2000000J0D01*
G01*
%TO.C,J1*%
X72410000Y-64456959D02*
X72410000Y-63743040D01*
X72410000Y-64456959D02*
X72672974Y-64456959D01*
X72672974Y-63743040D02*
X72410000Y-63743040D01*
X72672974Y-64456959D02*
X72851309Y-64307000D01*
X72851309Y-63893000D02*
X72672974Y-63743040D01*
X72851309Y-64307000D02*
X72980000Y-64307000D01*
X72980000Y-55068520D02*
X72980000Y-54800000D01*
X72980000Y-55866617D02*
X72980000Y-55068520D01*
X72980000Y-55866617D02*
X72980000Y-56796508D01*
X72980000Y-55866617D02*
X83140000Y-55866617D01*
X72980000Y-57072747D02*
X72980000Y-56796508D01*
X72980000Y-57372565D02*
X72980000Y-57072747D01*
X72980000Y-63000000D02*
X72980000Y-57372565D01*
X72980000Y-63893000D02*
X72851309Y-63893000D01*
X72980000Y-63893000D02*
X72980000Y-63000000D01*
X72980000Y-64307000D02*
X72980000Y-63893000D01*
X72980000Y-65700000D02*
X72980000Y-64307000D01*
X72980000Y-66000000D02*
X72980000Y-65700000D01*
X72980000Y-66000000D02*
X83140000Y-66000000D01*
X74446976Y-62067998D02*
X77087998Y-59426976D01*
X75520000Y-58300000D02*
X75520000Y-62700000D01*
X76593024Y-58932001D02*
X73952001Y-61573024D01*
X77720000Y-60500000D02*
X73320000Y-60500000D01*
X79526976Y-62067998D02*
X82167998Y-59426976D01*
X80600000Y-58300000D02*
X80600000Y-62700000D01*
X81673024Y-58932001D02*
X79032001Y-61573024D01*
X82800000Y-60500000D02*
X78400000Y-60500000D01*
X83140000Y-54800000D02*
X72980000Y-54800000D01*
X83140000Y-54800000D02*
X83140000Y-55068520D01*
X83140000Y-55068520D02*
X83140000Y-55866617D01*
X83140000Y-56796508D02*
X83140000Y-55866617D01*
X83140000Y-56796508D02*
X83140000Y-57072747D01*
X83140000Y-57072747D02*
X72980000Y-57072747D01*
X83140000Y-57072747D02*
X83140000Y-57372565D01*
X83140000Y-57372565D02*
X83140000Y-63000000D01*
X83140000Y-63000000D02*
X72980000Y-63000000D01*
X83140000Y-63000000D02*
X83140000Y-65700000D01*
X83140000Y-65700000D02*
X83140000Y-66000000D01*
X73952001Y-61573024D02*
G75*
G02*
X76593024Y-58932001I1567999J1073024D01*
G01*
X74446976Y-62067998D02*
G75*
G02*
X73952001Y-61573024I1073013J1567991D01*
G01*
X76593024Y-58932001D02*
G75*
G02*
X77087998Y-59426976I-1073017J-1567988D01*
G01*
X77087998Y-59426976D02*
G75*
G02*
X74446976Y-62067998I-1567997J-1073025D01*
G01*
X79032001Y-61573024D02*
G75*
G02*
X81673024Y-58932001I1567999J1073024D01*
G01*
X79526976Y-62067998D02*
G75*
G02*
X79032002Y-61573024I1073024J1567998D01*
G01*
X81673024Y-58932001D02*
G75*
G02*
X82167999Y-59426976I-1073024J-1567999D01*
G01*
X82167998Y-59426976D02*
G75*
G02*
X79526976Y-62067998I-1567998J-1073024D01*
G01*
X77520000Y-60500000D02*
G75*
G02*
X73520000Y-60500000I-2000000J0D01*
G01*
X73520000Y-60500000D02*
G75*
G02*
X77520000Y-60500000I2000000J0D01*
G01*
X78518257Y-58800000D02*
G75*
G02*
X77601743Y-58800000I-458257J0D01*
G01*
X77601743Y-58800000D02*
G75*
G02*
X78518257Y-58800000I458257J0D01*
G01*
X82600000Y-60500000D02*
G75*
G02*
X78600000Y-60500000I-2000000J0D01*
G01*
X78600000Y-60500000D02*
G75*
G02*
X82600000Y-60500000I2000000J0D01*
G01*
%TO.C,J3*%
X70230011Y-131956952D02*
X70230011Y-131243033D01*
X70230011Y-131956952D02*
X70492985Y-131956952D01*
X70492985Y-131243033D02*
X70230011Y-131243033D01*
X70492985Y-131956952D02*
X70671320Y-131806993D01*
X70671320Y-131392993D02*
X70492985Y-131243033D01*
X70671320Y-131806993D02*
X70800011Y-131806993D01*
X70800011Y-122568513D02*
X70800011Y-122299993D01*
X70800011Y-123366610D02*
X70800011Y-122568513D01*
X70800011Y-123366610D02*
X70800011Y-124296501D01*
X70800011Y-123366610D02*
X86040011Y-123366610D01*
X70800011Y-124572740D02*
X70800011Y-124296501D01*
X70800011Y-124872558D02*
X70800011Y-124572740D01*
X70800011Y-130499993D02*
X70800011Y-124872558D01*
X70800011Y-131392993D02*
X70671320Y-131392993D01*
X70800011Y-131392993D02*
X70800011Y-130499993D01*
X70800011Y-131806993D02*
X70800011Y-131392993D01*
X70800011Y-133199993D02*
X70800011Y-131806993D01*
X70800011Y-133499993D02*
X70800011Y-133199993D01*
X70800011Y-133499993D02*
X86040011Y-133499993D01*
X72266987Y-129567991D02*
X74908009Y-126926969D01*
X73340011Y-125799993D02*
X73340011Y-130199993D01*
X74413035Y-126431994D02*
X71772012Y-129073017D01*
X75540011Y-127999993D02*
X71140011Y-127999993D01*
X77346987Y-129567991D02*
X79988009Y-126926969D01*
X78420011Y-125799993D02*
X78420011Y-130199993D01*
X79493035Y-126431994D02*
X76852012Y-129073017D01*
X80620011Y-127999993D02*
X76220011Y-127999993D01*
X82426987Y-129567991D02*
X85068009Y-126926969D01*
X83500011Y-125799993D02*
X83500011Y-130199993D01*
X84573035Y-126431994D02*
X81932012Y-129073017D01*
X85700011Y-127999993D02*
X81300011Y-127999993D01*
X86040011Y-122299993D02*
X70800011Y-122299993D01*
X86040011Y-122299993D02*
X86040011Y-122568513D01*
X86040011Y-122568513D02*
X86040011Y-123366610D01*
X86040011Y-124296501D02*
X86040011Y-123366610D01*
X86040011Y-124296501D02*
X86040011Y-124572740D01*
X86040011Y-124572740D02*
X70800011Y-124572740D01*
X86040011Y-124572740D02*
X86040011Y-124872558D01*
X86040011Y-124872558D02*
X86040011Y-130499993D01*
X86040011Y-130499993D02*
X70800011Y-130499993D01*
X86040011Y-130499993D02*
X86040011Y-133199993D01*
X86040011Y-133199993D02*
X86040011Y-133499993D01*
X71772012Y-129073017D02*
G75*
G02*
X74413035Y-126431994I1567999J1073024D01*
G01*
X72266987Y-129567991D02*
G75*
G02*
X71772012Y-129073017I1073013J1567991D01*
G01*
X74413035Y-126431994D02*
G75*
G02*
X74908009Y-126926969I-1073017J-1567988D01*
G01*
X74908009Y-126926969D02*
G75*
G02*
X72266987Y-129567991I-1567997J-1073025D01*
G01*
X76852012Y-129073017D02*
G75*
G02*
X79493035Y-126431994I1567999J1073024D01*
G01*
X77346987Y-129567991D02*
G75*
G02*
X76852012Y-129073017I1073013J1567991D01*
G01*
X79493035Y-126431994D02*
G75*
G02*
X79988009Y-126926969I-1073015J-1567986D01*
G01*
X79988009Y-126926969D02*
G75*
G02*
X77346987Y-129567991I-1567997J-1073025D01*
G01*
X81932012Y-129073017D02*
G75*
G02*
X84573035Y-126431994I1567999J1073024D01*
G01*
X82426987Y-129567991D02*
G75*
G02*
X81932012Y-129073017I1073013J1567991D01*
G01*
X84573035Y-126431994D02*
G75*
G02*
X85068009Y-126926969I-1073035J-1568006D01*
G01*
X85068009Y-126926969D02*
G75*
G02*
X82426987Y-129567991I-1567997J-1073025D01*
G01*
X75340011Y-127999993D02*
G75*
G02*
X71340011Y-127999993I-2000000J0D01*
G01*
X71340011Y-127999993D02*
G75*
G02*
X75340011Y-127999993I2000000J0D01*
G01*
X76338268Y-126299993D02*
G75*
G02*
X75421754Y-126299993I-458257J0D01*
G01*
X75421754Y-126299993D02*
G75*
G02*
X76338268Y-126299993I458257J0D01*
G01*
X80420011Y-127999993D02*
G75*
G02*
X76420011Y-127999993I-2000000J0D01*
G01*
X76420011Y-127999993D02*
G75*
G02*
X80420011Y-127999993I2000000J0D01*
G01*
X81418268Y-126299993D02*
G75*
G02*
X80501754Y-126299993I-458257J0D01*
G01*
X80501754Y-126299993D02*
G75*
G02*
X81418268Y-126299993I458257J0D01*
G01*
X85500011Y-127999993D02*
G75*
G02*
X81500011Y-127999993I-2000000J0D01*
G01*
X81500011Y-127999993D02*
G75*
G02*
X85500011Y-127999993I2000000J0D01*
G01*
%TD*%
M02*
