%TF.GenerationSoftware,KiCad,Pcbnew,9.0.7-9.0.7~ubuntu24.04.1*%
%TF.CreationDate,2026-03-19T22:11:49+01:00*%
%TF.ProjectId,Schalter-Karte_HW,53636861-6c74-4657-922d-4b617274655f,rev?*%
%TF.SameCoordinates,Original*%
%TF.FileFunction,Legend,Top*%
%TF.FilePolarity,Positive*%
%FSLAX46Y46*%
G04 Gerber Fmt 4.6, Leading zero omitted, Abs format (unit mm)*
G04 Created by KiCad (PCBNEW 9.0.7-9.0.7~ubuntu24.04.1) date 2026-03-19 22:11:49*
%MOMM*%
%LPD*%
G01*
G04 APERTURE LIST*
%ADD10C,0.100000*%
%ADD11C,0.150000*%
%ADD12C,0.625000*%
%ADD13C,0.200000*%
%ADD14C,0.127000*%
G04 APERTURE END LIST*
D10*
X84530200Y-102566667D02*
X84482580Y-102709524D01*
X84482580Y-102709524D02*
X84482580Y-102947619D01*
X84482580Y-102947619D02*
X84530200Y-103042857D01*
X84530200Y-103042857D02*
X84577819Y-103090476D01*
X84577819Y-103090476D02*
X84673057Y-103138095D01*
X84673057Y-103138095D02*
X84768295Y-103138095D01*
X84768295Y-103138095D02*
X84863533Y-103090476D01*
X84863533Y-103090476D02*
X84911152Y-103042857D01*
X84911152Y-103042857D02*
X84958771Y-102947619D01*
X84958771Y-102947619D02*
X85006390Y-102757143D01*
X85006390Y-102757143D02*
X85054009Y-102661905D01*
X85054009Y-102661905D02*
X85101628Y-102614286D01*
X85101628Y-102614286D02*
X85196866Y-102566667D01*
X85196866Y-102566667D02*
X85292104Y-102566667D01*
X85292104Y-102566667D02*
X85387342Y-102614286D01*
X85387342Y-102614286D02*
X85434961Y-102661905D01*
X85434961Y-102661905D02*
X85482580Y-102757143D01*
X85482580Y-102757143D02*
X85482580Y-102995238D01*
X85482580Y-102995238D02*
X85434961Y-103138095D01*
X85482580Y-103471429D02*
X84482580Y-103709524D01*
X84482580Y-103709524D02*
X85196866Y-103900000D01*
X85196866Y-103900000D02*
X84482580Y-104090476D01*
X84482580Y-104090476D02*
X85482580Y-104328572D01*
X84482580Y-105233333D02*
X84482580Y-104661905D01*
X84482580Y-104947619D02*
X85482580Y-104947619D01*
X85482580Y-104947619D02*
X85339723Y-104852381D01*
X85339723Y-104852381D02*
X85244485Y-104757143D01*
X85244485Y-104757143D02*
X85196866Y-104661905D01*
D11*
X137921667Y-56735819D02*
X137921667Y-57450104D01*
X137921667Y-57450104D02*
X137874048Y-57592961D01*
X137874048Y-57592961D02*
X137778810Y-57688200D01*
X137778810Y-57688200D02*
X137635953Y-57735819D01*
X137635953Y-57735819D02*
X137540715Y-57735819D01*
X138350239Y-56831057D02*
X138397858Y-56783438D01*
X138397858Y-56783438D02*
X138493096Y-56735819D01*
X138493096Y-56735819D02*
X138731191Y-56735819D01*
X138731191Y-56735819D02*
X138826429Y-56783438D01*
X138826429Y-56783438D02*
X138874048Y-56831057D01*
X138874048Y-56831057D02*
X138921667Y-56926295D01*
X138921667Y-56926295D02*
X138921667Y-57021533D01*
X138921667Y-57021533D02*
X138874048Y-57164390D01*
X138874048Y-57164390D02*
X138302620Y-57735819D01*
X138302620Y-57735819D02*
X138921667Y-57735819D01*
D12*
D11*
X72986009Y-85818333D02*
X72986009Y-86151666D01*
X73509819Y-86151666D02*
X72509819Y-86151666D01*
X72509819Y-86151666D02*
X72509819Y-85675476D01*
X73509819Y-84770714D02*
X73509819Y-85342142D01*
X73509819Y-85056428D02*
X72509819Y-85056428D01*
X72509819Y-85056428D02*
X72652676Y-85151666D01*
X72652676Y-85151666D02*
X72747914Y-85246904D01*
X72747914Y-85246904D02*
X72795533Y-85342142D01*
X77706666Y-52334819D02*
X77706666Y-53049104D01*
X77706666Y-53049104D02*
X77659047Y-53191961D01*
X77659047Y-53191961D02*
X77563809Y-53287200D01*
X77563809Y-53287200D02*
X77420952Y-53334819D01*
X77420952Y-53334819D02*
X77325714Y-53334819D01*
X78706666Y-53334819D02*
X78135238Y-53334819D01*
X78420952Y-53334819D02*
X78420952Y-52334819D01*
X78420952Y-52334819D02*
X78325714Y-52477676D01*
X78325714Y-52477676D02*
X78230476Y-52572914D01*
X78230476Y-52572914D02*
X78135238Y-52620533D01*
D12*
D11*
X78086666Y-119854819D02*
X78086666Y-120569104D01*
X78086666Y-120569104D02*
X78039047Y-120711961D01*
X78039047Y-120711961D02*
X77943809Y-120807200D01*
X77943809Y-120807200D02*
X77800952Y-120854819D01*
X77800952Y-120854819D02*
X77705714Y-120854819D01*
X78467619Y-119854819D02*
X79086666Y-119854819D01*
X79086666Y-119854819D02*
X78753333Y-120235771D01*
X78753333Y-120235771D02*
X78896190Y-120235771D01*
X78896190Y-120235771D02*
X78991428Y-120283390D01*
X78991428Y-120283390D02*
X79039047Y-120331009D01*
X79039047Y-120331009D02*
X79086666Y-120426247D01*
X79086666Y-120426247D02*
X79086666Y-120664342D01*
X79086666Y-120664342D02*
X79039047Y-120759580D01*
X79039047Y-120759580D02*
X78991428Y-120807200D01*
X78991428Y-120807200D02*
X78896190Y-120854819D01*
X78896190Y-120854819D02*
X78610476Y-120854819D01*
X78610476Y-120854819D02*
X78515238Y-120807200D01*
X78515238Y-120807200D02*
X78467619Y-120759580D01*
%TO.C,SW1*%
D10*
X83740000Y-93900000D02*
X72740000Y-93900000D01*
X72740000Y-113900000D01*
X83740000Y-113900000D01*
X83740000Y-93900000D01*
D13*
%TO.C,J2*%
X132605000Y-68857958D02*
X132605000Y-68144039D01*
X132605000Y-68857958D02*
X132867974Y-68857958D01*
X132867974Y-68144039D02*
X132605000Y-68144039D01*
X132867974Y-68857958D02*
X133046309Y-68707999D01*
X133046309Y-68293999D02*
X132867974Y-68144039D01*
X133046309Y-68707999D02*
X133175000Y-68707999D01*
X133175000Y-59469519D02*
X133175000Y-59200999D01*
X133175000Y-60267616D02*
X133175000Y-59469519D01*
X133175000Y-60267616D02*
X133175000Y-61197507D01*
X133175000Y-61473746D02*
X133175000Y-61197507D01*
X133175000Y-61773564D02*
X133175000Y-61473746D01*
X133175000Y-67400999D02*
X133175000Y-61773564D01*
X133175000Y-68293999D02*
X133046309Y-68293999D01*
X133175000Y-68293999D02*
X133175000Y-67400999D01*
X133175000Y-68707999D02*
X133175000Y-68293999D01*
X133175000Y-70100999D02*
X133175000Y-68707999D01*
X133175000Y-70400999D02*
X133175000Y-70100999D01*
X133175000Y-70400999D02*
X143335000Y-70400999D01*
X143335000Y-59200999D02*
X133175000Y-59200999D01*
X143335000Y-59200999D02*
X143335000Y-59469519D01*
X143335000Y-59469519D02*
X143335000Y-60267616D01*
X143335000Y-61197507D02*
X143335000Y-60267616D01*
X143335000Y-61197507D02*
X143335000Y-61473746D01*
X143335000Y-61473746D02*
X143335000Y-61773564D01*
X143335000Y-61773564D02*
X143335000Y-67400999D01*
X143335000Y-67400999D02*
X143335000Y-70100999D01*
X143335000Y-70100999D02*
X143335000Y-70400999D01*
D14*
%TO.C,F1*%
X74135000Y-68595000D02*
X74135000Y-88405000D01*
X74135000Y-88405000D02*
X80865000Y-88405000D01*
X80865000Y-68595000D02*
X74135000Y-68595000D01*
X80865000Y-88405000D02*
X80865000Y-68595000D01*
D13*
%TO.C,J1*%
X72389999Y-64456958D02*
X72389999Y-63743039D01*
X72389999Y-64456958D02*
X72652973Y-64456958D01*
X72652973Y-63743039D02*
X72389999Y-63743039D01*
X72652973Y-64456958D02*
X72831308Y-64306999D01*
X72831308Y-63892999D02*
X72652973Y-63743039D01*
X72831308Y-64306999D02*
X72959999Y-64306999D01*
X72959999Y-55068519D02*
X72959999Y-54799999D01*
X72959999Y-55866616D02*
X72959999Y-55068519D01*
X72959999Y-55866616D02*
X72959999Y-56796507D01*
X72959999Y-57072746D02*
X72959999Y-56796507D01*
X72959999Y-57372564D02*
X72959999Y-57072746D01*
X72959999Y-62999999D02*
X72959999Y-57372564D01*
X72959999Y-63892999D02*
X72831308Y-63892999D01*
X72959999Y-63892999D02*
X72959999Y-62999999D01*
X72959999Y-64306999D02*
X72959999Y-63892999D01*
X72959999Y-65699999D02*
X72959999Y-64306999D01*
X72959999Y-65999999D02*
X72959999Y-65699999D01*
X72959999Y-65999999D02*
X83119999Y-65999999D01*
X83119999Y-54799999D02*
X72959999Y-54799999D01*
X83119999Y-54799999D02*
X83119999Y-55068519D01*
X83119999Y-55068519D02*
X83119999Y-55866616D01*
X83119999Y-56796507D02*
X83119999Y-55866616D01*
X83119999Y-56796507D02*
X83119999Y-57072746D01*
X83119999Y-57072746D02*
X83119999Y-57372564D01*
X83119999Y-57372564D02*
X83119999Y-62999999D01*
X83119999Y-62999999D02*
X83119999Y-65699999D01*
X83119999Y-65699999D02*
X83119999Y-65999999D01*
%TO.C,J3*%
X70230011Y-131956952D02*
X70230011Y-131243033D01*
X70230011Y-131956952D02*
X70492985Y-131956952D01*
X70492985Y-131243033D02*
X70230011Y-131243033D01*
X70492985Y-131956952D02*
X70671320Y-131806993D01*
X70671320Y-131392993D02*
X70492985Y-131243033D01*
X70671320Y-131806993D02*
X70800011Y-131806993D01*
X70800011Y-122568513D02*
X70800011Y-122299993D01*
X70800011Y-123366610D02*
X70800011Y-122568513D01*
X70800011Y-123366610D02*
X70800011Y-124296501D01*
X70800011Y-124572740D02*
X70800011Y-124296501D01*
X70800011Y-124872558D02*
X70800011Y-124572740D01*
X70800011Y-130499993D02*
X70800011Y-124872558D01*
X70800011Y-131392993D02*
X70671320Y-131392993D01*
X70800011Y-131392993D02*
X70800011Y-130499993D01*
X70800011Y-131806993D02*
X70800011Y-131392993D01*
X70800011Y-133199993D02*
X70800011Y-131806993D01*
X70800011Y-133499993D02*
X70800011Y-133199993D01*
X70800011Y-133499993D02*
X86040011Y-133499993D01*
X86040011Y-122299993D02*
X70800011Y-122299993D01*
X86040011Y-122299993D02*
X86040011Y-122568513D01*
X86040011Y-122568513D02*
X86040011Y-123366610D01*
X86040011Y-124296501D02*
X86040011Y-123366610D01*
X86040011Y-124296501D02*
X86040011Y-124572740D01*
X86040011Y-124572740D02*
X86040011Y-124872558D01*
X86040011Y-124872558D02*
X86040011Y-130499993D01*
X86040011Y-130499993D02*
X86040011Y-133199993D01*
X86040011Y-133199993D02*
X86040011Y-133499993D01*
%TD*%
M02*
