%TF.GenerationSoftware,KiCad,Pcbnew,9.0.8-9.0.8~ubuntu24.04.1*%
%TF.CreationDate,2026-03-23T12:08:01+01:00*%
%TF.ProjectId,Schalter-Karte_HW,53636861-6c74-4657-922d-4b617274655f,V1.0*%
%TF.SameCoordinates,Original*%
%TF.FileFunction,Legend,Bot*%
%TF.FilePolarity,Positive*%
%FSLAX46Y46*%
G04 Gerber Fmt 4.6, Leading zero omitted, Abs format (unit mm)*
G04 Created by KiCad (PCBNEW 9.0.8-9.0.8~ubuntu24.04.1) date 2026-03-23 12:08:01*
%MOMM*%
%LPD*%
G01*
G04 APERTURE LIST*
%ADD10C,0.100000*%
G04 APERTURE END LIST*
D10*
X85172608Y-76507619D02*
X84172608Y-76507619D01*
X85172608Y-76936190D02*
X84648798Y-76936190D01*
X84648798Y-76936190D02*
X84553560Y-76888571D01*
X84553560Y-76888571D02*
X84505941Y-76793333D01*
X84505941Y-76793333D02*
X84505941Y-76650476D01*
X84505941Y-76650476D02*
X84553560Y-76555238D01*
X84553560Y-76555238D02*
X84601179Y-76507619D01*
X84505941Y-77269524D02*
X84505941Y-77650476D01*
X84172608Y-77412381D02*
X85029750Y-77412381D01*
X85029750Y-77412381D02*
X85124989Y-77460000D01*
X85124989Y-77460000D02*
X85172608Y-77555238D01*
X85172608Y-77555238D02*
X85172608Y-77650476D01*
X84505941Y-77840953D02*
X84505941Y-78221905D01*
X84172608Y-77983810D02*
X85029750Y-77983810D01*
X85029750Y-77983810D02*
X85124989Y-78031429D01*
X85124989Y-78031429D02*
X85172608Y-78126667D01*
X85172608Y-78126667D02*
X85172608Y-78221905D01*
X84505941Y-78555239D02*
X85505941Y-78555239D01*
X84553560Y-78555239D02*
X84505941Y-78650477D01*
X84505941Y-78650477D02*
X84505941Y-78840953D01*
X84505941Y-78840953D02*
X84553560Y-78936191D01*
X84553560Y-78936191D02*
X84601179Y-78983810D01*
X84601179Y-78983810D02*
X84696417Y-79031429D01*
X84696417Y-79031429D02*
X84982131Y-79031429D01*
X84982131Y-79031429D02*
X85077369Y-78983810D01*
X85077369Y-78983810D02*
X85124989Y-78936191D01*
X85124989Y-78936191D02*
X85172608Y-78840953D01*
X85172608Y-78840953D02*
X85172608Y-78650477D01*
X85172608Y-78650477D02*
X85124989Y-78555239D01*
X85124989Y-79412382D02*
X85172608Y-79507620D01*
X85172608Y-79507620D02*
X85172608Y-79698096D01*
X85172608Y-79698096D02*
X85124989Y-79793334D01*
X85124989Y-79793334D02*
X85029750Y-79840953D01*
X85029750Y-79840953D02*
X84982131Y-79840953D01*
X84982131Y-79840953D02*
X84886893Y-79793334D01*
X84886893Y-79793334D02*
X84839274Y-79698096D01*
X84839274Y-79698096D02*
X84839274Y-79555239D01*
X84839274Y-79555239D02*
X84791655Y-79460001D01*
X84791655Y-79460001D02*
X84696417Y-79412382D01*
X84696417Y-79412382D02*
X84648798Y-79412382D01*
X84648798Y-79412382D02*
X84553560Y-79460001D01*
X84553560Y-79460001D02*
X84505941Y-79555239D01*
X84505941Y-79555239D02*
X84505941Y-79698096D01*
X84505941Y-79698096D02*
X84553560Y-79793334D01*
X85077369Y-80269525D02*
X85124989Y-80317144D01*
X85124989Y-80317144D02*
X85172608Y-80269525D01*
X85172608Y-80269525D02*
X85124989Y-80221906D01*
X85124989Y-80221906D02*
X85077369Y-80269525D01*
X85077369Y-80269525D02*
X85172608Y-80269525D01*
X84553560Y-80269525D02*
X84601179Y-80317144D01*
X84601179Y-80317144D02*
X84648798Y-80269525D01*
X84648798Y-80269525D02*
X84601179Y-80221906D01*
X84601179Y-80221906D02*
X84553560Y-80269525D01*
X84553560Y-80269525D02*
X84648798Y-80269525D01*
X84124989Y-81460000D02*
X85410703Y-80602858D01*
X84124989Y-82507619D02*
X85410703Y-81650477D01*
X84505941Y-83269524D02*
X85315465Y-83269524D01*
X85315465Y-83269524D02*
X85410703Y-83221905D01*
X85410703Y-83221905D02*
X85458322Y-83174286D01*
X85458322Y-83174286D02*
X85505941Y-83079048D01*
X85505941Y-83079048D02*
X85505941Y-82936191D01*
X85505941Y-82936191D02*
X85458322Y-82840953D01*
X85124989Y-83269524D02*
X85172608Y-83174286D01*
X85172608Y-83174286D02*
X85172608Y-82983810D01*
X85172608Y-82983810D02*
X85124989Y-82888572D01*
X85124989Y-82888572D02*
X85077369Y-82840953D01*
X85077369Y-82840953D02*
X84982131Y-82793334D01*
X84982131Y-82793334D02*
X84696417Y-82793334D01*
X84696417Y-82793334D02*
X84601179Y-82840953D01*
X84601179Y-82840953D02*
X84553560Y-82888572D01*
X84553560Y-82888572D02*
X84505941Y-82983810D01*
X84505941Y-82983810D02*
X84505941Y-83174286D01*
X84505941Y-83174286D02*
X84553560Y-83269524D01*
X85172608Y-83745715D02*
X84505941Y-83745715D01*
X84172608Y-83745715D02*
X84220227Y-83698096D01*
X84220227Y-83698096D02*
X84267846Y-83745715D01*
X84267846Y-83745715D02*
X84220227Y-83793334D01*
X84220227Y-83793334D02*
X84172608Y-83745715D01*
X84172608Y-83745715D02*
X84267846Y-83745715D01*
X84505941Y-84079048D02*
X84505941Y-84460000D01*
X84172608Y-84221905D02*
X85029750Y-84221905D01*
X85029750Y-84221905D02*
X85124989Y-84269524D01*
X85124989Y-84269524D02*
X85172608Y-84364762D01*
X85172608Y-84364762D02*
X85172608Y-84460000D01*
X85172608Y-84793334D02*
X84172608Y-84793334D01*
X85172608Y-85221905D02*
X84648798Y-85221905D01*
X84648798Y-85221905D02*
X84553560Y-85174286D01*
X84553560Y-85174286D02*
X84505941Y-85079048D01*
X84505941Y-85079048D02*
X84505941Y-84936191D01*
X84505941Y-84936191D02*
X84553560Y-84840953D01*
X84553560Y-84840953D02*
X84601179Y-84793334D01*
X84505941Y-86126667D02*
X85172608Y-86126667D01*
X84505941Y-85698096D02*
X85029750Y-85698096D01*
X85029750Y-85698096D02*
X85124989Y-85745715D01*
X85124989Y-85745715D02*
X85172608Y-85840953D01*
X85172608Y-85840953D02*
X85172608Y-85983810D01*
X85172608Y-85983810D02*
X85124989Y-86079048D01*
X85124989Y-86079048D02*
X85077369Y-86126667D01*
X85172608Y-86602858D02*
X84172608Y-86602858D01*
X84553560Y-86602858D02*
X84505941Y-86698096D01*
X84505941Y-86698096D02*
X84505941Y-86888572D01*
X84505941Y-86888572D02*
X84553560Y-86983810D01*
X84553560Y-86983810D02*
X84601179Y-87031429D01*
X84601179Y-87031429D02*
X84696417Y-87079048D01*
X84696417Y-87079048D02*
X84982131Y-87079048D01*
X84982131Y-87079048D02*
X85077369Y-87031429D01*
X85077369Y-87031429D02*
X85124989Y-86983810D01*
X85124989Y-86983810D02*
X85172608Y-86888572D01*
X85172608Y-86888572D02*
X85172608Y-86698096D01*
X85172608Y-86698096D02*
X85124989Y-86602858D01*
X85077369Y-87507620D02*
X85124989Y-87555239D01*
X85124989Y-87555239D02*
X85172608Y-87507620D01*
X85172608Y-87507620D02*
X85124989Y-87460001D01*
X85124989Y-87460001D02*
X85077369Y-87507620D01*
X85077369Y-87507620D02*
X85172608Y-87507620D01*
X85124989Y-88412381D02*
X85172608Y-88317143D01*
X85172608Y-88317143D02*
X85172608Y-88126667D01*
X85172608Y-88126667D02*
X85124989Y-88031429D01*
X85124989Y-88031429D02*
X85077369Y-87983810D01*
X85077369Y-87983810D02*
X84982131Y-87936191D01*
X84982131Y-87936191D02*
X84696417Y-87936191D01*
X84696417Y-87936191D02*
X84601179Y-87983810D01*
X84601179Y-87983810D02*
X84553560Y-88031429D01*
X84553560Y-88031429D02*
X84505941Y-88126667D01*
X84505941Y-88126667D02*
X84505941Y-88317143D01*
X84505941Y-88317143D02*
X84553560Y-88412381D01*
X85172608Y-88983810D02*
X85124989Y-88888572D01*
X85124989Y-88888572D02*
X85077369Y-88840953D01*
X85077369Y-88840953D02*
X84982131Y-88793334D01*
X84982131Y-88793334D02*
X84696417Y-88793334D01*
X84696417Y-88793334D02*
X84601179Y-88840953D01*
X84601179Y-88840953D02*
X84553560Y-88888572D01*
X84553560Y-88888572D02*
X84505941Y-88983810D01*
X84505941Y-88983810D02*
X84505941Y-89126667D01*
X84505941Y-89126667D02*
X84553560Y-89221905D01*
X84553560Y-89221905D02*
X84601179Y-89269524D01*
X84601179Y-89269524D02*
X84696417Y-89317143D01*
X84696417Y-89317143D02*
X84982131Y-89317143D01*
X84982131Y-89317143D02*
X85077369Y-89269524D01*
X85077369Y-89269524D02*
X85124989Y-89221905D01*
X85124989Y-89221905D02*
X85172608Y-89126667D01*
X85172608Y-89126667D02*
X85172608Y-88983810D01*
X85172608Y-89745715D02*
X84505941Y-89745715D01*
X84601179Y-89745715D02*
X84553560Y-89793334D01*
X84553560Y-89793334D02*
X84505941Y-89888572D01*
X84505941Y-89888572D02*
X84505941Y-90031429D01*
X84505941Y-90031429D02*
X84553560Y-90126667D01*
X84553560Y-90126667D02*
X84648798Y-90174286D01*
X84648798Y-90174286D02*
X85172608Y-90174286D01*
X84648798Y-90174286D02*
X84553560Y-90221905D01*
X84553560Y-90221905D02*
X84505941Y-90317143D01*
X84505941Y-90317143D02*
X84505941Y-90460000D01*
X84505941Y-90460000D02*
X84553560Y-90555239D01*
X84553560Y-90555239D02*
X84648798Y-90602858D01*
X84648798Y-90602858D02*
X85172608Y-90602858D01*
X84124989Y-91793333D02*
X85410703Y-90936191D01*
X84505941Y-92126667D02*
X85505941Y-92126667D01*
X84553560Y-92126667D02*
X84505941Y-92221905D01*
X84505941Y-92221905D02*
X84505941Y-92412381D01*
X84505941Y-92412381D02*
X84553560Y-92507619D01*
X84553560Y-92507619D02*
X84601179Y-92555238D01*
X84601179Y-92555238D02*
X84696417Y-92602857D01*
X84696417Y-92602857D02*
X84982131Y-92602857D01*
X84982131Y-92602857D02*
X85077369Y-92555238D01*
X85077369Y-92555238D02*
X85124989Y-92507619D01*
X85124989Y-92507619D02*
X85172608Y-92412381D01*
X85172608Y-92412381D02*
X85172608Y-92221905D01*
X85172608Y-92221905D02*
X85124989Y-92126667D01*
X85124989Y-93412381D02*
X85172608Y-93317143D01*
X85172608Y-93317143D02*
X85172608Y-93126667D01*
X85172608Y-93126667D02*
X85124989Y-93031429D01*
X85124989Y-93031429D02*
X85029750Y-92983810D01*
X85029750Y-92983810D02*
X84648798Y-92983810D01*
X84648798Y-92983810D02*
X84553560Y-93031429D01*
X84553560Y-93031429D02*
X84505941Y-93126667D01*
X84505941Y-93126667D02*
X84505941Y-93317143D01*
X84505941Y-93317143D02*
X84553560Y-93412381D01*
X84553560Y-93412381D02*
X84648798Y-93460000D01*
X84648798Y-93460000D02*
X84744036Y-93460000D01*
X84744036Y-93460000D02*
X84839274Y-92983810D01*
X85172608Y-94031429D02*
X85124989Y-93936191D01*
X85124989Y-93936191D02*
X85029750Y-93888572D01*
X85029750Y-93888572D02*
X84172608Y-93888572D01*
X85172608Y-94555239D02*
X85124989Y-94460001D01*
X85124989Y-94460001D02*
X85029750Y-94412382D01*
X85029750Y-94412382D02*
X84172608Y-94412382D01*
X85124989Y-95317144D02*
X85172608Y-95221906D01*
X85172608Y-95221906D02*
X85172608Y-95031430D01*
X85172608Y-95031430D02*
X85124989Y-94936192D01*
X85124989Y-94936192D02*
X85029750Y-94888573D01*
X85029750Y-94888573D02*
X84648798Y-94888573D01*
X84648798Y-94888573D02*
X84553560Y-94936192D01*
X84553560Y-94936192D02*
X84505941Y-95031430D01*
X84505941Y-95031430D02*
X84505941Y-95221906D01*
X84505941Y-95221906D02*
X84553560Y-95317144D01*
X84553560Y-95317144D02*
X84648798Y-95364763D01*
X84648798Y-95364763D02*
X84744036Y-95364763D01*
X84744036Y-95364763D02*
X84839274Y-94888573D01*
X85172608Y-95793335D02*
X84505941Y-95793335D01*
X84601179Y-95793335D02*
X84553560Y-95840954D01*
X84553560Y-95840954D02*
X84505941Y-95936192D01*
X84505941Y-95936192D02*
X84505941Y-96079049D01*
X84505941Y-96079049D02*
X84553560Y-96174287D01*
X84553560Y-96174287D02*
X84648798Y-96221906D01*
X84648798Y-96221906D02*
X85172608Y-96221906D01*
X84648798Y-96221906D02*
X84553560Y-96269525D01*
X84553560Y-96269525D02*
X84505941Y-96364763D01*
X84505941Y-96364763D02*
X84505941Y-96507620D01*
X84505941Y-96507620D02*
X84553560Y-96602859D01*
X84553560Y-96602859D02*
X84648798Y-96650478D01*
X84648798Y-96650478D02*
X85172608Y-96650478D01*
X85172608Y-97555239D02*
X84648798Y-97555239D01*
X84648798Y-97555239D02*
X84553560Y-97507620D01*
X84553560Y-97507620D02*
X84505941Y-97412382D01*
X84505941Y-97412382D02*
X84505941Y-97221906D01*
X84505941Y-97221906D02*
X84553560Y-97126668D01*
X85124989Y-97555239D02*
X85172608Y-97460001D01*
X85172608Y-97460001D02*
X85172608Y-97221906D01*
X85172608Y-97221906D02*
X85124989Y-97126668D01*
X85124989Y-97126668D02*
X85029750Y-97079049D01*
X85029750Y-97079049D02*
X84934512Y-97079049D01*
X84934512Y-97079049D02*
X84839274Y-97126668D01*
X84839274Y-97126668D02*
X84791655Y-97221906D01*
X84791655Y-97221906D02*
X84791655Y-97460001D01*
X84791655Y-97460001D02*
X84744036Y-97555239D01*
X84505941Y-97888573D02*
X84505941Y-98269525D01*
X84172608Y-98031430D02*
X85029750Y-98031430D01*
X85029750Y-98031430D02*
X85124989Y-98079049D01*
X85124989Y-98079049D02*
X85172608Y-98174287D01*
X85172608Y-98174287D02*
X85172608Y-98269525D01*
X85172608Y-98602859D02*
X84505941Y-98602859D01*
X84696417Y-98602859D02*
X84601179Y-98650478D01*
X84601179Y-98650478D02*
X84553560Y-98698097D01*
X84553560Y-98698097D02*
X84505941Y-98793335D01*
X84505941Y-98793335D02*
X84505941Y-98888573D01*
X85172608Y-99364764D02*
X85124989Y-99269526D01*
X85124989Y-99269526D02*
X85077369Y-99221907D01*
X85077369Y-99221907D02*
X84982131Y-99174288D01*
X84982131Y-99174288D02*
X84696417Y-99174288D01*
X84696417Y-99174288D02*
X84601179Y-99221907D01*
X84601179Y-99221907D02*
X84553560Y-99269526D01*
X84553560Y-99269526D02*
X84505941Y-99364764D01*
X84505941Y-99364764D02*
X84505941Y-99507621D01*
X84505941Y-99507621D02*
X84553560Y-99602859D01*
X84553560Y-99602859D02*
X84601179Y-99650478D01*
X84601179Y-99650478D02*
X84696417Y-99698097D01*
X84696417Y-99698097D02*
X84982131Y-99698097D01*
X84982131Y-99698097D02*
X85077369Y-99650478D01*
X85077369Y-99650478D02*
X85124989Y-99602859D01*
X85124989Y-99602859D02*
X85172608Y-99507621D01*
X85172608Y-99507621D02*
X85172608Y-99364764D01*
X85124989Y-100079050D02*
X85172608Y-100174288D01*
X85172608Y-100174288D02*
X85172608Y-100364764D01*
X85172608Y-100364764D02*
X85124989Y-100460002D01*
X85124989Y-100460002D02*
X85029750Y-100507621D01*
X85029750Y-100507621D02*
X84982131Y-100507621D01*
X84982131Y-100507621D02*
X84886893Y-100460002D01*
X84886893Y-100460002D02*
X84839274Y-100364764D01*
X84839274Y-100364764D02*
X84839274Y-100221907D01*
X84839274Y-100221907D02*
X84791655Y-100126669D01*
X84791655Y-100126669D02*
X84696417Y-100079050D01*
X84696417Y-100079050D02*
X84648798Y-100079050D01*
X84648798Y-100079050D02*
X84553560Y-100126669D01*
X84553560Y-100126669D02*
X84505941Y-100221907D01*
X84505941Y-100221907D02*
X84505941Y-100364764D01*
X84505941Y-100364764D02*
X84553560Y-100460002D01*
X85124989Y-101317145D02*
X85172608Y-101221907D01*
X85172608Y-101221907D02*
X85172608Y-101031431D01*
X85172608Y-101031431D02*
X85124989Y-100936193D01*
X85124989Y-100936193D02*
X85029750Y-100888574D01*
X85029750Y-100888574D02*
X84648798Y-100888574D01*
X84648798Y-100888574D02*
X84553560Y-100936193D01*
X84553560Y-100936193D02*
X84505941Y-101031431D01*
X84505941Y-101031431D02*
X84505941Y-101221907D01*
X84505941Y-101221907D02*
X84553560Y-101317145D01*
X84553560Y-101317145D02*
X84648798Y-101364764D01*
X84648798Y-101364764D02*
X84744036Y-101364764D01*
X84744036Y-101364764D02*
X84839274Y-100888574D01*
X84124989Y-102507621D02*
X85410703Y-101650479D01*
X85124989Y-102793336D02*
X85172608Y-102936193D01*
X85172608Y-102936193D02*
X85172608Y-103174288D01*
X85172608Y-103174288D02*
X85124989Y-103269526D01*
X85124989Y-103269526D02*
X85077369Y-103317145D01*
X85077369Y-103317145D02*
X84982131Y-103364764D01*
X84982131Y-103364764D02*
X84886893Y-103364764D01*
X84886893Y-103364764D02*
X84791655Y-103317145D01*
X84791655Y-103317145D02*
X84744036Y-103269526D01*
X84744036Y-103269526D02*
X84696417Y-103174288D01*
X84696417Y-103174288D02*
X84648798Y-102983812D01*
X84648798Y-102983812D02*
X84601179Y-102888574D01*
X84601179Y-102888574D02*
X84553560Y-102840955D01*
X84553560Y-102840955D02*
X84458322Y-102793336D01*
X84458322Y-102793336D02*
X84363084Y-102793336D01*
X84363084Y-102793336D02*
X84267846Y-102840955D01*
X84267846Y-102840955D02*
X84220227Y-102888574D01*
X84220227Y-102888574D02*
X84172608Y-102983812D01*
X84172608Y-102983812D02*
X84172608Y-103221907D01*
X84172608Y-103221907D02*
X84220227Y-103364764D01*
X85124989Y-104221907D02*
X85172608Y-104126669D01*
X85172608Y-104126669D02*
X85172608Y-103936193D01*
X85172608Y-103936193D02*
X85124989Y-103840955D01*
X85124989Y-103840955D02*
X85077369Y-103793336D01*
X85077369Y-103793336D02*
X84982131Y-103745717D01*
X84982131Y-103745717D02*
X84696417Y-103745717D01*
X84696417Y-103745717D02*
X84601179Y-103793336D01*
X84601179Y-103793336D02*
X84553560Y-103840955D01*
X84553560Y-103840955D02*
X84505941Y-103936193D01*
X84505941Y-103936193D02*
X84505941Y-104126669D01*
X84505941Y-104126669D02*
X84553560Y-104221907D01*
X85172608Y-104650479D02*
X84172608Y-104650479D01*
X85172608Y-105079050D02*
X84648798Y-105079050D01*
X84648798Y-105079050D02*
X84553560Y-105031431D01*
X84553560Y-105031431D02*
X84505941Y-104936193D01*
X84505941Y-104936193D02*
X84505941Y-104793336D01*
X84505941Y-104793336D02*
X84553560Y-104698098D01*
X84553560Y-104698098D02*
X84601179Y-104650479D01*
X85172608Y-105983812D02*
X84648798Y-105983812D01*
X84648798Y-105983812D02*
X84553560Y-105936193D01*
X84553560Y-105936193D02*
X84505941Y-105840955D01*
X84505941Y-105840955D02*
X84505941Y-105650479D01*
X84505941Y-105650479D02*
X84553560Y-105555241D01*
X85124989Y-105983812D02*
X85172608Y-105888574D01*
X85172608Y-105888574D02*
X85172608Y-105650479D01*
X85172608Y-105650479D02*
X85124989Y-105555241D01*
X85124989Y-105555241D02*
X85029750Y-105507622D01*
X85029750Y-105507622D02*
X84934512Y-105507622D01*
X84934512Y-105507622D02*
X84839274Y-105555241D01*
X84839274Y-105555241D02*
X84791655Y-105650479D01*
X84791655Y-105650479D02*
X84791655Y-105888574D01*
X84791655Y-105888574D02*
X84744036Y-105983812D01*
X85172608Y-106602860D02*
X85124989Y-106507622D01*
X85124989Y-106507622D02*
X85029750Y-106460003D01*
X85029750Y-106460003D02*
X84172608Y-106460003D01*
X84505941Y-106840956D02*
X84505941Y-107221908D01*
X84172608Y-106983813D02*
X85029750Y-106983813D01*
X85029750Y-106983813D02*
X85124989Y-107031432D01*
X85124989Y-107031432D02*
X85172608Y-107126670D01*
X85172608Y-107126670D02*
X85172608Y-107221908D01*
X85124989Y-107936194D02*
X85172608Y-107840956D01*
X85172608Y-107840956D02*
X85172608Y-107650480D01*
X85172608Y-107650480D02*
X85124989Y-107555242D01*
X85124989Y-107555242D02*
X85029750Y-107507623D01*
X85029750Y-107507623D02*
X84648798Y-107507623D01*
X84648798Y-107507623D02*
X84553560Y-107555242D01*
X84553560Y-107555242D02*
X84505941Y-107650480D01*
X84505941Y-107650480D02*
X84505941Y-107840956D01*
X84505941Y-107840956D02*
X84553560Y-107936194D01*
X84553560Y-107936194D02*
X84648798Y-107983813D01*
X84648798Y-107983813D02*
X84744036Y-107983813D01*
X84744036Y-107983813D02*
X84839274Y-107507623D01*
X85172608Y-108412385D02*
X84505941Y-108412385D01*
X84696417Y-108412385D02*
X84601179Y-108460004D01*
X84601179Y-108460004D02*
X84553560Y-108507623D01*
X84553560Y-108507623D02*
X84505941Y-108602861D01*
X84505941Y-108602861D02*
X84505941Y-108698099D01*
X84791655Y-109031433D02*
X84791655Y-109793338D01*
X85172608Y-110269528D02*
X84172608Y-110269528D01*
X85172608Y-110840956D02*
X84601179Y-110412385D01*
X84172608Y-110840956D02*
X84744036Y-110269528D01*
X85172608Y-111698099D02*
X84648798Y-111698099D01*
X84648798Y-111698099D02*
X84553560Y-111650480D01*
X84553560Y-111650480D02*
X84505941Y-111555242D01*
X84505941Y-111555242D02*
X84505941Y-111364766D01*
X84505941Y-111364766D02*
X84553560Y-111269528D01*
X85124989Y-111698099D02*
X85172608Y-111602861D01*
X85172608Y-111602861D02*
X85172608Y-111364766D01*
X85172608Y-111364766D02*
X85124989Y-111269528D01*
X85124989Y-111269528D02*
X85029750Y-111221909D01*
X85029750Y-111221909D02*
X84934512Y-111221909D01*
X84934512Y-111221909D02*
X84839274Y-111269528D01*
X84839274Y-111269528D02*
X84791655Y-111364766D01*
X84791655Y-111364766D02*
X84791655Y-111602861D01*
X84791655Y-111602861D02*
X84744036Y-111698099D01*
X85172608Y-112174290D02*
X84505941Y-112174290D01*
X84696417Y-112174290D02*
X84601179Y-112221909D01*
X84601179Y-112221909D02*
X84553560Y-112269528D01*
X84553560Y-112269528D02*
X84505941Y-112364766D01*
X84505941Y-112364766D02*
X84505941Y-112460004D01*
X84505941Y-112650481D02*
X84505941Y-113031433D01*
X84172608Y-112793338D02*
X85029750Y-112793338D01*
X85029750Y-112793338D02*
X85124989Y-112840957D01*
X85124989Y-112840957D02*
X85172608Y-112936195D01*
X85172608Y-112936195D02*
X85172608Y-113031433D01*
X85124989Y-113745719D02*
X85172608Y-113650481D01*
X85172608Y-113650481D02*
X85172608Y-113460005D01*
X85172608Y-113460005D02*
X85124989Y-113364767D01*
X85124989Y-113364767D02*
X85029750Y-113317148D01*
X85029750Y-113317148D02*
X84648798Y-113317148D01*
X84648798Y-113317148D02*
X84553560Y-113364767D01*
X84553560Y-113364767D02*
X84505941Y-113460005D01*
X84505941Y-113460005D02*
X84505941Y-113650481D01*
X84505941Y-113650481D02*
X84553560Y-113745719D01*
X84553560Y-113745719D02*
X84648798Y-113793338D01*
X84648798Y-113793338D02*
X84744036Y-113793338D01*
X84744036Y-113793338D02*
X84839274Y-113317148D01*
M02*
