%TF.GenerationSoftware,KiCad,Pcbnew,9.0.7-9.0.7~ubuntu24.04.1*%
%TF.CreationDate,2026-03-20T22:58:57+01:00*%
%TF.ProjectId,Schalter-Karte_HW,53636861-6c74-4657-922d-4b617274655f,V1.0*%
%TF.SameCoordinates,Original*%
%TF.FileFunction,Copper,L1,Top*%
%TF.FilePolarity,Positive*%
%FSLAX46Y46*%
G04 Gerber Fmt 4.6, Leading zero omitted, Abs format (unit mm)*
G04 Created by KiCad (PCBNEW 9.0.7-9.0.7~ubuntu24.04.1) date 2026-03-20 22:58:57*
%MOMM*%
%LPD*%
G01*
G04 APERTURE LIST*
%TA.AperFunction,ComponentPad*%
%ADD10C,3.000000*%
%TD*%
%TA.AperFunction,ComponentPad*%
%ADD11C,2.400000*%
%TD*%
%TA.AperFunction,ComponentPad*%
%ADD12C,2.500000*%
%TD*%
%TA.AperFunction,ComponentPad*%
%ADD13R,3.000000X3.000000*%
%TD*%
%TA.AperFunction,Conductor*%
%ADD14C,2.000000*%
%TD*%
G04 APERTURE END LIST*
D10*
%TO.P,SW1,1,A*%
%TO.N,Net-(J2-Pin_1)*%
X75390000Y-106300000D03*
%TO.P,SW1,2,B*%
%TO.N,+24V_sicher*%
X75390000Y-110900000D03*
%TO.P,SW1,3,C*%
%TO.N,Net-(J2-Pin_3)*%
X75390000Y-115500000D03*
%TO.P,SW1,4,A*%
X81110000Y-115500000D03*
%TO.P,SW1,5,B*%
%TO.N,+24V_sicher*%
X81110000Y-110900000D03*
%TO.P,SW1,6,C*%
%TO.N,Net-(J2-Pin_1)*%
X81110000Y-106300000D03*
%TD*%
D11*
%TO.P,F1,1*%
%TO.N,+24V*%
X79950000Y-82265000D03*
X76550000Y-82265000D03*
%TO.P,F1,2*%
%TO.N,+24V_sicher*%
X79950000Y-95735000D03*
X76550000Y-95735000D03*
%TD*%
D12*
%TO.P,J1,1,Pin_1*%
%TO.N,GND*%
X80790000Y-71500000D03*
%TO.P,J1,2,Pin_2*%
%TO.N,+24V*%
X75710000Y-71500000D03*
%TD*%
D13*
%TO.P,J2,1,Pin_1*%
%TO.N,Net-(J2-Pin_1)*%
X73170000Y-128000000D03*
D10*
%TO.P,J2,2,Pin_2*%
%TO.N,GND*%
X78250000Y-128000000D03*
%TO.P,J2,3,Pin_3*%
%TO.N,Net-(J2-Pin_3)*%
X83330000Y-128000000D03*
%TD*%
D14*
%TO.N,+24V_sicher*%
X78000000Y-110900000D02*
X81110000Y-110900000D01*
X76550000Y-95735000D02*
X79950000Y-95735000D01*
X76550000Y-95735000D02*
X76550000Y-99550000D01*
X78252905Y-101252905D02*
X78252905Y-110647095D01*
X75390000Y-110900000D02*
X78000000Y-110900000D01*
X76550000Y-99550000D02*
X78252905Y-101252905D01*
X78252905Y-110647095D02*
X78000000Y-110900000D01*
%TO.N,+24V*%
X76550000Y-82265000D02*
X79950000Y-82265000D01*
X75710000Y-81425000D02*
X76550000Y-82265000D01*
X75710000Y-71500000D02*
X75710000Y-81425000D01*
%TO.N,GND*%
X78250000Y-123750000D02*
X78250000Y-128000000D01*
X84499000Y-117501000D02*
X78250000Y-123750000D01*
X84499000Y-75209000D02*
X84499000Y-117501000D01*
X80790000Y-71500000D02*
X84499000Y-75209000D01*
%TO.N,Net-(J2-Pin_3)*%
X75390000Y-115500000D02*
X81110000Y-115500000D01*
%TD*%
M02*
