%TF.GenerationSoftware,KiCad,Pcbnew,9.0.7-9.0.7~ubuntu24.04.1*%
%TF.CreationDate,2026-03-20T22:24:45+01:00*%
%TF.ProjectId,Schalter-Karte_HW,53636861-6c74-4657-922d-4b617274655f,V1.0*%
%TF.SameCoordinates,Original*%
%TF.FileFunction,Other,User*%
%FSLAX46Y46*%
G04 Gerber Fmt 4.6, Leading zero omitted, Abs format (unit mm)*
G04 Created by KiCad (PCBNEW 9.0.7-9.0.7~ubuntu24.04.1) date 2026-03-20 22:24:45*
%MOMM*%
%LPD*%
G01*
G04 APERTURE LIST*
%ADD10C,0.150000*%
%ADD11C,0.100000*%
G04 APERTURE END LIST*
D10*
X77345238Y-145304819D02*
X76773810Y-145304819D01*
X77059524Y-145304819D02*
X77059524Y-144304819D01*
X77059524Y-144304819D02*
X76964286Y-144447676D01*
X76964286Y-144447676D02*
X76869048Y-144542914D01*
X76869048Y-144542914D02*
X76773810Y-144590533D01*
X77678572Y-144304819D02*
X78345238Y-144304819D01*
X78345238Y-144304819D02*
X77916667Y-145304819D01*
X78726191Y-145209580D02*
X78773810Y-145257200D01*
X78773810Y-145257200D02*
X78726191Y-145304819D01*
X78726191Y-145304819D02*
X78678572Y-145257200D01*
X78678572Y-145257200D02*
X78726191Y-145209580D01*
X78726191Y-145209580D02*
X78726191Y-145304819D01*
X79678571Y-144304819D02*
X79202381Y-144304819D01*
X79202381Y-144304819D02*
X79154762Y-144781009D01*
X79154762Y-144781009D02*
X79202381Y-144733390D01*
X79202381Y-144733390D02*
X79297619Y-144685771D01*
X79297619Y-144685771D02*
X79535714Y-144685771D01*
X79535714Y-144685771D02*
X79630952Y-144733390D01*
X79630952Y-144733390D02*
X79678571Y-144781009D01*
X79678571Y-144781009D02*
X79726190Y-144876247D01*
X79726190Y-144876247D02*
X79726190Y-145114342D01*
X79726190Y-145114342D02*
X79678571Y-145209580D01*
X79678571Y-145209580D02*
X79630952Y-145257200D01*
X79630952Y-145257200D02*
X79535714Y-145304819D01*
X79535714Y-145304819D02*
X79297619Y-145304819D01*
X79297619Y-145304819D02*
X79202381Y-145257200D01*
X79202381Y-145257200D02*
X79154762Y-145209580D01*
D11*
X69500000Y-140500000D02*
X69500000Y-146586420D01*
X87000000Y-146586420D02*
X87000000Y-140500000D01*
X69500000Y-146000000D02*
X87000000Y-146000000D01*
X69500000Y-146000000D02*
X70626504Y-145413579D01*
X69500000Y-146000000D02*
X70626504Y-146586421D01*
X87000000Y-146000000D02*
X85873496Y-146586421D01*
X87000000Y-146000000D02*
X85873496Y-145413579D01*
D10*
X62233390Y-101035713D02*
X62185771Y-101130951D01*
X62185771Y-101130951D02*
X62138152Y-101178570D01*
X62138152Y-101178570D02*
X62042914Y-101226189D01*
X62042914Y-101226189D02*
X61995295Y-101226189D01*
X61995295Y-101226189D02*
X61900057Y-101178570D01*
X61900057Y-101178570D02*
X61852438Y-101130951D01*
X61852438Y-101130951D02*
X61804819Y-101035713D01*
X61804819Y-101035713D02*
X61804819Y-100845237D01*
X61804819Y-100845237D02*
X61852438Y-100749999D01*
X61852438Y-100749999D02*
X61900057Y-100702380D01*
X61900057Y-100702380D02*
X61995295Y-100654761D01*
X61995295Y-100654761D02*
X62042914Y-100654761D01*
X62042914Y-100654761D02*
X62138152Y-100702380D01*
X62138152Y-100702380D02*
X62185771Y-100749999D01*
X62185771Y-100749999D02*
X62233390Y-100845237D01*
X62233390Y-100845237D02*
X62233390Y-101035713D01*
X62233390Y-101035713D02*
X62281009Y-101130951D01*
X62281009Y-101130951D02*
X62328628Y-101178570D01*
X62328628Y-101178570D02*
X62423866Y-101226189D01*
X62423866Y-101226189D02*
X62614342Y-101226189D01*
X62614342Y-101226189D02*
X62709580Y-101178570D01*
X62709580Y-101178570D02*
X62757200Y-101130951D01*
X62757200Y-101130951D02*
X62804819Y-101035713D01*
X62804819Y-101035713D02*
X62804819Y-100845237D01*
X62804819Y-100845237D02*
X62757200Y-100749999D01*
X62757200Y-100749999D02*
X62709580Y-100702380D01*
X62709580Y-100702380D02*
X62614342Y-100654761D01*
X62614342Y-100654761D02*
X62423866Y-100654761D01*
X62423866Y-100654761D02*
X62328628Y-100702380D01*
X62328628Y-100702380D02*
X62281009Y-100749999D01*
X62281009Y-100749999D02*
X62233390Y-100845237D01*
X61804819Y-100035713D02*
X61804819Y-99940475D01*
X61804819Y-99940475D02*
X61852438Y-99845237D01*
X61852438Y-99845237D02*
X61900057Y-99797618D01*
X61900057Y-99797618D02*
X61995295Y-99749999D01*
X61995295Y-99749999D02*
X62185771Y-99702380D01*
X62185771Y-99702380D02*
X62423866Y-99702380D01*
X62423866Y-99702380D02*
X62614342Y-99749999D01*
X62614342Y-99749999D02*
X62709580Y-99797618D01*
X62709580Y-99797618D02*
X62757200Y-99845237D01*
X62757200Y-99845237D02*
X62804819Y-99940475D01*
X62804819Y-99940475D02*
X62804819Y-100035713D01*
X62804819Y-100035713D02*
X62757200Y-100130951D01*
X62757200Y-100130951D02*
X62709580Y-100178570D01*
X62709580Y-100178570D02*
X62614342Y-100226189D01*
X62614342Y-100226189D02*
X62423866Y-100273808D01*
X62423866Y-100273808D02*
X62185771Y-100273808D01*
X62185771Y-100273808D02*
X61995295Y-100226189D01*
X61995295Y-100226189D02*
X61900057Y-100178570D01*
X61900057Y-100178570D02*
X61852438Y-100130951D01*
X61852438Y-100130951D02*
X61804819Y-100035713D01*
X62709580Y-99273808D02*
X62757200Y-99226189D01*
X62757200Y-99226189D02*
X62804819Y-99273808D01*
X62804819Y-99273808D02*
X62757200Y-99321427D01*
X62757200Y-99321427D02*
X62709580Y-99273808D01*
X62709580Y-99273808D02*
X62804819Y-99273808D01*
X61804819Y-98321428D02*
X61804819Y-98797618D01*
X61804819Y-98797618D02*
X62281009Y-98845237D01*
X62281009Y-98845237D02*
X62233390Y-98797618D01*
X62233390Y-98797618D02*
X62185771Y-98702380D01*
X62185771Y-98702380D02*
X62185771Y-98464285D01*
X62185771Y-98464285D02*
X62233390Y-98369047D01*
X62233390Y-98369047D02*
X62281009Y-98321428D01*
X62281009Y-98321428D02*
X62376247Y-98273809D01*
X62376247Y-98273809D02*
X62614342Y-98273809D01*
X62614342Y-98273809D02*
X62709580Y-98321428D01*
X62709580Y-98321428D02*
X62757200Y-98369047D01*
X62757200Y-98369047D02*
X62804819Y-98464285D01*
X62804819Y-98464285D02*
X62804819Y-98702380D01*
X62804819Y-98702380D02*
X62757200Y-98797618D01*
X62757200Y-98797618D02*
X62709580Y-98845237D01*
D11*
X69000000Y-140000000D02*
X62913580Y-140000000D01*
X62913580Y-59500000D02*
X69000000Y-59500000D01*
X63500000Y-140000000D02*
X63500000Y-59500000D01*
X63500000Y-140000000D02*
X62913579Y-138873496D01*
X63500000Y-140000000D02*
X64086421Y-138873496D01*
X63500000Y-59500000D02*
X64086421Y-60626504D01*
X63500000Y-59500000D02*
X62913579Y-60626504D01*
M02*
