%TF.GenerationSoftware,KiCad,Pcbnew,9.0.7-9.0.7~ubuntu24.04.1*%
%TF.CreationDate,2026-03-20T22:24:45+01:00*%
%TF.ProjectId,Schalter-Karte_HW,53636861-6c74-4657-922d-4b617274655f,V1.0*%
%TF.SameCoordinates,Original*%
%TF.FileFunction,OtherDrawing,Comment*%
%FSLAX46Y46*%
G04 Gerber Fmt 4.6, Leading zero omitted, Abs format (unit mm)*
G04 Created by KiCad (PCBNEW 9.0.7-9.0.7~ubuntu24.04.1) date 2026-03-20 22:24:45*
%MOMM*%
%LPD*%
G01*
G04 APERTURE LIST*
%ADD10C,0.030333*%
%ADD11C,0.200000*%
G04 APERTURE END LIST*
D10*
%TO.C,SW1*%
X72702127Y-105372956D02*
X72702127Y-106954953D01*
X72702127Y-106954953D02*
X72754236Y-106954953D01*
X72702127Y-110145322D02*
X72702127Y-111727319D01*
X72702127Y-111727319D02*
X72754236Y-111727319D01*
X72702127Y-114917684D02*
X72702127Y-116499681D01*
X72702127Y-116499681D02*
X72754236Y-116499681D01*
X72754236Y-101180661D02*
X72754236Y-120691972D01*
X72754236Y-105372956D02*
X72702127Y-105372956D01*
X72754236Y-106954953D02*
X73092889Y-107139524D01*
X72754236Y-110145322D02*
X72702127Y-110145322D01*
X72754236Y-111727316D02*
X73092889Y-111911882D01*
X72754236Y-114917684D02*
X72702127Y-114917684D01*
X72754236Y-116499681D02*
X73092889Y-116684247D01*
X73092889Y-105162026D02*
X73092889Y-107139524D01*
X73092889Y-105162026D02*
X73353387Y-105162026D01*
X73092889Y-107139524D02*
X73353387Y-107139524D01*
X73092889Y-109934388D02*
X73092889Y-111727319D01*
X73092889Y-109934388D02*
X73353387Y-109934388D01*
X73092889Y-111727319D02*
X73405496Y-111727319D01*
X73092889Y-111911882D02*
X73353387Y-111911882D01*
X73092889Y-114706746D02*
X73092889Y-116499681D01*
X73092889Y-114706746D02*
X73353387Y-114706746D01*
X73092889Y-116499681D02*
X73405496Y-116499681D01*
X73092889Y-116684247D02*
X73353387Y-116684247D01*
X73353387Y-101707997D02*
X73353387Y-120164643D01*
X73353387Y-105162026D02*
X73353387Y-105372956D01*
X73353387Y-107139524D02*
X73353387Y-106954953D01*
X73353387Y-109934388D02*
X73353387Y-110145322D01*
X73353387Y-111911882D02*
X73353387Y-111727319D01*
X73353387Y-114706746D02*
X73353387Y-114917684D01*
X73353387Y-116684247D02*
X73353387Y-116499681D01*
X73353387Y-120164643D02*
X83825586Y-120164643D01*
X73405496Y-102195779D02*
X73405496Y-119676858D01*
X73405496Y-105372956D02*
X72754236Y-105372956D01*
X73405496Y-105372956D02*
X73353387Y-105372956D01*
X73405496Y-110145322D02*
X72754236Y-110145322D01*
X73405496Y-110145322D02*
X73353387Y-110145322D01*
X73405496Y-114917684D02*
X72754236Y-114917684D01*
X73405496Y-114917684D02*
X73353387Y-114917684D01*
X73796259Y-120072358D02*
X82783579Y-120072358D01*
X76336145Y-101800279D02*
X73796259Y-101800279D01*
X76336145Y-102182595D02*
X79918054Y-102182595D01*
X76336145Y-102195779D02*
X76336145Y-101800279D01*
X76466394Y-106163957D02*
X79918054Y-106163957D01*
X76466394Y-106776982D02*
X76661768Y-106890748D01*
X76466394Y-111298860D02*
X76505472Y-111298860D01*
X76466394Y-115708680D02*
X76466394Y-106163957D01*
X76505472Y-106249650D02*
X76505472Y-106776982D01*
X76505472Y-106776982D02*
X76466394Y-106776982D01*
X76505472Y-111298860D02*
X76505472Y-111826192D01*
X76505472Y-111826192D02*
X80074350Y-111826192D01*
X76661768Y-106401258D02*
X76661768Y-111674584D01*
X76661768Y-106890748D02*
X80074350Y-106890748D01*
X76661768Y-107742173D02*
X76661768Y-108597009D01*
X76661768Y-107742173D02*
X79918054Y-107742173D01*
X76661768Y-108597009D02*
X79918054Y-108597009D01*
X76661768Y-109478948D02*
X76661768Y-109914857D01*
X76661768Y-109478948D02*
X79918054Y-109478948D01*
X76661768Y-109914857D02*
X79918054Y-109914857D01*
X76661768Y-110333669D02*
X76661768Y-111185094D01*
X76661768Y-110333669D02*
X79918054Y-110333669D01*
X76661768Y-111185094D02*
X80074350Y-111185094D01*
X77729822Y-102182595D02*
X77729822Y-102195779D01*
X77729822Y-115300000D02*
X77729822Y-115708680D01*
X78850000Y-102195779D02*
X78850000Y-102182595D01*
X78850000Y-115300000D02*
X77729822Y-115300000D01*
X78850000Y-115708680D02*
X78850000Y-115300000D01*
X79918054Y-102182595D02*
X79918054Y-102195779D01*
X79918054Y-106163957D02*
X79918054Y-111674584D01*
X79918054Y-106401258D02*
X76661768Y-106401258D01*
X79918054Y-108597009D02*
X79918054Y-109478948D01*
X79918054Y-109914857D02*
X79918054Y-110333669D01*
X79918054Y-111674584D02*
X76661768Y-111674584D01*
X80074350Y-106249650D02*
X76505472Y-106249650D01*
X80074350Y-106249650D02*
X80113428Y-106163957D01*
X80074350Y-106890748D02*
X80074350Y-106249650D01*
X80074350Y-111826192D02*
X80074350Y-111185094D01*
X80113428Y-106163957D02*
X80113428Y-115708680D01*
X80113428Y-115708680D02*
X76466394Y-115708680D01*
X80243677Y-101800279D02*
X80243677Y-102195779D01*
X80243677Y-102195779D02*
X76336145Y-102195779D01*
X82783579Y-101800279D02*
X80243677Y-101800279D01*
X83174326Y-106954953D02*
X83226419Y-106954953D01*
X83174326Y-106954953D02*
X83825586Y-106954953D01*
X83174326Y-111727319D02*
X83226419Y-111727319D01*
X83174326Y-116499681D02*
X83486932Y-116499681D01*
X83174326Y-119676858D02*
X83174326Y-102195779D01*
X83226419Y-101707997D02*
X73353387Y-101707997D01*
X83226419Y-101707997D02*
X83226419Y-120164643D01*
X83226419Y-105162026D02*
X83226419Y-105372956D01*
X83226419Y-105372956D02*
X83174326Y-105372956D01*
X83226419Y-107139524D02*
X83226419Y-106954953D01*
X83226419Y-109934388D02*
X83226419Y-110145322D01*
X83226419Y-110145322D02*
X83174326Y-110145322D01*
X83226419Y-111911882D02*
X83226419Y-111727319D01*
X83226419Y-114706746D02*
X83226419Y-114917684D01*
X83226419Y-114917684D02*
X83174326Y-114917684D01*
X83226419Y-116684247D02*
X83226419Y-116499681D01*
X83486932Y-105162026D02*
X83226419Y-105162026D01*
X83486932Y-105162026D02*
X83486932Y-107139524D01*
X83486932Y-107139524D02*
X83226419Y-107139524D01*
X83486932Y-109934388D02*
X83226419Y-109934388D01*
X83486932Y-109934388D02*
X83486932Y-111727319D01*
X83486932Y-111727319D02*
X83877695Y-111727319D01*
X83486932Y-114706746D02*
X83226419Y-114706746D01*
X83486932Y-114706746D02*
X83486932Y-116499681D01*
X83486932Y-116684247D02*
X83226419Y-116684247D01*
X83565088Y-100916997D02*
X73014749Y-100916997D01*
X83565088Y-120955644D02*
X73014749Y-120955644D01*
X83825586Y-101180661D02*
X83825586Y-101158933D01*
X83825586Y-101180661D02*
X83825586Y-120164643D01*
X83825586Y-105372956D02*
X83486932Y-105162026D01*
X83825586Y-106954953D02*
X83877695Y-106954953D01*
X83825586Y-116499681D02*
X83486932Y-116684247D01*
X83825586Y-116499681D02*
X83877695Y-116499681D01*
X83825586Y-120691972D02*
X83825586Y-120164643D01*
X83877695Y-105372956D02*
X83825586Y-105372956D01*
X83877695Y-106954953D02*
X83877695Y-105372956D01*
X83877695Y-110145322D02*
X83825586Y-110145322D01*
X83877695Y-111911882D02*
X83226419Y-111911882D01*
X83877695Y-111911882D02*
X83877695Y-110145322D01*
X83877695Y-114917684D02*
X83825586Y-114917684D01*
X83877695Y-116499681D02*
X83877695Y-114917684D01*
X72754236Y-120691972D02*
X72754276Y-120696634D01*
X72754395Y-120701285D01*
X72754595Y-120705926D01*
X72754873Y-120710556D01*
X72755231Y-120715173D01*
X72755667Y-120719778D01*
X72756183Y-120724369D01*
X72756777Y-120728946D01*
X72757449Y-120733507D01*
X72758200Y-120738052D01*
X72759029Y-120742580D01*
X72759936Y-120747089D01*
X72760920Y-120751580D01*
X72761982Y-120756052D01*
X72763121Y-120760502D01*
X72764336Y-120764930D01*
X72765629Y-120769336D01*
X72766997Y-120773717D01*
X72768441Y-120778074D01*
X72769961Y-120782405D01*
X72771555Y-120786708D01*
X72773225Y-120790983D01*
X72774968Y-120795229D01*
X72776786Y-120799444D01*
X72778676Y-120803627D01*
X72780640Y-120807777D01*
X72782675Y-120811893D01*
X72784782Y-120815974D01*
X72786961Y-120820018D01*
X72789209Y-120824025D01*
X72791527Y-120827992D01*
X72793915Y-120831919D01*
X72796370Y-120835804D01*
X72798893Y-120839646D01*
X72801483Y-120843445D01*
X72804138Y-120847198D01*
X72806859Y-120850904D01*
X72809643Y-120854563D01*
X72812491Y-120858173D01*
X72815401Y-120861732D01*
X72818372Y-120865240D01*
X72821404Y-120868696D01*
X72824494Y-120872097D01*
X72826062Y-120873778D01*
X72827643Y-120875444D01*
X72829239Y-120877096D01*
X72830849Y-120878735D01*
X72832473Y-120880359D01*
X72834111Y-120881968D01*
X72835762Y-120883563D01*
X72837427Y-120885143D01*
X72839106Y-120886708D01*
X72840797Y-120888259D01*
X72842502Y-120889794D01*
X72844220Y-120891314D01*
X72845951Y-120892819D01*
X72847694Y-120894308D01*
X72849450Y-120895781D01*
X72851218Y-120897239D01*
X72852999Y-120898681D01*
X72854791Y-120900107D01*
X72856596Y-120901517D01*
X72858412Y-120902911D01*
X72860240Y-120904288D01*
X72862079Y-120905649D01*
X72863930Y-120906994D01*
X72865792Y-120908322D01*
X72867664Y-120909632D01*
X72869549Y-120910927D01*
X72871442Y-120912204D01*
X72873348Y-120913465D01*
X72875263Y-120914707D01*
X72877189Y-120915934D01*
X72879124Y-120917142D01*
X72881070Y-120918333D01*
X72883024Y-120919507D01*
X72884990Y-120920663D01*
X72886964Y-120921801D01*
X72888948Y-120922922D01*
X72890940Y-120924025D01*
X72892943Y-120925110D01*
X72894953Y-120926177D01*
X72896973Y-120927226D01*
X72899000Y-120928256D01*
X72901037Y-120929269D01*
X72903081Y-120930263D01*
X72905134Y-120931239D01*
X72907194Y-120932197D01*
X72909263Y-120933136D01*
X72911338Y-120934056D01*
X72913423Y-120934959D01*
X72915513Y-120935842D01*
X72917612Y-120936707D01*
X72919716Y-120937552D01*
X72921829Y-120938380D01*
X72923947Y-120939188D01*
X72926074Y-120939977D01*
X72928205Y-120940747D01*
X72930345Y-120941499D01*
X72932489Y-120942231D01*
X72934641Y-120942945D01*
X72936797Y-120943639D01*
X72938961Y-120944314D01*
X72941128Y-120944969D01*
X72943304Y-120945606D01*
X72945482Y-120946223D01*
X72947669Y-120946822D01*
X72949858Y-120947400D01*
X72952054Y-120947959D01*
X72954254Y-120948499D01*
X72956460Y-120949020D01*
X72958669Y-120949520D01*
X72960885Y-120950002D01*
X72963103Y-120950464D01*
X72965328Y-120950906D01*
X72967555Y-120951329D01*
X72969788Y-120951732D01*
X72972024Y-120952116D01*
X72974265Y-120952480D01*
X72976508Y-120952824D01*
X72978757Y-120953148D01*
X72981008Y-120953453D01*
X72983264Y-120953738D01*
X72985521Y-120954003D01*
X72987785Y-120954249D01*
X72990049Y-120954474D01*
X72992319Y-120954680D01*
X72994589Y-120954866D01*
X72996865Y-120955033D01*
X72999141Y-120955179D01*
X73001423Y-120955305D01*
X73003704Y-120955411D01*
X73005991Y-120955498D01*
X73008278Y-120955564D01*
X73010570Y-120955611D01*
X73014749Y-120955644D01*
X73014749Y-100916997D02*
X73010170Y-100917037D01*
X73005602Y-100917156D01*
X73001043Y-100917356D01*
X72996496Y-100917634D01*
X72991960Y-100917992D01*
X72987437Y-100918428D01*
X72982927Y-100918944D01*
X72978430Y-100919538D01*
X72973949Y-100920211D01*
X72969483Y-100920962D01*
X72965033Y-100921792D01*
X72960601Y-100922699D01*
X72956187Y-100923684D01*
X72951791Y-100924747D01*
X72947416Y-100925887D01*
X72943061Y-100927104D01*
X72938728Y-100928398D01*
X72934418Y-100929768D01*
X72930132Y-100931214D01*
X72925871Y-100932737D01*
X72921636Y-100934335D01*
X72917427Y-100936008D01*
X72913247Y-100937756D01*
X72909096Y-100939578D01*
X72904975Y-100941474D01*
X72900886Y-100943444D01*
X72896830Y-100945486D01*
X72892807Y-100947601D01*
X72888820Y-100949788D01*
X72884869Y-100952046D01*
X72880955Y-100954374D01*
X72877080Y-100956773D01*
X72873245Y-100959240D01*
X72869451Y-100961777D01*
X72865700Y-100964381D01*
X72861992Y-100967052D01*
X72858329Y-100969789D01*
X72854712Y-100972592D01*
X72851143Y-100975459D01*
X72847622Y-100978390D01*
X72844150Y-100981383D01*
X72840730Y-100984438D01*
X72837362Y-100987554D01*
X72834048Y-100990729D01*
X72830788Y-100993963D01*
X72827583Y-100997254D01*
X72826002Y-100998921D01*
X72824435Y-101000602D01*
X72822883Y-101002296D01*
X72821346Y-101004004D01*
X72819823Y-101005726D01*
X72818315Y-101007462D01*
X72816822Y-101009210D01*
X72815344Y-101010971D01*
X72813881Y-101012746D01*
X72812434Y-101014533D01*
X72811002Y-101016333D01*
X72809586Y-101018146D01*
X72808186Y-101019970D01*
X72806801Y-101021807D01*
X72805433Y-101023656D01*
X72804080Y-101025517D01*
X72802744Y-101027389D01*
X72801424Y-101029274D01*
X72800121Y-101031169D01*
X72798834Y-101033076D01*
X72797564Y-101034994D01*
X72796310Y-101036923D01*
X72795074Y-101038863D01*
X72793854Y-101040813D01*
X72792651Y-101042774D01*
X72791466Y-101044746D01*
X72790298Y-101046726D01*
X72789146Y-101048718D01*
X72788013Y-101050719D01*
X72786897Y-101052730D01*
X72785799Y-101054750D01*
X72784718Y-101056781D01*
X72783655Y-101058819D01*
X72782610Y-101060868D01*
X72781583Y-101062925D01*
X72780574Y-101064991D01*
X72779583Y-101067065D01*
X72778610Y-101069149D01*
X72777656Y-101071240D01*
X72776719Y-101073340D01*
X72775801Y-101075447D01*
X72774901Y-101077563D01*
X72774021Y-101079685D01*
X72773158Y-101081817D01*
X72772314Y-101083954D01*
X72771488Y-101086100D01*
X72770682Y-101088252D01*
X72769894Y-101090413D01*
X72769125Y-101092578D01*
X72768375Y-101094752D01*
X72767644Y-101096931D01*
X72766931Y-101099118D01*
X72766239Y-101101310D01*
X72765564Y-101103509D01*
X72764909Y-101105713D01*
X72764273Y-101107925D01*
X72763657Y-101110140D01*
X72763059Y-101112363D01*
X72762481Y-101114590D01*
X72761922Y-101116824D01*
X72761383Y-101119061D01*
X72760863Y-101121305D01*
X72760362Y-101123552D01*
X72759881Y-101125806D01*
X72759419Y-101128063D01*
X72758977Y-101130327D01*
X72758554Y-101132593D01*
X72758151Y-101134865D01*
X72757768Y-101137140D01*
X72757403Y-101139421D01*
X72757059Y-101141704D01*
X72756735Y-101143993D01*
X72756430Y-101146283D01*
X72756145Y-101148580D01*
X72755879Y-101150878D01*
X72755634Y-101153182D01*
X72755408Y-101155487D01*
X72755202Y-101157797D01*
X72755016Y-101160109D01*
X72754849Y-101162426D01*
X72754703Y-101164743D01*
X72754576Y-101167066D01*
X72754470Y-101169389D01*
X72754383Y-101171718D01*
X72754316Y-101174046D01*
X72754270Y-101176380D01*
X72754236Y-101180661D01*
X73405496Y-119676858D02*
X73405536Y-119682572D01*
X73405656Y-119688276D01*
X73405855Y-119693970D01*
X73406134Y-119699652D01*
X73406492Y-119705323D01*
X73406929Y-119710982D01*
X73407445Y-119716627D01*
X73408040Y-119722259D01*
X73408714Y-119727877D01*
X73409467Y-119733480D01*
X73410298Y-119739067D01*
X73411207Y-119744639D01*
X73412195Y-119750193D01*
X73413260Y-119755729D01*
X73414403Y-119761247D01*
X73415624Y-119766746D01*
X73416922Y-119772224D01*
X73418297Y-119777682D01*
X73419749Y-119783118D01*
X73421278Y-119788531D01*
X73422883Y-119793922D01*
X73424564Y-119799288D01*
X73426321Y-119804629D01*
X73428154Y-119809944D01*
X73430062Y-119815232D01*
X73432044Y-119820492D01*
X73434102Y-119825724D01*
X73436233Y-119830926D01*
X73438438Y-119836098D01*
X73440717Y-119841238D01*
X73443069Y-119846346D01*
X73445493Y-119851420D01*
X73447990Y-119856460D01*
X73450558Y-119861464D01*
X73453197Y-119866432D01*
X73455907Y-119871363D01*
X73458686Y-119876255D01*
X73461536Y-119881108D01*
X73464454Y-119885920D01*
X73467441Y-119890691D01*
X73470495Y-119895419D01*
X73473616Y-119900104D01*
X73476804Y-119904744D01*
X73480058Y-119909339D01*
X73483376Y-119913887D01*
X73486759Y-119918388D01*
X73490206Y-119922840D01*
X73493715Y-119927242D01*
X73497286Y-119931594D01*
X73500918Y-119935895D01*
X73504611Y-119940143D01*
X73508363Y-119944338D01*
X73512174Y-119948478D01*
X73514101Y-119950528D01*
X73516043Y-119952563D01*
X73517999Y-119954585D01*
X73519968Y-119956592D01*
X73521952Y-119958585D01*
X73523950Y-119960564D01*
X73525962Y-119962528D01*
X73527987Y-119964477D01*
X73530025Y-119966412D01*
X73532078Y-119968332D01*
X73534143Y-119970237D01*
X73536222Y-119972127D01*
X73538313Y-119974002D01*
X73540418Y-119975861D01*
X73542536Y-119977705D01*
X73544666Y-119979534D01*
X73546808Y-119981347D01*
X73548964Y-119983145D01*
X73551131Y-119984926D01*
X73553311Y-119986692D01*
X73555503Y-119988442D01*
X73557707Y-119990176D01*
X73559922Y-119991893D01*
X73562150Y-119993595D01*
X73564389Y-119995280D01*
X73566640Y-119996949D01*
X73568901Y-119998601D01*
X73571175Y-120000237D01*
X73573458Y-120001855D01*
X73575754Y-120003458D01*
X73578059Y-120005043D01*
X73580376Y-120006612D01*
X73582703Y-120008163D01*
X73585041Y-120009697D01*
X73587389Y-120011214D01*
X73589748Y-120012715D01*
X73592115Y-120014197D01*
X73594494Y-120015662D01*
X73596882Y-120017110D01*
X73599280Y-120018541D01*
X73601687Y-120019953D01*
X73604105Y-120021348D01*
X73606530Y-120022725D01*
X73608966Y-120024085D01*
X73611410Y-120025426D01*
X73613864Y-120026750D01*
X73616326Y-120028056D01*
X73618797Y-120029344D01*
X73621276Y-120030613D01*
X73623765Y-120031865D01*
X73626261Y-120033097D01*
X73628766Y-120034313D01*
X73631278Y-120035509D01*
X73633799Y-120036688D01*
X73636327Y-120037847D01*
X73638864Y-120038989D01*
X73641407Y-120040111D01*
X73643960Y-120041216D01*
X73646518Y-120042301D01*
X73649085Y-120043368D01*
X73651657Y-120044416D01*
X73654238Y-120045446D01*
X73656825Y-120046456D01*
X73659420Y-120047448D01*
X73662020Y-120048421D01*
X73664628Y-120049375D01*
X73667241Y-120050310D01*
X73669862Y-120051226D01*
X73672488Y-120052123D01*
X73675121Y-120053001D01*
X73677759Y-120053860D01*
X73680405Y-120054700D01*
X73683054Y-120055520D01*
X73685712Y-120056322D01*
X73688372Y-120057104D01*
X73691041Y-120057867D01*
X73693713Y-120058610D01*
X73696392Y-120059335D01*
X73699074Y-120060040D01*
X73701764Y-120060726D01*
X73704456Y-120061392D01*
X73707156Y-120062039D01*
X73709858Y-120062666D01*
X73712568Y-120063274D01*
X73715279Y-120063862D01*
X73717998Y-120064431D01*
X73720718Y-120064980D01*
X73723446Y-120065510D01*
X73726175Y-120066020D01*
X73728911Y-120066511D01*
X73731648Y-120066982D01*
X73734392Y-120067433D01*
X73737138Y-120067865D01*
X73739889Y-120068277D01*
X73742642Y-120068669D01*
X73745402Y-120069042D01*
X73748162Y-120069395D01*
X73750928Y-120069728D01*
X73753696Y-120070041D01*
X73756469Y-120070335D01*
X73759243Y-120070608D01*
X73762022Y-120070862D01*
X73764803Y-120071096D01*
X73767588Y-120071311D01*
X73770375Y-120071505D01*
X73773166Y-120071680D01*
X73775958Y-120071834D01*
X73778756Y-120071969D01*
X73781553Y-120072083D01*
X73784356Y-120072178D01*
X73787159Y-120072253D01*
X73789966Y-120072308D01*
X73792774Y-120072343D01*
X73795586Y-120072357D01*
X73796259Y-120072358D01*
X73796259Y-101800279D02*
X73790649Y-101800319D01*
X73785049Y-101800439D01*
X73779459Y-101800638D01*
X73773880Y-101800917D01*
X73768311Y-101801275D01*
X73762755Y-101801712D01*
X73757211Y-101802228D01*
X73751680Y-101802824D01*
X73746163Y-101803498D01*
X73740660Y-101804251D01*
X73735171Y-101805082D01*
X73729699Y-101805992D01*
X73724242Y-101806980D01*
X73718803Y-101808046D01*
X73713380Y-101809190D01*
X73707977Y-101810412D01*
X73702592Y-101811711D01*
X73697227Y-101813088D01*
X73691883Y-101814542D01*
X73686560Y-101816072D01*
X73681260Y-101817680D01*
X73675982Y-101819364D01*
X73670728Y-101821124D01*
X73665499Y-101822960D01*
X73660295Y-101824872D01*
X73655118Y-101826860D01*
X73649968Y-101828922D01*
X73644846Y-101831059D01*
X73639754Y-101833271D01*
X73634691Y-101835556D01*
X73629660Y-101837916D01*
X73624660Y-101840348D01*
X73619693Y-101842854D01*
X73614760Y-101845432D01*
X73609862Y-101848082D01*
X73604999Y-101850803D01*
X73600174Y-101853595D01*
X73595386Y-101856458D01*
X73590637Y-101859391D01*
X73585928Y-101862393D01*
X73581259Y-101865464D01*
X73576633Y-101868603D01*
X73572049Y-101871810D01*
X73567509Y-101875084D01*
X73563013Y-101878424D01*
X73558564Y-101881829D01*
X73554161Y-101885300D01*
X73549807Y-101888834D01*
X73545501Y-101892432D01*
X73541245Y-101896093D01*
X73537039Y-101899815D01*
X73532886Y-101903598D01*
X73528785Y-101907441D01*
X73524738Y-101911344D01*
X73520745Y-101915305D01*
X73516808Y-101919324D01*
X73514861Y-101921355D01*
X73512928Y-101923400D01*
X73511009Y-101925458D01*
X73509105Y-101927531D01*
X73507215Y-101929617D01*
X73505340Y-101931717D01*
X73503480Y-101933830D01*
X73501634Y-101935957D01*
X73499804Y-101938096D01*
X73497989Y-101940249D01*
X73496189Y-101942415D01*
X73494404Y-101944594D01*
X73492635Y-101946786D01*
X73490881Y-101948990D01*
X73489143Y-101951207D01*
X73487420Y-101953436D01*
X73485713Y-101955677D01*
X73484022Y-101957931D01*
X73482348Y-101960196D01*
X73480689Y-101962474D01*
X73479047Y-101964763D01*
X73477420Y-101967064D01*
X73475811Y-101969376D01*
X73474217Y-101971700D01*
X73472641Y-101974034D01*
X73471080Y-101976381D01*
X73469537Y-101978737D01*
X73468010Y-101981106D01*
X73466501Y-101983484D01*
X73465008Y-101985873D01*
X73463532Y-101988273D01*
X73462074Y-101990683D01*
X73460633Y-101993103D01*
X73459208Y-101995534D01*
X73457802Y-101997974D01*
X73456412Y-102000425D01*
X73455041Y-102002884D01*
X73453686Y-102005354D01*
X73452350Y-102007833D01*
X73451031Y-102010322D01*
X73449730Y-102012819D01*
X73448446Y-102015326D01*
X73447181Y-102017841D01*
X73445934Y-102020366D01*
X73444705Y-102022899D01*
X73443493Y-102025441D01*
X73442300Y-102027991D01*
X73441125Y-102030550D01*
X73439969Y-102033116D01*
X73438830Y-102035692D01*
X73437711Y-102038274D01*
X73436609Y-102040865D01*
X73435526Y-102043463D01*
X73434461Y-102046070D01*
X73433415Y-102048682D01*
X73432388Y-102051304D01*
X73431379Y-102053931D01*
X73430389Y-102056568D01*
X73429418Y-102059209D01*
X73428466Y-102061859D01*
X73427532Y-102064514D01*
X73426617Y-102067178D01*
X73425722Y-102069846D01*
X73424845Y-102072523D01*
X73423988Y-102075204D01*
X73423149Y-102077893D01*
X73422329Y-102080586D01*
X73421529Y-102083287D01*
X73420747Y-102085993D01*
X73419985Y-102088706D01*
X73419242Y-102091422D01*
X73418518Y-102094146D01*
X73417814Y-102096874D01*
X73417129Y-102099609D01*
X73416463Y-102102347D01*
X73415817Y-102105093D01*
X73415190Y-102107841D01*
X73414582Y-102110597D01*
X73413994Y-102113355D01*
X73413425Y-102116120D01*
X73412876Y-102118888D01*
X73412346Y-102121662D01*
X73411836Y-102124439D01*
X73411346Y-102127222D01*
X73410875Y-102130007D01*
X73410423Y-102132799D01*
X73409992Y-102135592D01*
X73409580Y-102138392D01*
X73409187Y-102141193D01*
X73408815Y-102144001D01*
X73408462Y-102146810D01*
X73408129Y-102149625D01*
X73407815Y-102152441D01*
X73407521Y-102155263D01*
X73407248Y-102158085D01*
X73406994Y-102160914D01*
X73406759Y-102163743D01*
X73406545Y-102166578D01*
X73406350Y-102169414D01*
X73406176Y-102172255D01*
X73406021Y-102175097D01*
X73405886Y-102177943D01*
X73405771Y-102180790D01*
X73405676Y-102183643D01*
X73405602Y-102186495D01*
X73405547Y-102189352D01*
X73405512Y-102192210D01*
X73405497Y-102195072D01*
X73405496Y-102195779D01*
X82783579Y-120072358D02*
X82789188Y-120072318D01*
X82794787Y-120072198D01*
X82800376Y-120071999D01*
X82805954Y-120071720D01*
X82811521Y-120071362D01*
X82817077Y-120070925D01*
X82822620Y-120070409D01*
X82828150Y-120069813D01*
X82833667Y-120069139D01*
X82839170Y-120068386D01*
X82844658Y-120067555D01*
X82850130Y-120066645D01*
X82855586Y-120065657D01*
X82861026Y-120064590D01*
X82866447Y-120063446D01*
X82871851Y-120062224D01*
X82877236Y-120060925D01*
X82882600Y-120059548D01*
X82887945Y-120058094D01*
X82893268Y-120056563D01*
X82898568Y-120054956D01*
X82903846Y-120053271D01*
X82909100Y-120051511D01*
X82914330Y-120049675D01*
X82919534Y-120047762D01*
X82924711Y-120045775D01*
X82929861Y-120043712D01*
X82934983Y-120041575D01*
X82940076Y-120039363D01*
X82945139Y-120037077D01*
X82950171Y-120034717D01*
X82955171Y-120032285D01*
X82960138Y-120029779D01*
X82965072Y-120027201D01*
X82969970Y-120024550D01*
X82974833Y-120021829D01*
X82979659Y-120019036D01*
X82984447Y-120016173D01*
X82989196Y-120013240D01*
X82993906Y-120010237D01*
X82998575Y-120007166D01*
X83003202Y-120004027D01*
X83007786Y-120000820D01*
X83012326Y-119997546D01*
X83016822Y-119994206D01*
X83021271Y-119990800D01*
X83025674Y-119987329D01*
X83030029Y-119983795D01*
X83034335Y-119980197D01*
X83038591Y-119976536D01*
X83042797Y-119972814D01*
X83046950Y-119969031D01*
X83051051Y-119965187D01*
X83055098Y-119961284D01*
X83059091Y-119957323D01*
X83063028Y-119953305D01*
X83064975Y-119951274D01*
X83066908Y-119949229D01*
X83068827Y-119947171D01*
X83070731Y-119945098D01*
X83072621Y-119943012D01*
X83074496Y-119940912D01*
X83076356Y-119938799D01*
X83078201Y-119936672D01*
X83080031Y-119934533D01*
X83081847Y-119932380D01*
X83083646Y-119930214D01*
X83085431Y-119928035D01*
X83087200Y-119925844D01*
X83088954Y-119923640D01*
X83090692Y-119921423D01*
X83092415Y-119919194D01*
X83094121Y-119916953D01*
X83095812Y-119914699D01*
X83097486Y-119912434D01*
X83099145Y-119910157D01*
X83100787Y-119907868D01*
X83102413Y-119905567D01*
X83104023Y-119903255D01*
X83105616Y-119900931D01*
X83107192Y-119898597D01*
X83108753Y-119896251D01*
X83110296Y-119893894D01*
X83111822Y-119891526D01*
X83113332Y-119889148D01*
X83114824Y-119886759D01*
X83116300Y-119884360D01*
X83117758Y-119881949D01*
X83119199Y-119879529D01*
X83120623Y-119877099D01*
X83122030Y-119874659D01*
X83123419Y-119872208D01*
X83124790Y-119869749D01*
X83126145Y-119867279D01*
X83127481Y-119864801D01*
X83128800Y-119862312D01*
X83130100Y-119859816D01*
X83131384Y-119857308D01*
X83132649Y-119854794D01*
X83133896Y-119852269D01*
X83135125Y-119849736D01*
X83136336Y-119847194D01*
X83137529Y-119844645D01*
X83138704Y-119842086D01*
X83139860Y-119839520D01*
X83140999Y-119836944D01*
X83142118Y-119834362D01*
X83143220Y-119831771D01*
X83144302Y-119829174D01*
X83145367Y-119826567D01*
X83146412Y-119823955D01*
X83147440Y-119821333D01*
X83148448Y-119818706D01*
X83149438Y-119816070D01*
X83150409Y-119813429D01*
X83151361Y-119810779D01*
X83152294Y-119808124D01*
X83153209Y-119805460D01*
X83154104Y-119802792D01*
X83154981Y-119800116D01*
X83155838Y-119797435D01*
X83156677Y-119794746D01*
X83157497Y-119792052D01*
X83158297Y-119789351D01*
X83159078Y-119786646D01*
X83159840Y-119783933D01*
X83160583Y-119781217D01*
X83161307Y-119778492D01*
X83162011Y-119775765D01*
X83162696Y-119773030D01*
X83163361Y-119770292D01*
X83164008Y-119767546D01*
X83164635Y-119764798D01*
X83165242Y-119762042D01*
X83165830Y-119759284D01*
X83166399Y-119756518D01*
X83166948Y-119753751D01*
X83167478Y-119750976D01*
X83167987Y-119748200D01*
X83168478Y-119745416D01*
X83168949Y-119742631D01*
X83169400Y-119739839D01*
X83169832Y-119737046D01*
X83170244Y-119734246D01*
X83170636Y-119731444D01*
X83171009Y-119728636D01*
X83171361Y-119725827D01*
X83171695Y-119723012D01*
X83172008Y-119720196D01*
X83172301Y-119717373D01*
X83172575Y-119714550D01*
X83172829Y-119711721D01*
X83173063Y-119708891D01*
X83173278Y-119706056D01*
X83173472Y-119703220D01*
X83173647Y-119700379D01*
X83173801Y-119697537D01*
X83173936Y-119694689D01*
X83174051Y-119691842D01*
X83174146Y-119688989D01*
X83174221Y-119686136D01*
X83174276Y-119683278D01*
X83174310Y-119680420D01*
X83174325Y-119677557D01*
X83174326Y-119676858D01*
X83174326Y-102195779D02*
X83174286Y-102190070D01*
X83174166Y-102184370D01*
X83173967Y-102178681D01*
X83173688Y-102173003D01*
X83173330Y-102167336D01*
X83172893Y-102161681D01*
X83172377Y-102156039D01*
X83171781Y-102150411D01*
X83171107Y-102144796D01*
X83170355Y-102139196D01*
X83169524Y-102133612D01*
X83168614Y-102128043D01*
X83167626Y-102122492D01*
X83166561Y-102116958D01*
X83165417Y-102111442D01*
X83164196Y-102105945D01*
X83162898Y-102100468D01*
X83161523Y-102095012D01*
X83160070Y-102089578D01*
X83158541Y-102084165D01*
X83156935Y-102078776D01*
X83155254Y-102073411D01*
X83153496Y-102068071D01*
X83151663Y-102062757D01*
X83149754Y-102057469D01*
X83147771Y-102052209D01*
X83145713Y-102046977D01*
X83143580Y-102041775D01*
X83141374Y-102036603D01*
X83139094Y-102031463D01*
X83136742Y-102026355D01*
X83134316Y-102021281D01*
X83131819Y-102016240D01*
X83129249Y-102011235D01*
X83126609Y-102006266D01*
X83123898Y-102001335D01*
X83121117Y-101996442D01*
X83118266Y-101991588D01*
X83115346Y-101986775D01*
X83112358Y-101982003D01*
X83109302Y-101977273D01*
X83106179Y-101972587D01*
X83102990Y-101967946D01*
X83099734Y-101963349D01*
X83096414Y-101958799D01*
X83093030Y-101954297D01*
X83089581Y-101949843D01*
X83086070Y-101945439D01*
X83082497Y-101941085D01*
X83078863Y-101936783D01*
X83075169Y-101932533D01*
X83071415Y-101928337D01*
X83067602Y-101924195D01*
X83065674Y-101922144D01*
X83063731Y-101920108D01*
X83061774Y-101918085D01*
X83059804Y-101916077D01*
X83057819Y-101914083D01*
X83055820Y-101912104D01*
X83053808Y-101910139D01*
X83051781Y-101908188D01*
X83049742Y-101906253D01*
X83047689Y-101904332D01*
X83045622Y-101902426D01*
X83043543Y-101900535D01*
X83041450Y-101898660D01*
X83039345Y-101896799D01*
X83037226Y-101894955D01*
X83035095Y-101893125D01*
X83032952Y-101891311D01*
X83030795Y-101889513D01*
X83028627Y-101887730D01*
X83026446Y-101885963D01*
X83024254Y-101884213D01*
X83022049Y-101882478D01*
X83019832Y-101880760D01*
X83017604Y-101879057D01*
X83015364Y-101877372D01*
X83013113Y-101875702D01*
X83010851Y-101874050D01*
X83008576Y-101872413D01*
X83006292Y-101870794D01*
X83003996Y-101869190D01*
X83001690Y-101867605D01*
X82999372Y-101866035D01*
X82997044Y-101864483D01*
X82994705Y-101862948D01*
X82992357Y-101861431D01*
X82989998Y-101859930D01*
X82987630Y-101858447D01*
X82985250Y-101856981D01*
X82982862Y-101855533D01*
X82980463Y-101854101D01*
X82978056Y-101852689D01*
X82975638Y-101851293D01*
X82973212Y-101849915D01*
X82970775Y-101848555D01*
X82968331Y-101847213D01*
X82965877Y-101845889D01*
X82963415Y-101844583D01*
X82960943Y-101843294D01*
X82958464Y-101842025D01*
X82955975Y-101840772D01*
X82953479Y-101839539D01*
X82950973Y-101838324D01*
X82948461Y-101837127D01*
X82945940Y-101835948D01*
X82943412Y-101834788D01*
X82940875Y-101833646D01*
X82938332Y-101832524D01*
X82935779Y-101831419D01*
X82933221Y-101830333D01*
X82930654Y-101829266D01*
X82928082Y-101828218D01*
X82925501Y-101827188D01*
X82922915Y-101826177D01*
X82920320Y-101825185D01*
X82917720Y-101824212D01*
X82915112Y-101823257D01*
X82912500Y-101822323D01*
X82909879Y-101821406D01*
X82907254Y-101820509D01*
X82904621Y-101819631D01*
X82901983Y-101818772D01*
X82899338Y-101817932D01*
X82896689Y-101817112D01*
X82894032Y-101816310D01*
X82891372Y-101815528D01*
X82888705Y-101814765D01*
X82886034Y-101814021D01*
X82883355Y-101813297D01*
X82880674Y-101812592D01*
X82877985Y-101811906D01*
X82875293Y-101811240D01*
X82872595Y-101810593D01*
X82869893Y-101809966D01*
X82867185Y-101809358D01*
X82864475Y-101808770D01*
X82861757Y-101808201D01*
X82859038Y-101807652D01*
X82856312Y-101807122D01*
X82853584Y-101806612D01*
X82850849Y-101806121D01*
X82848113Y-101805651D01*
X82845371Y-101805199D01*
X82842627Y-101804768D01*
X82839876Y-101804356D01*
X82837125Y-101803964D01*
X82834367Y-101803591D01*
X82831609Y-101803239D01*
X82828844Y-101802906D01*
X82826078Y-101802593D01*
X82823307Y-101802299D01*
X82820535Y-101802026D01*
X82817757Y-101801772D01*
X82814979Y-101801538D01*
X82812195Y-101801324D01*
X82809411Y-101801130D01*
X82806621Y-101800956D01*
X82803831Y-101800801D01*
X82801036Y-101800667D01*
X82798241Y-101800552D01*
X82795440Y-101800458D01*
X82792640Y-101800383D01*
X82789835Y-101800329D01*
X82787030Y-101800294D01*
X82784220Y-101800280D01*
X82783579Y-101800279D01*
X83565088Y-120955644D02*
X83569666Y-120955604D01*
X83574234Y-120955485D01*
X83578792Y-120955285D01*
X83583339Y-120955007D01*
X83587874Y-120954649D01*
X83592397Y-120954213D01*
X83596907Y-120953697D01*
X83601402Y-120953103D01*
X83605884Y-120952430D01*
X83610349Y-120951679D01*
X83614798Y-120950849D01*
X83619230Y-120949942D01*
X83623644Y-120948957D01*
X83628039Y-120947894D01*
X83632414Y-120946754D01*
X83636769Y-120945537D01*
X83641101Y-120944243D01*
X83645411Y-120942873D01*
X83649697Y-120941426D01*
X83653958Y-120939904D01*
X83658193Y-120938306D01*
X83662401Y-120936633D01*
X83666581Y-120934885D01*
X83670732Y-120933062D01*
X83674852Y-120931166D01*
X83678941Y-120929197D01*
X83682997Y-120927154D01*
X83687019Y-120925039D01*
X83691007Y-120922852D01*
X83694958Y-120920594D01*
X83698871Y-120918266D01*
X83702746Y-120915867D01*
X83706581Y-120913399D01*
X83710375Y-120910863D01*
X83714126Y-120908259D01*
X83717834Y-120905587D01*
X83721496Y-120902850D01*
X83725113Y-120900047D01*
X83728682Y-120897180D01*
X83732203Y-120894249D01*
X83735674Y-120891255D01*
X83739094Y-120888200D01*
X83742462Y-120885085D01*
X83745777Y-120881909D01*
X83749037Y-120878675D01*
X83752241Y-120875384D01*
X83753822Y-120873717D01*
X83755389Y-120872036D01*
X83756941Y-120870341D01*
X83758479Y-120868633D01*
X83760002Y-120866911D01*
X83761510Y-120865176D01*
X83763002Y-120863427D01*
X83764480Y-120861666D01*
X83765943Y-120859891D01*
X83767390Y-120858104D01*
X83768822Y-120856304D01*
X83770238Y-120854491D01*
X83771638Y-120852666D01*
X83773023Y-120850829D01*
X83774391Y-120848980D01*
X83775744Y-120847119D01*
X83777080Y-120845247D01*
X83778400Y-120843362D01*
X83779703Y-120841467D01*
X83780990Y-120839559D01*
X83782260Y-120837642D01*
X83783514Y-120835712D01*
X83784750Y-120833773D01*
X83785970Y-120831822D01*
X83787172Y-120829861D01*
X83788358Y-120827890D01*
X83789526Y-120825909D01*
X83790677Y-120823917D01*
X83791810Y-120821916D01*
X83792927Y-120819904D01*
X83794025Y-120817884D01*
X83795105Y-120815854D01*
X83796168Y-120813815D01*
X83797213Y-120811766D01*
X83798240Y-120809709D01*
X83799250Y-120807643D01*
X83800240Y-120805569D01*
X83801213Y-120803485D01*
X83802168Y-120801394D01*
X83803104Y-120799294D01*
X83804022Y-120797187D01*
X83804922Y-120795071D01*
X83805803Y-120792948D01*
X83806666Y-120790816D01*
X83807509Y-120788679D01*
X83808335Y-120786533D01*
X83809141Y-120784381D01*
X83809929Y-120782220D01*
X83810698Y-120780055D01*
X83811448Y-120777880D01*
X83812179Y-120775701D01*
X83812892Y-120773514D01*
X83813584Y-120771323D01*
X83814259Y-120769123D01*
X83814913Y-120766919D01*
X83815550Y-120764707D01*
X83816166Y-120762492D01*
X83816764Y-120760269D01*
X83817341Y-120758042D01*
X83817901Y-120755808D01*
X83818440Y-120753571D01*
X83818960Y-120751327D01*
X83819461Y-120749079D01*
X83819942Y-120746825D01*
X83820403Y-120744568D01*
X83820846Y-120742304D01*
X83821268Y-120740038D01*
X83821672Y-120737766D01*
X83822055Y-120735491D01*
X83822419Y-120733210D01*
X83822763Y-120730927D01*
X83823088Y-120728638D01*
X83823393Y-120726347D01*
X83823678Y-120724050D01*
X83823943Y-120721752D01*
X83824189Y-120719448D01*
X83824415Y-120717144D01*
X83824621Y-120714833D01*
X83824807Y-120712521D01*
X83824973Y-120710204D01*
X83825119Y-120707887D01*
X83825246Y-120705564D01*
X83825352Y-120703240D01*
X83825439Y-120700912D01*
X83825506Y-120698583D01*
X83825552Y-120696249D01*
X83825586Y-120691972D01*
X83825586Y-101180661D02*
X83825546Y-101175999D01*
X83825427Y-101171348D01*
X83825227Y-101166706D01*
X83824949Y-101162077D01*
X83824591Y-101157459D01*
X83824155Y-101152854D01*
X83823639Y-101148263D01*
X83823045Y-101143687D01*
X83822373Y-101139126D01*
X83821622Y-101134581D01*
X83820793Y-101130053D01*
X83819886Y-101125543D01*
X83818902Y-101121052D01*
X83817840Y-101116581D01*
X83816701Y-101112130D01*
X83815486Y-101107702D01*
X83814194Y-101103297D01*
X83812825Y-101098915D01*
X83811381Y-101094558D01*
X83809862Y-101090228D01*
X83808267Y-101085925D01*
X83806598Y-101081650D01*
X83804854Y-101077404D01*
X83803037Y-101073189D01*
X83801146Y-101069006D01*
X83799183Y-101064856D01*
X83797147Y-101060740D01*
X83795040Y-101056659D01*
X83792862Y-101052615D01*
X83790613Y-101048609D01*
X83788295Y-101044642D01*
X83785908Y-101040715D01*
X83783453Y-101036830D01*
X83780930Y-101032988D01*
X83778340Y-101029189D01*
X83775685Y-101025436D01*
X83772964Y-101021730D01*
X83770180Y-101018071D01*
X83767332Y-101014462D01*
X83764422Y-101010902D01*
X83761451Y-101007394D01*
X83758420Y-101003939D01*
X83755329Y-101000537D01*
X83753762Y-100998857D01*
X83752180Y-100997191D01*
X83750584Y-100995539D01*
X83748975Y-100993900D01*
X83747351Y-100992277D01*
X83745713Y-100990667D01*
X83744061Y-100989072D01*
X83742396Y-100987492D01*
X83740718Y-100985927D01*
X83739026Y-100984377D01*
X83737322Y-100982842D01*
X83735604Y-100981321D01*
X83733873Y-100979817D01*
X83732130Y-100978328D01*
X83730374Y-100976854D01*
X83728606Y-100975396D01*
X83726825Y-100973955D01*
X83725032Y-100972529D01*
X83723228Y-100971119D01*
X83721412Y-100969725D01*
X83719584Y-100968348D01*
X83717745Y-100966987D01*
X83715894Y-100965643D01*
X83714032Y-100964315D01*
X83712160Y-100963004D01*
X83710276Y-100961709D01*
X83708382Y-100960432D01*
X83706476Y-100959172D01*
X83704562Y-100957929D01*
X83702636Y-100956703D01*
X83700701Y-100955495D01*
X83698755Y-100954303D01*
X83696800Y-100953130D01*
X83694834Y-100951974D01*
X83692861Y-100950836D01*
X83690876Y-100949715D01*
X83688884Y-100948612D01*
X83686882Y-100947527D01*
X83684872Y-100946461D01*
X83682852Y-100945411D01*
X83680825Y-100944381D01*
X83678788Y-100943368D01*
X83676744Y-100942374D01*
X83674691Y-100941398D01*
X83672631Y-100940441D01*
X83670562Y-100939502D01*
X83668487Y-100938581D01*
X83666402Y-100937679D01*
X83664312Y-100936796D01*
X83662213Y-100935931D01*
X83660109Y-100935086D01*
X83657996Y-100934258D01*
X83655878Y-100933451D01*
X83653751Y-100932661D01*
X83651620Y-100931891D01*
X83649480Y-100931139D01*
X83647337Y-100930407D01*
X83645184Y-100929694D01*
X83643029Y-100929000D01*
X83640865Y-100928325D01*
X83638697Y-100927669D01*
X83636522Y-100927032D01*
X83634343Y-100926415D01*
X83632157Y-100925817D01*
X83629968Y-100925239D01*
X83627771Y-100924679D01*
X83625572Y-100924140D01*
X83623366Y-100923619D01*
X83621157Y-100923119D01*
X83618941Y-100922637D01*
X83616723Y-100922176D01*
X83614498Y-100921733D01*
X83612271Y-100921311D01*
X83610038Y-100920907D01*
X83607803Y-100920524D01*
X83605562Y-100920160D01*
X83603319Y-100919816D01*
X83601070Y-100919491D01*
X83598819Y-100919187D01*
X83596563Y-100918902D01*
X83594306Y-100918637D01*
X83592042Y-100918391D01*
X83589778Y-100918166D01*
X83587509Y-100917960D01*
X83585238Y-100917774D01*
X83582963Y-100917608D01*
X83580686Y-100917462D01*
X83578405Y-100917336D01*
X83576123Y-100917229D01*
X83573836Y-100917143D01*
X83571550Y-100917077D01*
X83569258Y-100917030D01*
X83565088Y-100916997D01*
D11*
%TO.C,J1*%
X73150000Y-66300000D02*
X73150000Y-66000000D01*
X73150000Y-69000000D02*
X73150000Y-66300000D01*
X73150000Y-69000000D02*
X83310000Y-69000000D01*
X73150000Y-74627435D02*
X73150000Y-69000000D01*
X73150000Y-74927253D02*
X73150000Y-74627435D01*
X73150000Y-74927253D02*
X83310000Y-74927253D01*
X73150000Y-75203492D02*
X73150000Y-74927253D01*
X73150000Y-75203492D02*
X73150000Y-76133383D01*
X73150000Y-76931480D02*
X73150000Y-76133383D01*
X73150000Y-77200000D02*
X73150000Y-76931480D01*
X73150000Y-77200000D02*
X83310000Y-77200000D01*
X73490000Y-71500000D02*
X77890000Y-71500000D01*
X74616976Y-73067999D02*
X77257999Y-70426976D01*
X75690000Y-73700000D02*
X75690000Y-69300000D01*
X76763024Y-69932002D02*
X74122002Y-72573024D01*
X78570000Y-71500000D02*
X82970000Y-71500000D01*
X79696976Y-73067999D02*
X82337999Y-70426976D01*
X80770000Y-73700000D02*
X80770000Y-69300000D01*
X81843024Y-69932002D02*
X79202002Y-72573024D01*
X83310000Y-66000000D02*
X73150000Y-66000000D01*
X83310000Y-66000000D02*
X83310000Y-66300000D01*
X83310000Y-66300000D02*
X83310000Y-67693000D01*
X83310000Y-67693000D02*
X83310000Y-68107000D01*
X83310000Y-68107000D02*
X83310000Y-69000000D01*
X83310000Y-68107000D02*
X83438691Y-68107000D01*
X83310000Y-69000000D02*
X83310000Y-74627435D01*
X83310000Y-74627435D02*
X83310000Y-74927253D01*
X83310000Y-74927253D02*
X83310000Y-75203492D01*
X83310000Y-76133383D02*
X73150000Y-76133383D01*
X83310000Y-76133383D02*
X83310000Y-75203492D01*
X83310000Y-76133383D02*
X83310000Y-76931480D01*
X83310000Y-76931480D02*
X83310000Y-77200000D01*
X83438691Y-67693000D02*
X83310000Y-67693000D01*
X83438691Y-68107000D02*
X83617026Y-68256960D01*
X83617026Y-67543041D02*
X83438691Y-67693000D01*
X83617026Y-68256960D02*
X83880000Y-68256960D01*
X83880000Y-67543041D02*
X83617026Y-67543041D01*
X83880000Y-67543041D02*
X83880000Y-68256960D01*
X74122002Y-72573024D02*
G75*
G02*
X76763024Y-69932002I1567998J1073024D01*
G01*
X74616976Y-73067999D02*
G75*
G02*
X74122001Y-72573024I1073024J1567999D01*
G01*
X76763024Y-69932002D02*
G75*
G02*
X77257998Y-70426976I-1073024J-1567998D01*
G01*
X77257999Y-70426976D02*
G75*
G02*
X74616976Y-73067999I-1567999J-1073024D01*
G01*
X79202002Y-72573024D02*
G75*
G02*
X81843024Y-69932002I1567997J1073025D01*
G01*
X79696976Y-73067999D02*
G75*
G02*
X79202002Y-72573024I1073017J1567988D01*
G01*
X81843024Y-69932002D02*
G75*
G02*
X82337999Y-70426976I-1073013J-1567991D01*
G01*
X82337999Y-70426976D02*
G75*
G02*
X79696976Y-73067999I-1567999J-1073024D01*
G01*
X77690000Y-71500000D02*
G75*
G02*
X73690000Y-71500000I-2000000J0D01*
G01*
X73690000Y-71500000D02*
G75*
G02*
X77690000Y-71500000I2000000J0D01*
G01*
X78688257Y-73200000D02*
G75*
G02*
X77771743Y-73200000I-458257J0D01*
G01*
X77771743Y-73200000D02*
G75*
G02*
X78688257Y-73200000I458257J0D01*
G01*
X82770000Y-71500000D02*
G75*
G02*
X78770000Y-71500000I-2000000J0D01*
G01*
X78770000Y-71500000D02*
G75*
G02*
X82770000Y-71500000I2000000J0D01*
G01*
%TO.C,J2*%
X70060011Y-131956952D02*
X70060011Y-131243033D01*
X70060011Y-131956952D02*
X70322985Y-131956952D01*
X70322985Y-131243033D02*
X70060011Y-131243033D01*
X70322985Y-131956952D02*
X70501320Y-131806993D01*
X70501320Y-131392993D02*
X70322985Y-131243033D01*
X70501320Y-131806993D02*
X70630011Y-131806993D01*
X70630011Y-122568513D02*
X70630011Y-122299993D01*
X70630011Y-123366610D02*
X70630011Y-122568513D01*
X70630011Y-123366610D02*
X70630011Y-124296501D01*
X70630011Y-123366610D02*
X85870011Y-123366610D01*
X70630011Y-124572740D02*
X70630011Y-124296501D01*
X70630011Y-124872558D02*
X70630011Y-124572740D01*
X70630011Y-130499993D02*
X70630011Y-124872558D01*
X70630011Y-131392993D02*
X70501320Y-131392993D01*
X70630011Y-131392993D02*
X70630011Y-130499993D01*
X70630011Y-131806993D02*
X70630011Y-131392993D01*
X70630011Y-133199993D02*
X70630011Y-131806993D01*
X70630011Y-133499993D02*
X70630011Y-133199993D01*
X70630011Y-133499993D02*
X85870011Y-133499993D01*
X72096987Y-129567991D02*
X74738009Y-126926969D01*
X73170011Y-125799993D02*
X73170011Y-130199993D01*
X74243035Y-126431994D02*
X71602012Y-129073017D01*
X75370011Y-127999993D02*
X70970011Y-127999993D01*
X77176987Y-129567991D02*
X79818009Y-126926969D01*
X78250011Y-125799993D02*
X78250011Y-130199993D01*
X79323035Y-126431994D02*
X76682012Y-129073017D01*
X80450011Y-127999993D02*
X76050011Y-127999993D01*
X82256987Y-129567991D02*
X84898009Y-126926969D01*
X83330011Y-125799993D02*
X83330011Y-130199993D01*
X84403035Y-126431994D02*
X81762012Y-129073017D01*
X85530011Y-127999993D02*
X81130011Y-127999993D01*
X85870011Y-122299993D02*
X70630011Y-122299993D01*
X85870011Y-122299993D02*
X85870011Y-122568513D01*
X85870011Y-122568513D02*
X85870011Y-123366610D01*
X85870011Y-124296501D02*
X85870011Y-123366610D01*
X85870011Y-124296501D02*
X85870011Y-124572740D01*
X85870011Y-124572740D02*
X70630011Y-124572740D01*
X85870011Y-124572740D02*
X85870011Y-124872558D01*
X85870011Y-124872558D02*
X85870011Y-130499993D01*
X85870011Y-130499993D02*
X70630011Y-130499993D01*
X85870011Y-130499993D02*
X85870011Y-133199993D01*
X85870011Y-133199993D02*
X85870011Y-133499993D01*
X71602012Y-129073017D02*
G75*
G02*
X74243035Y-126431994I1567999J1073024D01*
G01*
X72096987Y-129567991D02*
G75*
G02*
X71602012Y-129073017I1073013J1567991D01*
G01*
X74243035Y-126431994D02*
G75*
G02*
X74738009Y-126926969I-1073017J-1567988D01*
G01*
X74738009Y-126926969D02*
G75*
G02*
X72096987Y-129567991I-1567997J-1073025D01*
G01*
X76682012Y-129073017D02*
G75*
G02*
X79323035Y-126431994I1567999J1073024D01*
G01*
X77176987Y-129567991D02*
G75*
G02*
X76682012Y-129073017I1073013J1567991D01*
G01*
X79323035Y-126431994D02*
G75*
G02*
X79818009Y-126926969I-1073015J-1567986D01*
G01*
X79818009Y-126926969D02*
G75*
G02*
X77176987Y-129567991I-1567997J-1073025D01*
G01*
X81762012Y-129073017D02*
G75*
G02*
X84403035Y-126431994I1567999J1073024D01*
G01*
X82256987Y-129567991D02*
G75*
G02*
X81762012Y-129073017I1073013J1567991D01*
G01*
X84403035Y-126431994D02*
G75*
G02*
X84898009Y-126926969I-1073035J-1568006D01*
G01*
X84898009Y-126926969D02*
G75*
G02*
X82256987Y-129567991I-1567997J-1073025D01*
G01*
X75170011Y-127999993D02*
G75*
G02*
X71170011Y-127999993I-2000000J0D01*
G01*
X71170011Y-127999993D02*
G75*
G02*
X75170011Y-127999993I2000000J0D01*
G01*
X76168268Y-126299993D02*
G75*
G02*
X75251754Y-126299993I-458257J0D01*
G01*
X75251754Y-126299993D02*
G75*
G02*
X76168268Y-126299993I458257J0D01*
G01*
X80250011Y-127999993D02*
G75*
G02*
X76250011Y-127999993I-2000000J0D01*
G01*
X76250011Y-127999993D02*
G75*
G02*
X80250011Y-127999993I2000000J0D01*
G01*
X81248268Y-126299993D02*
G75*
G02*
X80331754Y-126299993I-458257J0D01*
G01*
X80331754Y-126299993D02*
G75*
G02*
X81248268Y-126299993I458257J0D01*
G01*
X85330011Y-127999993D02*
G75*
G02*
X81330011Y-127999993I-2000000J0D01*
G01*
X81330011Y-127999993D02*
G75*
G02*
X85330011Y-127999993I2000000J0D01*
G01*
%TD*%
M02*
