%TF.GenerationSoftware,KiCad,Pcbnew,9.0.7-9.0.7~ubuntu24.04.1*%
%TF.CreationDate,2026-03-20T21:28:49+01:00*%
%TF.ProjectId,Schalter-Karte_HW,53636861-6c74-4657-922d-4b617274655f,V1.0*%
%TF.SameCoordinates,Original*%
%TF.FileFunction,AssemblyDrawing,Top*%
%FSLAX46Y46*%
G04 Gerber Fmt 4.6, Leading zero omitted, Abs format (unit mm)*
G04 Created by KiCad (PCBNEW 9.0.7-9.0.7~ubuntu24.04.1) date 2026-03-20 21:28:49*
%MOMM*%
%LPD*%
G01*
G04 APERTURE LIST*
%ADD10C,0.150000*%
%ADD11C,0.030333*%
%ADD12C,0.127000*%
%ADD13C,0.200000*%
G04 APERTURE END LIST*
D10*
X85454819Y-115571428D02*
X85454819Y-116047618D01*
X85454819Y-116047618D02*
X84454819Y-116047618D01*
X85454819Y-114714285D02*
X85454819Y-115285713D01*
X85454819Y-114999999D02*
X84454819Y-114999999D01*
X84454819Y-114999999D02*
X84597676Y-115095237D01*
X84597676Y-115095237D02*
X84692914Y-115190475D01*
X84692914Y-115190475D02*
X84740533Y-115285713D01*
X84454819Y-114095237D02*
X84454819Y-113999999D01*
X84454819Y-113999999D02*
X84502438Y-113904761D01*
X84502438Y-113904761D02*
X84550057Y-113857142D01*
X84550057Y-113857142D02*
X84645295Y-113809523D01*
X84645295Y-113809523D02*
X84835771Y-113761904D01*
X84835771Y-113761904D02*
X85073866Y-113761904D01*
X85073866Y-113761904D02*
X85264342Y-113809523D01*
X85264342Y-113809523D02*
X85359580Y-113857142D01*
X85359580Y-113857142D02*
X85407200Y-113904761D01*
X85407200Y-113904761D02*
X85454819Y-113999999D01*
X85454819Y-113999999D02*
X85454819Y-114095237D01*
X85454819Y-114095237D02*
X85407200Y-114190475D01*
X85407200Y-114190475D02*
X85359580Y-114238094D01*
X85359580Y-114238094D02*
X85264342Y-114285713D01*
X85264342Y-114285713D02*
X85073866Y-114333332D01*
X85073866Y-114333332D02*
X84835771Y-114333332D01*
X84835771Y-114333332D02*
X84645295Y-114285713D01*
X84645295Y-114285713D02*
X84550057Y-114238094D01*
X84550057Y-114238094D02*
X84502438Y-114190475D01*
X84502438Y-114190475D02*
X84454819Y-114095237D01*
X85454819Y-112809523D02*
X85454819Y-113380951D01*
X85454819Y-113095237D02*
X84454819Y-113095237D01*
X84454819Y-113095237D02*
X84597676Y-113190475D01*
X84597676Y-113190475D02*
X84692914Y-113285713D01*
X84692914Y-113285713D02*
X84740533Y-113380951D01*
X84454819Y-112190475D02*
X84454819Y-112095237D01*
X84454819Y-112095237D02*
X84502438Y-111999999D01*
X84502438Y-111999999D02*
X84550057Y-111952380D01*
X84550057Y-111952380D02*
X84645295Y-111904761D01*
X84645295Y-111904761D02*
X84835771Y-111857142D01*
X84835771Y-111857142D02*
X85073866Y-111857142D01*
X85073866Y-111857142D02*
X85264342Y-111904761D01*
X85264342Y-111904761D02*
X85359580Y-111952380D01*
X85359580Y-111952380D02*
X85407200Y-111999999D01*
X85407200Y-111999999D02*
X85454819Y-112095237D01*
X85454819Y-112095237D02*
X85454819Y-112190475D01*
X85454819Y-112190475D02*
X85407200Y-112285713D01*
X85407200Y-112285713D02*
X85359580Y-112333332D01*
X85359580Y-112333332D02*
X85264342Y-112380951D01*
X85264342Y-112380951D02*
X85073866Y-112428570D01*
X85073866Y-112428570D02*
X84835771Y-112428570D01*
X84835771Y-112428570D02*
X84645295Y-112380951D01*
X84645295Y-112380951D02*
X84550057Y-112333332D01*
X84550057Y-112333332D02*
X84502438Y-112285713D01*
X84502438Y-112285713D02*
X84454819Y-112190475D01*
X85454819Y-110904761D02*
X85454819Y-111476189D01*
X85454819Y-111190475D02*
X84454819Y-111190475D01*
X84454819Y-111190475D02*
X84597676Y-111285713D01*
X84597676Y-111285713D02*
X84692914Y-111380951D01*
X84692914Y-111380951D02*
X84740533Y-111476189D01*
X85454819Y-109952380D02*
X85454819Y-110523808D01*
X85454819Y-110238094D02*
X84454819Y-110238094D01*
X84454819Y-110238094D02*
X84597676Y-110333332D01*
X84597676Y-110333332D02*
X84692914Y-110428570D01*
X84692914Y-110428570D02*
X84740533Y-110523808D01*
X85454819Y-109523808D02*
X84454819Y-109523808D01*
X84454819Y-109523808D02*
X85169104Y-109190475D01*
X85169104Y-109190475D02*
X84454819Y-108857142D01*
X84454819Y-108857142D02*
X85454819Y-108857142D01*
X85407200Y-108428570D02*
X85454819Y-108285713D01*
X85454819Y-108285713D02*
X85454819Y-108047618D01*
X85454819Y-108047618D02*
X85407200Y-107952380D01*
X85407200Y-107952380D02*
X85359580Y-107904761D01*
X85359580Y-107904761D02*
X85264342Y-107857142D01*
X85264342Y-107857142D02*
X85169104Y-107857142D01*
X85169104Y-107857142D02*
X85073866Y-107904761D01*
X85073866Y-107904761D02*
X85026247Y-107952380D01*
X85026247Y-107952380D02*
X84978628Y-108047618D01*
X84978628Y-108047618D02*
X84931009Y-108238094D01*
X84931009Y-108238094D02*
X84883390Y-108333332D01*
X84883390Y-108333332D02*
X84835771Y-108380951D01*
X84835771Y-108380951D02*
X84740533Y-108428570D01*
X84740533Y-108428570D02*
X84645295Y-108428570D01*
X84645295Y-108428570D02*
X84550057Y-108380951D01*
X84550057Y-108380951D02*
X84502438Y-108333332D01*
X84502438Y-108333332D02*
X84454819Y-108238094D01*
X84454819Y-108238094D02*
X84454819Y-107999999D01*
X84454819Y-107999999D02*
X84502438Y-107857142D01*
X84454819Y-107238094D02*
X84454819Y-107142856D01*
X84454819Y-107142856D02*
X84502438Y-107047618D01*
X84502438Y-107047618D02*
X84550057Y-106999999D01*
X84550057Y-106999999D02*
X84645295Y-106952380D01*
X84645295Y-106952380D02*
X84835771Y-106904761D01*
X84835771Y-106904761D02*
X85073866Y-106904761D01*
X85073866Y-106904761D02*
X85264342Y-106952380D01*
X85264342Y-106952380D02*
X85359580Y-106999999D01*
X85359580Y-106999999D02*
X85407200Y-107047618D01*
X85407200Y-107047618D02*
X85454819Y-107142856D01*
X85454819Y-107142856D02*
X85454819Y-107238094D01*
X85454819Y-107238094D02*
X85407200Y-107333332D01*
X85407200Y-107333332D02*
X85359580Y-107380951D01*
X85359580Y-107380951D02*
X85264342Y-107428570D01*
X85264342Y-107428570D02*
X85073866Y-107476189D01*
X85073866Y-107476189D02*
X84835771Y-107476189D01*
X84835771Y-107476189D02*
X84645295Y-107428570D01*
X84645295Y-107428570D02*
X84550057Y-107380951D01*
X84550057Y-107380951D02*
X84502438Y-107333332D01*
X84502438Y-107333332D02*
X84454819Y-107238094D01*
X84550057Y-106523808D02*
X84502438Y-106476189D01*
X84502438Y-106476189D02*
X84454819Y-106380951D01*
X84454819Y-106380951D02*
X84454819Y-106142856D01*
X84454819Y-106142856D02*
X84502438Y-106047618D01*
X84502438Y-106047618D02*
X84550057Y-105999999D01*
X84550057Y-105999999D02*
X84645295Y-105952380D01*
X84645295Y-105952380D02*
X84740533Y-105952380D01*
X84740533Y-105952380D02*
X84883390Y-105999999D01*
X84883390Y-105999999D02*
X85454819Y-106571427D01*
X85454819Y-106571427D02*
X85454819Y-105952380D01*
X85550057Y-104857142D02*
X85502438Y-104952380D01*
X85502438Y-104952380D02*
X85407200Y-105047618D01*
X85407200Y-105047618D02*
X85264342Y-105190475D01*
X85264342Y-105190475D02*
X85216723Y-105285713D01*
X85216723Y-105285713D02*
X85216723Y-105380951D01*
X85454819Y-105333332D02*
X85407200Y-105428570D01*
X85407200Y-105428570D02*
X85311961Y-105523808D01*
X85311961Y-105523808D02*
X85121485Y-105571427D01*
X85121485Y-105571427D02*
X84788152Y-105571427D01*
X84788152Y-105571427D02*
X84597676Y-105523808D01*
X84597676Y-105523808D02*
X84502438Y-105428570D01*
X84502438Y-105428570D02*
X84454819Y-105333332D01*
X84454819Y-105333332D02*
X84454819Y-105142856D01*
X84454819Y-105142856D02*
X84502438Y-105047618D01*
X84502438Y-105047618D02*
X84597676Y-104952380D01*
X84597676Y-104952380D02*
X84788152Y-104904761D01*
X84788152Y-104904761D02*
X85121485Y-104904761D01*
X85121485Y-104904761D02*
X85311961Y-104952380D01*
X85311961Y-104952380D02*
X85407200Y-105047618D01*
X85407200Y-105047618D02*
X85454819Y-105142856D01*
X85454819Y-105142856D02*
X85454819Y-105333332D01*
X72666667Y-100407200D02*
X72809524Y-100454819D01*
X72809524Y-100454819D02*
X73047619Y-100454819D01*
X73047619Y-100454819D02*
X73142857Y-100407200D01*
X73142857Y-100407200D02*
X73190476Y-100359580D01*
X73190476Y-100359580D02*
X73238095Y-100264342D01*
X73238095Y-100264342D02*
X73238095Y-100169104D01*
X73238095Y-100169104D02*
X73190476Y-100073866D01*
X73190476Y-100073866D02*
X73142857Y-100026247D01*
X73142857Y-100026247D02*
X73047619Y-99978628D01*
X73047619Y-99978628D02*
X72857143Y-99931009D01*
X72857143Y-99931009D02*
X72761905Y-99883390D01*
X72761905Y-99883390D02*
X72714286Y-99835771D01*
X72714286Y-99835771D02*
X72666667Y-99740533D01*
X72666667Y-99740533D02*
X72666667Y-99645295D01*
X72666667Y-99645295D02*
X72714286Y-99550057D01*
X72714286Y-99550057D02*
X72761905Y-99502438D01*
X72761905Y-99502438D02*
X72857143Y-99454819D01*
X72857143Y-99454819D02*
X73095238Y-99454819D01*
X73095238Y-99454819D02*
X73238095Y-99502438D01*
X73571429Y-99454819D02*
X73809524Y-100454819D01*
X73809524Y-100454819D02*
X74000000Y-99740533D01*
X74000000Y-99740533D02*
X74190476Y-100454819D01*
X74190476Y-100454819D02*
X74428572Y-99454819D01*
X75333333Y-100454819D02*
X74761905Y-100454819D01*
X75047619Y-100454819D02*
X75047619Y-99454819D01*
X75047619Y-99454819D02*
X74952381Y-99597676D01*
X74952381Y-99597676D02*
X74857143Y-99692914D01*
X74857143Y-99692914D02*
X74761905Y-99740533D01*
X77954819Y-91857142D02*
X77954819Y-91238095D01*
X77954819Y-91238095D02*
X78335771Y-91571428D01*
X78335771Y-91571428D02*
X78335771Y-91428571D01*
X78335771Y-91428571D02*
X78383390Y-91333333D01*
X78383390Y-91333333D02*
X78431009Y-91285714D01*
X78431009Y-91285714D02*
X78526247Y-91238095D01*
X78526247Y-91238095D02*
X78764342Y-91238095D01*
X78764342Y-91238095D02*
X78859580Y-91285714D01*
X78859580Y-91285714D02*
X78907200Y-91333333D01*
X78907200Y-91333333D02*
X78954819Y-91428571D01*
X78954819Y-91428571D02*
X78954819Y-91714285D01*
X78954819Y-91714285D02*
X78907200Y-91809523D01*
X78907200Y-91809523D02*
X78859580Y-91857142D01*
X77954819Y-90333333D02*
X77954819Y-90809523D01*
X77954819Y-90809523D02*
X78431009Y-90857142D01*
X78431009Y-90857142D02*
X78383390Y-90809523D01*
X78383390Y-90809523D02*
X78335771Y-90714285D01*
X78335771Y-90714285D02*
X78335771Y-90476190D01*
X78335771Y-90476190D02*
X78383390Y-90380952D01*
X78383390Y-90380952D02*
X78431009Y-90333333D01*
X78431009Y-90333333D02*
X78526247Y-90285714D01*
X78526247Y-90285714D02*
X78764342Y-90285714D01*
X78764342Y-90285714D02*
X78859580Y-90333333D01*
X78859580Y-90333333D02*
X78907200Y-90380952D01*
X78907200Y-90380952D02*
X78954819Y-90476190D01*
X78954819Y-90476190D02*
X78954819Y-90714285D01*
X78954819Y-90714285D02*
X78907200Y-90809523D01*
X78907200Y-90809523D02*
X78859580Y-90857142D01*
X77954819Y-89380952D02*
X77954819Y-89857142D01*
X77954819Y-89857142D02*
X78431009Y-89904761D01*
X78431009Y-89904761D02*
X78383390Y-89857142D01*
X78383390Y-89857142D02*
X78335771Y-89761904D01*
X78335771Y-89761904D02*
X78335771Y-89523809D01*
X78335771Y-89523809D02*
X78383390Y-89428571D01*
X78383390Y-89428571D02*
X78431009Y-89380952D01*
X78431009Y-89380952D02*
X78526247Y-89333333D01*
X78526247Y-89333333D02*
X78764342Y-89333333D01*
X78764342Y-89333333D02*
X78859580Y-89380952D01*
X78859580Y-89380952D02*
X78907200Y-89428571D01*
X78907200Y-89428571D02*
X78954819Y-89523809D01*
X78954819Y-89523809D02*
X78954819Y-89761904D01*
X78954819Y-89761904D02*
X78907200Y-89857142D01*
X78907200Y-89857142D02*
X78859580Y-89904761D01*
X77954819Y-88999999D02*
X77954819Y-88333333D01*
X77954819Y-88333333D02*
X78954819Y-88761904D01*
X78573866Y-87952380D02*
X78573866Y-87190476D01*
X78050057Y-86761904D02*
X78002438Y-86714285D01*
X78002438Y-86714285D02*
X77954819Y-86619047D01*
X77954819Y-86619047D02*
X77954819Y-86380952D01*
X77954819Y-86380952D02*
X78002438Y-86285714D01*
X78002438Y-86285714D02*
X78050057Y-86238095D01*
X78050057Y-86238095D02*
X78145295Y-86190476D01*
X78145295Y-86190476D02*
X78240533Y-86190476D01*
X78240533Y-86190476D02*
X78383390Y-86238095D01*
X78383390Y-86238095D02*
X78954819Y-86809523D01*
X78954819Y-86809523D02*
X78954819Y-86190476D01*
X72690476Y-78454819D02*
X72690476Y-77454819D01*
X72690476Y-77454819D02*
X73023809Y-78169104D01*
X73023809Y-78169104D02*
X73357142Y-77454819D01*
X73357142Y-77454819D02*
X73357142Y-78454819D01*
X73833333Y-78454819D02*
X73833333Y-77454819D01*
X74404761Y-78454819D02*
X73976190Y-77883390D01*
X74404761Y-77454819D02*
X73833333Y-78026247D01*
X74833333Y-78454819D02*
X74833333Y-77454819D01*
X74833333Y-77454819D02*
X75071428Y-77454819D01*
X75071428Y-77454819D02*
X75214285Y-77502438D01*
X75214285Y-77502438D02*
X75309523Y-77597676D01*
X75309523Y-77597676D02*
X75357142Y-77692914D01*
X75357142Y-77692914D02*
X75404761Y-77883390D01*
X75404761Y-77883390D02*
X75404761Y-78026247D01*
X75404761Y-78026247D02*
X75357142Y-78216723D01*
X75357142Y-78216723D02*
X75309523Y-78311961D01*
X75309523Y-78311961D02*
X75214285Y-78407200D01*
X75214285Y-78407200D02*
X75071428Y-78454819D01*
X75071428Y-78454819D02*
X74833333Y-78454819D01*
X75785714Y-78407200D02*
X75928571Y-78454819D01*
X75928571Y-78454819D02*
X76166666Y-78454819D01*
X76166666Y-78454819D02*
X76261904Y-78407200D01*
X76261904Y-78407200D02*
X76309523Y-78359580D01*
X76309523Y-78359580D02*
X76357142Y-78264342D01*
X76357142Y-78264342D02*
X76357142Y-78169104D01*
X76357142Y-78169104D02*
X76309523Y-78073866D01*
X76309523Y-78073866D02*
X76261904Y-78026247D01*
X76261904Y-78026247D02*
X76166666Y-77978628D01*
X76166666Y-77978628D02*
X75976190Y-77931009D01*
X75976190Y-77931009D02*
X75880952Y-77883390D01*
X75880952Y-77883390D02*
X75833333Y-77835771D01*
X75833333Y-77835771D02*
X75785714Y-77740533D01*
X75785714Y-77740533D02*
X75785714Y-77645295D01*
X75785714Y-77645295D02*
X75833333Y-77550057D01*
X75833333Y-77550057D02*
X75880952Y-77502438D01*
X75880952Y-77502438D02*
X75976190Y-77454819D01*
X75976190Y-77454819D02*
X76214285Y-77454819D01*
X76214285Y-77454819D02*
X76357142Y-77502438D01*
X76547619Y-78550057D02*
X77309523Y-78550057D01*
X77452381Y-77454819D02*
X78071428Y-77454819D01*
X78071428Y-77454819D02*
X77738095Y-77835771D01*
X77738095Y-77835771D02*
X77880952Y-77835771D01*
X77880952Y-77835771D02*
X77976190Y-77883390D01*
X77976190Y-77883390D02*
X78023809Y-77931009D01*
X78023809Y-77931009D02*
X78071428Y-78026247D01*
X78071428Y-78026247D02*
X78071428Y-78264342D01*
X78071428Y-78264342D02*
X78023809Y-78359580D01*
X78023809Y-78359580D02*
X77976190Y-78407200D01*
X77976190Y-78407200D02*
X77880952Y-78454819D01*
X77880952Y-78454819D02*
X77595238Y-78454819D01*
X77595238Y-78454819D02*
X77500000Y-78407200D01*
X77500000Y-78407200D02*
X77452381Y-78359580D01*
X78500000Y-78073866D02*
X79261905Y-78073866D01*
X79690476Y-77550057D02*
X79738095Y-77502438D01*
X79738095Y-77502438D02*
X79833333Y-77454819D01*
X79833333Y-77454819D02*
X80071428Y-77454819D01*
X80071428Y-77454819D02*
X80166666Y-77502438D01*
X80166666Y-77502438D02*
X80214285Y-77550057D01*
X80214285Y-77550057D02*
X80261904Y-77645295D01*
X80261904Y-77645295D02*
X80261904Y-77740533D01*
X80261904Y-77740533D02*
X80214285Y-77883390D01*
X80214285Y-77883390D02*
X79642857Y-78454819D01*
X79642857Y-78454819D02*
X80261904Y-78454819D01*
X80452381Y-78550057D02*
X81214285Y-78550057D01*
X81928571Y-77454819D02*
X81452381Y-77454819D01*
X81452381Y-77454819D02*
X81404762Y-77931009D01*
X81404762Y-77931009D02*
X81452381Y-77883390D01*
X81452381Y-77883390D02*
X81547619Y-77835771D01*
X81547619Y-77835771D02*
X81785714Y-77835771D01*
X81785714Y-77835771D02*
X81880952Y-77883390D01*
X81880952Y-77883390D02*
X81928571Y-77931009D01*
X81928571Y-77931009D02*
X81976190Y-78026247D01*
X81976190Y-78026247D02*
X81976190Y-78264342D01*
X81976190Y-78264342D02*
X81928571Y-78359580D01*
X81928571Y-78359580D02*
X81880952Y-78407200D01*
X81880952Y-78407200D02*
X81785714Y-78454819D01*
X81785714Y-78454819D02*
X81547619Y-78454819D01*
X81547619Y-78454819D02*
X81452381Y-78407200D01*
X81452381Y-78407200D02*
X81404762Y-78359580D01*
X82404762Y-78359580D02*
X82452381Y-78407200D01*
X82452381Y-78407200D02*
X82404762Y-78454819D01*
X82404762Y-78454819D02*
X82357143Y-78407200D01*
X82357143Y-78407200D02*
X82404762Y-78359580D01*
X82404762Y-78359580D02*
X82404762Y-78454819D01*
X83071428Y-77454819D02*
X83166666Y-77454819D01*
X83166666Y-77454819D02*
X83261904Y-77502438D01*
X83261904Y-77502438D02*
X83309523Y-77550057D01*
X83309523Y-77550057D02*
X83357142Y-77645295D01*
X83357142Y-77645295D02*
X83404761Y-77835771D01*
X83404761Y-77835771D02*
X83404761Y-78073866D01*
X83404761Y-78073866D02*
X83357142Y-78264342D01*
X83357142Y-78264342D02*
X83309523Y-78359580D01*
X83309523Y-78359580D02*
X83261904Y-78407200D01*
X83261904Y-78407200D02*
X83166666Y-78454819D01*
X83166666Y-78454819D02*
X83071428Y-78454819D01*
X83071428Y-78454819D02*
X82976190Y-78407200D01*
X82976190Y-78407200D02*
X82928571Y-78359580D01*
X82928571Y-78359580D02*
X82880952Y-78264342D01*
X82880952Y-78264342D02*
X82833333Y-78073866D01*
X82833333Y-78073866D02*
X82833333Y-77835771D01*
X82833333Y-77835771D02*
X82880952Y-77645295D01*
X82880952Y-77645295D02*
X82928571Y-77550057D01*
X82928571Y-77550057D02*
X82976190Y-77502438D01*
X82976190Y-77502438D02*
X83071428Y-77454819D01*
X83976190Y-77883390D02*
X83880952Y-77835771D01*
X83880952Y-77835771D02*
X83833333Y-77788152D01*
X83833333Y-77788152D02*
X83785714Y-77692914D01*
X83785714Y-77692914D02*
X83785714Y-77645295D01*
X83785714Y-77645295D02*
X83833333Y-77550057D01*
X83833333Y-77550057D02*
X83880952Y-77502438D01*
X83880952Y-77502438D02*
X83976190Y-77454819D01*
X83976190Y-77454819D02*
X84166666Y-77454819D01*
X84166666Y-77454819D02*
X84261904Y-77502438D01*
X84261904Y-77502438D02*
X84309523Y-77550057D01*
X84309523Y-77550057D02*
X84357142Y-77645295D01*
X84357142Y-77645295D02*
X84357142Y-77692914D01*
X84357142Y-77692914D02*
X84309523Y-77788152D01*
X84309523Y-77788152D02*
X84261904Y-77835771D01*
X84261904Y-77835771D02*
X84166666Y-77883390D01*
X84166666Y-77883390D02*
X83976190Y-77883390D01*
X83976190Y-77883390D02*
X83880952Y-77931009D01*
X83880952Y-77931009D02*
X83833333Y-77978628D01*
X83833333Y-77978628D02*
X83785714Y-78073866D01*
X83785714Y-78073866D02*
X83785714Y-78264342D01*
X83785714Y-78264342D02*
X83833333Y-78359580D01*
X83833333Y-78359580D02*
X83880952Y-78407200D01*
X83880952Y-78407200D02*
X83976190Y-78454819D01*
X83976190Y-78454819D02*
X84166666Y-78454819D01*
X84166666Y-78454819D02*
X84261904Y-78407200D01*
X84261904Y-78407200D02*
X84309523Y-78359580D01*
X84309523Y-78359580D02*
X84357142Y-78264342D01*
X84357142Y-78264342D02*
X84357142Y-78073866D01*
X84357142Y-78073866D02*
X84309523Y-77978628D01*
X84309523Y-77978628D02*
X84261904Y-77931009D01*
X84261904Y-77931009D02*
X84166666Y-77883390D01*
X71666666Y-66454819D02*
X71666666Y-67169104D01*
X71666666Y-67169104D02*
X71619047Y-67311961D01*
X71619047Y-67311961D02*
X71523809Y-67407200D01*
X71523809Y-67407200D02*
X71380952Y-67454819D01*
X71380952Y-67454819D02*
X71285714Y-67454819D01*
X72666666Y-67454819D02*
X72095238Y-67454819D01*
X72380952Y-67454819D02*
X72380952Y-66454819D01*
X72380952Y-66454819D02*
X72285714Y-66597676D01*
X72285714Y-66597676D02*
X72190476Y-66692914D01*
X72190476Y-66692914D02*
X72095238Y-66740533D01*
X72440476Y-132454819D02*
X72440476Y-131454819D01*
X72440476Y-131454819D02*
X72773809Y-132169104D01*
X72773809Y-132169104D02*
X73107142Y-131454819D01*
X73107142Y-131454819D02*
X73107142Y-132454819D01*
X73583333Y-132454819D02*
X73583333Y-131454819D01*
X74154761Y-132454819D02*
X73726190Y-131883390D01*
X74154761Y-131454819D02*
X73583333Y-132026247D01*
X74583333Y-132454819D02*
X74583333Y-131454819D01*
X74583333Y-131454819D02*
X74821428Y-131454819D01*
X74821428Y-131454819D02*
X74964285Y-131502438D01*
X74964285Y-131502438D02*
X75059523Y-131597676D01*
X75059523Y-131597676D02*
X75107142Y-131692914D01*
X75107142Y-131692914D02*
X75154761Y-131883390D01*
X75154761Y-131883390D02*
X75154761Y-132026247D01*
X75154761Y-132026247D02*
X75107142Y-132216723D01*
X75107142Y-132216723D02*
X75059523Y-132311961D01*
X75059523Y-132311961D02*
X74964285Y-132407200D01*
X74964285Y-132407200D02*
X74821428Y-132454819D01*
X74821428Y-132454819D02*
X74583333Y-132454819D01*
X75535714Y-132407200D02*
X75678571Y-132454819D01*
X75678571Y-132454819D02*
X75916666Y-132454819D01*
X75916666Y-132454819D02*
X76011904Y-132407200D01*
X76011904Y-132407200D02*
X76059523Y-132359580D01*
X76059523Y-132359580D02*
X76107142Y-132264342D01*
X76107142Y-132264342D02*
X76107142Y-132169104D01*
X76107142Y-132169104D02*
X76059523Y-132073866D01*
X76059523Y-132073866D02*
X76011904Y-132026247D01*
X76011904Y-132026247D02*
X75916666Y-131978628D01*
X75916666Y-131978628D02*
X75726190Y-131931009D01*
X75726190Y-131931009D02*
X75630952Y-131883390D01*
X75630952Y-131883390D02*
X75583333Y-131835771D01*
X75583333Y-131835771D02*
X75535714Y-131740533D01*
X75535714Y-131740533D02*
X75535714Y-131645295D01*
X75535714Y-131645295D02*
X75583333Y-131550057D01*
X75583333Y-131550057D02*
X75630952Y-131502438D01*
X75630952Y-131502438D02*
X75726190Y-131454819D01*
X75726190Y-131454819D02*
X75964285Y-131454819D01*
X75964285Y-131454819D02*
X76107142Y-131502438D01*
X76297619Y-132550057D02*
X77059523Y-132550057D01*
X77202381Y-131454819D02*
X77821428Y-131454819D01*
X77821428Y-131454819D02*
X77488095Y-131835771D01*
X77488095Y-131835771D02*
X77630952Y-131835771D01*
X77630952Y-131835771D02*
X77726190Y-131883390D01*
X77726190Y-131883390D02*
X77773809Y-131931009D01*
X77773809Y-131931009D02*
X77821428Y-132026247D01*
X77821428Y-132026247D02*
X77821428Y-132264342D01*
X77821428Y-132264342D02*
X77773809Y-132359580D01*
X77773809Y-132359580D02*
X77726190Y-132407200D01*
X77726190Y-132407200D02*
X77630952Y-132454819D01*
X77630952Y-132454819D02*
X77345238Y-132454819D01*
X77345238Y-132454819D02*
X77250000Y-132407200D01*
X77250000Y-132407200D02*
X77202381Y-132359580D01*
X78250000Y-132073866D02*
X79011905Y-132073866D01*
X79392857Y-131454819D02*
X80011904Y-131454819D01*
X80011904Y-131454819D02*
X79678571Y-131835771D01*
X79678571Y-131835771D02*
X79821428Y-131835771D01*
X79821428Y-131835771D02*
X79916666Y-131883390D01*
X79916666Y-131883390D02*
X79964285Y-131931009D01*
X79964285Y-131931009D02*
X80011904Y-132026247D01*
X80011904Y-132026247D02*
X80011904Y-132264342D01*
X80011904Y-132264342D02*
X79964285Y-132359580D01*
X79964285Y-132359580D02*
X79916666Y-132407200D01*
X79916666Y-132407200D02*
X79821428Y-132454819D01*
X79821428Y-132454819D02*
X79535714Y-132454819D01*
X79535714Y-132454819D02*
X79440476Y-132407200D01*
X79440476Y-132407200D02*
X79392857Y-132359580D01*
X80202381Y-132550057D02*
X80964285Y-132550057D01*
X81678571Y-131454819D02*
X81202381Y-131454819D01*
X81202381Y-131454819D02*
X81154762Y-131931009D01*
X81154762Y-131931009D02*
X81202381Y-131883390D01*
X81202381Y-131883390D02*
X81297619Y-131835771D01*
X81297619Y-131835771D02*
X81535714Y-131835771D01*
X81535714Y-131835771D02*
X81630952Y-131883390D01*
X81630952Y-131883390D02*
X81678571Y-131931009D01*
X81678571Y-131931009D02*
X81726190Y-132026247D01*
X81726190Y-132026247D02*
X81726190Y-132264342D01*
X81726190Y-132264342D02*
X81678571Y-132359580D01*
X81678571Y-132359580D02*
X81630952Y-132407200D01*
X81630952Y-132407200D02*
X81535714Y-132454819D01*
X81535714Y-132454819D02*
X81297619Y-132454819D01*
X81297619Y-132454819D02*
X81202381Y-132407200D01*
X81202381Y-132407200D02*
X81154762Y-132359580D01*
X82154762Y-132359580D02*
X82202381Y-132407200D01*
X82202381Y-132407200D02*
X82154762Y-132454819D01*
X82154762Y-132454819D02*
X82107143Y-132407200D01*
X82107143Y-132407200D02*
X82154762Y-132359580D01*
X82154762Y-132359580D02*
X82154762Y-132454819D01*
X82821428Y-131454819D02*
X82916666Y-131454819D01*
X82916666Y-131454819D02*
X83011904Y-131502438D01*
X83011904Y-131502438D02*
X83059523Y-131550057D01*
X83059523Y-131550057D02*
X83107142Y-131645295D01*
X83107142Y-131645295D02*
X83154761Y-131835771D01*
X83154761Y-131835771D02*
X83154761Y-132073866D01*
X83154761Y-132073866D02*
X83107142Y-132264342D01*
X83107142Y-132264342D02*
X83059523Y-132359580D01*
X83059523Y-132359580D02*
X83011904Y-132407200D01*
X83011904Y-132407200D02*
X82916666Y-132454819D01*
X82916666Y-132454819D02*
X82821428Y-132454819D01*
X82821428Y-132454819D02*
X82726190Y-132407200D01*
X82726190Y-132407200D02*
X82678571Y-132359580D01*
X82678571Y-132359580D02*
X82630952Y-132264342D01*
X82630952Y-132264342D02*
X82583333Y-132073866D01*
X82583333Y-132073866D02*
X82583333Y-131835771D01*
X82583333Y-131835771D02*
X82630952Y-131645295D01*
X82630952Y-131645295D02*
X82678571Y-131550057D01*
X82678571Y-131550057D02*
X82726190Y-131502438D01*
X82726190Y-131502438D02*
X82821428Y-131454819D01*
X83726190Y-131883390D02*
X83630952Y-131835771D01*
X83630952Y-131835771D02*
X83583333Y-131788152D01*
X83583333Y-131788152D02*
X83535714Y-131692914D01*
X83535714Y-131692914D02*
X83535714Y-131645295D01*
X83535714Y-131645295D02*
X83583333Y-131550057D01*
X83583333Y-131550057D02*
X83630952Y-131502438D01*
X83630952Y-131502438D02*
X83726190Y-131454819D01*
X83726190Y-131454819D02*
X83916666Y-131454819D01*
X83916666Y-131454819D02*
X84011904Y-131502438D01*
X84011904Y-131502438D02*
X84059523Y-131550057D01*
X84059523Y-131550057D02*
X84107142Y-131645295D01*
X84107142Y-131645295D02*
X84107142Y-131692914D01*
X84107142Y-131692914D02*
X84059523Y-131788152D01*
X84059523Y-131788152D02*
X84011904Y-131835771D01*
X84011904Y-131835771D02*
X83916666Y-131883390D01*
X83916666Y-131883390D02*
X83726190Y-131883390D01*
X83726190Y-131883390D02*
X83630952Y-131931009D01*
X83630952Y-131931009D02*
X83583333Y-131978628D01*
X83583333Y-131978628D02*
X83535714Y-132073866D01*
X83535714Y-132073866D02*
X83535714Y-132264342D01*
X83535714Y-132264342D02*
X83583333Y-132359580D01*
X83583333Y-132359580D02*
X83630952Y-132407200D01*
X83630952Y-132407200D02*
X83726190Y-132454819D01*
X83726190Y-132454819D02*
X83916666Y-132454819D01*
X83916666Y-132454819D02*
X84011904Y-132407200D01*
X84011904Y-132407200D02*
X84059523Y-132359580D01*
X84059523Y-132359580D02*
X84107142Y-132264342D01*
X84107142Y-132264342D02*
X84107142Y-132073866D01*
X84107142Y-132073866D02*
X84059523Y-131978628D01*
X84059523Y-131978628D02*
X84011904Y-131931009D01*
X84011904Y-131931009D02*
X83916666Y-131883390D01*
X71166666Y-120954819D02*
X71166666Y-121669104D01*
X71166666Y-121669104D02*
X71119047Y-121811961D01*
X71119047Y-121811961D02*
X71023809Y-121907200D01*
X71023809Y-121907200D02*
X70880952Y-121954819D01*
X70880952Y-121954819D02*
X70785714Y-121954819D01*
X71595238Y-121050057D02*
X71642857Y-121002438D01*
X71642857Y-121002438D02*
X71738095Y-120954819D01*
X71738095Y-120954819D02*
X71976190Y-120954819D01*
X71976190Y-120954819D02*
X72071428Y-121002438D01*
X72071428Y-121002438D02*
X72119047Y-121050057D01*
X72119047Y-121050057D02*
X72166666Y-121145295D01*
X72166666Y-121145295D02*
X72166666Y-121240533D01*
X72166666Y-121240533D02*
X72119047Y-121383390D01*
X72119047Y-121383390D02*
X71547619Y-121954819D01*
X71547619Y-121954819D02*
X72166666Y-121954819D01*
D11*
%TO.C,SW1*%
X72687039Y-105355959D02*
X72687039Y-106937956D01*
X72687039Y-106937956D02*
X72739148Y-106937956D01*
X72687039Y-110128325D02*
X72687039Y-111710322D01*
X72687039Y-111710322D02*
X72739148Y-111710322D01*
X72687039Y-114900687D02*
X72687039Y-116482684D01*
X72687039Y-116482684D02*
X72739148Y-116482684D01*
X72739148Y-101163664D02*
X72739148Y-120674975D01*
X72739148Y-105355959D02*
X72687039Y-105355959D01*
X72739148Y-106937956D02*
X73077801Y-107122527D01*
X72739148Y-110128325D02*
X72687039Y-110128325D01*
X72739148Y-111710319D02*
X73077801Y-111894885D01*
X72739148Y-114900687D02*
X72687039Y-114900687D01*
X72739148Y-116482684D02*
X73077801Y-116667250D01*
X73077801Y-105145029D02*
X73077801Y-107122527D01*
X73077801Y-105145029D02*
X73338299Y-105145029D01*
X73077801Y-107122527D02*
X73338299Y-107122527D01*
X73077801Y-109917391D02*
X73077801Y-111710322D01*
X73077801Y-109917391D02*
X73338299Y-109917391D01*
X73077801Y-111710322D02*
X73390408Y-111710322D01*
X73077801Y-111894885D02*
X73338299Y-111894885D01*
X73077801Y-114689749D02*
X73077801Y-116482684D01*
X73077801Y-114689749D02*
X73338299Y-114689749D01*
X73077801Y-116482684D02*
X73390408Y-116482684D01*
X73077801Y-116667250D02*
X73338299Y-116667250D01*
X73338299Y-101691000D02*
X73338299Y-120147646D01*
X73338299Y-105145029D02*
X73338299Y-105355959D01*
X73338299Y-107122527D02*
X73338299Y-106937956D01*
X73338299Y-109917391D02*
X73338299Y-110128325D01*
X73338299Y-111894885D02*
X73338299Y-111710322D01*
X73338299Y-114689749D02*
X73338299Y-114900687D01*
X73338299Y-116667250D02*
X73338299Y-116482684D01*
X73338299Y-120147646D02*
X83810498Y-120147646D01*
X73390408Y-102178782D02*
X73390408Y-119659861D01*
X73390408Y-105355959D02*
X72739148Y-105355959D01*
X73390408Y-105355959D02*
X73338299Y-105355959D01*
X73390408Y-110128325D02*
X72739148Y-110128325D01*
X73390408Y-110128325D02*
X73338299Y-110128325D01*
X73390408Y-114900687D02*
X72739148Y-114900687D01*
X73390408Y-114900687D02*
X73338299Y-114900687D01*
X73781171Y-120055361D02*
X82768491Y-120055361D01*
X76321057Y-101783282D02*
X73781171Y-101783282D01*
X76321057Y-102165598D02*
X79902966Y-102165598D01*
X76321057Y-102178782D02*
X76321057Y-101783282D01*
X76451306Y-106146960D02*
X79902966Y-106146960D01*
X76451306Y-106759985D02*
X76646680Y-106873751D01*
X76451306Y-111281863D02*
X76490384Y-111281863D01*
X76451306Y-115691683D02*
X76451306Y-106146960D01*
X76490384Y-106232653D02*
X76490384Y-106759985D01*
X76490384Y-106759985D02*
X76451306Y-106759985D01*
X76490384Y-111281863D02*
X76490384Y-111809195D01*
X76490384Y-111809195D02*
X80059262Y-111809195D01*
X76646680Y-106384261D02*
X76646680Y-111657587D01*
X76646680Y-106873751D02*
X80059262Y-106873751D01*
X76646680Y-107725176D02*
X76646680Y-108580012D01*
X76646680Y-107725176D02*
X79902966Y-107725176D01*
X76646680Y-108580012D02*
X79902966Y-108580012D01*
X76646680Y-109461951D02*
X76646680Y-109897860D01*
X76646680Y-109461951D02*
X79902966Y-109461951D01*
X76646680Y-109897860D02*
X79902966Y-109897860D01*
X76646680Y-110316672D02*
X76646680Y-111168097D01*
X76646680Y-110316672D02*
X79902966Y-110316672D01*
X76646680Y-111168097D02*
X80059262Y-111168097D01*
X77714734Y-102165598D02*
X77714734Y-102178782D01*
X77714734Y-115283003D02*
X77714734Y-115691683D01*
X78834912Y-102178782D02*
X78834912Y-102165598D01*
X78834912Y-115283003D02*
X77714734Y-115283003D01*
X78834912Y-115691683D02*
X78834912Y-115283003D01*
X79902966Y-102165598D02*
X79902966Y-102178782D01*
X79902966Y-106146960D02*
X79902966Y-111657587D01*
X79902966Y-106384261D02*
X76646680Y-106384261D01*
X79902966Y-108580012D02*
X79902966Y-109461951D01*
X79902966Y-109897860D02*
X79902966Y-110316672D01*
X79902966Y-111657587D02*
X76646680Y-111657587D01*
X80059262Y-106232653D02*
X76490384Y-106232653D01*
X80059262Y-106232653D02*
X80098340Y-106146960D01*
X80059262Y-106873751D02*
X80059262Y-106232653D01*
X80059262Y-111809195D02*
X80059262Y-111168097D01*
X80098340Y-106146960D02*
X80098340Y-115691683D01*
X80098340Y-115691683D02*
X76451306Y-115691683D01*
X80228589Y-101783282D02*
X80228589Y-102178782D01*
X80228589Y-102178782D02*
X76321057Y-102178782D01*
X82768491Y-101783282D02*
X80228589Y-101783282D01*
X83159238Y-106937956D02*
X83211331Y-106937956D01*
X83159238Y-106937956D02*
X83810498Y-106937956D01*
X83159238Y-111710322D02*
X83211331Y-111710322D01*
X83159238Y-116482684D02*
X83471844Y-116482684D01*
X83159238Y-119659861D02*
X83159238Y-102178782D01*
X83211331Y-101691000D02*
X73338299Y-101691000D01*
X83211331Y-101691000D02*
X83211331Y-120147646D01*
X83211331Y-105145029D02*
X83211331Y-105355959D01*
X83211331Y-105355959D02*
X83159238Y-105355959D01*
X83211331Y-107122527D02*
X83211331Y-106937956D01*
X83211331Y-109917391D02*
X83211331Y-110128325D01*
X83211331Y-110128325D02*
X83159238Y-110128325D01*
X83211331Y-111894885D02*
X83211331Y-111710322D01*
X83211331Y-114689749D02*
X83211331Y-114900687D01*
X83211331Y-114900687D02*
X83159238Y-114900687D01*
X83211331Y-116667250D02*
X83211331Y-116482684D01*
X83471844Y-105145029D02*
X83211331Y-105145029D01*
X83471844Y-105145029D02*
X83471844Y-107122527D01*
X83471844Y-107122527D02*
X83211331Y-107122527D01*
X83471844Y-109917391D02*
X83211331Y-109917391D01*
X83471844Y-109917391D02*
X83471844Y-111710322D01*
X83471844Y-111710322D02*
X83862607Y-111710322D01*
X83471844Y-114689749D02*
X83211331Y-114689749D01*
X83471844Y-114689749D02*
X83471844Y-116482684D01*
X83471844Y-116667250D02*
X83211331Y-116667250D01*
X83550000Y-100900000D02*
X72999661Y-100900000D01*
X83550000Y-120938647D02*
X72999661Y-120938647D01*
X83810498Y-101163664D02*
X83810498Y-101141936D01*
X83810498Y-101163664D02*
X83810498Y-120147646D01*
X83810498Y-105355959D02*
X83471844Y-105145029D01*
X83810498Y-106937956D02*
X83862607Y-106937956D01*
X83810498Y-116482684D02*
X83471844Y-116667250D01*
X83810498Y-116482684D02*
X83862607Y-116482684D01*
X83810498Y-120674975D02*
X83810498Y-120147646D01*
X83862607Y-105355959D02*
X83810498Y-105355959D01*
X83862607Y-106937956D02*
X83862607Y-105355959D01*
X83862607Y-110128325D02*
X83810498Y-110128325D01*
X83862607Y-111894885D02*
X83211331Y-111894885D01*
X83862607Y-111894885D02*
X83862607Y-110128325D01*
X83862607Y-114900687D02*
X83810498Y-114900687D01*
X83862607Y-116482684D02*
X83862607Y-114900687D01*
X72739148Y-120674975D02*
X72739188Y-120679637D01*
X72739307Y-120684288D01*
X72739507Y-120688929D01*
X72739785Y-120693559D01*
X72740143Y-120698176D01*
X72740579Y-120702781D01*
X72741095Y-120707372D01*
X72741689Y-120711949D01*
X72742361Y-120716510D01*
X72743112Y-120721055D01*
X72743941Y-120725583D01*
X72744848Y-120730092D01*
X72745832Y-120734583D01*
X72746894Y-120739055D01*
X72748033Y-120743505D01*
X72749248Y-120747933D01*
X72750541Y-120752339D01*
X72751909Y-120756720D01*
X72753353Y-120761077D01*
X72754873Y-120765408D01*
X72756467Y-120769711D01*
X72758137Y-120773986D01*
X72759880Y-120778232D01*
X72761698Y-120782447D01*
X72763588Y-120786630D01*
X72765552Y-120790780D01*
X72767587Y-120794896D01*
X72769694Y-120798977D01*
X72771873Y-120803021D01*
X72774121Y-120807028D01*
X72776439Y-120810995D01*
X72778827Y-120814922D01*
X72781282Y-120818807D01*
X72783805Y-120822649D01*
X72786395Y-120826448D01*
X72789050Y-120830201D01*
X72791771Y-120833907D01*
X72794555Y-120837566D01*
X72797403Y-120841176D01*
X72800313Y-120844735D01*
X72803284Y-120848243D01*
X72806316Y-120851699D01*
X72809406Y-120855100D01*
X72810974Y-120856781D01*
X72812555Y-120858447D01*
X72814151Y-120860099D01*
X72815761Y-120861738D01*
X72817385Y-120863362D01*
X72819023Y-120864971D01*
X72820674Y-120866566D01*
X72822339Y-120868146D01*
X72824018Y-120869711D01*
X72825709Y-120871262D01*
X72827414Y-120872797D01*
X72829132Y-120874317D01*
X72830863Y-120875822D01*
X72832606Y-120877311D01*
X72834362Y-120878784D01*
X72836130Y-120880242D01*
X72837911Y-120881684D01*
X72839703Y-120883110D01*
X72841508Y-120884520D01*
X72843324Y-120885914D01*
X72845152Y-120887291D01*
X72846991Y-120888652D01*
X72848842Y-120889997D01*
X72850704Y-120891325D01*
X72852576Y-120892635D01*
X72854461Y-120893930D01*
X72856354Y-120895207D01*
X72858260Y-120896468D01*
X72860175Y-120897710D01*
X72862101Y-120898937D01*
X72864036Y-120900145D01*
X72865982Y-120901336D01*
X72867936Y-120902510D01*
X72869902Y-120903666D01*
X72871876Y-120904804D01*
X72873860Y-120905925D01*
X72875852Y-120907028D01*
X72877855Y-120908113D01*
X72879865Y-120909180D01*
X72881885Y-120910229D01*
X72883912Y-120911259D01*
X72885949Y-120912272D01*
X72887993Y-120913266D01*
X72890046Y-120914242D01*
X72892106Y-120915200D01*
X72894175Y-120916139D01*
X72896250Y-120917059D01*
X72898335Y-120917962D01*
X72900425Y-120918845D01*
X72902524Y-120919710D01*
X72904628Y-120920555D01*
X72906741Y-120921383D01*
X72908859Y-120922191D01*
X72910986Y-120922980D01*
X72913117Y-120923750D01*
X72915257Y-120924502D01*
X72917401Y-120925234D01*
X72919553Y-120925948D01*
X72921709Y-120926642D01*
X72923873Y-120927317D01*
X72926040Y-120927972D01*
X72928216Y-120928609D01*
X72930394Y-120929226D01*
X72932581Y-120929825D01*
X72934770Y-120930403D01*
X72936966Y-120930962D01*
X72939166Y-120931502D01*
X72941372Y-120932023D01*
X72943581Y-120932523D01*
X72945797Y-120933005D01*
X72948015Y-120933467D01*
X72950240Y-120933909D01*
X72952467Y-120934332D01*
X72954700Y-120934735D01*
X72956936Y-120935119D01*
X72959177Y-120935483D01*
X72961420Y-120935827D01*
X72963669Y-120936151D01*
X72965920Y-120936456D01*
X72968176Y-120936741D01*
X72970433Y-120937006D01*
X72972697Y-120937252D01*
X72974961Y-120937477D01*
X72977231Y-120937683D01*
X72979501Y-120937869D01*
X72981777Y-120938036D01*
X72984053Y-120938182D01*
X72986335Y-120938308D01*
X72988616Y-120938414D01*
X72990903Y-120938501D01*
X72993190Y-120938567D01*
X72995482Y-120938614D01*
X72999661Y-120938647D01*
X72999661Y-100900000D02*
X72995082Y-100900040D01*
X72990514Y-100900159D01*
X72985955Y-100900359D01*
X72981408Y-100900637D01*
X72976872Y-100900995D01*
X72972349Y-100901431D01*
X72967839Y-100901947D01*
X72963342Y-100902541D01*
X72958861Y-100903214D01*
X72954395Y-100903965D01*
X72949945Y-100904795D01*
X72945513Y-100905702D01*
X72941099Y-100906687D01*
X72936703Y-100907750D01*
X72932328Y-100908890D01*
X72927973Y-100910107D01*
X72923640Y-100911401D01*
X72919330Y-100912771D01*
X72915044Y-100914217D01*
X72910783Y-100915740D01*
X72906548Y-100917338D01*
X72902339Y-100919011D01*
X72898159Y-100920759D01*
X72894008Y-100922581D01*
X72889887Y-100924477D01*
X72885798Y-100926447D01*
X72881742Y-100928489D01*
X72877719Y-100930604D01*
X72873732Y-100932791D01*
X72869781Y-100935049D01*
X72865867Y-100937377D01*
X72861992Y-100939776D01*
X72858157Y-100942243D01*
X72854363Y-100944780D01*
X72850612Y-100947384D01*
X72846904Y-100950055D01*
X72843241Y-100952792D01*
X72839624Y-100955595D01*
X72836055Y-100958462D01*
X72832534Y-100961393D01*
X72829062Y-100964386D01*
X72825642Y-100967441D01*
X72822274Y-100970557D01*
X72818960Y-100973732D01*
X72815700Y-100976966D01*
X72812495Y-100980257D01*
X72810914Y-100981924D01*
X72809347Y-100983605D01*
X72807795Y-100985299D01*
X72806258Y-100987007D01*
X72804735Y-100988729D01*
X72803227Y-100990465D01*
X72801734Y-100992213D01*
X72800256Y-100993974D01*
X72798793Y-100995749D01*
X72797346Y-100997536D01*
X72795914Y-100999336D01*
X72794498Y-101001149D01*
X72793098Y-101002973D01*
X72791713Y-101004810D01*
X72790345Y-101006659D01*
X72788992Y-101008520D01*
X72787656Y-101010392D01*
X72786336Y-101012277D01*
X72785033Y-101014172D01*
X72783746Y-101016079D01*
X72782476Y-101017997D01*
X72781222Y-101019926D01*
X72779986Y-101021866D01*
X72778766Y-101023816D01*
X72777563Y-101025777D01*
X72776378Y-101027749D01*
X72775210Y-101029729D01*
X72774058Y-101031721D01*
X72772925Y-101033722D01*
X72771809Y-101035733D01*
X72770711Y-101037753D01*
X72769630Y-101039784D01*
X72768567Y-101041822D01*
X72767522Y-101043871D01*
X72766495Y-101045928D01*
X72765486Y-101047994D01*
X72764495Y-101050068D01*
X72763522Y-101052152D01*
X72762568Y-101054243D01*
X72761631Y-101056343D01*
X72760713Y-101058450D01*
X72759813Y-101060566D01*
X72758933Y-101062688D01*
X72758070Y-101064820D01*
X72757226Y-101066957D01*
X72756400Y-101069103D01*
X72755594Y-101071255D01*
X72754806Y-101073416D01*
X72754037Y-101075581D01*
X72753287Y-101077755D01*
X72752556Y-101079934D01*
X72751843Y-101082121D01*
X72751151Y-101084313D01*
X72750476Y-101086512D01*
X72749821Y-101088716D01*
X72749185Y-101090928D01*
X72748569Y-101093143D01*
X72747971Y-101095366D01*
X72747393Y-101097593D01*
X72746834Y-101099827D01*
X72746295Y-101102064D01*
X72745775Y-101104308D01*
X72745274Y-101106555D01*
X72744793Y-101108809D01*
X72744331Y-101111066D01*
X72743889Y-101113330D01*
X72743466Y-101115596D01*
X72743063Y-101117868D01*
X72742680Y-101120143D01*
X72742315Y-101122424D01*
X72741971Y-101124707D01*
X72741647Y-101126996D01*
X72741342Y-101129286D01*
X72741057Y-101131583D01*
X72740791Y-101133881D01*
X72740546Y-101136185D01*
X72740320Y-101138490D01*
X72740114Y-101140800D01*
X72739928Y-101143112D01*
X72739761Y-101145429D01*
X72739615Y-101147746D01*
X72739488Y-101150069D01*
X72739382Y-101152392D01*
X72739295Y-101154721D01*
X72739228Y-101157049D01*
X72739182Y-101159383D01*
X72739148Y-101163664D01*
X73390408Y-119659861D02*
X73390448Y-119665575D01*
X73390568Y-119671279D01*
X73390767Y-119676973D01*
X73391046Y-119682655D01*
X73391404Y-119688326D01*
X73391841Y-119693985D01*
X73392357Y-119699630D01*
X73392952Y-119705262D01*
X73393626Y-119710880D01*
X73394379Y-119716483D01*
X73395210Y-119722070D01*
X73396119Y-119727642D01*
X73397107Y-119733196D01*
X73398172Y-119738732D01*
X73399315Y-119744250D01*
X73400536Y-119749749D01*
X73401834Y-119755227D01*
X73403209Y-119760685D01*
X73404661Y-119766121D01*
X73406190Y-119771534D01*
X73407795Y-119776925D01*
X73409476Y-119782291D01*
X73411233Y-119787632D01*
X73413066Y-119792947D01*
X73414974Y-119798235D01*
X73416956Y-119803495D01*
X73419014Y-119808727D01*
X73421145Y-119813929D01*
X73423350Y-119819101D01*
X73425629Y-119824241D01*
X73427981Y-119829349D01*
X73430405Y-119834423D01*
X73432902Y-119839463D01*
X73435470Y-119844467D01*
X73438109Y-119849435D01*
X73440819Y-119854366D01*
X73443598Y-119859258D01*
X73446448Y-119864111D01*
X73449366Y-119868923D01*
X73452353Y-119873694D01*
X73455407Y-119878422D01*
X73458528Y-119883107D01*
X73461716Y-119887747D01*
X73464970Y-119892342D01*
X73468288Y-119896890D01*
X73471671Y-119901391D01*
X73475118Y-119905843D01*
X73478627Y-119910245D01*
X73482198Y-119914597D01*
X73485830Y-119918898D01*
X73489523Y-119923146D01*
X73493275Y-119927341D01*
X73497086Y-119931481D01*
X73499013Y-119933531D01*
X73500955Y-119935566D01*
X73502911Y-119937588D01*
X73504880Y-119939595D01*
X73506864Y-119941588D01*
X73508862Y-119943567D01*
X73510874Y-119945531D01*
X73512899Y-119947480D01*
X73514937Y-119949415D01*
X73516990Y-119951335D01*
X73519055Y-119953240D01*
X73521134Y-119955130D01*
X73523225Y-119957005D01*
X73525330Y-119958864D01*
X73527448Y-119960708D01*
X73529578Y-119962537D01*
X73531720Y-119964350D01*
X73533876Y-119966148D01*
X73536043Y-119967929D01*
X73538223Y-119969695D01*
X73540415Y-119971445D01*
X73542619Y-119973179D01*
X73544834Y-119974896D01*
X73547062Y-119976598D01*
X73549301Y-119978283D01*
X73551552Y-119979952D01*
X73553813Y-119981604D01*
X73556087Y-119983240D01*
X73558370Y-119984858D01*
X73560666Y-119986461D01*
X73562971Y-119988046D01*
X73565288Y-119989615D01*
X73567615Y-119991166D01*
X73569953Y-119992700D01*
X73572301Y-119994217D01*
X73574660Y-119995718D01*
X73577027Y-119997200D01*
X73579406Y-119998665D01*
X73581794Y-120000113D01*
X73584192Y-120001544D01*
X73586599Y-120002956D01*
X73589017Y-120004351D01*
X73591442Y-120005728D01*
X73593878Y-120007088D01*
X73596322Y-120008429D01*
X73598776Y-120009753D01*
X73601238Y-120011059D01*
X73603709Y-120012347D01*
X73606188Y-120013616D01*
X73608677Y-120014868D01*
X73611173Y-120016100D01*
X73613678Y-120017316D01*
X73616190Y-120018512D01*
X73618711Y-120019691D01*
X73621239Y-120020850D01*
X73623776Y-120021992D01*
X73626319Y-120023114D01*
X73628872Y-120024219D01*
X73631430Y-120025304D01*
X73633997Y-120026371D01*
X73636569Y-120027419D01*
X73639150Y-120028449D01*
X73641737Y-120029459D01*
X73644332Y-120030451D01*
X73646932Y-120031424D01*
X73649540Y-120032378D01*
X73652153Y-120033313D01*
X73654774Y-120034229D01*
X73657400Y-120035126D01*
X73660033Y-120036004D01*
X73662671Y-120036863D01*
X73665317Y-120037703D01*
X73667966Y-120038523D01*
X73670624Y-120039325D01*
X73673284Y-120040107D01*
X73675953Y-120040870D01*
X73678625Y-120041613D01*
X73681304Y-120042338D01*
X73683986Y-120043043D01*
X73686676Y-120043729D01*
X73689368Y-120044395D01*
X73692068Y-120045042D01*
X73694770Y-120045669D01*
X73697480Y-120046277D01*
X73700191Y-120046865D01*
X73702910Y-120047434D01*
X73705630Y-120047983D01*
X73708358Y-120048513D01*
X73711087Y-120049023D01*
X73713823Y-120049514D01*
X73716560Y-120049985D01*
X73719304Y-120050436D01*
X73722050Y-120050868D01*
X73724801Y-120051280D01*
X73727554Y-120051672D01*
X73730314Y-120052045D01*
X73733074Y-120052398D01*
X73735840Y-120052731D01*
X73738608Y-120053044D01*
X73741381Y-120053338D01*
X73744155Y-120053611D01*
X73746934Y-120053865D01*
X73749715Y-120054099D01*
X73752500Y-120054314D01*
X73755287Y-120054508D01*
X73758078Y-120054683D01*
X73760870Y-120054837D01*
X73763668Y-120054972D01*
X73766465Y-120055086D01*
X73769268Y-120055181D01*
X73772071Y-120055256D01*
X73774878Y-120055311D01*
X73777686Y-120055346D01*
X73780498Y-120055360D01*
X73781171Y-120055361D01*
X73781171Y-101783282D02*
X73775561Y-101783322D01*
X73769961Y-101783442D01*
X73764371Y-101783641D01*
X73758792Y-101783920D01*
X73753223Y-101784278D01*
X73747667Y-101784715D01*
X73742123Y-101785231D01*
X73736592Y-101785827D01*
X73731075Y-101786501D01*
X73725572Y-101787254D01*
X73720083Y-101788085D01*
X73714611Y-101788995D01*
X73709154Y-101789983D01*
X73703715Y-101791049D01*
X73698292Y-101792193D01*
X73692889Y-101793415D01*
X73687504Y-101794714D01*
X73682139Y-101796091D01*
X73676795Y-101797545D01*
X73671472Y-101799075D01*
X73666172Y-101800683D01*
X73660894Y-101802367D01*
X73655640Y-101804127D01*
X73650411Y-101805963D01*
X73645207Y-101807875D01*
X73640030Y-101809863D01*
X73634880Y-101811925D01*
X73629758Y-101814062D01*
X73624666Y-101816274D01*
X73619603Y-101818559D01*
X73614572Y-101820919D01*
X73609572Y-101823351D01*
X73604605Y-101825857D01*
X73599672Y-101828435D01*
X73594774Y-101831085D01*
X73589911Y-101833806D01*
X73585086Y-101836598D01*
X73580298Y-101839461D01*
X73575549Y-101842394D01*
X73570840Y-101845396D01*
X73566171Y-101848467D01*
X73561545Y-101851606D01*
X73556961Y-101854813D01*
X73552421Y-101858087D01*
X73547925Y-101861427D01*
X73543476Y-101864832D01*
X73539073Y-101868303D01*
X73534719Y-101871837D01*
X73530413Y-101875435D01*
X73526157Y-101879096D01*
X73521951Y-101882818D01*
X73517798Y-101886601D01*
X73513697Y-101890444D01*
X73509650Y-101894347D01*
X73505657Y-101898308D01*
X73501720Y-101902327D01*
X73499773Y-101904358D01*
X73497840Y-101906403D01*
X73495921Y-101908461D01*
X73494017Y-101910534D01*
X73492127Y-101912620D01*
X73490252Y-101914720D01*
X73488392Y-101916833D01*
X73486546Y-101918960D01*
X73484716Y-101921099D01*
X73482901Y-101923252D01*
X73481101Y-101925418D01*
X73479316Y-101927597D01*
X73477547Y-101929789D01*
X73475793Y-101931993D01*
X73474055Y-101934210D01*
X73472332Y-101936439D01*
X73470625Y-101938680D01*
X73468934Y-101940934D01*
X73467260Y-101943199D01*
X73465601Y-101945477D01*
X73463959Y-101947766D01*
X73462332Y-101950067D01*
X73460723Y-101952379D01*
X73459129Y-101954703D01*
X73457553Y-101957037D01*
X73455992Y-101959384D01*
X73454449Y-101961740D01*
X73452922Y-101964109D01*
X73451413Y-101966487D01*
X73449920Y-101968876D01*
X73448444Y-101971276D01*
X73446986Y-101973686D01*
X73445545Y-101976106D01*
X73444120Y-101978537D01*
X73442714Y-101980977D01*
X73441324Y-101983428D01*
X73439953Y-101985887D01*
X73438598Y-101988357D01*
X73437262Y-101990836D01*
X73435943Y-101993325D01*
X73434642Y-101995822D01*
X73433358Y-101998329D01*
X73432093Y-102000844D01*
X73430846Y-102003369D01*
X73429617Y-102005902D01*
X73428405Y-102008444D01*
X73427212Y-102010994D01*
X73426037Y-102013553D01*
X73424881Y-102016119D01*
X73423742Y-102018695D01*
X73422623Y-102021277D01*
X73421521Y-102023868D01*
X73420438Y-102026466D01*
X73419373Y-102029073D01*
X73418327Y-102031685D01*
X73417300Y-102034307D01*
X73416291Y-102036934D01*
X73415301Y-102039571D01*
X73414330Y-102042212D01*
X73413378Y-102044862D01*
X73412444Y-102047517D01*
X73411529Y-102050181D01*
X73410634Y-102052849D01*
X73409757Y-102055526D01*
X73408900Y-102058207D01*
X73408061Y-102060896D01*
X73407241Y-102063589D01*
X73406441Y-102066290D01*
X73405659Y-102068996D01*
X73404897Y-102071709D01*
X73404154Y-102074425D01*
X73403430Y-102077149D01*
X73402726Y-102079877D01*
X73402041Y-102082612D01*
X73401375Y-102085350D01*
X73400729Y-102088096D01*
X73400102Y-102090844D01*
X73399494Y-102093600D01*
X73398906Y-102096358D01*
X73398337Y-102099123D01*
X73397788Y-102101891D01*
X73397258Y-102104665D01*
X73396748Y-102107442D01*
X73396258Y-102110225D01*
X73395787Y-102113010D01*
X73395335Y-102115802D01*
X73394904Y-102118595D01*
X73394492Y-102121395D01*
X73394099Y-102124196D01*
X73393727Y-102127004D01*
X73393374Y-102129813D01*
X73393041Y-102132628D01*
X73392727Y-102135444D01*
X73392433Y-102138266D01*
X73392160Y-102141088D01*
X73391906Y-102143917D01*
X73391671Y-102146746D01*
X73391457Y-102149581D01*
X73391262Y-102152417D01*
X73391088Y-102155258D01*
X73390933Y-102158100D01*
X73390798Y-102160946D01*
X73390683Y-102163793D01*
X73390588Y-102166646D01*
X73390514Y-102169498D01*
X73390459Y-102172355D01*
X73390424Y-102175213D01*
X73390409Y-102178075D01*
X73390408Y-102178782D01*
X82768491Y-120055361D02*
X82774100Y-120055321D01*
X82779699Y-120055201D01*
X82785288Y-120055002D01*
X82790866Y-120054723D01*
X82796433Y-120054365D01*
X82801989Y-120053928D01*
X82807532Y-120053412D01*
X82813062Y-120052816D01*
X82818579Y-120052142D01*
X82824082Y-120051389D01*
X82829570Y-120050558D01*
X82835042Y-120049648D01*
X82840498Y-120048660D01*
X82845938Y-120047593D01*
X82851359Y-120046449D01*
X82856763Y-120045227D01*
X82862148Y-120043928D01*
X82867512Y-120042551D01*
X82872857Y-120041097D01*
X82878180Y-120039566D01*
X82883480Y-120037959D01*
X82888758Y-120036274D01*
X82894012Y-120034514D01*
X82899242Y-120032678D01*
X82904446Y-120030765D01*
X82909623Y-120028778D01*
X82914773Y-120026715D01*
X82919895Y-120024578D01*
X82924988Y-120022366D01*
X82930051Y-120020080D01*
X82935083Y-120017720D01*
X82940083Y-120015288D01*
X82945050Y-120012782D01*
X82949984Y-120010204D01*
X82954882Y-120007553D01*
X82959745Y-120004832D01*
X82964571Y-120002039D01*
X82969359Y-119999176D01*
X82974108Y-119996243D01*
X82978818Y-119993240D01*
X82983487Y-119990169D01*
X82988114Y-119987030D01*
X82992698Y-119983823D01*
X82997238Y-119980549D01*
X83001734Y-119977209D01*
X83006183Y-119973803D01*
X83010586Y-119970332D01*
X83014941Y-119966798D01*
X83019247Y-119963200D01*
X83023503Y-119959539D01*
X83027709Y-119955817D01*
X83031862Y-119952034D01*
X83035963Y-119948190D01*
X83040010Y-119944287D01*
X83044003Y-119940326D01*
X83047940Y-119936308D01*
X83049887Y-119934277D01*
X83051820Y-119932232D01*
X83053739Y-119930174D01*
X83055643Y-119928101D01*
X83057533Y-119926015D01*
X83059408Y-119923915D01*
X83061268Y-119921802D01*
X83063113Y-119919675D01*
X83064943Y-119917536D01*
X83066759Y-119915383D01*
X83068558Y-119913217D01*
X83070343Y-119911038D01*
X83072112Y-119908847D01*
X83073866Y-119906643D01*
X83075604Y-119904426D01*
X83077327Y-119902197D01*
X83079033Y-119899956D01*
X83080724Y-119897702D01*
X83082398Y-119895437D01*
X83084057Y-119893160D01*
X83085699Y-119890871D01*
X83087325Y-119888570D01*
X83088935Y-119886258D01*
X83090528Y-119883934D01*
X83092104Y-119881600D01*
X83093665Y-119879254D01*
X83095208Y-119876897D01*
X83096734Y-119874529D01*
X83098244Y-119872151D01*
X83099736Y-119869762D01*
X83101212Y-119867363D01*
X83102670Y-119864952D01*
X83104111Y-119862532D01*
X83105535Y-119860102D01*
X83106942Y-119857662D01*
X83108331Y-119855211D01*
X83109702Y-119852752D01*
X83111057Y-119850282D01*
X83112393Y-119847804D01*
X83113712Y-119845315D01*
X83115012Y-119842819D01*
X83116296Y-119840311D01*
X83117561Y-119837797D01*
X83118808Y-119835272D01*
X83120037Y-119832739D01*
X83121248Y-119830197D01*
X83122441Y-119827648D01*
X83123616Y-119825089D01*
X83124772Y-119822523D01*
X83125911Y-119819947D01*
X83127030Y-119817365D01*
X83128132Y-119814774D01*
X83129214Y-119812177D01*
X83130279Y-119809570D01*
X83131324Y-119806958D01*
X83132352Y-119804336D01*
X83133360Y-119801709D01*
X83134350Y-119799073D01*
X83135321Y-119796432D01*
X83136273Y-119793782D01*
X83137206Y-119791127D01*
X83138121Y-119788463D01*
X83139016Y-119785795D01*
X83139893Y-119783119D01*
X83140750Y-119780438D01*
X83141589Y-119777749D01*
X83142409Y-119775055D01*
X83143209Y-119772354D01*
X83143990Y-119769649D01*
X83144752Y-119766936D01*
X83145495Y-119764220D01*
X83146219Y-119761495D01*
X83146923Y-119758768D01*
X83147608Y-119756033D01*
X83148273Y-119753295D01*
X83148920Y-119750549D01*
X83149547Y-119747801D01*
X83150154Y-119745045D01*
X83150742Y-119742287D01*
X83151311Y-119739521D01*
X83151860Y-119736754D01*
X83152390Y-119733979D01*
X83152899Y-119731203D01*
X83153390Y-119728419D01*
X83153861Y-119725634D01*
X83154312Y-119722842D01*
X83154744Y-119720049D01*
X83155156Y-119717249D01*
X83155548Y-119714447D01*
X83155921Y-119711639D01*
X83156273Y-119708830D01*
X83156607Y-119706015D01*
X83156920Y-119703199D01*
X83157213Y-119700376D01*
X83157487Y-119697553D01*
X83157741Y-119694724D01*
X83157975Y-119691894D01*
X83158190Y-119689059D01*
X83158384Y-119686223D01*
X83158559Y-119683382D01*
X83158713Y-119680540D01*
X83158848Y-119677692D01*
X83158963Y-119674845D01*
X83159058Y-119671992D01*
X83159133Y-119669139D01*
X83159188Y-119666281D01*
X83159222Y-119663423D01*
X83159237Y-119660560D01*
X83159238Y-119659861D01*
X83159238Y-102178782D02*
X83159198Y-102173073D01*
X83159078Y-102167373D01*
X83158879Y-102161684D01*
X83158600Y-102156006D01*
X83158242Y-102150339D01*
X83157805Y-102144684D01*
X83157289Y-102139042D01*
X83156693Y-102133414D01*
X83156019Y-102127799D01*
X83155267Y-102122199D01*
X83154436Y-102116615D01*
X83153526Y-102111046D01*
X83152538Y-102105495D01*
X83151473Y-102099961D01*
X83150329Y-102094445D01*
X83149108Y-102088948D01*
X83147810Y-102083471D01*
X83146435Y-102078015D01*
X83144982Y-102072581D01*
X83143453Y-102067168D01*
X83141847Y-102061779D01*
X83140166Y-102056414D01*
X83138408Y-102051074D01*
X83136575Y-102045760D01*
X83134666Y-102040472D01*
X83132683Y-102035212D01*
X83130625Y-102029980D01*
X83128492Y-102024778D01*
X83126286Y-102019606D01*
X83124006Y-102014466D01*
X83121654Y-102009358D01*
X83119228Y-102004284D01*
X83116731Y-101999243D01*
X83114161Y-101994238D01*
X83111521Y-101989269D01*
X83108810Y-101984338D01*
X83106029Y-101979445D01*
X83103178Y-101974591D01*
X83100258Y-101969778D01*
X83097270Y-101965006D01*
X83094214Y-101960276D01*
X83091091Y-101955590D01*
X83087902Y-101950949D01*
X83084646Y-101946352D01*
X83081326Y-101941802D01*
X83077942Y-101937300D01*
X83074493Y-101932846D01*
X83070982Y-101928442D01*
X83067409Y-101924088D01*
X83063775Y-101919786D01*
X83060081Y-101915536D01*
X83056327Y-101911340D01*
X83052514Y-101907198D01*
X83050586Y-101905147D01*
X83048643Y-101903111D01*
X83046686Y-101901088D01*
X83044716Y-101899080D01*
X83042731Y-101897086D01*
X83040732Y-101895107D01*
X83038720Y-101893142D01*
X83036693Y-101891191D01*
X83034654Y-101889256D01*
X83032601Y-101887335D01*
X83030534Y-101885429D01*
X83028455Y-101883538D01*
X83026362Y-101881663D01*
X83024257Y-101879802D01*
X83022138Y-101877958D01*
X83020007Y-101876128D01*
X83017864Y-101874314D01*
X83015707Y-101872516D01*
X83013539Y-101870733D01*
X83011358Y-101868966D01*
X83009166Y-101867216D01*
X83006961Y-101865481D01*
X83004744Y-101863763D01*
X83002516Y-101862060D01*
X83000276Y-101860375D01*
X82998025Y-101858705D01*
X82995763Y-101857053D01*
X82993488Y-101855416D01*
X82991204Y-101853797D01*
X82988908Y-101852193D01*
X82986602Y-101850608D01*
X82984284Y-101849038D01*
X82981956Y-101847486D01*
X82979617Y-101845951D01*
X82977269Y-101844434D01*
X82974910Y-101842933D01*
X82972542Y-101841450D01*
X82970162Y-101839984D01*
X82967774Y-101838536D01*
X82965375Y-101837104D01*
X82962968Y-101835692D01*
X82960550Y-101834296D01*
X82958124Y-101832918D01*
X82955687Y-101831558D01*
X82953243Y-101830216D01*
X82950789Y-101828892D01*
X82948327Y-101827586D01*
X82945855Y-101826297D01*
X82943376Y-101825028D01*
X82940887Y-101823775D01*
X82938391Y-101822542D01*
X82935885Y-101821327D01*
X82933373Y-101820130D01*
X82930852Y-101818951D01*
X82928324Y-101817791D01*
X82925787Y-101816649D01*
X82923244Y-101815527D01*
X82920691Y-101814422D01*
X82918133Y-101813336D01*
X82915566Y-101812269D01*
X82912994Y-101811221D01*
X82910413Y-101810191D01*
X82907827Y-101809180D01*
X82905232Y-101808188D01*
X82902632Y-101807215D01*
X82900024Y-101806260D01*
X82897412Y-101805326D01*
X82894791Y-101804409D01*
X82892166Y-101803512D01*
X82889533Y-101802634D01*
X82886895Y-101801775D01*
X82884250Y-101800935D01*
X82881601Y-101800115D01*
X82878944Y-101799313D01*
X82876284Y-101798531D01*
X82873617Y-101797768D01*
X82870946Y-101797024D01*
X82868267Y-101796300D01*
X82865586Y-101795595D01*
X82862897Y-101794909D01*
X82860205Y-101794243D01*
X82857507Y-101793596D01*
X82854805Y-101792969D01*
X82852097Y-101792361D01*
X82849387Y-101791773D01*
X82846669Y-101791204D01*
X82843950Y-101790655D01*
X82841224Y-101790125D01*
X82838496Y-101789615D01*
X82835761Y-101789124D01*
X82833025Y-101788654D01*
X82830283Y-101788202D01*
X82827539Y-101787771D01*
X82824788Y-101787359D01*
X82822037Y-101786967D01*
X82819279Y-101786594D01*
X82816521Y-101786242D01*
X82813756Y-101785909D01*
X82810990Y-101785596D01*
X82808219Y-101785302D01*
X82805447Y-101785029D01*
X82802669Y-101784775D01*
X82799891Y-101784541D01*
X82797107Y-101784327D01*
X82794323Y-101784133D01*
X82791533Y-101783959D01*
X82788743Y-101783804D01*
X82785948Y-101783670D01*
X82783153Y-101783555D01*
X82780352Y-101783461D01*
X82777552Y-101783386D01*
X82774747Y-101783332D01*
X82771942Y-101783297D01*
X82769132Y-101783283D01*
X82768491Y-101783282D01*
X83550000Y-120938647D02*
X83554578Y-120938607D01*
X83559146Y-120938488D01*
X83563704Y-120938288D01*
X83568251Y-120938010D01*
X83572786Y-120937652D01*
X83577309Y-120937216D01*
X83581819Y-120936700D01*
X83586314Y-120936106D01*
X83590796Y-120935433D01*
X83595261Y-120934682D01*
X83599710Y-120933852D01*
X83604142Y-120932945D01*
X83608556Y-120931960D01*
X83612951Y-120930897D01*
X83617326Y-120929757D01*
X83621681Y-120928540D01*
X83626013Y-120927246D01*
X83630323Y-120925876D01*
X83634609Y-120924429D01*
X83638870Y-120922907D01*
X83643105Y-120921309D01*
X83647313Y-120919636D01*
X83651493Y-120917888D01*
X83655644Y-120916065D01*
X83659764Y-120914169D01*
X83663853Y-120912200D01*
X83667909Y-120910157D01*
X83671931Y-120908042D01*
X83675919Y-120905855D01*
X83679870Y-120903597D01*
X83683783Y-120901269D01*
X83687658Y-120898870D01*
X83691493Y-120896402D01*
X83695287Y-120893866D01*
X83699038Y-120891262D01*
X83702746Y-120888590D01*
X83706408Y-120885853D01*
X83710025Y-120883050D01*
X83713594Y-120880183D01*
X83717115Y-120877252D01*
X83720586Y-120874258D01*
X83724006Y-120871203D01*
X83727374Y-120868088D01*
X83730689Y-120864912D01*
X83733949Y-120861678D01*
X83737153Y-120858387D01*
X83738734Y-120856720D01*
X83740301Y-120855039D01*
X83741853Y-120853344D01*
X83743391Y-120851636D01*
X83744914Y-120849914D01*
X83746422Y-120848179D01*
X83747914Y-120846430D01*
X83749392Y-120844669D01*
X83750855Y-120842894D01*
X83752302Y-120841107D01*
X83753734Y-120839307D01*
X83755150Y-120837494D01*
X83756550Y-120835669D01*
X83757935Y-120833832D01*
X83759303Y-120831983D01*
X83760656Y-120830122D01*
X83761992Y-120828250D01*
X83763312Y-120826365D01*
X83764615Y-120824470D01*
X83765902Y-120822562D01*
X83767172Y-120820645D01*
X83768426Y-120818715D01*
X83769662Y-120816776D01*
X83770882Y-120814825D01*
X83772084Y-120812864D01*
X83773270Y-120810893D01*
X83774438Y-120808912D01*
X83775589Y-120806920D01*
X83776722Y-120804919D01*
X83777839Y-120802907D01*
X83778937Y-120800887D01*
X83780017Y-120798857D01*
X83781080Y-120796818D01*
X83782125Y-120794769D01*
X83783152Y-120792712D01*
X83784162Y-120790646D01*
X83785152Y-120788572D01*
X83786125Y-120786488D01*
X83787080Y-120784397D01*
X83788016Y-120782297D01*
X83788934Y-120780190D01*
X83789834Y-120778074D01*
X83790715Y-120775951D01*
X83791578Y-120773819D01*
X83792421Y-120771682D01*
X83793247Y-120769536D01*
X83794053Y-120767384D01*
X83794841Y-120765223D01*
X83795610Y-120763058D01*
X83796360Y-120760883D01*
X83797091Y-120758704D01*
X83797804Y-120756517D01*
X83798496Y-120754326D01*
X83799171Y-120752126D01*
X83799825Y-120749922D01*
X83800462Y-120747710D01*
X83801078Y-120745495D01*
X83801676Y-120743272D01*
X83802253Y-120741045D01*
X83802813Y-120738811D01*
X83803352Y-120736574D01*
X83803872Y-120734330D01*
X83804373Y-120732082D01*
X83804854Y-120729828D01*
X83805315Y-120727571D01*
X83805758Y-120725307D01*
X83806180Y-120723041D01*
X83806584Y-120720769D01*
X83806967Y-120718494D01*
X83807331Y-120716213D01*
X83807675Y-120713930D01*
X83808000Y-120711641D01*
X83808305Y-120709350D01*
X83808590Y-120707053D01*
X83808855Y-120704755D01*
X83809101Y-120702451D01*
X83809327Y-120700147D01*
X83809533Y-120697836D01*
X83809719Y-120695524D01*
X83809885Y-120693207D01*
X83810031Y-120690890D01*
X83810158Y-120688567D01*
X83810264Y-120686243D01*
X83810351Y-120683915D01*
X83810418Y-120681586D01*
X83810464Y-120679252D01*
X83810498Y-120674975D01*
X83810498Y-101163664D02*
X83810458Y-101159002D01*
X83810339Y-101154351D01*
X83810139Y-101149709D01*
X83809861Y-101145080D01*
X83809503Y-101140462D01*
X83809067Y-101135857D01*
X83808551Y-101131266D01*
X83807957Y-101126690D01*
X83807285Y-101122129D01*
X83806534Y-101117584D01*
X83805705Y-101113056D01*
X83804798Y-101108546D01*
X83803814Y-101104055D01*
X83802752Y-101099584D01*
X83801613Y-101095133D01*
X83800398Y-101090705D01*
X83799106Y-101086300D01*
X83797737Y-101081918D01*
X83796293Y-101077561D01*
X83794774Y-101073231D01*
X83793179Y-101068928D01*
X83791510Y-101064653D01*
X83789766Y-101060407D01*
X83787949Y-101056192D01*
X83786058Y-101052009D01*
X83784095Y-101047859D01*
X83782059Y-101043743D01*
X83779952Y-101039662D01*
X83777774Y-101035618D01*
X83775525Y-101031612D01*
X83773207Y-101027645D01*
X83770820Y-101023718D01*
X83768365Y-101019833D01*
X83765842Y-101015991D01*
X83763252Y-101012192D01*
X83760597Y-101008439D01*
X83757876Y-101004733D01*
X83755092Y-101001074D01*
X83752244Y-100997465D01*
X83749334Y-100993905D01*
X83746363Y-100990397D01*
X83743332Y-100986942D01*
X83740241Y-100983540D01*
X83738674Y-100981860D01*
X83737092Y-100980194D01*
X83735496Y-100978542D01*
X83733887Y-100976903D01*
X83732263Y-100975280D01*
X83730625Y-100973670D01*
X83728973Y-100972075D01*
X83727308Y-100970495D01*
X83725630Y-100968930D01*
X83723938Y-100967380D01*
X83722234Y-100965845D01*
X83720516Y-100964324D01*
X83718785Y-100962820D01*
X83717042Y-100961331D01*
X83715286Y-100959857D01*
X83713518Y-100958399D01*
X83711737Y-100956958D01*
X83709944Y-100955532D01*
X83708140Y-100954122D01*
X83706324Y-100952728D01*
X83704496Y-100951351D01*
X83702657Y-100949990D01*
X83700806Y-100948646D01*
X83698944Y-100947318D01*
X83697072Y-100946007D01*
X83695188Y-100944712D01*
X83693294Y-100943435D01*
X83691388Y-100942175D01*
X83689474Y-100940932D01*
X83687548Y-100939706D01*
X83685613Y-100938498D01*
X83683667Y-100937306D01*
X83681712Y-100936133D01*
X83679746Y-100934977D01*
X83677773Y-100933839D01*
X83675788Y-100932718D01*
X83673796Y-100931615D01*
X83671794Y-100930530D01*
X83669784Y-100929464D01*
X83667764Y-100928414D01*
X83665737Y-100927384D01*
X83663700Y-100926371D01*
X83661656Y-100925377D01*
X83659603Y-100924401D01*
X83657543Y-100923444D01*
X83655474Y-100922505D01*
X83653399Y-100921584D01*
X83651314Y-100920682D01*
X83649224Y-100919799D01*
X83647125Y-100918934D01*
X83645021Y-100918089D01*
X83642908Y-100917261D01*
X83640790Y-100916454D01*
X83638663Y-100915664D01*
X83636532Y-100914894D01*
X83634392Y-100914142D01*
X83632249Y-100913410D01*
X83630096Y-100912697D01*
X83627941Y-100912003D01*
X83625777Y-100911328D01*
X83623609Y-100910672D01*
X83621434Y-100910035D01*
X83619255Y-100909418D01*
X83617069Y-100908820D01*
X83614880Y-100908242D01*
X83612683Y-100907682D01*
X83610484Y-100907143D01*
X83608278Y-100906622D01*
X83606069Y-100906122D01*
X83603853Y-100905640D01*
X83601635Y-100905179D01*
X83599410Y-100904736D01*
X83597183Y-100904314D01*
X83594950Y-100903910D01*
X83592715Y-100903527D01*
X83590474Y-100903163D01*
X83588231Y-100902819D01*
X83585982Y-100902494D01*
X83583731Y-100902190D01*
X83581475Y-100901905D01*
X83579218Y-100901640D01*
X83576954Y-100901394D01*
X83574690Y-100901169D01*
X83572421Y-100900963D01*
X83570150Y-100900777D01*
X83567875Y-100900611D01*
X83565598Y-100900465D01*
X83563317Y-100900339D01*
X83561035Y-100900232D01*
X83558748Y-100900146D01*
X83556462Y-100900080D01*
X83554170Y-100900033D01*
X83550000Y-100900000D01*
D12*
%TO.C,F1*%
X74885000Y-79095000D02*
X74885000Y-98905000D01*
X74885000Y-98905000D02*
X81615000Y-98905000D01*
X81615000Y-79095000D02*
X74885000Y-79095000D01*
X81615000Y-98905000D02*
X81615000Y-79095000D01*
D13*
%TO.C,J1*%
X73150000Y-66300000D02*
X73150000Y-66000000D01*
X73150000Y-69000000D02*
X73150000Y-66300000D01*
X73150000Y-69000000D02*
X83310000Y-69000000D01*
X73150000Y-74627435D02*
X73150000Y-69000000D01*
X73150000Y-74927253D02*
X73150000Y-74627435D01*
X73150000Y-74927253D02*
X83310000Y-74927253D01*
X73150000Y-75203492D02*
X73150000Y-74927253D01*
X73150000Y-75203492D02*
X73150000Y-76133383D01*
X73150000Y-76931480D02*
X73150000Y-76133383D01*
X73150000Y-77200000D02*
X73150000Y-76931480D01*
X73150000Y-77200000D02*
X83310000Y-77200000D01*
X73490000Y-71500000D02*
X77890000Y-71500000D01*
X74616976Y-73067999D02*
X77257999Y-70426976D01*
X75690000Y-73700000D02*
X75690000Y-69300000D01*
X76763024Y-69932002D02*
X74122002Y-72573024D01*
X78570000Y-71500000D02*
X82970000Y-71500000D01*
X79696976Y-73067999D02*
X82337999Y-70426976D01*
X80770000Y-73700000D02*
X80770000Y-69300000D01*
X81843024Y-69932002D02*
X79202002Y-72573024D01*
X83310000Y-66000000D02*
X73150000Y-66000000D01*
X83310000Y-66000000D02*
X83310000Y-66300000D01*
X83310000Y-66300000D02*
X83310000Y-67693000D01*
X83310000Y-67693000D02*
X83310000Y-68107000D01*
X83310000Y-68107000D02*
X83310000Y-69000000D01*
X83310000Y-68107000D02*
X83438691Y-68107000D01*
X83310000Y-69000000D02*
X83310000Y-74627435D01*
X83310000Y-74627435D02*
X83310000Y-74927253D01*
X83310000Y-74927253D02*
X83310000Y-75203492D01*
X83310000Y-76133383D02*
X73150000Y-76133383D01*
X83310000Y-76133383D02*
X83310000Y-75203492D01*
X83310000Y-76133383D02*
X83310000Y-76931480D01*
X83310000Y-76931480D02*
X83310000Y-77200000D01*
X83438691Y-67693000D02*
X83310000Y-67693000D01*
X83438691Y-68107000D02*
X83617026Y-68256960D01*
X83617026Y-67543041D02*
X83438691Y-67693000D01*
X83617026Y-68256960D02*
X83880000Y-68256960D01*
X83880000Y-67543041D02*
X83617026Y-67543041D01*
X83880000Y-67543041D02*
X83880000Y-68256960D01*
X74122002Y-72573024D02*
G75*
G02*
X76763024Y-69932002I1567998J1073024D01*
G01*
X74616976Y-73067999D02*
G75*
G02*
X74122001Y-72573024I1073024J1567999D01*
G01*
X76763024Y-69932002D02*
G75*
G02*
X77257998Y-70426976I-1073024J-1567998D01*
G01*
X77257999Y-70426976D02*
G75*
G02*
X74616976Y-73067999I-1567999J-1073024D01*
G01*
X79202002Y-72573024D02*
G75*
G02*
X81843024Y-69932002I1567997J1073025D01*
G01*
X79696976Y-73067999D02*
G75*
G02*
X79202002Y-72573024I1073017J1567988D01*
G01*
X81843024Y-69932002D02*
G75*
G02*
X82337999Y-70426976I-1073013J-1567991D01*
G01*
X82337999Y-70426976D02*
G75*
G02*
X79696976Y-73067999I-1567999J-1073024D01*
G01*
X77690000Y-71500000D02*
G75*
G02*
X73690000Y-71500000I-2000000J0D01*
G01*
X73690000Y-71500000D02*
G75*
G02*
X77690000Y-71500000I2000000J0D01*
G01*
X78688257Y-73200000D02*
G75*
G02*
X77771743Y-73200000I-458257J0D01*
G01*
X77771743Y-73200000D02*
G75*
G02*
X78688257Y-73200000I458257J0D01*
G01*
X82770000Y-71500000D02*
G75*
G02*
X78770000Y-71500000I-2000000J0D01*
G01*
X78770000Y-71500000D02*
G75*
G02*
X82770000Y-71500000I2000000J0D01*
G01*
%TO.C,J2*%
X70040000Y-131956959D02*
X70040000Y-131243040D01*
X70040000Y-131956959D02*
X70302974Y-131956959D01*
X70302974Y-131243040D02*
X70040000Y-131243040D01*
X70302974Y-131956959D02*
X70481309Y-131807000D01*
X70481309Y-131393000D02*
X70302974Y-131243040D01*
X70481309Y-131807000D02*
X70610000Y-131807000D01*
X70610000Y-122568520D02*
X70610000Y-122300000D01*
X70610000Y-123366617D02*
X70610000Y-122568520D01*
X70610000Y-123366617D02*
X70610000Y-124296508D01*
X70610000Y-123366617D02*
X85850000Y-123366617D01*
X70610000Y-124572747D02*
X70610000Y-124296508D01*
X70610000Y-124872565D02*
X70610000Y-124572747D01*
X70610000Y-130500000D02*
X70610000Y-124872565D01*
X70610000Y-131393000D02*
X70481309Y-131393000D01*
X70610000Y-131393000D02*
X70610000Y-130500000D01*
X70610000Y-131807000D02*
X70610000Y-131393000D01*
X70610000Y-133200000D02*
X70610000Y-131807000D01*
X70610000Y-133500000D02*
X70610000Y-133200000D01*
X70610000Y-133500000D02*
X85850000Y-133500000D01*
X72076976Y-129567998D02*
X74717998Y-126926976D01*
X73150000Y-125800000D02*
X73150000Y-130200000D01*
X74223024Y-126432001D02*
X71582001Y-129073024D01*
X75350000Y-128000000D02*
X70950000Y-128000000D01*
X77156976Y-129567998D02*
X79797998Y-126926976D01*
X78230000Y-125800000D02*
X78230000Y-130200000D01*
X79303024Y-126432001D02*
X76662001Y-129073024D01*
X80430000Y-128000000D02*
X76030000Y-128000000D01*
X82236976Y-129567998D02*
X84877998Y-126926976D01*
X83310000Y-125800000D02*
X83310000Y-130200000D01*
X84383024Y-126432001D02*
X81742001Y-129073024D01*
X85510000Y-128000000D02*
X81110000Y-128000000D01*
X85850000Y-122300000D02*
X70610000Y-122300000D01*
X85850000Y-122300000D02*
X85850000Y-122568520D01*
X85850000Y-122568520D02*
X85850000Y-123366617D01*
X85850000Y-124296508D02*
X85850000Y-123366617D01*
X85850000Y-124296508D02*
X85850000Y-124572747D01*
X85850000Y-124572747D02*
X70610000Y-124572747D01*
X85850000Y-124572747D02*
X85850000Y-124872565D01*
X85850000Y-124872565D02*
X85850000Y-130500000D01*
X85850000Y-130500000D02*
X70610000Y-130500000D01*
X85850000Y-130500000D02*
X85850000Y-133200000D01*
X85850000Y-133200000D02*
X85850000Y-133500000D01*
X71582001Y-129073024D02*
G75*
G02*
X74223024Y-126432001I1567999J1073024D01*
G01*
X72076976Y-129567998D02*
G75*
G02*
X71582001Y-129073024I1073013J1567991D01*
G01*
X74223024Y-126432001D02*
G75*
G02*
X74717998Y-126926976I-1073017J-1567988D01*
G01*
X74717998Y-126926976D02*
G75*
G02*
X72076976Y-129567998I-1567997J-1073025D01*
G01*
X76662001Y-129073024D02*
G75*
G02*
X79303024Y-126432001I1567999J1073024D01*
G01*
X77156976Y-129567998D02*
G75*
G02*
X76662001Y-129073024I1073013J1567991D01*
G01*
X79303024Y-126432001D02*
G75*
G02*
X79797998Y-126926976I-1073017J-1567988D01*
G01*
X79797998Y-126926976D02*
G75*
G02*
X77156976Y-129567998I-1567997J-1073025D01*
G01*
X81742001Y-129073024D02*
G75*
G02*
X84383024Y-126432001I1567999J1073024D01*
G01*
X82236976Y-129567998D02*
G75*
G02*
X81742002Y-129073024I1073024J1567998D01*
G01*
X84383024Y-126432001D02*
G75*
G02*
X84877999Y-126926976I-1073024J-1567999D01*
G01*
X84877998Y-126926976D02*
G75*
G02*
X82236976Y-129567998I-1567998J-1073024D01*
G01*
X75150000Y-128000000D02*
G75*
G02*
X71150000Y-128000000I-2000000J0D01*
G01*
X71150000Y-128000000D02*
G75*
G02*
X75150000Y-128000000I2000000J0D01*
G01*
X76148257Y-126300000D02*
G75*
G02*
X75231743Y-126300000I-458257J0D01*
G01*
X75231743Y-126300000D02*
G75*
G02*
X76148257Y-126300000I458257J0D01*
G01*
X80230000Y-128000000D02*
G75*
G02*
X76230000Y-128000000I-2000000J0D01*
G01*
X76230000Y-128000000D02*
G75*
G02*
X80230000Y-128000000I2000000J0D01*
G01*
X81228257Y-126300000D02*
G75*
G02*
X80311743Y-126300000I-458257J0D01*
G01*
X80311743Y-126300000D02*
G75*
G02*
X81228257Y-126300000I458257J0D01*
G01*
X85310000Y-128000000D02*
G75*
G02*
X81310000Y-128000000I-2000000J0D01*
G01*
X81310000Y-128000000D02*
G75*
G02*
X85310000Y-128000000I2000000J0D01*
G01*
%TD*%
M02*
