%TF.GenerationSoftware,KiCad,Pcbnew,9.0.7-9.0.7~ubuntu24.04.1*%
%TF.CreationDate,2026-03-20T14:37:20+01:00*%
%TF.ProjectId,Schalter-Karte_HW,53636861-6c74-4657-922d-4b617274655f,rev?*%
%TF.SameCoordinates,Original*%
%TF.FileFunction,AssemblyDrawing,Top*%
%FSLAX46Y46*%
G04 Gerber Fmt 4.6, Leading zero omitted, Abs format (unit mm)*
G04 Created by KiCad (PCBNEW 9.0.7-9.0.7~ubuntu24.04.1) date 2026-03-20 14:37:20*
%MOMM*%
%LPD*%
G01*
G04 APERTURE LIST*
%ADD10C,0.150000*%
%ADD11C,0.127000*%
G04 APERTURE END LIST*
D10*
X73404819Y-115971428D02*
X73404819Y-116447618D01*
X73404819Y-116447618D02*
X72404819Y-116447618D01*
X73404819Y-115114285D02*
X73404819Y-115685713D01*
X73404819Y-115399999D02*
X72404819Y-115399999D01*
X72404819Y-115399999D02*
X72547676Y-115495237D01*
X72547676Y-115495237D02*
X72642914Y-115590475D01*
X72642914Y-115590475D02*
X72690533Y-115685713D01*
X72404819Y-114495237D02*
X72404819Y-114399999D01*
X72404819Y-114399999D02*
X72452438Y-114304761D01*
X72452438Y-114304761D02*
X72500057Y-114257142D01*
X72500057Y-114257142D02*
X72595295Y-114209523D01*
X72595295Y-114209523D02*
X72785771Y-114161904D01*
X72785771Y-114161904D02*
X73023866Y-114161904D01*
X73023866Y-114161904D02*
X73214342Y-114209523D01*
X73214342Y-114209523D02*
X73309580Y-114257142D01*
X73309580Y-114257142D02*
X73357200Y-114304761D01*
X73357200Y-114304761D02*
X73404819Y-114399999D01*
X73404819Y-114399999D02*
X73404819Y-114495237D01*
X73404819Y-114495237D02*
X73357200Y-114590475D01*
X73357200Y-114590475D02*
X73309580Y-114638094D01*
X73309580Y-114638094D02*
X73214342Y-114685713D01*
X73214342Y-114685713D02*
X73023866Y-114733332D01*
X73023866Y-114733332D02*
X72785771Y-114733332D01*
X72785771Y-114733332D02*
X72595295Y-114685713D01*
X72595295Y-114685713D02*
X72500057Y-114638094D01*
X72500057Y-114638094D02*
X72452438Y-114590475D01*
X72452438Y-114590475D02*
X72404819Y-114495237D01*
X73404819Y-113209523D02*
X73404819Y-113780951D01*
X73404819Y-113495237D02*
X72404819Y-113495237D01*
X72404819Y-113495237D02*
X72547676Y-113590475D01*
X72547676Y-113590475D02*
X72642914Y-113685713D01*
X72642914Y-113685713D02*
X72690533Y-113780951D01*
X72404819Y-112590475D02*
X72404819Y-112495237D01*
X72404819Y-112495237D02*
X72452438Y-112399999D01*
X72452438Y-112399999D02*
X72500057Y-112352380D01*
X72500057Y-112352380D02*
X72595295Y-112304761D01*
X72595295Y-112304761D02*
X72785771Y-112257142D01*
X72785771Y-112257142D02*
X73023866Y-112257142D01*
X73023866Y-112257142D02*
X73214342Y-112304761D01*
X73214342Y-112304761D02*
X73309580Y-112352380D01*
X73309580Y-112352380D02*
X73357200Y-112399999D01*
X73357200Y-112399999D02*
X73404819Y-112495237D01*
X73404819Y-112495237D02*
X73404819Y-112590475D01*
X73404819Y-112590475D02*
X73357200Y-112685713D01*
X73357200Y-112685713D02*
X73309580Y-112733332D01*
X73309580Y-112733332D02*
X73214342Y-112780951D01*
X73214342Y-112780951D02*
X73023866Y-112828570D01*
X73023866Y-112828570D02*
X72785771Y-112828570D01*
X72785771Y-112828570D02*
X72595295Y-112780951D01*
X72595295Y-112780951D02*
X72500057Y-112733332D01*
X72500057Y-112733332D02*
X72452438Y-112685713D01*
X72452438Y-112685713D02*
X72404819Y-112590475D01*
X73404819Y-111304761D02*
X73404819Y-111876189D01*
X73404819Y-111590475D02*
X72404819Y-111590475D01*
X72404819Y-111590475D02*
X72547676Y-111685713D01*
X72547676Y-111685713D02*
X72642914Y-111780951D01*
X72642914Y-111780951D02*
X72690533Y-111876189D01*
X73404819Y-110352380D02*
X73404819Y-110923808D01*
X73404819Y-110638094D02*
X72404819Y-110638094D01*
X72404819Y-110638094D02*
X72547676Y-110733332D01*
X72547676Y-110733332D02*
X72642914Y-110828570D01*
X72642914Y-110828570D02*
X72690533Y-110923808D01*
X73404819Y-109923808D02*
X72404819Y-109923808D01*
X72404819Y-109923808D02*
X73119104Y-109590475D01*
X73119104Y-109590475D02*
X72404819Y-109257142D01*
X72404819Y-109257142D02*
X73404819Y-109257142D01*
X73357200Y-108828570D02*
X73404819Y-108685713D01*
X73404819Y-108685713D02*
X73404819Y-108447618D01*
X73404819Y-108447618D02*
X73357200Y-108352380D01*
X73357200Y-108352380D02*
X73309580Y-108304761D01*
X73309580Y-108304761D02*
X73214342Y-108257142D01*
X73214342Y-108257142D02*
X73119104Y-108257142D01*
X73119104Y-108257142D02*
X73023866Y-108304761D01*
X73023866Y-108304761D02*
X72976247Y-108352380D01*
X72976247Y-108352380D02*
X72928628Y-108447618D01*
X72928628Y-108447618D02*
X72881009Y-108638094D01*
X72881009Y-108638094D02*
X72833390Y-108733332D01*
X72833390Y-108733332D02*
X72785771Y-108780951D01*
X72785771Y-108780951D02*
X72690533Y-108828570D01*
X72690533Y-108828570D02*
X72595295Y-108828570D01*
X72595295Y-108828570D02*
X72500057Y-108780951D01*
X72500057Y-108780951D02*
X72452438Y-108733332D01*
X72452438Y-108733332D02*
X72404819Y-108638094D01*
X72404819Y-108638094D02*
X72404819Y-108399999D01*
X72404819Y-108399999D02*
X72452438Y-108257142D01*
X72404819Y-107638094D02*
X72404819Y-107542856D01*
X72404819Y-107542856D02*
X72452438Y-107447618D01*
X72452438Y-107447618D02*
X72500057Y-107399999D01*
X72500057Y-107399999D02*
X72595295Y-107352380D01*
X72595295Y-107352380D02*
X72785771Y-107304761D01*
X72785771Y-107304761D02*
X73023866Y-107304761D01*
X73023866Y-107304761D02*
X73214342Y-107352380D01*
X73214342Y-107352380D02*
X73309580Y-107399999D01*
X73309580Y-107399999D02*
X73357200Y-107447618D01*
X73357200Y-107447618D02*
X73404819Y-107542856D01*
X73404819Y-107542856D02*
X73404819Y-107638094D01*
X73404819Y-107638094D02*
X73357200Y-107733332D01*
X73357200Y-107733332D02*
X73309580Y-107780951D01*
X73309580Y-107780951D02*
X73214342Y-107828570D01*
X73214342Y-107828570D02*
X73023866Y-107876189D01*
X73023866Y-107876189D02*
X72785771Y-107876189D01*
X72785771Y-107876189D02*
X72595295Y-107828570D01*
X72595295Y-107828570D02*
X72500057Y-107780951D01*
X72500057Y-107780951D02*
X72452438Y-107733332D01*
X72452438Y-107733332D02*
X72404819Y-107638094D01*
X72500057Y-106923808D02*
X72452438Y-106876189D01*
X72452438Y-106876189D02*
X72404819Y-106780951D01*
X72404819Y-106780951D02*
X72404819Y-106542856D01*
X72404819Y-106542856D02*
X72452438Y-106447618D01*
X72452438Y-106447618D02*
X72500057Y-106399999D01*
X72500057Y-106399999D02*
X72595295Y-106352380D01*
X72595295Y-106352380D02*
X72690533Y-106352380D01*
X72690533Y-106352380D02*
X72833390Y-106399999D01*
X72833390Y-106399999D02*
X73404819Y-106971427D01*
X73404819Y-106971427D02*
X73404819Y-106352380D01*
X73500057Y-105257142D02*
X73452438Y-105352380D01*
X73452438Y-105352380D02*
X73357200Y-105447618D01*
X73357200Y-105447618D02*
X73214342Y-105590475D01*
X73214342Y-105590475D02*
X73166723Y-105685713D01*
X73166723Y-105685713D02*
X73166723Y-105780951D01*
X73404819Y-105733332D02*
X73357200Y-105828570D01*
X73357200Y-105828570D02*
X73261961Y-105923808D01*
X73261961Y-105923808D02*
X73071485Y-105971427D01*
X73071485Y-105971427D02*
X72738152Y-105971427D01*
X72738152Y-105971427D02*
X72547676Y-105923808D01*
X72547676Y-105923808D02*
X72452438Y-105828570D01*
X72452438Y-105828570D02*
X72404819Y-105733332D01*
X72404819Y-105733332D02*
X72404819Y-105542856D01*
X72404819Y-105542856D02*
X72452438Y-105447618D01*
X72452438Y-105447618D02*
X72547676Y-105352380D01*
X72547676Y-105352380D02*
X72738152Y-105304761D01*
X72738152Y-105304761D02*
X73071485Y-105304761D01*
X73071485Y-105304761D02*
X73261961Y-105352380D01*
X73261961Y-105352380D02*
X73357200Y-105447618D01*
X73357200Y-105447618D02*
X73404819Y-105542856D01*
X73404819Y-105542856D02*
X73404819Y-105733332D01*
X74857200Y-112233332D02*
X74904819Y-112090475D01*
X74904819Y-112090475D02*
X74904819Y-111852380D01*
X74904819Y-111852380D02*
X74857200Y-111757142D01*
X74857200Y-111757142D02*
X74809580Y-111709523D01*
X74809580Y-111709523D02*
X74714342Y-111661904D01*
X74714342Y-111661904D02*
X74619104Y-111661904D01*
X74619104Y-111661904D02*
X74523866Y-111709523D01*
X74523866Y-111709523D02*
X74476247Y-111757142D01*
X74476247Y-111757142D02*
X74428628Y-111852380D01*
X74428628Y-111852380D02*
X74381009Y-112042856D01*
X74381009Y-112042856D02*
X74333390Y-112138094D01*
X74333390Y-112138094D02*
X74285771Y-112185713D01*
X74285771Y-112185713D02*
X74190533Y-112233332D01*
X74190533Y-112233332D02*
X74095295Y-112233332D01*
X74095295Y-112233332D02*
X74000057Y-112185713D01*
X74000057Y-112185713D02*
X73952438Y-112138094D01*
X73952438Y-112138094D02*
X73904819Y-112042856D01*
X73904819Y-112042856D02*
X73904819Y-111804761D01*
X73904819Y-111804761D02*
X73952438Y-111661904D01*
X73904819Y-111328570D02*
X74904819Y-111090475D01*
X74904819Y-111090475D02*
X74190533Y-110899999D01*
X74190533Y-110899999D02*
X74904819Y-110709523D01*
X74904819Y-110709523D02*
X73904819Y-110471428D01*
X74904819Y-109566666D02*
X74904819Y-110138094D01*
X74904819Y-109852380D02*
X73904819Y-109852380D01*
X73904819Y-109852380D02*
X74047676Y-109947618D01*
X74047676Y-109947618D02*
X74142914Y-110042856D01*
X74142914Y-110042856D02*
X74190533Y-110138094D01*
X82626009Y-96175000D02*
X82626009Y-96508333D01*
X83149819Y-96508333D02*
X82149819Y-96508333D01*
X82149819Y-96508333D02*
X82149819Y-96032143D01*
X82483152Y-95222619D02*
X83149819Y-95222619D01*
X82483152Y-95651190D02*
X83006961Y-95651190D01*
X83006961Y-95651190D02*
X83102200Y-95603571D01*
X83102200Y-95603571D02*
X83149819Y-95508333D01*
X83149819Y-95508333D02*
X83149819Y-95365476D01*
X83149819Y-95365476D02*
X83102200Y-95270238D01*
X83102200Y-95270238D02*
X83054580Y-95222619D01*
X83102200Y-94794047D02*
X83149819Y-94698809D01*
X83149819Y-94698809D02*
X83149819Y-94508333D01*
X83149819Y-94508333D02*
X83102200Y-94413095D01*
X83102200Y-94413095D02*
X83006961Y-94365476D01*
X83006961Y-94365476D02*
X82959342Y-94365476D01*
X82959342Y-94365476D02*
X82864104Y-94413095D01*
X82864104Y-94413095D02*
X82816485Y-94508333D01*
X82816485Y-94508333D02*
X82816485Y-94651190D01*
X82816485Y-94651190D02*
X82768866Y-94746428D01*
X82768866Y-94746428D02*
X82673628Y-94794047D01*
X82673628Y-94794047D02*
X82626009Y-94794047D01*
X82626009Y-94794047D02*
X82530771Y-94746428D01*
X82530771Y-94746428D02*
X82483152Y-94651190D01*
X82483152Y-94651190D02*
X82483152Y-94508333D01*
X82483152Y-94508333D02*
X82530771Y-94413095D01*
X83102200Y-93555952D02*
X83149819Y-93651190D01*
X83149819Y-93651190D02*
X83149819Y-93841666D01*
X83149819Y-93841666D02*
X83102200Y-93936904D01*
X83102200Y-93936904D02*
X83006961Y-93984523D01*
X83006961Y-93984523D02*
X82626009Y-93984523D01*
X82626009Y-93984523D02*
X82530771Y-93936904D01*
X82530771Y-93936904D02*
X82483152Y-93841666D01*
X82483152Y-93841666D02*
X82483152Y-93651190D01*
X82483152Y-93651190D02*
X82530771Y-93555952D01*
X82530771Y-93555952D02*
X82626009Y-93508333D01*
X82626009Y-93508333D02*
X82721247Y-93508333D01*
X82721247Y-93508333D02*
X82816485Y-93984523D01*
X83102200Y-92365475D02*
X83149819Y-92222618D01*
X83149819Y-92222618D02*
X83149819Y-91984523D01*
X83149819Y-91984523D02*
X83102200Y-91889285D01*
X83102200Y-91889285D02*
X83054580Y-91841666D01*
X83054580Y-91841666D02*
X82959342Y-91794047D01*
X82959342Y-91794047D02*
X82864104Y-91794047D01*
X82864104Y-91794047D02*
X82768866Y-91841666D01*
X82768866Y-91841666D02*
X82721247Y-91889285D01*
X82721247Y-91889285D02*
X82673628Y-91984523D01*
X82673628Y-91984523D02*
X82626009Y-92174999D01*
X82626009Y-92174999D02*
X82578390Y-92270237D01*
X82578390Y-92270237D02*
X82530771Y-92317856D01*
X82530771Y-92317856D02*
X82435533Y-92365475D01*
X82435533Y-92365475D02*
X82340295Y-92365475D01*
X82340295Y-92365475D02*
X82245057Y-92317856D01*
X82245057Y-92317856D02*
X82197438Y-92270237D01*
X82197438Y-92270237D02*
X82149819Y-92174999D01*
X82149819Y-92174999D02*
X82149819Y-91936904D01*
X82149819Y-91936904D02*
X82197438Y-91794047D01*
X83149819Y-91222618D02*
X83102200Y-91317856D01*
X83102200Y-91317856D02*
X83054580Y-91365475D01*
X83054580Y-91365475D02*
X82959342Y-91413094D01*
X82959342Y-91413094D02*
X82673628Y-91413094D01*
X82673628Y-91413094D02*
X82578390Y-91365475D01*
X82578390Y-91365475D02*
X82530771Y-91317856D01*
X82530771Y-91317856D02*
X82483152Y-91222618D01*
X82483152Y-91222618D02*
X82483152Y-91079761D01*
X82483152Y-91079761D02*
X82530771Y-90984523D01*
X82530771Y-90984523D02*
X82578390Y-90936904D01*
X82578390Y-90936904D02*
X82673628Y-90889285D01*
X82673628Y-90889285D02*
X82959342Y-90889285D01*
X82959342Y-90889285D02*
X83054580Y-90936904D01*
X83054580Y-90936904D02*
X83102200Y-90984523D01*
X83102200Y-90984523D02*
X83149819Y-91079761D01*
X83149819Y-91079761D02*
X83149819Y-91222618D01*
X83102200Y-90032142D02*
X83149819Y-90127380D01*
X83149819Y-90127380D02*
X83149819Y-90317856D01*
X83149819Y-90317856D02*
X83102200Y-90413094D01*
X83102200Y-90413094D02*
X83054580Y-90460713D01*
X83054580Y-90460713D02*
X82959342Y-90508332D01*
X82959342Y-90508332D02*
X82673628Y-90508332D01*
X82673628Y-90508332D02*
X82578390Y-90460713D01*
X82578390Y-90460713D02*
X82530771Y-90413094D01*
X82530771Y-90413094D02*
X82483152Y-90317856D01*
X82483152Y-90317856D02*
X82483152Y-90127380D01*
X82483152Y-90127380D02*
X82530771Y-90032142D01*
X83149819Y-89603570D02*
X82149819Y-89603570D01*
X82768866Y-89508332D02*
X83149819Y-89222618D01*
X82483152Y-89222618D02*
X82864104Y-89603570D01*
X83102200Y-88413094D02*
X83149819Y-88508332D01*
X83149819Y-88508332D02*
X83149819Y-88698808D01*
X83149819Y-88698808D02*
X83102200Y-88794046D01*
X83102200Y-88794046D02*
X83006961Y-88841665D01*
X83006961Y-88841665D02*
X82626009Y-88841665D01*
X82626009Y-88841665D02*
X82530771Y-88794046D01*
X82530771Y-88794046D02*
X82483152Y-88698808D01*
X82483152Y-88698808D02*
X82483152Y-88508332D01*
X82483152Y-88508332D02*
X82530771Y-88413094D01*
X82530771Y-88413094D02*
X82626009Y-88365475D01*
X82626009Y-88365475D02*
X82721247Y-88365475D01*
X82721247Y-88365475D02*
X82816485Y-88841665D01*
X82483152Y-88079760D02*
X82483152Y-87698808D01*
X82149819Y-87936903D02*
X83006961Y-87936903D01*
X83006961Y-87936903D02*
X83102200Y-87889284D01*
X83102200Y-87889284D02*
X83149819Y-87794046D01*
X83149819Y-87794046D02*
X83149819Y-87698808D01*
X84213027Y-78077183D02*
X84213027Y-79077183D01*
X84213027Y-79077183D02*
X83879694Y-78362898D01*
X83879694Y-78362898D02*
X83546361Y-79077183D01*
X83546361Y-79077183D02*
X83546361Y-78077183D01*
X83070170Y-78077183D02*
X83070170Y-79077183D01*
X82498742Y-78077183D02*
X82927313Y-78648612D01*
X82498742Y-79077183D02*
X83070170Y-78505755D01*
X82070170Y-78077183D02*
X82070170Y-79077183D01*
X82070170Y-79077183D02*
X81832075Y-79077183D01*
X81832075Y-79077183D02*
X81689218Y-79029564D01*
X81689218Y-79029564D02*
X81593980Y-78934326D01*
X81593980Y-78934326D02*
X81546361Y-78839088D01*
X81546361Y-78839088D02*
X81498742Y-78648612D01*
X81498742Y-78648612D02*
X81498742Y-78505755D01*
X81498742Y-78505755D02*
X81546361Y-78315279D01*
X81546361Y-78315279D02*
X81593980Y-78220041D01*
X81593980Y-78220041D02*
X81689218Y-78124803D01*
X81689218Y-78124803D02*
X81832075Y-78077183D01*
X81832075Y-78077183D02*
X82070170Y-78077183D01*
X81117789Y-78124803D02*
X80974932Y-78077183D01*
X80974932Y-78077183D02*
X80736837Y-78077183D01*
X80736837Y-78077183D02*
X80641599Y-78124803D01*
X80641599Y-78124803D02*
X80593980Y-78172422D01*
X80593980Y-78172422D02*
X80546361Y-78267660D01*
X80546361Y-78267660D02*
X80546361Y-78362898D01*
X80546361Y-78362898D02*
X80593980Y-78458136D01*
X80593980Y-78458136D02*
X80641599Y-78505755D01*
X80641599Y-78505755D02*
X80736837Y-78553374D01*
X80736837Y-78553374D02*
X80927313Y-78600993D01*
X80927313Y-78600993D02*
X81022551Y-78648612D01*
X81022551Y-78648612D02*
X81070170Y-78696231D01*
X81070170Y-78696231D02*
X81117789Y-78791469D01*
X81117789Y-78791469D02*
X81117789Y-78886707D01*
X81117789Y-78886707D02*
X81070170Y-78981945D01*
X81070170Y-78981945D02*
X81022551Y-79029564D01*
X81022551Y-79029564D02*
X80927313Y-79077183D01*
X80927313Y-79077183D02*
X80689218Y-79077183D01*
X80689218Y-79077183D02*
X80546361Y-79029564D01*
X79451122Y-79077183D02*
X78832075Y-79077183D01*
X78832075Y-79077183D02*
X79165408Y-78696231D01*
X79165408Y-78696231D02*
X79022551Y-78696231D01*
X79022551Y-78696231D02*
X78927313Y-78648612D01*
X78927313Y-78648612D02*
X78879694Y-78600993D01*
X78879694Y-78600993D02*
X78832075Y-78505755D01*
X78832075Y-78505755D02*
X78832075Y-78267660D01*
X78832075Y-78267660D02*
X78879694Y-78172422D01*
X78879694Y-78172422D02*
X78927313Y-78124803D01*
X78927313Y-78124803D02*
X79022551Y-78077183D01*
X79022551Y-78077183D02*
X79308265Y-78077183D01*
X79308265Y-78077183D02*
X79403503Y-78124803D01*
X79403503Y-78124803D02*
X79451122Y-78172422D01*
X78403503Y-78458136D02*
X77641599Y-78458136D01*
X77213027Y-78981945D02*
X77165408Y-79029564D01*
X77165408Y-79029564D02*
X77070170Y-79077183D01*
X77070170Y-79077183D02*
X76832075Y-79077183D01*
X76832075Y-79077183D02*
X76736837Y-79029564D01*
X76736837Y-79029564D02*
X76689218Y-78981945D01*
X76689218Y-78981945D02*
X76641599Y-78886707D01*
X76641599Y-78886707D02*
X76641599Y-78791469D01*
X76641599Y-78791469D02*
X76689218Y-78648612D01*
X76689218Y-78648612D02*
X77260646Y-78077183D01*
X77260646Y-78077183D02*
X76641599Y-78077183D01*
X74974932Y-79077183D02*
X75451122Y-79077183D01*
X75451122Y-79077183D02*
X75498741Y-78600993D01*
X75498741Y-78600993D02*
X75451122Y-78648612D01*
X75451122Y-78648612D02*
X75355884Y-78696231D01*
X75355884Y-78696231D02*
X75117789Y-78696231D01*
X75117789Y-78696231D02*
X75022551Y-78648612D01*
X75022551Y-78648612D02*
X74974932Y-78600993D01*
X74974932Y-78600993D02*
X74927313Y-78505755D01*
X74927313Y-78505755D02*
X74927313Y-78267660D01*
X74927313Y-78267660D02*
X74974932Y-78172422D01*
X74974932Y-78172422D02*
X75022551Y-78124803D01*
X75022551Y-78124803D02*
X75117789Y-78077183D01*
X75117789Y-78077183D02*
X75355884Y-78077183D01*
X75355884Y-78077183D02*
X75451122Y-78124803D01*
X75451122Y-78124803D02*
X75498741Y-78172422D01*
X74498741Y-78172422D02*
X74451122Y-78124803D01*
X74451122Y-78124803D02*
X74498741Y-78077183D01*
X74498741Y-78077183D02*
X74546360Y-78124803D01*
X74546360Y-78124803D02*
X74498741Y-78172422D01*
X74498741Y-78172422D02*
X74498741Y-78077183D01*
X73832075Y-79077183D02*
X73736837Y-79077183D01*
X73736837Y-79077183D02*
X73641599Y-79029564D01*
X73641599Y-79029564D02*
X73593980Y-78981945D01*
X73593980Y-78981945D02*
X73546361Y-78886707D01*
X73546361Y-78886707D02*
X73498742Y-78696231D01*
X73498742Y-78696231D02*
X73498742Y-78458136D01*
X73498742Y-78458136D02*
X73546361Y-78267660D01*
X73546361Y-78267660D02*
X73593980Y-78172422D01*
X73593980Y-78172422D02*
X73641599Y-78124803D01*
X73641599Y-78124803D02*
X73736837Y-78077183D01*
X73736837Y-78077183D02*
X73832075Y-78077183D01*
X73832075Y-78077183D02*
X73927313Y-78124803D01*
X73927313Y-78124803D02*
X73974932Y-78172422D01*
X73974932Y-78172422D02*
X74022551Y-78267660D01*
X74022551Y-78267660D02*
X74070170Y-78458136D01*
X74070170Y-78458136D02*
X74070170Y-78696231D01*
X74070170Y-78696231D02*
X74022551Y-78886707D01*
X74022551Y-78886707D02*
X73974932Y-78981945D01*
X73974932Y-78981945D02*
X73927313Y-79029564D01*
X73927313Y-79029564D02*
X73832075Y-79077183D01*
X72927313Y-78648612D02*
X73022551Y-78696231D01*
X73022551Y-78696231D02*
X73070170Y-78743850D01*
X73070170Y-78743850D02*
X73117789Y-78839088D01*
X73117789Y-78839088D02*
X73117789Y-78886707D01*
X73117789Y-78886707D02*
X73070170Y-78981945D01*
X73070170Y-78981945D02*
X73022551Y-79029564D01*
X73022551Y-79029564D02*
X72927313Y-79077183D01*
X72927313Y-79077183D02*
X72736837Y-79077183D01*
X72736837Y-79077183D02*
X72641599Y-79029564D01*
X72641599Y-79029564D02*
X72593980Y-78981945D01*
X72593980Y-78981945D02*
X72546361Y-78886707D01*
X72546361Y-78886707D02*
X72546361Y-78839088D01*
X72546361Y-78839088D02*
X72593980Y-78743850D01*
X72593980Y-78743850D02*
X72641599Y-78696231D01*
X72641599Y-78696231D02*
X72736837Y-78648612D01*
X72736837Y-78648612D02*
X72927313Y-78648612D01*
X72927313Y-78648612D02*
X73022551Y-78600993D01*
X73022551Y-78600993D02*
X73070170Y-78553374D01*
X73070170Y-78553374D02*
X73117789Y-78458136D01*
X73117789Y-78458136D02*
X73117789Y-78267660D01*
X73117789Y-78267660D02*
X73070170Y-78172422D01*
X73070170Y-78172422D02*
X73022551Y-78124803D01*
X73022551Y-78124803D02*
X72927313Y-78077183D01*
X72927313Y-78077183D02*
X72736837Y-78077183D01*
X72736837Y-78077183D02*
X72641599Y-78124803D01*
X72641599Y-78124803D02*
X72593980Y-78172422D01*
X72593980Y-78172422D02*
X72546361Y-78267660D01*
X72546361Y-78267660D02*
X72546361Y-78458136D01*
X72546361Y-78458136D02*
X72593980Y-78553374D01*
X72593980Y-78553374D02*
X72641599Y-78600993D01*
X72641599Y-78600993D02*
X72736837Y-78648612D01*
X78736837Y-65277183D02*
X78736837Y-64562898D01*
X78736837Y-64562898D02*
X78784456Y-64420041D01*
X78784456Y-64420041D02*
X78879694Y-64324803D01*
X78879694Y-64324803D02*
X79022551Y-64277183D01*
X79022551Y-64277183D02*
X79117789Y-64277183D01*
X77736837Y-64277183D02*
X78308265Y-64277183D01*
X78022551Y-64277183D02*
X78022551Y-65277183D01*
X78022551Y-65277183D02*
X78117789Y-65134326D01*
X78117789Y-65134326D02*
X78213027Y-65039088D01*
X78213027Y-65039088D02*
X78308265Y-64991469D01*
X72440476Y-129454819D02*
X72440476Y-128454819D01*
X72440476Y-128454819D02*
X72773809Y-129169104D01*
X72773809Y-129169104D02*
X73107142Y-128454819D01*
X73107142Y-128454819D02*
X73107142Y-129454819D01*
X73583333Y-129454819D02*
X73583333Y-128454819D01*
X74154761Y-129454819D02*
X73726190Y-128883390D01*
X74154761Y-128454819D02*
X73583333Y-129026247D01*
X74583333Y-129454819D02*
X74583333Y-128454819D01*
X74583333Y-128454819D02*
X74821428Y-128454819D01*
X74821428Y-128454819D02*
X74964285Y-128502438D01*
X74964285Y-128502438D02*
X75059523Y-128597676D01*
X75059523Y-128597676D02*
X75107142Y-128692914D01*
X75107142Y-128692914D02*
X75154761Y-128883390D01*
X75154761Y-128883390D02*
X75154761Y-129026247D01*
X75154761Y-129026247D02*
X75107142Y-129216723D01*
X75107142Y-129216723D02*
X75059523Y-129311961D01*
X75059523Y-129311961D02*
X74964285Y-129407200D01*
X74964285Y-129407200D02*
X74821428Y-129454819D01*
X74821428Y-129454819D02*
X74583333Y-129454819D01*
X75535714Y-129407200D02*
X75678571Y-129454819D01*
X75678571Y-129454819D02*
X75916666Y-129454819D01*
X75916666Y-129454819D02*
X76011904Y-129407200D01*
X76011904Y-129407200D02*
X76059523Y-129359580D01*
X76059523Y-129359580D02*
X76107142Y-129264342D01*
X76107142Y-129264342D02*
X76107142Y-129169104D01*
X76107142Y-129169104D02*
X76059523Y-129073866D01*
X76059523Y-129073866D02*
X76011904Y-129026247D01*
X76011904Y-129026247D02*
X75916666Y-128978628D01*
X75916666Y-128978628D02*
X75726190Y-128931009D01*
X75726190Y-128931009D02*
X75630952Y-128883390D01*
X75630952Y-128883390D02*
X75583333Y-128835771D01*
X75583333Y-128835771D02*
X75535714Y-128740533D01*
X75535714Y-128740533D02*
X75535714Y-128645295D01*
X75535714Y-128645295D02*
X75583333Y-128550057D01*
X75583333Y-128550057D02*
X75630952Y-128502438D01*
X75630952Y-128502438D02*
X75726190Y-128454819D01*
X75726190Y-128454819D02*
X75964285Y-128454819D01*
X75964285Y-128454819D02*
X76107142Y-128502438D01*
X77202381Y-128454819D02*
X77821428Y-128454819D01*
X77821428Y-128454819D02*
X77488095Y-128835771D01*
X77488095Y-128835771D02*
X77630952Y-128835771D01*
X77630952Y-128835771D02*
X77726190Y-128883390D01*
X77726190Y-128883390D02*
X77773809Y-128931009D01*
X77773809Y-128931009D02*
X77821428Y-129026247D01*
X77821428Y-129026247D02*
X77821428Y-129264342D01*
X77821428Y-129264342D02*
X77773809Y-129359580D01*
X77773809Y-129359580D02*
X77726190Y-129407200D01*
X77726190Y-129407200D02*
X77630952Y-129454819D01*
X77630952Y-129454819D02*
X77345238Y-129454819D01*
X77345238Y-129454819D02*
X77250000Y-129407200D01*
X77250000Y-129407200D02*
X77202381Y-129359580D01*
X78250000Y-129073866D02*
X79011905Y-129073866D01*
X79392857Y-128454819D02*
X80011904Y-128454819D01*
X80011904Y-128454819D02*
X79678571Y-128835771D01*
X79678571Y-128835771D02*
X79821428Y-128835771D01*
X79821428Y-128835771D02*
X79916666Y-128883390D01*
X79916666Y-128883390D02*
X79964285Y-128931009D01*
X79964285Y-128931009D02*
X80011904Y-129026247D01*
X80011904Y-129026247D02*
X80011904Y-129264342D01*
X80011904Y-129264342D02*
X79964285Y-129359580D01*
X79964285Y-129359580D02*
X79916666Y-129407200D01*
X79916666Y-129407200D02*
X79821428Y-129454819D01*
X79821428Y-129454819D02*
X79535714Y-129454819D01*
X79535714Y-129454819D02*
X79440476Y-129407200D01*
X79440476Y-129407200D02*
X79392857Y-129359580D01*
X81678571Y-128454819D02*
X81202381Y-128454819D01*
X81202381Y-128454819D02*
X81154762Y-128931009D01*
X81154762Y-128931009D02*
X81202381Y-128883390D01*
X81202381Y-128883390D02*
X81297619Y-128835771D01*
X81297619Y-128835771D02*
X81535714Y-128835771D01*
X81535714Y-128835771D02*
X81630952Y-128883390D01*
X81630952Y-128883390D02*
X81678571Y-128931009D01*
X81678571Y-128931009D02*
X81726190Y-129026247D01*
X81726190Y-129026247D02*
X81726190Y-129264342D01*
X81726190Y-129264342D02*
X81678571Y-129359580D01*
X81678571Y-129359580D02*
X81630952Y-129407200D01*
X81630952Y-129407200D02*
X81535714Y-129454819D01*
X81535714Y-129454819D02*
X81297619Y-129454819D01*
X81297619Y-129454819D02*
X81202381Y-129407200D01*
X81202381Y-129407200D02*
X81154762Y-129359580D01*
X82154762Y-129359580D02*
X82202381Y-129407200D01*
X82202381Y-129407200D02*
X82154762Y-129454819D01*
X82154762Y-129454819D02*
X82107143Y-129407200D01*
X82107143Y-129407200D02*
X82154762Y-129359580D01*
X82154762Y-129359580D02*
X82154762Y-129454819D01*
X82821428Y-128454819D02*
X82916666Y-128454819D01*
X82916666Y-128454819D02*
X83011904Y-128502438D01*
X83011904Y-128502438D02*
X83059523Y-128550057D01*
X83059523Y-128550057D02*
X83107142Y-128645295D01*
X83107142Y-128645295D02*
X83154761Y-128835771D01*
X83154761Y-128835771D02*
X83154761Y-129073866D01*
X83154761Y-129073866D02*
X83107142Y-129264342D01*
X83107142Y-129264342D02*
X83059523Y-129359580D01*
X83059523Y-129359580D02*
X83011904Y-129407200D01*
X83011904Y-129407200D02*
X82916666Y-129454819D01*
X82916666Y-129454819D02*
X82821428Y-129454819D01*
X82821428Y-129454819D02*
X82726190Y-129407200D01*
X82726190Y-129407200D02*
X82678571Y-129359580D01*
X82678571Y-129359580D02*
X82630952Y-129264342D01*
X82630952Y-129264342D02*
X82583333Y-129073866D01*
X82583333Y-129073866D02*
X82583333Y-128835771D01*
X82583333Y-128835771D02*
X82630952Y-128645295D01*
X82630952Y-128645295D02*
X82678571Y-128550057D01*
X82678571Y-128550057D02*
X82726190Y-128502438D01*
X82726190Y-128502438D02*
X82821428Y-128454819D01*
X83726190Y-128883390D02*
X83630952Y-128835771D01*
X83630952Y-128835771D02*
X83583333Y-128788152D01*
X83583333Y-128788152D02*
X83535714Y-128692914D01*
X83535714Y-128692914D02*
X83535714Y-128645295D01*
X83535714Y-128645295D02*
X83583333Y-128550057D01*
X83583333Y-128550057D02*
X83630952Y-128502438D01*
X83630952Y-128502438D02*
X83726190Y-128454819D01*
X83726190Y-128454819D02*
X83916666Y-128454819D01*
X83916666Y-128454819D02*
X84011904Y-128502438D01*
X84011904Y-128502438D02*
X84059523Y-128550057D01*
X84059523Y-128550057D02*
X84107142Y-128645295D01*
X84107142Y-128645295D02*
X84107142Y-128692914D01*
X84107142Y-128692914D02*
X84059523Y-128788152D01*
X84059523Y-128788152D02*
X84011904Y-128835771D01*
X84011904Y-128835771D02*
X83916666Y-128883390D01*
X83916666Y-128883390D02*
X83726190Y-128883390D01*
X83726190Y-128883390D02*
X83630952Y-128931009D01*
X83630952Y-128931009D02*
X83583333Y-128978628D01*
X83583333Y-128978628D02*
X83535714Y-129073866D01*
X83535714Y-129073866D02*
X83535714Y-129264342D01*
X83535714Y-129264342D02*
X83583333Y-129359580D01*
X83583333Y-129359580D02*
X83630952Y-129407200D01*
X83630952Y-129407200D02*
X83726190Y-129454819D01*
X83726190Y-129454819D02*
X83916666Y-129454819D01*
X83916666Y-129454819D02*
X84011904Y-129407200D01*
X84011904Y-129407200D02*
X84059523Y-129359580D01*
X84059523Y-129359580D02*
X84107142Y-129264342D01*
X84107142Y-129264342D02*
X84107142Y-129073866D01*
X84107142Y-129073866D02*
X84059523Y-128978628D01*
X84059523Y-128978628D02*
X84011904Y-128931009D01*
X84011904Y-128931009D02*
X83916666Y-128883390D01*
X77916666Y-130154819D02*
X77916666Y-130869104D01*
X77916666Y-130869104D02*
X77869047Y-131011961D01*
X77869047Y-131011961D02*
X77773809Y-131107200D01*
X77773809Y-131107200D02*
X77630952Y-131154819D01*
X77630952Y-131154819D02*
X77535714Y-131154819D01*
X78297619Y-130154819D02*
X78916666Y-130154819D01*
X78916666Y-130154819D02*
X78583333Y-130535771D01*
X78583333Y-130535771D02*
X78726190Y-130535771D01*
X78726190Y-130535771D02*
X78821428Y-130583390D01*
X78821428Y-130583390D02*
X78869047Y-130631009D01*
X78869047Y-130631009D02*
X78916666Y-130726247D01*
X78916666Y-130726247D02*
X78916666Y-130964342D01*
X78916666Y-130964342D02*
X78869047Y-131059580D01*
X78869047Y-131059580D02*
X78821428Y-131107200D01*
X78821428Y-131107200D02*
X78726190Y-131154819D01*
X78726190Y-131154819D02*
X78440476Y-131154819D01*
X78440476Y-131154819D02*
X78345238Y-131107200D01*
X78345238Y-131107200D02*
X78297619Y-131059580D01*
D11*
%TO.C,F1*%
X74885000Y-79095000D02*
X74885000Y-98905000D01*
X74885000Y-98905000D02*
X81615000Y-98905000D01*
X81615000Y-79095000D02*
X74885000Y-79095000D01*
X81615000Y-98905000D02*
X81615000Y-79095000D01*
%TD*%
M02*
